ISO-10303-21;
HEADER;
/* Generated by software containing ST-Developer
 * from STEP Tools, Inc. (www.steptools.com) 
 */

FILE_DESCRIPTION(
/* description */ ('STEP AP214'),
/* implementation_level */ '2;1');

FILE_NAME(
/* name */ 'bearing.step',
/* time_stamp */ '2026-06-30T17:34:29-04:00',
/* author */ (''),
/* organization */ (''),
/* preprocessor_version */ 'ST-DEVELOPER v20.1',
/* originating_system */ 'Autodesk Translation Framework v15.8.0.0',
/* authorisation */ '');

FILE_SCHEMA (('AUTOMOTIVE_DESIGN { 1 0 10303 214 3 1 1 }'));
ENDSEC;

DATA;
#10=MECHANICAL_DESIGN_GEOMETRIC_PRESENTATION_REPRESENTATION('',(#13),#305);
#11=SHAPE_REPRESENTATION_RELATIONSHIP('SRR','None',#312,#12);
#12=ADVANCED_BREP_SHAPE_REPRESENTATION('',(#14),#304);
#13=STYLED_ITEM('',(#321),#14);
#14=MANIFOLD_SOLID_BREP('bearing',#156);
#15=FACE_BOUND('',#40,.T.);
#16=FACE_BOUND('',#43,.T.);
#17=FACE_BOUND('',#46,.T.);
#18=PLANE('',#178);
#19=PLANE('',#183);
#20=PLANE('',#190);
#21=LINE('',#271,#23);
#22=LINE('',#301,#24);
#23=VECTOR('',#214,30.);
#24=VECTOR('',#257,11.);
#25=CYLINDRICAL_SURFACE('',#175,27.8);
#26=CYLINDRICAL_SURFACE('',#197,11.);
#27=FACE_OUTER_BOUND('',#37,.T.);
#28=FACE_OUTER_BOUND('',#38,.T.);
#29=FACE_OUTER_BOUND('',#39,.T.);
#30=FACE_OUTER_BOUND('',#41,.T.);
#31=FACE_OUTER_BOUND('',#42,.T.);
#32=FACE_OUTER_BOUND('',#44,.T.);
#33=FACE_OUTER_BOUND('',#45,.T.);
#34=FACE_OUTER_BOUND('',#47,.T.);
#35=FACE_OUTER_BOUND('',#48,.T.);
#36=FACE_OUTER_BOUND('',#49,.T.);
#37=EDGE_LOOP('',(#101,#102,#103,#104,#105));
#38=EDGE_LOOP('',(#106,#107,#108,#109,#110,#111));
#39=EDGE_LOOP('',(#112));
#40=EDGE_LOOP('',(#113));
#41=EDGE_LOOP('',(#114,#115,#116,#117,#118));
#42=EDGE_LOOP('',(#119));
#43=EDGE_LOOP('',(#120));
#44=EDGE_LOOP('',(#121,#122,#123,#124,#125));
#45=EDGE_LOOP('',(#126));
#46=EDGE_LOOP('',(#127));
#47=EDGE_LOOP('',(#128,#129,#130,#131));
#48=EDGE_LOOP('',(#132,#133,#134,#135,#136));
#49=EDGE_LOOP('',(#137,#138,#139,#140));
#50=CIRCLE('',#171,27.8);
#51=CIRCLE('',#172,0.5);
#52=CIRCLE('',#173,27.3);
#53=CIRCLE('',#174,27.8);
#54=CIRCLE('',#176,27.8);
#55=CIRCLE('',#177,27.8);
#56=CIRCLE('',#179,11.);
#57=CIRCLE('',#181,27.3);
#58=CIRCLE('',#182,0.5);
#59=CIRCLE('',#184,26.3541019662497);
#60=CIRCLE('',#186,19.6458980337503);
#61=CIRCLE('',#187,0.5);
#62=CIRCLE('',#188,20.1250554575003);
#63=CIRCLE('',#189,20.1250554575003);
#64=CIRCLE('',#191,11.);
#65=CIRCLE('',#193,0.5);
#66=CIRCLE('',#194,25.8749445424998);
#67=CIRCLE('',#196,3.);
#68=VERTEX_POINT('',#260);
#69=VERTEX_POINT('',#261);
#70=VERTEX_POINT('',#263);
#71=VERTEX_POINT('',#268);
#72=VERTEX_POINT('',#269);
#73=VERTEX_POINT('',#274);
#74=VERTEX_POINT('',#277);
#75=VERTEX_POINT('',#281);
#76=VERTEX_POINT('',#284);
#77=VERTEX_POINT('',#286);
#78=VERTEX_POINT('',#288);
#79=VERTEX_POINT('',#292);
#80=VERTEX_POINT('',#295);
#81=EDGE_CURVE('',#68,#69,#50,.T.);
#82=EDGE_CURVE('',#69,#70,#51,.T.);
#83=EDGE_CURVE('',#70,#70,#52,.T.);
#84=EDGE_CURVE('',#69,#68,#53,.T.);
#85=EDGE_CURVE('',#71,#72,#54,.T.);
#86=EDGE_CURVE('',#71,#68,#21,.T.);
#87=EDGE_CURVE('',#72,#71,#55,.T.);
#88=EDGE_CURVE('',#73,#73,#56,.T.);
#89=EDGE_CURVE('',#74,#74,#57,.T.);
#90=EDGE_CURVE('',#74,#72,#58,.T.);
#91=EDGE_CURVE('',#75,#75,#59,.T.);
#92=EDGE_CURVE('',#76,#76,#60,.T.);
#93=EDGE_CURVE('',#76,#77,#61,.T.);
#94=EDGE_CURVE('',#77,#78,#62,.T.);
#95=EDGE_CURVE('',#78,#77,#63,.T.);
#96=EDGE_CURVE('',#79,#79,#64,.T.);
#97=EDGE_CURVE('',#75,#80,#65,.T.);
#98=EDGE_CURVE('',#80,#80,#66,.T.);
#99=EDGE_CURVE('',#78,#80,#67,.T.);
#100=EDGE_CURVE('',#73,#79,#22,.T.);
#101=ORIENTED_EDGE('',*,*,#81,.T.);
#102=ORIENTED_EDGE('',*,*,#82,.T.);
#103=ORIENTED_EDGE('',*,*,#83,.T.);
#104=ORIENTED_EDGE('',*,*,#82,.F.);
#105=ORIENTED_EDGE('',*,*,#84,.T.);
#106=ORIENTED_EDGE('',*,*,#85,.F.);
#107=ORIENTED_EDGE('',*,*,#86,.T.);
#108=ORIENTED_EDGE('',*,*,#84,.F.);
#109=ORIENTED_EDGE('',*,*,#81,.F.);
#110=ORIENTED_EDGE('',*,*,#86,.F.);
#111=ORIENTED_EDGE('',*,*,#87,.F.);
#112=ORIENTED_EDGE('',*,*,#83,.F.);
#113=ORIENTED_EDGE('',*,*,#88,.F.);
#114=ORIENTED_EDGE('',*,*,#89,.T.);
#115=ORIENTED_EDGE('',*,*,#90,.T.);
#116=ORIENTED_EDGE('',*,*,#87,.T.);
#117=ORIENTED_EDGE('',*,*,#85,.T.);
#118=ORIENTED_EDGE('',*,*,#90,.F.);
#119=ORIENTED_EDGE('',*,*,#89,.F.);
#120=ORIENTED_EDGE('',*,*,#91,.F.);
#121=ORIENTED_EDGE('',*,*,#92,.T.);
#122=ORIENTED_EDGE('',*,*,#93,.T.);
#123=ORIENTED_EDGE('',*,*,#94,.T.);
#124=ORIENTED_EDGE('',*,*,#95,.T.);
#125=ORIENTED_EDGE('',*,*,#93,.F.);
#126=ORIENTED_EDGE('',*,*,#92,.F.);
#127=ORIENTED_EDGE('',*,*,#96,.F.);
#128=ORIENTED_EDGE('',*,*,#91,.T.);
#129=ORIENTED_EDGE('',*,*,#97,.T.);
#130=ORIENTED_EDGE('',*,*,#98,.T.);
#131=ORIENTED_EDGE('',*,*,#97,.F.);
#132=ORIENTED_EDGE('',*,*,#95,.F.);
#133=ORIENTED_EDGE('',*,*,#99,.T.);
#134=ORIENTED_EDGE('',*,*,#98,.F.);
#135=ORIENTED_EDGE('',*,*,#99,.F.);
#136=ORIENTED_EDGE('',*,*,#94,.F.);
#137=ORIENTED_EDGE('',*,*,#88,.T.);
#138=ORIENTED_EDGE('',*,*,#100,.T.);
#139=ORIENTED_EDGE('',*,*,#96,.T.);
#140=ORIENTED_EDGE('',*,*,#100,.F.);
#141=TOROIDAL_SURFACE('',#170,27.3,0.5);
#142=TOROIDAL_SURFACE('',#180,27.3,0.5);
#143=TOROIDAL_SURFACE('',#185,19.6458980337503,0.5);
#144=TOROIDAL_SURFACE('',#192,26.3541019662497,0.5);
#145=TOROIDAL_SURFACE('',#195,23.,3.);
#146=ADVANCED_FACE('',(#27),#141,.T.);
#147=ADVANCED_FACE('',(#28),#25,.T.);
#148=ADVANCED_FACE('',(#29,#15),#18,.F.);
#149=ADVANCED_FACE('',(#30),#142,.T.);
#150=ADVANCED_FACE('',(#31,#16),#19,.T.);
#151=ADVANCED_FACE('',(#32),#143,.T.);
#152=ADVANCED_FACE('',(#33,#17),#20,.T.);
#153=ADVANCED_FACE('',(#34),#144,.T.);
#154=ADVANCED_FACE('',(#35),#145,.F.);
#155=ADVANCED_FACE('',(#36),#26,.F.);
#156=CLOSED_SHELL('',(#146,#147,#148,#149,#150,#151,#152,#153,#154,#155));
#157=DERIVED_UNIT_ELEMENT(#159,1.);
#158=DERIVED_UNIT_ELEMENT(#307,-3.);
#159=(
MASS_UNIT()
NAMED_UNIT(*)
SI_UNIT(.KILO.,.GRAM.)
);
#160=DERIVED_UNIT((#157,#158));
#161=MEASURE_REPRESENTATION_ITEM('density measure',
POSITIVE_RATIO_MEASURE(7850.),#160);
#162=PROPERTY_DEFINITION_REPRESENTATION(#167,#164);
#163=PROPERTY_DEFINITION_REPRESENTATION(#168,#165);
#164=REPRESENTATION('material name',(#166),#304);
#165=REPRESENTATION('density',(#161),#304);
#166=DESCRIPTIVE_REPRESENTATION_ITEM('Steel','Steel');
#167=PROPERTY_DEFINITION('material property','material name',#314);
#168=PROPERTY_DEFINITION('material property','density of part',#314);
#169=AXIS2_PLACEMENT_3D('',#258,#198,#199);
#170=AXIS2_PLACEMENT_3D('',#259,#200,#201);
#171=AXIS2_PLACEMENT_3D('',#262,#202,#203);
#172=AXIS2_PLACEMENT_3D('',#264,#204,#205);
#173=AXIS2_PLACEMENT_3D('',#265,#206,#207);
#174=AXIS2_PLACEMENT_3D('',#266,#208,#209);
#175=AXIS2_PLACEMENT_3D('',#267,#210,#211);
#176=AXIS2_PLACEMENT_3D('',#270,#212,#213);
#177=AXIS2_PLACEMENT_3D('',#272,#215,#216);
#178=AXIS2_PLACEMENT_3D('',#273,#217,#218);
#179=AXIS2_PLACEMENT_3D('',#275,#219,#220);
#180=AXIS2_PLACEMENT_3D('',#276,#221,#222);
#181=AXIS2_PLACEMENT_3D('',#278,#223,#224);
#182=AXIS2_PLACEMENT_3D('',#279,#225,#226);
#183=AXIS2_PLACEMENT_3D('',#280,#227,#228);
#184=AXIS2_PLACEMENT_3D('',#282,#229,#230);
#185=AXIS2_PLACEMENT_3D('',#283,#231,#232);
#186=AXIS2_PLACEMENT_3D('',#285,#233,#234);
#187=AXIS2_PLACEMENT_3D('',#287,#235,#236);
#188=AXIS2_PLACEMENT_3D('',#289,#237,#238);
#189=AXIS2_PLACEMENT_3D('',#290,#239,#240);
#190=AXIS2_PLACEMENT_3D('',#291,#241,#242);
#191=AXIS2_PLACEMENT_3D('',#293,#243,#244);
#192=AXIS2_PLACEMENT_3D('',#294,#245,#246);
#193=AXIS2_PLACEMENT_3D('',#296,#247,#248);
#194=AXIS2_PLACEMENT_3D('',#297,#249,#250);
#195=AXIS2_PLACEMENT_3D('',#298,#251,#252);
#196=AXIS2_PLACEMENT_3D('',#299,#253,#254);
#197=AXIS2_PLACEMENT_3D('',#300,#255,#256);
#198=DIRECTION('axis',(0.,0.,1.));
#199=DIRECTION('refdir',(1.,0.,0.));
#200=DIRECTION('center_axis',(0.,1.,0.));
#201=DIRECTION('ref_axis',(0.,0.,1.));
#202=DIRECTION('center_axis',(0.,-1.,0.));
#203=DIRECTION('ref_axis',(-1.,0.,0.));
#204=DIRECTION('center_axis',(-1.,0.,1.59744320089951E-16));
#205=DIRECTION('ref_axis',(-1.59744320089951E-16,0.,-1.));
#206=DIRECTION('center_axis',(0.,1.,0.));
#207=DIRECTION('ref_axis',(-1.,0.,0.));
#208=DIRECTION('center_axis',(0.,-1.,0.));
#209=DIRECTION('ref_axis',(-1.,0.,0.));
#210=DIRECTION('center_axis',(0.,1.,0.));
#211=DIRECTION('ref_axis',(-1.,0.,0.));
#212=DIRECTION('center_axis',(0.,1.,0.));
#213=DIRECTION('ref_axis',(-1.,0.,0.));
#214=DIRECTION('',(0.,-1.,0.));
#215=DIRECTION('center_axis',(0.,1.,0.));
#216=DIRECTION('ref_axis',(-1.,0.,0.));
#217=DIRECTION('center_axis',(0.,1.,0.));
#218=DIRECTION('ref_axis',(-1.,0.,0.));
#219=DIRECTION('center_axis',(0.,-1.,0.));
#220=DIRECTION('ref_axis',(9.9524038659433E-48,-2.24108211710515E-32,-1.));
#221=DIRECTION('center_axis',(0.,1.,0.));
#222=DIRECTION('ref_axis',(0.,0.,1.));
#223=DIRECTION('center_axis',(0.,-1.,0.));
#224=DIRECTION('ref_axis',(-1.,0.,0.));
#225=DIRECTION('center_axis',(-1.,0.,1.59744320089951E-16));
#226=DIRECTION('ref_axis',(-1.59744320089951E-16,0.,-1.));
#227=DIRECTION('center_axis',(0.,1.,0.));
#228=DIRECTION('ref_axis',(-1.,0.,0.));
#229=DIRECTION('center_axis',(0.,1.,0.));
#230=DIRECTION('ref_axis',(0.,0.,-1.));
#231=DIRECTION('center_axis',(0.,1.,0.));
#232=DIRECTION('ref_axis',(0.,0.,1.));
#233=DIRECTION('center_axis',(0.,-1.,0.));
#234=DIRECTION('ref_axis',(0.,0.,-1.));
#235=DIRECTION('center_axis',(-1.,0.,2.2043654202264E-16));
#236=DIRECTION('ref_axis',(-2.2043654202264E-16,0.,-1.));
#237=DIRECTION('center_axis',(0.,1.,0.));
#238=DIRECTION('ref_axis',(0.,0.,-1.));
#239=DIRECTION('center_axis',(0.,1.,0.));
#240=DIRECTION('ref_axis',(0.,0.,-1.));
#241=DIRECTION('center_axis',(0.,1.,0.));
#242=DIRECTION('ref_axis',(-1.,0.,0.));
#243=DIRECTION('center_axis',(0.,1.,0.));
#244=DIRECTION('ref_axis',(9.9524038659433E-48,-2.24108211710515E-32,-1.));
#245=DIRECTION('center_axis',(0.,-1.,0.));
#246=DIRECTION('ref_axis',(0.,0.,-1.));
#247=DIRECTION('center_axis',(-1.,0.,-1.65371089455233E-16));
#248=DIRECTION('ref_axis',(-1.65371089455233E-16,0.,1.));
#249=DIRECTION('center_axis',(0.,-1.,0.));
#250=DIRECTION('ref_axis',(0.,0.,-1.));
#251=DIRECTION('center_axis',(0.,-1.,0.));
#252=DIRECTION('ref_axis',(0.,0.,-1.));
#253=DIRECTION('center_axis',(-1.,0.,-1.70803542250024E-16));
#254=DIRECTION('ref_axis',(-1.70803542250024E-16,0.,1.));
#255=DIRECTION('center_axis',(-2.22044604925031E-16,1.,-2.46519032881566E-32));
#256=DIRECTION('ref_axis',(9.9524038659433E-48,-2.24108211710515E-32,-1.));
#257=DIRECTION('',(-2.22044604925031E-16,1.,-2.46519032881566E-32));
#258=CARTESIAN_POINT('',(0.,0.,0.));
#259=CARTESIAN_POINT('Origin',(-28.4999992189461,602.123792668446,-80.0802638441916));
#260=CARTESIAN_POINT('',(-0.699999218946106,602.123792668446,-80.0802638441916));
#261=CARTESIAN_POINT('',(-28.4999992189461,602.123792668446,-107.880263844192));
#262=CARTESIAN_POINT('Origin',(-28.4999992189461,602.123792668446,-80.0802638441916));
#263=CARTESIAN_POINT('',(-28.4999992189461,601.623792668446,-107.380263844192));
#264=CARTESIAN_POINT('Origin',(-28.4999992189461,602.123792668446,-107.380263844192));
#265=CARTESIAN_POINT('Origin',(-28.4999992189461,601.623792668446,-80.0802638441916));
#266=CARTESIAN_POINT('Origin',(-28.4999992189461,602.123792668446,-80.0802638441916));
#267=CARTESIAN_POINT('Origin',(-28.4999992189461,601.623792668446,-80.0802638441916));
#268=CARTESIAN_POINT('',(-0.699999218946106,607.623792668446,-80.0802638441916));
#269=CARTESIAN_POINT('',(-28.4999992189461,607.623792668446,-107.880263844192));
#270=CARTESIAN_POINT('Origin',(-28.4999992189461,607.623792668446,-80.0802638441916));
#271=CARTESIAN_POINT('',(-0.699999218946106,601.623792668446,-80.0802638441916));
#272=CARTESIAN_POINT('Origin',(-28.4999992189461,607.623792668446,-80.0802638441916));
#273=CARTESIAN_POINT('Origin',(-28.4999992189461,601.623792668446,-80.0802638441916));
#274=CARTESIAN_POINT('',(-28.4999992189461,601.623792668446,-69.0802638441916));
#275=CARTESIAN_POINT('Origin',(-28.4999992189461,601.623792668446,-80.0802638441916));
#276=CARTESIAN_POINT('Origin',(-28.4999992189461,607.623792668446,-80.0802638441916));
#277=CARTESIAN_POINT('',(-28.4999992189461,608.123792668446,-107.380263844192));
#278=CARTESIAN_POINT('Origin',(-28.4999992189461,608.123792668446,-80.0802638441916));
#279=CARTESIAN_POINT('Origin',(-28.4999992189461,607.623792668446,-107.380263844192));
#280=CARTESIAN_POINT('Origin',(-28.4999992189461,608.123792668446,-80.0802638441916));
#281=CARTESIAN_POINT('',(-28.4999992189461,608.123792668446,-53.7261618779419));
#282=CARTESIAN_POINT('Origin',(-28.4999992189461,608.123792668446,-80.0802638441916));
#283=CARTESIAN_POINT('Origin',(-28.4999992189461,607.623792668446,-80.0802638441916));
#284=CARTESIAN_POINT('',(-28.4999992189461,608.123792668446,-99.7261618779419));
#285=CARTESIAN_POINT('Origin',(-28.4999992189461,608.123792668446,-80.0802638441916));
#286=CARTESIAN_POINT('',(-28.4999992189461,607.766649811303,-100.205319301692));
#287=CARTESIAN_POINT('Origin',(-28.4999992189461,607.623792668446,-99.7261618779419));
#288=CARTESIAN_POINT('',(-28.4999992189461,607.766649811303,-59.9552083866914));
#289=CARTESIAN_POINT('Origin',(-28.4999992189461,607.766649811303,-80.0802638441916));
#290=CARTESIAN_POINT('Origin',(-28.4999992189461,607.766649811303,-80.0802638441916));
#291=CARTESIAN_POINT('Origin',(-28.4999992189461,608.123792668446,-80.0802638441916));
#292=CARTESIAN_POINT('',(-28.4999992189461,608.123792668446,-69.0802638441916));
#293=CARTESIAN_POINT('Origin',(-28.4999992189461,608.123792668446,-80.0802638441916));
#294=CARTESIAN_POINT('Origin',(-28.4999992189461,607.623792668446,-80.0802638441916));
#295=CARTESIAN_POINT('',(-28.4999992189461,607.766649811303,-54.2053193016918));
#296=CARTESIAN_POINT('Origin',(-28.4999992189461,607.623792668446,-53.7261618779419));
#297=CARTESIAN_POINT('Origin',(-28.4999992189461,607.766649811303,-80.0802638441916));
#298=CARTESIAN_POINT('Origin',(-28.4999992189461,608.623792668446,-80.0802638441916));
#299=CARTESIAN_POINT('Origin',(-28.4999992189461,608.623792668446,-57.0802638441916));
#300=CARTESIAN_POINT('Origin',(-28.4999992189461,601.623792668446,-80.0802638441916));
#301=CARTESIAN_POINT('',(-28.4999992189461,601.623792668446,-69.0802638441916));
#302=UNCERTAINTY_MEASURE_WITH_UNIT(LENGTH_MEASURE(0.01),#306,
'DISTANCE_ACCURACY_VALUE',
'Maximum model space distance between geometric entities at asserted c
onnectivities');
#303=UNCERTAINTY_MEASURE_WITH_UNIT(LENGTH_MEASURE(0.01),#306,
'DISTANCE_ACCURACY_VALUE',
'Maximum model space distance between geometric entities at asserted c
onnectivities');
#304=(
GEOMETRIC_REPRESENTATION_CONTEXT(3)
GLOBAL_UNCERTAINTY_ASSIGNED_CONTEXT((#302))
GLOBAL_UNIT_ASSIGNED_CONTEXT((#306,#308,#309))
REPRESENTATION_CONTEXT('','3D')
);
#305=(
GEOMETRIC_REPRESENTATION_CONTEXT(3)
GLOBAL_UNCERTAINTY_ASSIGNED_CONTEXT((#303))
GLOBAL_UNIT_ASSIGNED_CONTEXT((#306,#308,#309))
REPRESENTATION_CONTEXT('','3D')
);
#306=(
LENGTH_UNIT()
NAMED_UNIT(*)
SI_UNIT(.MILLI.,.METRE.)
);
#307=(
LENGTH_UNIT()
NAMED_UNIT(*)
SI_UNIT($,.METRE.)
);
#308=(
NAMED_UNIT(*)
PLANE_ANGLE_UNIT()
SI_UNIT($,.RADIAN.)
);
#309=(
NAMED_UNIT(*)
SI_UNIT($,.STERADIAN.)
SOLID_ANGLE_UNIT()
);
#310=SHAPE_DEFINITION_REPRESENTATION(#311,#312);
#311=PRODUCT_DEFINITION_SHAPE('',$,#314);
#312=SHAPE_REPRESENTATION('',(#169),#304);
#313=PRODUCT_DEFINITION_CONTEXT('part definition',#318,'design');
#314=PRODUCT_DEFINITION('1M2A','moveo v55',#315,#313);
#315=PRODUCT_DEFINITION_FORMATION('',$,#320);
#316=PRODUCT_RELATED_PRODUCT_CATEGORY('moveo v55','moveo v55',(#320));
#317=APPLICATION_PROTOCOL_DEFINITION('international standard',
'automotive_design',2009,#318);
#318=APPLICATION_CONTEXT(
'Core Data for Automotive Mechanical Design Process');
#319=PRODUCT_CONTEXT('part definition',#318,'mechanical');
#320=PRODUCT('1M2A','moveo v55','STEP AP214',(#319));
#321=PRESENTATION_STYLE_ASSIGNMENT((#323));
#322=PRESENTATION_STYLE_ASSIGNMENT((#324));
#323=SURFACE_STYLE_USAGE(.BOTH.,#325);
#324=SURFACE_STYLE_USAGE(.BOTH.,#326);
#325=SURFACE_SIDE_STYLE('',(#327));
#326=SURFACE_SIDE_STYLE('',(#328));
#327=SURFACE_STYLE_FILL_AREA(#329);
#328=SURFACE_STYLE_FILL_AREA(#330);
#329=FILL_AREA_STYLE('Steel - Satin',(#331));
#330=FILL_AREA_STYLE('Opaque(202,209,238)',(#332));
#331=FILL_AREA_STYLE_COLOUR('Steel - Satin',#333);
#332=FILL_AREA_STYLE_COLOUR('Opaque(202,209,238)',#334);
#333=COLOUR_RGB('Steel - Satin',0.627450980392157,0.627450980392157,0.627450980392157);
#334=COLOUR_RGB('Opaque(202,209,238)',0.792156862745098,0.819607843137255,
0.933333333333333);
ENDSEC;
END-ISO-10303-21;
