ISO-10303-21;
HEADER;
/* Generated by software containing ST-Developer
 * from STEP Tools, Inc. (www.steptools.com) 
 */

FILE_DESCRIPTION(
/* description */ ('STEP AP214'),
/* implementation_level */ '2;1');

FILE_NAME(
/* name */ 'pin.step',
/* time_stamp */ '2026-07-01T21:50:54-04:00',
/* author */ (''),
/* organization */ (''),
/* preprocessor_version */ 'ST-DEVELOPER v20.1',
/* originating_system */ 'Autodesk Translation Framework v15.8.0.0',
/* authorisation */ '');

FILE_SCHEMA (('AUTOMOTIVE_DESIGN { 1 0 10303 214 3 1 1 }'));
ENDSEC;

DATA;
#10=MECHANICAL_DESIGN_GEOMETRIC_PRESENTATION_REPRESENTATION('',(#13),#854);
#11=SHAPE_REPRESENTATION_RELATIONSHIP('SRR','None',#861,#12);
#12=ADVANCED_BREP_SHAPE_REPRESENTATION('',(#14),#853);
#13=STYLED_ITEM('',(#870),#14);
#14=MANIFOLD_SOLID_BREP('pin',#245);
#15=FACE_BOUND('',#58,.T.);
#16=PLANE('',#277);
#17=PLANE('',#282);
#18=(
BOUNDED_SURFACE()
B_SPLINE_SURFACE(2,2,((#793,#794,#795,#796,#797,#798,#799,#800,#801),(#802,
#803,#804,#805,#806,#807,#808,#809,#810),(#811,#812,#813,#814,#815,#816,
#817,#818,#819)),.UNSPECIFIED.,.F.,.T.,.F.)
B_SPLINE_SURFACE_WITH_KNOTS((3,3),(3,2,2,2,3),(0.,1.5707963267949),(-3.14159265358979,
-1.5707963267949,0.,1.5707963267949,3.14159265358979),.UNSPECIFIED.)
GEOMETRIC_REPRESENTATION_ITEM()
RATIONAL_B_SPLINE_SURFACE(((1.,0.707106781186548,1.,0.707106781186548,1.,
0.707106781186548,1.,0.707106781186548,1.),(0.707106781186539,0.499999999999994,
0.707106781186539,0.499999999999994,0.707106781186539,0.499999999999994,
0.707106781186539,0.499999999999994,0.707106781186539),(1.,0.707106781186548,
1.,0.707106781186548,1.,0.707106781186548,1.,0.707106781186548,1.)))
REPRESENTATION_ITEM('')
SURFACE()
);
#19=LINE('',#787,#21);
#20=LINE('',#792,#22);
#21=VECTOR('',#313,10.);
#22=VECTOR('',#318,10.);
#23=CYLINDRICAL_SURFACE('',#272,2.6);
#24=CYLINDRICAL_SURFACE('',#281,7.);
#25=TOROIDAL_SURFACE('',#265,5.5,1.5);
#26=TOROIDAL_SURFACE('',#270,1.65,0.95);
#27=TOROIDAL_SURFACE('',#278,6.5,0.5);
#28=FACE_OUTER_BOUND('',#43,.T.);
#29=FACE_OUTER_BOUND('',#44,.T.);
#30=FACE_OUTER_BOUND('',#45,.T.);
#31=FACE_OUTER_BOUND('',#46,.T.);
#32=FACE_OUTER_BOUND('',#47,.T.);
#33=FACE_OUTER_BOUND('',#48,.T.);
#34=FACE_OUTER_BOUND('',#49,.T.);
#35=FACE_OUTER_BOUND('',#50,.T.);
#36=FACE_OUTER_BOUND('',#51,.T.);
#37=FACE_OUTER_BOUND('',#52,.T.);
#38=FACE_OUTER_BOUND('',#53,.T.);
#39=FACE_OUTER_BOUND('',#54,.T.);
#40=FACE_OUTER_BOUND('',#55,.T.);
#41=FACE_OUTER_BOUND('',#56,.T.);
#42=FACE_OUTER_BOUND('',#57,.T.);
#43=EDGE_LOOP('',(#151,#152,#153,#154));
#44=EDGE_LOOP('',(#155,#156,#157,#158));
#45=EDGE_LOOP('',(#159,#160,#161,#162));
#46=EDGE_LOOP('',(#163,#164,#165,#166));
#47=EDGE_LOOP('',(#167,#168,#169,#170));
#48=EDGE_LOOP('',(#171,#172,#173,#174));
#49=EDGE_LOOP('',(#175,#176,#177,#178));
#50=EDGE_LOOP('',(#179,#180,#181,#182,#183,#184,#185,#186));
#51=EDGE_LOOP('',(#187,#188));
#52=EDGE_LOOP('',(#189,#190,#191,#192,#193,#194,#195,#196,#197,#198,#199));
#53=EDGE_LOOP('',(#200,#201,#202,#203,#204,#205));
#54=EDGE_LOOP('',(#206));
#55=EDGE_LOOP('',(#207,#208,#209,#210));
#56=EDGE_LOOP('',(#211,#212,#213,#214,#215));
#57=EDGE_LOOP('',(#216,#217,#218,#219,#220,#221));
#58=EDGE_LOOP('',(#222));
#59=B_SPLINE_CURVE_WITH_KNOTS('',3,(#375,#376,#377,#378,#379,#380,#381),
 .UNSPECIFIED.,.F.,.F.,(4,1,1,1,4),(-4.45424765210168,-4.20398291436293,
-4.03713975587044,-3.95371817662419,-3.87029659737794),.UNSPECIFIED.);
#60=B_SPLINE_CURVE_WITH_KNOTS('',3,(#383,#384,#385,#386,#387,#388,#389,
#390,#391,#392),.UNSPECIFIED.,.F.,.F.,(4,2,2,2,4),(-0.00201642506472027,
0.,0.0503987053386371,0.088656013545227,0.163250399270537),
 .UNSPECIFIED.);
#61=B_SPLINE_CURVE_WITH_KNOTS('',3,(#393,#394,#395,#396,#397),
 .UNSPECIFIED.,.F.,.F.,(4,1,4),(4.10230666831479,4.20398291436293,4.45424765210168),
 .UNSPECIFIED.);
#62=B_SPLINE_CURVE_WITH_KNOTS('',3,(#421,#422,#423,#424),.UNSPECIFIED.,
 .F.,.F.,(4,4),(-0.10257132156505,-7.75954060388728E-15),.UNSPECIFIED.);
#63=B_SPLINE_CURVE_WITH_KNOTS('',3,(#425,#426,#427,#428),.UNSPECIFIED.,
 .F.,.F.,(4,4),(7.75954060388728E-15,0.10257132156505),.UNSPECIFIED.);
#64=B_SPLINE_CURVE_WITH_KNOTS('',3,(#456,#457,#458,#459,#460,#461),
 .UNSPECIFIED.,.F.,.F.,(4,1,1,4),(-0.507384628520221,-0.289934073440238,
-0.144967036720249,-2.59542571662411E-13),.UNSPECIFIED.);
#65=B_SPLINE_CURVE_WITH_KNOTS('',3,(#462,#463,#464,#465,#466,#467),
 .UNSPECIFIED.,.F.,.F.,(4,1,1,4),(2.59542571662411E-13,0.144967036720249,
0.289934073440238,0.507384628520221),.UNSPECIFIED.);
#66=B_SPLINE_CURVE_WITH_KNOTS('',3,(#537,#538,#539,#540,#541,#542,#543,
#544,#545,#546,#547,#548,#549,#550,#551,#552,#553),.UNSPECIFIED.,.F.,.F.,
(4,1,1,1,1,1,1,1,1,1,1,1,1,1,4),(-1.2975334933627,-1.11217156573946,-0.926809638116214,
-0.834128674304592,-0.741447710492971,-0.69510722858716,-0.64876674668135,
-0.602426264775539,-0.556085782869728,-0.509745300963918,-0.463404819058107,
-0.417064337152296,-0.370723855246486,-0.185361927623243,0.),
 .UNSPECIFIED.);
#67=B_SPLINE_CURVE_WITH_KNOTS('',3,(#556,#557,#558,#559,#560,#561,#562,
#563,#564,#565,#566,#567,#568,#569,#570,#571,#572),.UNSPECIFIED.,.F.,.F.,
(4,1,1,1,1,1,1,1,1,1,1,1,1,1,4),(0.,0.185361927623243,0.370723855246486,
0.417064337152296,0.463404819058107,0.509745300963918,0.556085782869728,
0.602426264775539,0.64876674668135,0.69510722858716,0.741447710492971,0.834128674304592,
0.926809638116214,1.11217156573946,1.2975334933627),.UNSPECIFIED.);
#68=B_SPLINE_CURVE_WITH_KNOTS('',3,(#600,#601,#602,#603,#604,#605),
 .UNSPECIFIED.,.F.,.F.,(4,1,1,4),(-0.520572856588141,-0.371837754705815,
-0.223102652823489,0.),.UNSPECIFIED.);
#69=B_SPLINE_CURVE_WITH_KNOTS('',3,(#606,#607,#608,#609,#610,#611),
 .UNSPECIFIED.,.F.,.F.,(4,1,1,4),(0.,0.223102652823489,0.371837754705815,
0.520572856588141),.UNSPECIFIED.);
#70=B_SPLINE_CURVE_WITH_KNOTS('',3,(#635,#636,#637,#638),.UNSPECIFIED.,
 .F.,.F.,(4,4),(-0.102508604538442,0.),.UNSPECIFIED.);
#71=B_SPLINE_CURVE_WITH_KNOTS('',3,(#639,#640,#641,#642),.UNSPECIFIED.,
 .F.,.F.,(4,4),(0.,0.102508604538442),.UNSPECIFIED.);
#72=B_SPLINE_CURVE_WITH_KNOTS('',3,(#685,#686,#687,#688,#689,#690,#691,
#692,#693,#694,#695,#696),.UNSPECIFIED.,.F.,.F.,(4,2,2,2,2,4),(0.,0.0383425197114171,
0.140311264828447,0.183817460325768,0.243710981482372,0.246480643886183),
 .UNSPECIFIED.);
#73=B_SPLINE_CURVE_WITH_KNOTS('',3,(#697,#698,#699,#700,#701,#702,#703,
#704,#705,#706,#707,#708,#709,#710,#711,#712,#713,#714,#715,#716,#717,#718,
#719,#720,#721,#722,#723,#724,#725,#726,#727,#728,#729,#730,#731,#732,#733,
#734,#735,#736,#737,#738,#739,#740,#741,#742,#743,#744,#745,#746,#747,#748,
#749,#750,#751,#752,#753,#754,#755,#756,#757,#758,#759,#760,#761,#762,#763,
#764,#765,#766,#767,#768,#769),.UNSPECIFIED.,.F.,.F.,(4,3,3,3,3,3,3,3,3,
3,3,3,3,3,3,3,3,3,3,3,3,3,3,3,4),(-5.08567391701396,-5.07828681031498,-5.06049341233328,
-5.04289928077672,-5.02548489122895,-5.02302874939089,-5.01303376529245,
-5.00199431975877,-4.98468776676353,-4.9675312579324,-4.94928901600684,
-4.93276810777784,-4.91190035665594,-4.88816203388537,-4.86071627244445,
-4.83546413831988,-4.801097932327,-4.79689039447828,-4.74637955654293,-4.69673528451583,
-4.66862044255423,-4.64609176763647,-4.59270235224314,-4.54072051091278,
-4.50090771530136),.UNSPECIFIED.);
#74=B_SPLINE_CURVE_WITH_KNOTS('',3,(#770,#771,#772,#773,#774,#775),
 .UNSPECIFIED.,.F.,.F.,(4,1,1,4),(4.50090771530139,4.6679837733853,4.83505983146922,
4.8529650507664),.UNSPECIFIED.);
#75=B_SPLINE_CURVE_WITH_KNOTS('',3,(#823,#824,#825,#826,#827,#828,#829,
#830,#831,#832,#833,#834,#835,#836,#837,#838,#839,#840,#841,#842,#843,#844),
 .UNSPECIFIED.,.F.,.F.,(4,2,2,2,2,2,2,2,2,2,4),(0.243143490555383,0.284762237774766,
0.32866604093323,0.3795523058699,0.412342731260386,0.486286981110767,0.560231230961147,
0.593021656351634,0.643907921288305,0.687811724446768,0.72943047166615),
 .UNSPECIFIED.);
#76=CIRCLE('',#259,2.99999999999997);
#77=CIRCLE('',#260,2.99999999999999);
#78=CIRCLE('',#261,3.00000000000008);
#79=CIRCLE('',#262,2.99999999999995);
#80=CIRCLE('',#263,3.00000000000001);
#81=CIRCLE('',#264,3.00000000000003);
#82=CIRCLE('',#266,7.);
#83=CIRCLE('',#267,1.5);
#84=CIRCLE('',#268,5.5);
#85=CIRCLE('',#269,7.);
#86=CIRCLE('',#271,2.6);
#87=CIRCLE('',#273,2.6);
#88=CIRCLE('',#274,2.6);
#89=CIRCLE('',#275,0.1);
#90=CIRCLE('',#276,2.5);
#91=CIRCLE('',#279,6.5);
#92=CIRCLE('',#280,7.);
#93=VERTEX_POINT('',#371);
#94=VERTEX_POINT('',#372);
#95=VERTEX_POINT('',#374);
#96=VERTEX_POINT('',#382);
#97=VERTEX_POINT('',#418);
#98=VERTEX_POINT('',#419);
#99=VERTEX_POINT('',#453);
#100=VERTEX_POINT('',#454);
#101=VERTEX_POINT('',#536);
#102=VERTEX_POINT('',#554);
#103=VERTEX_POINT('',#597);
#104=VERTEX_POINT('',#598);
#105=VERTEX_POINT('',#632);
#106=VERTEX_POINT('',#633);
#107=VERTEX_POINT('',#683);
#108=VERTEX_POINT('',#684);
#109=VERTEX_POINT('',#777);
#110=VERTEX_POINT('',#779);
#111=VERTEX_POINT('',#786);
#112=VERTEX_POINT('',#788);
#113=VERTEX_POINT('',#790);
#114=VERTEX_POINT('',#820);
#115=EDGE_CURVE('',#93,#94,#76,.T.);
#116=EDGE_CURVE('',#94,#95,#59,.T.);
#117=EDGE_CURVE('',#95,#96,#60,.T.);
#118=EDGE_CURVE('',#96,#93,#61,.T.);
#119=EDGE_CURVE('',#97,#98,#77,.T.);
#120=EDGE_CURVE('',#98,#94,#62,.T.);
#121=EDGE_CURVE('',#93,#97,#63,.T.);
#122=EDGE_CURVE('',#99,#100,#78,.T.);
#123=EDGE_CURVE('',#100,#98,#64,.T.);
#124=EDGE_CURVE('',#97,#99,#65,.T.);
#125=EDGE_CURVE('',#99,#101,#66,.T.);
#126=EDGE_CURVE('',#101,#102,#79,.T.);
#127=EDGE_CURVE('',#102,#100,#67,.T.);
#128=EDGE_CURVE('',#103,#104,#80,.T.);
#129=EDGE_CURVE('',#104,#102,#68,.T.);
#130=EDGE_CURVE('',#101,#103,#69,.T.);
#131=EDGE_CURVE('',#105,#106,#81,.T.);
#132=EDGE_CURVE('',#106,#104,#70,.T.);
#133=EDGE_CURVE('',#103,#105,#71,.T.);
#134=EDGE_CURVE('',#107,#108,#72,.T.);
#135=EDGE_CURVE('',#108,#106,#73,.T.);
#136=EDGE_CURVE('',#105,#107,#74,.T.);
#137=EDGE_CURVE('',#104,#109,#82,.T.);
#138=EDGE_CURVE('',#109,#110,#83,.T.);
#139=EDGE_CURVE('',#110,#110,#84,.T.);
#140=EDGE_CURVE('',#109,#98,#85,.T.);
#141=EDGE_CURVE('',#99,#101,#86,.T.);
#142=EDGE_CURVE('',#96,#111,#19,.F.);
#143=EDGE_CURVE('',#112,#111,#87,.T.);
#144=EDGE_CURVE('',#113,#112,#88,.T.);
#145=EDGE_CURVE('',#113,#107,#20,.F.);
#146=EDGE_CURVE('',#114,#114,#89,.T.);
#147=EDGE_CURVE('',#114,#112,#90,.T.);
#148=EDGE_CURVE('',#111,#113,#75,.T.);
#149=EDGE_CURVE('',#108,#95,#91,.T.);
#150=EDGE_CURVE('',#94,#106,#92,.T.);
#151=ORIENTED_EDGE('',*,*,#115,.T.);
#152=ORIENTED_EDGE('',*,*,#116,.T.);
#153=ORIENTED_EDGE('',*,*,#117,.T.);
#154=ORIENTED_EDGE('',*,*,#118,.T.);
#155=ORIENTED_EDGE('',*,*,#119,.T.);
#156=ORIENTED_EDGE('',*,*,#120,.T.);
#157=ORIENTED_EDGE('',*,*,#115,.F.);
#158=ORIENTED_EDGE('',*,*,#121,.T.);
#159=ORIENTED_EDGE('',*,*,#122,.T.);
#160=ORIENTED_EDGE('',*,*,#123,.T.);
#161=ORIENTED_EDGE('',*,*,#119,.F.);
#162=ORIENTED_EDGE('',*,*,#124,.T.);
#163=ORIENTED_EDGE('',*,*,#122,.F.);
#164=ORIENTED_EDGE('',*,*,#125,.T.);
#165=ORIENTED_EDGE('',*,*,#126,.T.);
#166=ORIENTED_EDGE('',*,*,#127,.T.);
#167=ORIENTED_EDGE('',*,*,#128,.T.);
#168=ORIENTED_EDGE('',*,*,#129,.T.);
#169=ORIENTED_EDGE('',*,*,#126,.F.);
#170=ORIENTED_EDGE('',*,*,#130,.T.);
#171=ORIENTED_EDGE('',*,*,#131,.T.);
#172=ORIENTED_EDGE('',*,*,#132,.T.);
#173=ORIENTED_EDGE('',*,*,#128,.F.);
#174=ORIENTED_EDGE('',*,*,#133,.T.);
#175=ORIENTED_EDGE('',*,*,#134,.T.);
#176=ORIENTED_EDGE('',*,*,#135,.T.);
#177=ORIENTED_EDGE('',*,*,#131,.F.);
#178=ORIENTED_EDGE('',*,*,#136,.T.);
#179=ORIENTED_EDGE('',*,*,#129,.F.);
#180=ORIENTED_EDGE('',*,*,#137,.T.);
#181=ORIENTED_EDGE('',*,*,#138,.T.);
#182=ORIENTED_EDGE('',*,*,#139,.T.);
#183=ORIENTED_EDGE('',*,*,#138,.F.);
#184=ORIENTED_EDGE('',*,*,#140,.T.);
#185=ORIENTED_EDGE('',*,*,#123,.F.);
#186=ORIENTED_EDGE('',*,*,#127,.F.);
#187=ORIENTED_EDGE('',*,*,#125,.F.);
#188=ORIENTED_EDGE('',*,*,#141,.T.);
#189=ORIENTED_EDGE('',*,*,#136,.F.);
#190=ORIENTED_EDGE('',*,*,#133,.F.);
#191=ORIENTED_EDGE('',*,*,#130,.F.);
#192=ORIENTED_EDGE('',*,*,#141,.F.);
#193=ORIENTED_EDGE('',*,*,#124,.F.);
#194=ORIENTED_EDGE('',*,*,#121,.F.);
#195=ORIENTED_EDGE('',*,*,#118,.F.);
#196=ORIENTED_EDGE('',*,*,#142,.T.);
#197=ORIENTED_EDGE('',*,*,#143,.F.);
#198=ORIENTED_EDGE('',*,*,#144,.F.);
#199=ORIENTED_EDGE('',*,*,#145,.T.);
#200=ORIENTED_EDGE('',*,*,#146,.T.);
#201=ORIENTED_EDGE('',*,*,#147,.T.);
#202=ORIENTED_EDGE('',*,*,#143,.T.);
#203=ORIENTED_EDGE('',*,*,#148,.T.);
#204=ORIENTED_EDGE('',*,*,#144,.T.);
#205=ORIENTED_EDGE('',*,*,#147,.F.);
#206=ORIENTED_EDGE('',*,*,#146,.F.);
#207=ORIENTED_EDGE('',*,*,#135,.F.);
#208=ORIENTED_EDGE('',*,*,#149,.T.);
#209=ORIENTED_EDGE('',*,*,#116,.F.);
#210=ORIENTED_EDGE('',*,*,#150,.T.);
#211=ORIENTED_EDGE('',*,*,#132,.F.);
#212=ORIENTED_EDGE('',*,*,#150,.F.);
#213=ORIENTED_EDGE('',*,*,#120,.F.);
#214=ORIENTED_EDGE('',*,*,#140,.F.);
#215=ORIENTED_EDGE('',*,*,#137,.F.);
#216=ORIENTED_EDGE('',*,*,#148,.F.);
#217=ORIENTED_EDGE('',*,*,#142,.F.);
#218=ORIENTED_EDGE('',*,*,#117,.F.);
#219=ORIENTED_EDGE('',*,*,#149,.F.);
#220=ORIENTED_EDGE('',*,*,#134,.F.);
#221=ORIENTED_EDGE('',*,*,#145,.F.);
#222=ORIENTED_EDGE('',*,*,#139,.F.);
#223=B_SPLINE_SURFACE_WITH_KNOTS('',3,3,((#336,#337,#338,#339,#340,#341,
#342),(#343,#344,#345,#346,#347,#348,#349),(#350,#351,#352,#353,#354,#355,
#356),(#357,#358,#359,#360,#361,#362,#363),(#364,#365,#366,#367,#368,#369,
#370)),.UNSPECIFIED.,.F.,.F.,.F.,(4,1,4),(4,1,1,1,4),(0.,0.5,1.),(3.87029659737794,
3.95371817662419,4.03713975587044,4.20398291436293,4.45424765210168),
 .UNSPECIFIED.);
#224=B_SPLINE_SURFACE_WITH_KNOTS('',3,3,((#398,#399,#400,#401),(#402,#403,
#404,#405),(#406,#407,#408,#409),(#410,#411,#412,#413),(#414,#415,#416,
#417)),.UNSPECIFIED.,.F.,.F.,.F.,(4,1,4),(4,4),(0.,0.5,1.),(7.75954060388728E-15,
0.10257132156505),.UNSPECIFIED.);
#225=B_SPLINE_SURFACE_WITH_KNOTS('',3,3,((#429,#430,#431,#432,#433,#434),
(#435,#436,#437,#438,#439,#440),(#441,#442,#443,#444,#445,#446),(#447,#448,
#449,#450,#451,#452)),.UNSPECIFIED.,.F.,.F.,.F.,(4,4),(4,1,1,4),(0.,1.),
(2.59542571662411E-13,0.144967036720249,0.289934073440238,0.507384628520221),
 .UNSPECIFIED.);
#226=B_SPLINE_SURFACE_WITH_KNOTS('',3,3,((#468,#469,#470,#471,#472,#473,
#474,#475,#476,#477,#478,#479,#480,#481,#482,#483,#484),(#485,#486,#487,
#488,#489,#490,#491,#492,#493,#494,#495,#496,#497,#498,#499,#500,#501),
(#502,#503,#504,#505,#506,#507,#508,#509,#510,#511,#512,#513,#514,#515,
#516,#517,#518),(#519,#520,#521,#522,#523,#524,#525,#526,#527,#528,#529,
#530,#531,#532,#533,#534,#535)),.UNSPECIFIED.,.F.,.F.,.F.,(4,4),(4,1,1,
1,1,1,1,1,1,1,1,1,1,1,4),(0.,1.),(0.,0.185361927623243,0.370723855246486,
0.417064337152296,0.463404819058107,0.509745300963918,0.556085782869728,
0.602426264775539,0.64876674668135,0.69510722858716,0.741447710492971,0.834128674304592,
0.926809638116214,1.11217156573946,1.2975334933627),.UNSPECIFIED.);
#227=B_SPLINE_SURFACE_WITH_KNOTS('',3,3,((#573,#574,#575,#576,#577,#578),
(#579,#580,#581,#582,#583,#584),(#585,#586,#587,#588,#589,#590),(#591,#592,
#593,#594,#595,#596)),.UNSPECIFIED.,.F.,.F.,.F.,(4,4),(4,1,1,4),(0.,1.),
(0.,0.223102652823489,0.371837754705815,0.520572856588141),
 .UNSPECIFIED.);
#228=B_SPLINE_SURFACE_WITH_KNOTS('',3,3,((#612,#613,#614,#615),(#616,#617,
#618,#619),(#620,#621,#622,#623),(#624,#625,#626,#627),(#628,#629,#630,
#631)),.UNSPECIFIED.,.F.,.F.,.F.,(4,1,4),(4,4),(0.,0.5,1.),(0.,0.102508604538442),
 .UNSPECIFIED.);
#229=B_SPLINE_SURFACE_WITH_KNOTS('',3,3,((#643,#644,#645,#646,#647,#648,
#649,#650),(#651,#652,#653,#654,#655,#656,#657,#658),(#659,#660,#661,#662,
#663,#664,#665,#666),(#667,#668,#669,#670,#671,#672,#673,#674),(#675,#676,
#677,#678,#679,#680,#681,#682)),.UNSPECIFIED.,.F.,.F.,.F.,(4,1,4),(4,1,
1,1,1,4),(0.,0.5,1.),(4.50090771530139,4.6679837733853,4.83505983146922,
5.00213588955314,5.02302039681363,5.08567391859509),.UNSPECIFIED.);
#230=ADVANCED_FACE('',(#28),#223,.T.);
#231=ADVANCED_FACE('',(#29),#224,.T.);
#232=ADVANCED_FACE('',(#30),#225,.T.);
#233=ADVANCED_FACE('',(#31),#226,.T.);
#234=ADVANCED_FACE('',(#32),#227,.T.);
#235=ADVANCED_FACE('',(#33),#228,.T.);
#236=ADVANCED_FACE('',(#34),#229,.T.);
#237=ADVANCED_FACE('',(#35),#25,.T.);
#238=ADVANCED_FACE('',(#36),#26,.T.);
#239=ADVANCED_FACE('',(#37),#23,.T.);
#240=ADVANCED_FACE('',(#38),#18,.F.);
#241=ADVANCED_FACE('',(#39),#16,.F.);
#242=ADVANCED_FACE('',(#40),#27,.T.);
#243=ADVANCED_FACE('',(#41),#24,.T.);
#244=ADVANCED_FACE('',(#42,#15),#17,.F.);
#245=CLOSED_SHELL('',(#230,#231,#232,#233,#234,#235,#236,#237,#238,#239,
#240,#241,#242,#243,#244));
#246=DERIVED_UNIT_ELEMENT(#248,1.);
#247=DERIVED_UNIT_ELEMENT(#856,-3.);
#248=(
MASS_UNIT()
NAMED_UNIT(*)
SI_UNIT(.KILO.,.GRAM.)
);
#249=DERIVED_UNIT((#246,#247));
#250=MEASURE_REPRESENTATION_ITEM('density measure',
POSITIVE_RATIO_MEASURE(7850.),#249);
#251=PROPERTY_DEFINITION_REPRESENTATION(#256,#253);
#252=PROPERTY_DEFINITION_REPRESENTATION(#257,#254);
#253=REPRESENTATION('material name',(#255),#853);
#254=REPRESENTATION('density',(#250),#853);
#255=DESCRIPTIVE_REPRESENTATION_ITEM('Steel','Steel');
#256=PROPERTY_DEFINITION('material property','material name',#863);
#257=PROPERTY_DEFINITION('material property','density of part',#863);
#258=AXIS2_PLACEMENT_3D('',#335,#283,#284);
#259=AXIS2_PLACEMENT_3D('',#373,#285,#286);
#260=AXIS2_PLACEMENT_3D('',#420,#287,#288);
#261=AXIS2_PLACEMENT_3D('',#455,#289,#290);
#262=AXIS2_PLACEMENT_3D('',#555,#291,#292);
#263=AXIS2_PLACEMENT_3D('',#599,#293,#294);
#264=AXIS2_PLACEMENT_3D('',#634,#295,#296);
#265=AXIS2_PLACEMENT_3D('',#776,#297,#298);
#266=AXIS2_PLACEMENT_3D('',#778,#299,#300);
#267=AXIS2_PLACEMENT_3D('',#780,#301,#302);
#268=AXIS2_PLACEMENT_3D('',#781,#303,#304);
#269=AXIS2_PLACEMENT_3D('',#782,#305,#306);
#270=AXIS2_PLACEMENT_3D('',#783,#307,#308);
#271=AXIS2_PLACEMENT_3D('',#784,#309,#310);
#272=AXIS2_PLACEMENT_3D('',#785,#311,#312);
#273=AXIS2_PLACEMENT_3D('',#789,#314,#315);
#274=AXIS2_PLACEMENT_3D('',#791,#316,#317);
#275=AXIS2_PLACEMENT_3D('',#821,#319,#320);
#276=AXIS2_PLACEMENT_3D('',#822,#321,#322);
#277=AXIS2_PLACEMENT_3D('',#845,#323,#324);
#278=AXIS2_PLACEMENT_3D('',#846,#325,#326);
#279=AXIS2_PLACEMENT_3D('',#847,#327,#328);
#280=AXIS2_PLACEMENT_3D('',#848,#329,#330);
#281=AXIS2_PLACEMENT_3D('',#849,#331,#332);
#282=AXIS2_PLACEMENT_3D('',#850,#333,#334);
#283=DIRECTION('axis',(0.,0.,1.));
#284=DIRECTION('refdir',(1.,0.,0.));
#285=DIRECTION('center_axis',(0.172648640301921,0.948990839739905,-0.263834859508081));
#286=DIRECTION('ref_axis',(1.85037170770862E-16,0.267857142857132,0.963458640015446));
#287=DIRECTION('center_axis',(0.0611514338020591,0.994142029297689,-0.0891186160564962));
#288=DIRECTION('ref_axis',(-7.40148683083441E-16,0.0892857142872576,0.996006054813029));
#289=DIRECTION('center_axis',(0.837810535379926,0.42151609112033,0.346983705284612));
#290=DIRECTION('ref_axis',(-3.51570624464623E-14,-0.635546588471321,0.772062519413076));
#291=DIRECTION('center_axis',(-0.855644344680531,-0.39531446907193,0.334064703251634));
#292=DIRECTION('ref_axis',(-2.81256499571711E-14,-0.645455519133986,-0.76379786122997));
#293=DIRECTION('center_axis',(-0.058657901055607,-0.994291074741913,-0.089131977047084));
#294=DIRECTION('ref_axis',(0.,0.0892857142858357,-0.996006054813156));
#295=DIRECTION('center_axis',(-0.1657509376859,-0.950131739354557,-0.264152048122534));
#296=DIRECTION('ref_axis',(-1.85037170770858E-16,0.267857142857174,-0.963458640015435));
#297=DIRECTION('center_axis',(0.,-1.,0.));
#298=DIRECTION('ref_axis',(0.,0.,-1.));
#299=DIRECTION('center_axis',(0.,1.,0.));
#300=DIRECTION('ref_axis',(0.999925048338077,0.,0.0122432718704995));
#301=DIRECTION('center_axis',(-1.,0.,0.));
#302=DIRECTION('ref_axis',(0.,0.,1.));
#303=DIRECTION('center_axis',(0.,-1.,0.));
#304=DIRECTION('ref_axis',(1.,0.,0.));
#305=DIRECTION('center_axis',(0.,1.,0.));
#306=DIRECTION('ref_axis',(0.999925048338077,0.,0.0122432718704995));
#307=DIRECTION('center_axis',(-1.,0.,0.));
#308=DIRECTION('ref_axis',(0.,0.,1.));
#309=DIRECTION('center_axis',(1.,0.,0.));
#310=DIRECTION('ref_axis',(0.,0.99999976525728,-0.000685190035245884));
#311=DIRECTION('center_axis',(1.,0.,0.));
#312=DIRECTION('ref_axis',(0.,1.,1.83697019872103E-16));
#313=DIRECTION('',(1.,0.,0.));
#314=DIRECTION('center_axis',(-1.,0.,0.));
#315=DIRECTION('ref_axis',(0.,1.,0.));
#316=DIRECTION('center_axis',(-1.,0.,0.));
#317=DIRECTION('ref_axis',(0.,1.,0.));
#318=DIRECTION('',(-1.,0.,0.));
#319=DIRECTION('center_axis',(1.,0.,0.));
#320=DIRECTION('ref_axis',(0.,1.,0.));
#321=DIRECTION('center_axis',(0.,-1.,0.));
#322=DIRECTION('ref_axis',(0.,0.,-1.));
#323=DIRECTION('center_axis',(1.,0.,0.));
#324=DIRECTION('ref_axis',(0.,0.,-1.));
#325=DIRECTION('center_axis',(0.,-1.,0.));
#326=DIRECTION('ref_axis',(0.999924854923391,0.,0.0122590581381924));
#327=DIRECTION('center_axis',(0.,1.,0.));
#328=DIRECTION('ref_axis',(0.999929939879878,0.,0.0118370322219149));
#329=DIRECTION('center_axis',(0.,-1.,0.));
#330=DIRECTION('ref_axis',(0.999929939879878,0.,0.0118370322219149));
#331=DIRECTION('center_axis',(0.,1.,0.));
#332=DIRECTION('ref_axis',(1.,0.,0.));
#333=DIRECTION('center_axis',(0.,1.,0.));
#334=DIRECTION('ref_axis',(0.,0.,-1.));
#335=CARTESIAN_POINT('',(0.,0.,0.));
#336=CARTESIAN_POINT('Ctrl Pts',(5.54359778563928,728.623792668446,-82.6021678867752));
#337=CARTESIAN_POINT('Ctrl Pts',(5.46568079304675,728.623792668446,-82.5147369259658));
#338=CARTESIAN_POINT('Ctrl Pts',(5.36192997934273,728.632701533977,-82.4720528227007));
#339=CARTESIAN_POINT('Ctrl Pts',(5.3210277116155,728.687652766203,-82.7608434900619));
#340=CARTESIAN_POINT('Ctrl Pts',(5.40832542517599,728.828278373741,-83.3355257296945));
#341=CARTESIAN_POINT('Ctrl Pts',(5.5418309979404,729.010697933387,-83.6788762729399));
#342=CARTESIAN_POINT('Ctrl Pts',(5.64264935354131,729.123792668446,-83.8329429174225));
#343=CARTESIAN_POINT('Ctrl Pts',(5.54359778563928,728.623792668446,-82.3685948312708));
#344=CARTESIAN_POINT('Ctrl Pts',(5.43479080035094,728.616973531751,-82.2957352018511));
#345=CARTESIAN_POINT('Ctrl Pts',(5.25907904903867,728.629392051582,-82.2684488325669));
#346=CARTESIAN_POINT('Ctrl Pts',(5.10420240205737,728.740036077313,-82.5421772225672));
#347=CARTESIAN_POINT('Ctrl Pts',(5.1171114268516,728.990041310198,-83.0429311657022));
#348=CARTESIAN_POINT('Ctrl Pts',(5.26659183207152,729.182912861578,-83.3014119794746));
#349=CARTESIAN_POINT('Ctrl Pts',(5.3789158844307,729.283821427177,-83.4299158061247));
#350=CARTESIAN_POINT('Ctrl Pts',(5.54359778563928,728.568972220912,-81.9014640924829));
#351=CARTESIAN_POINT('Ctrl Pts',(5.36934655806965,728.555430160968,-81.8593404248382));
#352=CARTESIAN_POINT('Ctrl Pts',(5.04442651129455,728.574784213058,-81.8647377318947));
#353=CARTESIAN_POINT('Ctrl Pts',(4.63338847553843,728.761959886375,-82.1201734546443));
#354=CARTESIAN_POINT('Ctrl Pts',(4.40010487206867,729.180911027779,-82.5253820142208));
#355=CARTESIAN_POINT('Ctrl Pts',(4.50171973834563,729.466659220089,-82.6790712113599));
#356=CARTESIAN_POINT('Ctrl Pts',(4.63133812040345,729.603632661897,-82.7687838842809));
#357=CARTESIAN_POINT('Ctrl Pts',(5.54359778563928,728.407551388609,-81.4596952349486));
#358=CARTESIAN_POINT('Ctrl Pts',(5.30015022796549,728.400978102744,-81.4466892327304));
#359=CARTESIAN_POINT('Ctrl Pts',(4.82013987946821,728.426789878733,-81.4885355396471));
#360=CARTESIAN_POINT('Ctrl Pts',(4.12329703959515,728.619347817811,-81.7677753887185));
#361=CARTESIAN_POINT('Ctrl Pts',(3.53778207753485,729.08301602473,-82.2339633692009));
#362=CARTESIAN_POINT('Ctrl Pts',(3.49301337739173,729.563904217894,-82.4709531889195));
#363=CARTESIAN_POINT('Ctrl Pts',(3.63227328125232,729.84294022072,-82.5617851000712));
#364=CARTESIAN_POINT('Ctrl Pts',(5.54359778563928,728.302364097017,-81.2511478639625));
#365=CARTESIAN_POINT('Ctrl Pts',(5.26554988748173,728.302364097017,-81.2511478639625));
#366=CARTESIAN_POINT('Ctrl Pts',(4.70803030431844,728.331317909995,-81.3116192498595));
#367=CARTESIAN_POINT('Ctrl Pts',(3.86831079178634,728.50990941473,-81.6165490021552));
#368=CARTESIAN_POINT('Ctrl Pts',(3.10653834586999,728.966942639225,-82.1590673724774));
#369=CARTESIAN_POINT('Ctrl Pts',(2.98832995554998,729.55980620809,-82.4830692481197));
#370=CARTESIAN_POINT('Ctrl Pts',(3.13235617783434,729.927364097017,-82.5852563082317));
#371=CARTESIAN_POINT('',(3.13235617783434,729.927364097017,-82.5852563082317));
#372=CARTESIAN_POINT('',(5.64264935354131,729.123792668446,-83.8329429174225));
#373=CARTESIAN_POINT('Origin',(3.13235617783434,729.123792668446,-85.475632228278));
#374=CARTESIAN_POINT('',(5.54359778303037,728.623792668446,-82.6021678827401));
#375=CARTESIAN_POINT('Ctrl Pts',(5.64264935354131,729.123792668446,-83.8329429174225));
#376=CARTESIAN_POINT('Ctrl Pts',(5.5418309979404,729.010697933387,-83.6788762729399));
#377=CARTESIAN_POINT('Ctrl Pts',(5.40832542517599,728.828278373741,-83.3355257296945));
#378=CARTESIAN_POINT('Ctrl Pts',(5.3210277116155,728.687652766203,-82.7608434900619));
#379=CARTESIAN_POINT('Ctrl Pts',(5.36192997934273,728.632701533977,-82.4720528227007));
#380=CARTESIAN_POINT('Ctrl Pts',(5.46568079304675,728.623792668446,-82.5147369259658));
#381=CARTESIAN_POINT('Ctrl Pts',(5.54359778563928,728.623792668446,-82.6021678867752));
#382=CARTESIAN_POINT('',(3.72835982144318,728.623792669506,-81.7415886180513));
#383=CARTESIAN_POINT('Ctrl Pts',(5.54359778563928,728.623792668446,-82.6021678867752));
#384=CARTESIAN_POINT('Ctrl Pts',(5.54003969411666,728.623792668446,-82.5964654811754));
#385=CARTESIAN_POINT('Ctrl Pts',(5.53646723149454,728.623792668446,-82.5907641046653));
#386=CARTESIAN_POINT('Ctrl Pts',(5.44336617004926,728.623792668446,-82.4429187196849));
#387=CARTESIAN_POINT('Ctrl Pts',(5.34567605450158,728.623792668446,-82.3051297676309));
#388=CARTESIAN_POINT('Ctrl Pts',(5.0481610272879,728.623792668446,-82.0692869407527));
#389=CARTESIAN_POINT('Ctrl Pts',(4.90262975100179,728.623792668264,-81.9886897969068));
#390=CARTESIAN_POINT('Ctrl Pts',(4.45493097119417,728.623792668264,-81.805273554172));
#391=CARTESIAN_POINT('Ctrl Pts',(4.10484337733311,728.623792668446,-81.7415886167751));
#392=CARTESIAN_POINT('Ctrl Pts',(3.72835982563621,728.623792668446,-81.7415886167752));
#393=CARTESIAN_POINT('Ctrl Pts',(3.72769605314416,728.623783085847,-81.7410903451051));
#394=CARTESIAN_POINT('Ctrl Pts',(3.55559929211026,728.710264231265,-81.8451093560363));
#395=CARTESIAN_POINT('Ctrl Pts',(3.08807004092594,729.059568764582,-82.2096878523402));
#396=CARTESIAN_POINT('Ctrl Pts',(2.98832995554998,729.55980620809,-82.4830692481197));
#397=CARTESIAN_POINT('Ctrl Pts',(3.13235617783434,729.927364097017,-82.5852563082317));
#398=CARTESIAN_POINT('Ctrl Pts',(5.64264935354129,729.123792668446,-83.8329429174225));
#399=CARTESIAN_POINT('Ctrl Pts',(5.68396988501302,729.448256817063,-83.8960873279234));
#400=CARTESIAN_POINT('Ctrl Pts',(5.71351724050853,729.783891129209,-83.9391997502374));
#401=CARTESIAN_POINT('Ctrl Pts',(5.72815280173052,730.123792668437,-83.960528783429));
#402=CARTESIAN_POINT('Ctrl Pts',(5.37891588443067,729.283821427177,-83.4299158061247));
#403=CARTESIAN_POINT('Ctrl Pts',(5.41524713406653,729.572454356951,-83.4950824828224));
#404=CARTESIAN_POINT('Ctrl Pts',(5.44170858393598,729.872284048635,-83.5398753250886));
#405=CARTESIAN_POINT('Ctrl Pts',(5.45474940236939,730.176328076893,-83.5620862439721));
#406=CARTESIAN_POINT('Ctrl Pts',(4.63133810819687,729.60363265799,-82.7687839063233));
#407=CARTESIAN_POINT('Ctrl Pts',(4.66862852511867,729.820745643366,-82.8341453716966));
#408=CARTESIAN_POINT('Ctrl Pts',(4.69585037441692,730.048910992483,-82.8797039400665));
#409=CARTESIAN_POINT('Ctrl Pts',(4.70936532253786,730.281331200644,-82.9022161077957));
#410=CARTESIAN_POINT('Ctrl Pts',(3.63227328125229,729.84294022072,-82.5617851000712));
#411=CARTESIAN_POINT('Ctrl Pts',(3.68400914667819,730.009598036949,-82.6136813840993));
#412=CARTESIAN_POINT('Ctrl Pts',(3.72123674011708,730.184404950647,-82.6494543954393));
#413=CARTESIAN_POINT('Ctrl Pts',(3.73966612926346,730.362044536615,-82.6672256589667));
#414=CARTESIAN_POINT('Ctrl Pts',(3.13235617783431,729.927364097017,-82.5852563082317));
#415=CARTESIAN_POINT('Ctrl Pts',(3.19138550850926,730.078008166024,-82.6271378049941));
#416=CARTESIAN_POINT('Ctrl Pts',(3.23359601635927,730.233838382377,-82.6557327789768));
#417=CARTESIAN_POINT('Ctrl Pts',(3.2545039609618,730.391649811299,-82.6698795867054));
#418=CARTESIAN_POINT('',(3.25450396096179,730.391649811299,-82.6698795867054));
#419=CARTESIAN_POINT('',(5.72815280173052,730.123792668441,-83.960528783429));
#420=CARTESIAN_POINT('Origin',(3.25450396096179,730.123792668437,-85.6578977511445));
#421=CARTESIAN_POINT('Ctrl Pts',(5.72815280173052,730.123792668437,-83.960528783429));
#422=CARTESIAN_POINT('Ctrl Pts',(5.71351724050853,729.783891129209,-83.9391997502374));
#423=CARTESIAN_POINT('Ctrl Pts',(5.68396988501302,729.448256817063,-83.8960873279234));
#424=CARTESIAN_POINT('Ctrl Pts',(5.64264935354129,729.123792668446,-83.8329429174225));
#425=CARTESIAN_POINT('Ctrl Pts',(3.13235617783431,729.927364097017,-82.5852563082317));
#426=CARTESIAN_POINT('Ctrl Pts',(3.19138550850926,730.078008166024,-82.6271378049941));
#427=CARTESIAN_POINT('Ctrl Pts',(3.23359601635927,730.233838382377,-82.6557327789768));
#428=CARTESIAN_POINT('Ctrl Pts',(3.2545039609618,730.391649811299,-82.6698795867054));
#429=CARTESIAN_POINT('Ctrl Pts',(5.72815280173043,730.123792668442,-83.9605287834289));
#430=CARTESIAN_POINT('Ctrl Pts',(5.74883766674585,730.283923584071,-83.9906737273634));
#431=CARTESIAN_POINT('Ctrl Pts',(5.81432287606376,730.605796517437,-83.9929982792988));
#432=CARTESIAN_POINT('Ctrl Pts',(6.02948922125585,731.111818223882,-83.8391600240341));
#433=CARTESIAN_POINT('Ctrl Pts',(6.2960133995545,731.374969735826,-83.6591466931041));
#434=CARTESIAN_POINT('Ctrl Pts',(6.54407813195552,731.476812966926,-83.6374936719902));
#435=CARTESIAN_POINT('Ctrl Pts',(5.18134600300803,730.228863485353,-83.1636437045153));
#436=CARTESIAN_POINT('Ctrl Pts',(5.20465562637064,730.357999930533,-83.1866202004962));
#437=CARTESIAN_POINT('Ctrl Pts',(5.27850686337505,730.617580933223,-83.2059146652223));
#438=CARTESIAN_POINT('Ctrl Pts',(5.5334932473414,731.09494137407,-83.1605515774654));
#439=CARTESIAN_POINT('Ctrl Pts',(5.91130906499349,731.420909805586,-83.0392855924919));
#440=CARTESIAN_POINT('Ctrl Pts',(6.25332441182718,731.54126730674,-83.0137525992713));
#441=CARTESIAN_POINT('Ctrl Pts',(4.22482829756494,730.332439261934,-82.6645717312282));
#442=CARTESIAN_POINT('Ctrl Pts',(4.25126708802199,730.485962646086,-82.6834604993282));
#443=CARTESIAN_POINT('Ctrl Pts',(4.36862725513091,730.793804178873,-82.6973621779546));
#444=CARTESIAN_POINT('Ctrl Pts',(4.81440567971261,731.340519529001,-82.6447636952124));
#445=CARTESIAN_POINT('Ctrl Pts',(5.40315817864786,731.696498796329,-82.511297978426));
#446=CARTESIAN_POINT('Ctrl Pts',(5.87736417558109,731.829122344706,-82.4556632323964));
#447=CARTESIAN_POINT('Ctrl Pts',(3.25450396096168,730.391649811298,-82.6698795867054));
#448=CARTESIAN_POINT('Ctrl Pts',(3.28405376812615,730.614689300925,-82.6898736821724));
#449=CARTESIAN_POINT('Ctrl Pts',(3.44659831272347,731.063012315256,-82.6701305492887));
#450=CARTESIAN_POINT('Ctrl Pts',(4.09121990514851,731.767828263517,-82.4561005975458));
#451=CARTESIAN_POINT('Ctrl Pts',(4.89272622782191,732.134360726584,-82.2043970364662));
#452=CARTESIAN_POINT('Ctrl Pts',(5.50000078105402,732.276213798471,-82.0876263946656));
#453=CARTESIAN_POINT('',(5.50000078105392,732.276213798471,-82.0876263946656));
#454=CARTESIAN_POINT('',(6.54407813195552,731.476812966926,-83.6374936719902));
#455=CARTESIAN_POINT('Origin',(5.50000078105402,734.182853563885,-84.4038139529049));
#456=CARTESIAN_POINT('Ctrl Pts',(6.54407813195552,731.476812966926,-83.6374936719902));
#457=CARTESIAN_POINT('Ctrl Pts',(6.2960133995545,731.374969735826,-83.6591466931041));
#458=CARTESIAN_POINT('Ctrl Pts',(6.02948922125585,731.111818223882,-83.8391600240341));
#459=CARTESIAN_POINT('Ctrl Pts',(5.81432287606376,730.605796517437,-83.9929982792988));
#460=CARTESIAN_POINT('Ctrl Pts',(5.74883766674585,730.283923584071,-83.9906737273634));
#461=CARTESIAN_POINT('Ctrl Pts',(5.72815280173043,730.123792668442,-83.9605287834289));
#462=CARTESIAN_POINT('Ctrl Pts',(3.25450396096168,730.391649811298,-82.6698795867054));
#463=CARTESIAN_POINT('Ctrl Pts',(3.28405376812615,730.614689300925,-82.6898736821724));
#464=CARTESIAN_POINT('Ctrl Pts',(3.44659831272347,731.063012315256,-82.6701305492887));
#465=CARTESIAN_POINT('Ctrl Pts',(4.09121990514851,731.767828263517,-82.4561005975458));
#466=CARTESIAN_POINT('Ctrl Pts',(4.89272622782191,732.134360726584,-82.2043970364662));
#467=CARTESIAN_POINT('Ctrl Pts',(5.50000078105402,732.276213798471,-82.0876263946656));
#468=CARTESIAN_POINT('Ctrl Pts',(5.50000078105391,732.301977018195,-78.0943894049937));
#469=CARTESIAN_POINT('Ctrl Pts',(5.62715157500784,732.415380741535,-78.1902224294571));
#470=CARTESIAN_POINT('Ctrl Pts',(5.88985959906268,732.574157101154,-78.4258267793906));
#471=CARTESIAN_POINT('Ctrl Pts',(6.1456140422536,732.588244448914,-78.7556293307493));
#472=CARTESIAN_POINT('Ctrl Pts',(6.27411543457362,732.548877339777,-79.0052235124622));
#473=CARTESIAN_POINT('Ctrl Pts',(6.32888002056813,732.523418233876,-79.140963249806));
#474=CARTESIAN_POINT('Ctrl Pts',(6.37299532811555,732.496550304007,-79.2944201950179));
#475=CARTESIAN_POINT('Ctrl Pts',(6.40538378080522,732.475468795416,-79.4833793894391));
#476=CARTESIAN_POINT('Ctrl Pts',(6.42481301936149,732.470465763234,-79.7376627891104));
#477=CARTESIAN_POINT('Ctrl Pts',(6.43022238449861,732.478537519917,-80.0875386955014));
#478=CARTESIAN_POINT('Ctrl Pts',(6.42176438000722,732.483076062348,-80.419032614971));
#479=CARTESIAN_POINT('Ctrl Pts',(6.39290907388752,732.502004727338,-80.739300633134));
#480=CARTESIAN_POINT('Ctrl Pts',(6.32611926748734,732.54849665256,-81.0097660903237));
#481=CARTESIAN_POINT('Ctrl Pts',(6.16476039936526,732.604290494654,-81.362417308123));
#482=CARTESIAN_POINT('Ctrl Pts',(5.88264685309376,732.569961125433,-81.7445415896971));
#483=CARTESIAN_POINT('Ctrl Pts',(5.62450142833665,732.397133971955,-81.988087300612));
#484=CARTESIAN_POINT('Ctrl Pts',(5.50000078105392,732.276213798471,-82.0876263946656));
#485=CARTESIAN_POINT('Ctrl Pts',(5.86019555562807,731.847151463519,-77.7100342249001));
#486=CARTESIAN_POINT('Ctrl Pts',(5.9886714197909,731.913846360764,-77.7856547529219));
#487=CARTESIAN_POINT('Ctrl Pts',(6.22284665835443,731.978745863041,-77.9763355320228));
#488=CARTESIAN_POINT('Ctrl Pts',(6.3832040810702,731.965803429383,-78.2305000320532));
#489=CARTESIAN_POINT('Ctrl Pts',(6.4565013832341,731.962412639544,-78.4859168856455));
#490=CARTESIAN_POINT('Ctrl Pts',(6.4878947452159,731.962105498888,-78.646772172137));
#491=CARTESIAN_POINT('Ctrl Pts',(6.51344639595996,731.963650292137,-78.8567117411671));
#492=CARTESIAN_POINT('Ctrl Pts',(6.53149776548942,731.966626248602,-79.1474570081543));
#493=CARTESIAN_POINT('Ctrl Pts',(6.53753333989347,731.972465820539,-79.560884755982));
#494=CARTESIAN_POINT('Ctrl Pts',(6.53697348455121,731.979091090167,-80.1213492565212));
#495=CARTESIAN_POINT('Ctrl Pts',(6.54041231098934,731.978554077949,-80.6485074266453));
#496=CARTESIAN_POINT('Ctrl Pts',(6.53341752699648,731.975169932064,-81.1526820187246));
#497=CARTESIAN_POINT('Ctrl Pts',(6.49909770243822,731.971063093567,-81.5218590709298));
#498=CARTESIAN_POINT('Ctrl Pts',(6.41488212265508,731.972282046475,-81.8806554617757));
#499=CARTESIAN_POINT('Ctrl Pts',(6.23668056485354,731.97964554603,-82.1781463588931));
#500=CARTESIAN_POINT('Ctrl Pts',(6.00431372641931,731.902418738439,-82.3758073744553));
#501=CARTESIAN_POINT('Ctrl Pts',(5.87736417558103,731.829122344706,-82.4556632323964));
#502=CARTESIAN_POINT('Ctrl Pts',(6.21901423705537,731.556379656176,-77.1350711383538));
#503=CARTESIAN_POINT('Ctrl Pts',(6.38237690772173,731.608840044533,-77.1757931471016));
#504=CARTESIAN_POINT('Ctrl Pts',(6.68460395865153,731.643632775534,-77.3104937753629));
#505=CARTESIAN_POINT('Ctrl Pts',(6.88042130102643,731.586410357841,-77.5537236774277));
#506=CARTESIAN_POINT('Ctrl Pts',(6.91707930157132,731.553189525535,-77.8746124950561));
#507=CARTESIAN_POINT('Ctrl Pts',(6.91507474467103,731.53836345845,-78.0900705932996));
#508=CARTESIAN_POINT('Ctrl Pts',(6.89104874024432,731.525724528732,-78.3830356145101));
#509=CARTESIAN_POINT('Ctrl Pts',(6.84676669249205,731.514799953134,-78.795587139782));
#510=CARTESIAN_POINT('Ctrl Pts',(6.79018332769897,731.506394150469,-79.3795684641664));
#511=CARTESIAN_POINT('Ctrl Pts',(6.76757682428072,731.505092067172,-80.1552643380782));
#512=CARTESIAN_POINT('Ctrl Pts',(6.81510727978896,731.511914520608,-80.8837315069904));
#513=CARTESIAN_POINT('Ctrl Pts',(6.89995610288297,731.525678556618,-81.5888066262746));
#514=CARTESIAN_POINT('Ctrl Pts',(6.96076266031678,731.545220162602,-82.0986783011011));
#515=CARTESIAN_POINT('Ctrl Pts',(6.93506316407976,731.587832862735,-82.5462080313494));
#516=CARTESIAN_POINT('Ctrl Pts',(6.71584897529438,731.645570702097,-82.8275321913497));
#517=CARTESIAN_POINT('Ctrl Pts',(6.41508833846412,731.599605209024,-82.968285905892));
#518=CARTESIAN_POINT('Ctrl Pts',(6.25332441182716,731.54126730674,-83.0137525992713));
#519=CARTESIAN_POINT('Ctrl Pts',(6.49544572647867,731.495309637496,-76.4993105310852));
#520=CARTESIAN_POINT('Ctrl Pts',(6.71010424656846,731.576727695281,-76.5131717302331));
#521=CARTESIAN_POINT('Ctrl Pts',(7.13756872990643,731.668056775761,-76.6280812081696));
#522=CARTESIAN_POINT('Ctrl Pts',(7.47620810653839,731.573403007552,-76.9445134935181));
#523=CARTESIAN_POINT('Ctrl Pts',(7.52010184616036,731.442081513644,-77.3516482830977));
#524=CARTESIAN_POINT('Ctrl Pts',(7.49600895457463,731.36626208825,-77.6200719107568));
#525=CARTESIAN_POINT('Ctrl Pts',(7.41980136340868,731.283689428089,-77.9810751483926));
#526=CARTESIAN_POINT('Ctrl Pts',(7.29533377601219,731.202163587564,-78.4891961297104));
#527=CARTESIAN_POINT('Ctrl Pts',(7.14943157797281,731.134981983151,-79.2155612052438));
#528=CARTESIAN_POINT('Ctrl Pts',(7.0946205094686,731.112911281151,-80.1859070883102));
#529=CARTESIAN_POINT('Ctrl Pts',(7.20585944031604,731.152990882653,-81.0921600759306));
#530=CARTESIAN_POINT('Ctrl Pts',(7.41620200888827,731.251085362277,-81.9579717753386));
#531=CARTESIAN_POINT('Ctrl Pts',(7.58025779171258,731.393424447844,-82.5764843584089));
#532=CARTESIAN_POINT('Ctrl Pts',(7.55431994092793,731.577133726289,-83.140359758134));
#533=CARTESIAN_POINT('Ctrl Pts',(7.17882168346489,731.666066557944,-83.4997879304569));
#534=CARTESIAN_POINT('Ctrl Pts',(6.75553658032173,731.563627450454,-83.6190359323389));
#535=CARTESIAN_POINT('Ctrl Pts',(6.54407813195554,731.476812966926,-83.6374936719902));
#536=CARTESIAN_POINT('',(5.5000007810539,732.301977018195,-78.0943894049937));
#537=CARTESIAN_POINT('Ctrl Pts',(5.50000078105392,732.276213798471,-82.0876263946656));
#538=CARTESIAN_POINT('Ctrl Pts',(5.62450142833665,732.397133971955,-81.988087300612));
#539=CARTESIAN_POINT('Ctrl Pts',(5.88264685309376,732.569961125433,-81.7445415896971));
#540=CARTESIAN_POINT('Ctrl Pts',(6.16476039936526,732.604290494654,-81.362417308123));
#541=CARTESIAN_POINT('Ctrl Pts',(6.32611926748734,732.54849665256,-81.0097660903237));
#542=CARTESIAN_POINT('Ctrl Pts',(6.39290907388752,732.502004727338,-80.739300633134));
#543=CARTESIAN_POINT('Ctrl Pts',(6.42176438000722,732.483076062348,-80.419032614971));
#544=CARTESIAN_POINT('Ctrl Pts',(6.43022238449861,732.478537519917,-80.0875386955014));
#545=CARTESIAN_POINT('Ctrl Pts',(6.42481301936149,732.470465763234,-79.7376627891104));
#546=CARTESIAN_POINT('Ctrl Pts',(6.40538378080522,732.475468795416,-79.4833793894391));
#547=CARTESIAN_POINT('Ctrl Pts',(6.37299532811555,732.496550304007,-79.2944201950179));
#548=CARTESIAN_POINT('Ctrl Pts',(6.32888002056813,732.523418233876,-79.140963249806));
#549=CARTESIAN_POINT('Ctrl Pts',(6.27411543457362,732.548877339777,-79.0052235124622));
#550=CARTESIAN_POINT('Ctrl Pts',(6.1456140422536,732.588244448914,-78.7556293307493));
#551=CARTESIAN_POINT('Ctrl Pts',(5.88985959906268,732.574157101154,-78.4258267793906));
#552=CARTESIAN_POINT('Ctrl Pts',(5.62715157500784,732.415380741535,-78.1902224294571));
#553=CARTESIAN_POINT('Ctrl Pts',(5.50000078105391,732.301977018195,-78.0943894049937));
#554=CARTESIAN_POINT('',(6.49544572647875,731.495309637496,-76.4993105310853));
#555=CARTESIAN_POINT('Origin',(5.50000078105398,734.238343575596,-75.8029958213038));
#556=CARTESIAN_POINT('Ctrl Pts',(6.49544572647867,731.495309637496,-76.4993105310852));
#557=CARTESIAN_POINT('Ctrl Pts',(6.71010424656846,731.576727695281,-76.5131717302331));
#558=CARTESIAN_POINT('Ctrl Pts',(7.13756872990643,731.668056775761,-76.6280812081696));
#559=CARTESIAN_POINT('Ctrl Pts',(7.47620810653839,731.573403007552,-76.9445134935181));
#560=CARTESIAN_POINT('Ctrl Pts',(7.52010184616036,731.442081513644,-77.3516482830977));
#561=CARTESIAN_POINT('Ctrl Pts',(7.49600895457463,731.36626208825,-77.6200719107568));
#562=CARTESIAN_POINT('Ctrl Pts',(7.41980136340868,731.283689428089,-77.9810751483926));
#563=CARTESIAN_POINT('Ctrl Pts',(7.29533377601219,731.202163587564,-78.4891961297104));
#564=CARTESIAN_POINT('Ctrl Pts',(7.14943157797281,731.134981983151,-79.2155612052438));
#565=CARTESIAN_POINT('Ctrl Pts',(7.0946205094686,731.112911281151,-80.1859070883102));
#566=CARTESIAN_POINT('Ctrl Pts',(7.20585944031604,731.152990882653,-81.0921600759306));
#567=CARTESIAN_POINT('Ctrl Pts',(7.41620200888827,731.251085362277,-81.9579717753386));
#568=CARTESIAN_POINT('Ctrl Pts',(7.58025779171258,731.393424447844,-82.5764843584089));
#569=CARTESIAN_POINT('Ctrl Pts',(7.55431994092793,731.577133726289,-83.140359758134));
#570=CARTESIAN_POINT('Ctrl Pts',(7.17882168346489,731.666066557944,-83.4997879304569));
#571=CARTESIAN_POINT('Ctrl Pts',(6.75553658032173,731.563627450454,-83.6190359323389));
#572=CARTESIAN_POINT('Ctrl Pts',(6.54407813195554,731.476812966926,-83.6374936719902));
#573=CARTESIAN_POINT('Ctrl Pts',(6.49544572647878,731.495309637496,-76.4993105310853));
#574=CARTESIAN_POINT('Ctrl Pts',(6.23708153111051,731.397314407775,-76.4826271142666));
#575=CARTESIAN_POINT('Ctrl Pts',(5.96090598937894,731.134466795412,-76.2897755728165));
#576=CARTESIAN_POINT('Ctrl Pts',(5.7392745803276,730.618480695364,-76.1212196481887));
#577=CARTESIAN_POINT('Ctrl Pts',(5.67299325454906,730.288110428782,-76.1209081884246));
#578=CARTESIAN_POINT('Ctrl Pts',(5.65263611380637,730.123792668446,-76.1518413136944));
#579=CARTESIAN_POINT('Ctrl Pts',(6.21901423705549,731.556379656176,-77.1350711383538));
#580=CARTESIAN_POINT('Ctrl Pts',(5.86129659751099,731.440500518552,-77.1127480351143));
#581=CARTESIAN_POINT('Ctrl Pts',(5.46690295270792,731.108056601919,-76.9820757881478));
#582=CARTESIAN_POINT('Ctrl Pts',(5.20759998789877,730.621320738137,-76.9328210238539));
#583=CARTESIAN_POINT('Ctrl Pts',(5.13379672701436,730.359731308752,-76.9519314451552));
#584=CARTESIAN_POINT('Ctrl Pts',(5.11075292023476,730.229573877071,-76.9752448024367));
#585=CARTESIAN_POINT('Ctrl Pts',(5.86019555562821,731.847151463519,-77.7100342249001));
#586=CARTESIAN_POINT('Ctrl Pts',(5.36362613339387,731.719472254922,-77.6562517725466));
#587=CARTESIAN_POINT('Ctrl Pts',(4.74566048474709,731.357671845893,-77.5160941412433));
#588=CARTESIAN_POINT('Ctrl Pts',(4.28253487637029,730.800428467946,-77.4625186450837));
#589=CARTESIAN_POINT('Ctrl Pts',(4.16236807710411,730.489059534176,-77.4767754573505));
#590=CARTESIAN_POINT('Ctrl Pts',(4.13628894524877,730.333730209075,-77.4958402318167));
#591=CARTESIAN_POINT('Ctrl Pts',(5.50000078105406,732.301977018195,-78.0943894049937));
#592=CARTESIAN_POINT('Ctrl Pts',(4.86367903714659,732.16548366251,-77.9790442407511));
#593=CARTESIAN_POINT('Ctrl Pts',(4.02031279676986,731.799374488149,-77.7182185698477));
#594=CARTESIAN_POINT('Ctrl Pts',(3.34420793813101,731.080679563082,-77.492083342333));
#595=CARTESIAN_POINT('Ctrl Pts',(3.17570460784552,730.620520977487,-77.4701312328758));
#596=CARTESIAN_POINT('Ctrl Pts',(3.14662297821301,730.391649811303,-77.4906481016774));
#597=CARTESIAN_POINT('',(3.14662297821301,730.391649811303,-77.4906481016774));
#598=CARTESIAN_POINT('',(5.65263611380637,730.123792668446,-76.1518413136944));
#599=CARTESIAN_POINT('Origin',(3.14662297821301,730.123792668446,-74.5026299372379));
#600=CARTESIAN_POINT('Ctrl Pts',(5.65263611380637,730.123792668446,-76.1518413136944));
#601=CARTESIAN_POINT('Ctrl Pts',(5.67299325454906,730.288110428782,-76.1209081884246));
#602=CARTESIAN_POINT('Ctrl Pts',(5.7392745803276,730.618480695364,-76.1212196481887));
#603=CARTESIAN_POINT('Ctrl Pts',(5.96090598937894,731.134466795412,-76.2897755728165));
#604=CARTESIAN_POINT('Ctrl Pts',(6.23708153111051,731.397314407775,-76.4826271142666));
#605=CARTESIAN_POINT('Ctrl Pts',(6.49544572647878,731.495309637496,-76.4993105310853));
#606=CARTESIAN_POINT('Ctrl Pts',(5.50000078105406,732.301977018195,-78.0943894049937));
#607=CARTESIAN_POINT('Ctrl Pts',(4.86367903714659,732.16548366251,-77.9790442407511));
#608=CARTESIAN_POINT('Ctrl Pts',(4.02031279676986,731.799374488149,-77.7182185698477));
#609=CARTESIAN_POINT('Ctrl Pts',(3.34420793813101,731.080679563082,-77.492083342333));
#610=CARTESIAN_POINT('Ctrl Pts',(3.17570460784552,730.620520977487,-77.4701312328758));
#611=CARTESIAN_POINT('Ctrl Pts',(3.14662297821301,730.391649811303,-77.4906481016774));
#612=CARTESIAN_POINT('Ctrl Pts',(5.65263611380638,730.123792668446,-76.1518413136944));
#613=CARTESIAN_POINT('Ctrl Pts',(5.6386059214475,729.784048033189,-76.1731605010637));
#614=CARTESIAN_POINT('Ctrl Pts',(5.61028392101341,729.448448264209,-76.2162455114104));
#615=CARTESIAN_POINT('Ctrl Pts',(5.57063849392614,729.123792668446,-76.2794271797014));
#616=CARTESIAN_POINT('Ctrl Pts',(5.38169451702057,730.176683272758,-76.5635430580655));
#617=CARTESIAN_POINT('Ctrl Pts',(5.3693278343583,729.87302202541,-76.5856562639999));
#618=CARTESIAN_POINT('Ctrl Pts',(5.34422305375346,729.57346012587,-76.6302441374209));
#619=CARTESIAN_POINT('Ctrl Pts',(5.30975746220177,729.284890930332,-76.6951850620303));
#620=CARTESIAN_POINT('Ctrl Pts',(4.63043096587515,730.282390627283,-77.2483291259914));
#621=CARTESIAN_POINT('Ctrl Pts',(4.61770485171363,730.050796942341,-77.2706696424489));
#622=CARTESIAN_POINT('Ctrl Pts',(4.59207991368798,729.823369734896,-77.3158746949578));
#623=CARTESIAN_POINT('Ctrl Pts',(4.55697613338519,729.60682083228,-77.3807811338797));
#624=CARTESIAN_POINT('Ctrl Pts',(3.6414559617309,730.362690010189,-77.493244166747));
#625=CARTESIAN_POINT('Ctrl Pts',(3.62386686948,730.185574880899,-77.5109288784475));
#626=CARTESIAN_POINT('Ctrl Pts',(3.58833795989579,730.011206638908,-77.5465180479569));
#627=CARTESIAN_POINT('Ctrl Pts',(3.53892877368257,729.844867537145,-77.5982067630577));
#628=CARTESIAN_POINT('Ctrl Pts',(3.14662297821302,730.391649811303,-77.4906481016774));
#629=CARTESIAN_POINT('Ctrl Pts',(3.12657984627159,730.233911230645,-77.5047883790144));
#630=CARTESIAN_POINT('Ctrl Pts',(3.08611984565326,730.078097052203,-77.5333651715885));
#631=CARTESIAN_POINT('Ctrl Pts',(3.02948352124122,729.927364097017,-77.5752713801515));
#632=CARTESIAN_POINT('',(3.02948352124124,729.927364097018,-77.5752713801514));
#633=CARTESIAN_POINT('',(5.57063849392615,729.123792668446,-76.2794271797014));
#634=CARTESIAN_POINT('Origin',(3.02948352124124,729.123792668446,-74.6848954601051));
#635=CARTESIAN_POINT('Ctrl Pts',(5.57063849392614,729.123792668446,-76.2794271797014));
#636=CARTESIAN_POINT('Ctrl Pts',(5.61028392101341,729.448448264209,-76.2162455114104));
#637=CARTESIAN_POINT('Ctrl Pts',(5.6386059214475,729.784048033189,-76.1731605010637));
#638=CARTESIAN_POINT('Ctrl Pts',(5.65263611380638,730.123792668446,-76.1518413136944));
#639=CARTESIAN_POINT('Ctrl Pts',(3.14662297821302,730.391649811303,-77.4906481016774));
#640=CARTESIAN_POINT('Ctrl Pts',(3.12657984627159,730.233911230645,-77.5047883790144));
#641=CARTESIAN_POINT('Ctrl Pts',(3.08611984565326,730.078097052203,-77.5333651715885));
#642=CARTESIAN_POINT('Ctrl Pts',(3.02948352124122,729.927364097017,-77.5752713801515));
#643=CARTESIAN_POINT('Ctrl Pts',(5.57063849392618,729.123792668446,-76.2794271797014));
#644=CARTESIAN_POINT('Ctrl Pts',(5.50602146291086,729.048200160983,-76.38240530655));
#645=CARTESIAN_POINT('Ctrl Pts',(5.39451893480221,728.899047175505,-76.6410267208727));
#646=CARTESIAN_POINT('Ctrl Pts',(5.28160790097311,728.7258907379,-77.1594896750812));
#647=CARTESIAN_POINT('Ctrl Pts',(5.26606101485453,728.651582779037,-77.5848599256662));
#648=CARTESIAN_POINT('Ctrl Pts',(5.36470966589066,728.626956294518,-77.6584123567256));
#649=CARTESIAN_POINT('Ctrl Pts',(5.42092585332095,728.623792668871,-77.6206736844666));
#650=CARTESIAN_POINT('Ctrl Pts',(5.47601574223669,728.623792668446,-77.5583598189248));
#651=CARTESIAN_POINT('Ctrl Pts',(5.30975746220182,729.284890930332,-76.6951850620302));
#652=CARTESIAN_POINT('Ctrl Pts',(5.2373540284935,729.218878451744,-76.7806552022098));
#653=CARTESIAN_POINT('Ctrl Pts',(5.11289422987897,729.076462718376,-76.9800398801639));
#654=CARTESIAN_POINT('Ctrl Pts',(5.02521201080367,728.823167268817,-77.4031828863427));
#655=CARTESIAN_POINT('Ctrl Pts',(5.10666795315978,728.668389142102,-77.7931338360882));
#656=CARTESIAN_POINT('Ctrl Pts',(5.30606675474021,728.621696118275,-77.8725107302352));
#657=CARTESIAN_POINT('Ctrl Pts',(5.39719625069804,728.618932527205,-77.8438614455505));
#658=CARTESIAN_POINT('Ctrl Pts',(5.47601573564172,728.623792667098,-77.7919328715431));
#659=CARTESIAN_POINT('Ctrl Pts',(4.5569761267216,729.606820830173,-77.3807811221189));
#660=CARTESIAN_POINT('Ctrl Pts',(4.47320393976554,729.51805992117,-77.4396988929606));
#661=CARTESIAN_POINT('Ctrl Pts',(4.36779861231833,729.316077400429,-77.5610373553461));
#662=CARTESIAN_POINT('Ctrl Pts',(4.44735991380806,728.905217281927,-77.8650462964225));
#663=CARTESIAN_POINT('Ctrl Pts',(4.76847072630941,728.640988007373,-78.2023249597596));
#664=CARTESIAN_POINT('Ctrl Pts',(5.18293113604944,728.562935358024,-78.2985644256106));
#665=CARTESIAN_POINT('Ctrl Pts',(5.34692217411126,728.559320517165,-78.2890860191195));
#666=CARTESIAN_POINT('Ctrl Pts',(5.4760157216715,728.568972223885,-78.259063605589));
#667=CARTESIAN_POINT('Ctrl Pts',(3.53892877368264,729.844867537145,-77.5982067630576));
#668=CARTESIAN_POINT('Ctrl Pts',(3.44943746374529,729.65957996494,-77.6583710631175));
#669=CARTESIAN_POINT('Ctrl Pts',(3.42085430633544,729.280996291844,-77.8249060288503));
#670=CARTESIAN_POINT('Ctrl Pts',(3.80019981525848,728.759344221826,-78.2179469599058));
#671=CARTESIAN_POINT('Ctrl Pts',(4.40986612946056,728.493870222765,-78.5700664197311));
#672=CARTESIAN_POINT('Ctrl Pts',(5.05360378916582,728.410443116094,-78.6994104806181));
#673=CARTESIAN_POINT('Ctrl Pts',(5.29376575471989,728.402866471056,-78.7101021023393));
#674=CARTESIAN_POINT('Ctrl Pts',(5.47601570689925,728.40755138731,-78.7008324560115));
#675=CARTESIAN_POINT('Ctrl Pts',(3.0294835212413,729.927364097018,-77.5752713801514));
#676=CARTESIAN_POINT('Ctrl Pts',(2.93717347693662,729.68168844778,-77.6435731989749));
#677=CARTESIAN_POINT('Ctrl Pts',(2.94714169535656,729.19694124496,-77.8623337244356));
#678=CARTESIAN_POINT('Ctrl Pts',(3.47675923651976,728.634182822751,-78.3566042733755));
#679=CARTESIAN_POINT('Ctrl Pts',(4.23058789950214,728.392681956438,-78.7379478325472));
#680=CARTESIAN_POINT('Ctrl Pts',(4.98895771419002,728.312645881751,-78.8888290370702));
#681=CARTESIAN_POINT('Ctrl Pts',(5.26718587386432,728.302364098398,-78.9093798216831));
#682=CARTESIAN_POINT('Ctrl Pts',(5.47601569951288,728.302364097017,-78.9093798244207));
#683=CARTESIAN_POINT('',(3.65479845788819,728.623792680687,-78.4189390568716));
#684=CARTESIAN_POINT('',(5.47601574172192,728.623792668446,-77.5583598268747));
#685=CARTESIAN_POINT('Ctrl Pts',(3.65479850715515,728.623792668446,-78.4189390716081));
#686=CARTESIAN_POINT('Ctrl Pts',(3.7826069061932,728.623792668446,-78.4189390716081));
#687=CARTESIAN_POINT('Ctrl Pts',(3.91081343989136,728.623792668437,-78.4117078835278));
#688=CARTESIAN_POINT('Ctrl Pts',(4.37498566216376,728.623792668437,-78.3554607906744));
#689=CARTESIAN_POINT('Ctrl Pts',(4.67292843482045,728.623792668446,-78.2606041245914));
#690=CARTESIAN_POINT('Ctrl Pts',(5.01628874895776,728.623792668446,-78.0643915558005));
#691=CARTESIAN_POINT('Ctrl Pts',(5.113366839241,728.623792668446,-77.9951901388913));
#692=CARTESIAN_POINT('Ctrl Pts',(5.3192660747963,728.623792668446,-77.8032348059202));
#693=CARTESIAN_POINT('Ctrl Pts',(5.39472375672367,728.623792668446,-77.6927989544639));
#694=CARTESIAN_POINT('Ctrl Pts',(5.46944753550938,728.623792668446,-77.5693049926748));
#695=CARTESIAN_POINT('Ctrl Pts',(5.47273898250994,728.623792668446,-77.563833791706));
#696=CARTESIAN_POINT('Ctrl Pts',(5.47601574223668,728.623792668446,-77.5583598271828));
#697=CARTESIAN_POINT('Ctrl Pts',(5.47601573806592,728.623792668446,-77.5583598236425));
#698=CARTESIAN_POINT('Ctrl Pts',(5.46952041472117,728.62379266851,-77.5657068832836));
#699=CARTESIAN_POINT('Ctrl Pts',(5.46320400474582,728.623825631305,-77.5725939060041));
#700=CARTESIAN_POINT('Ctrl Pts',(5.45706844730256,728.623892210631,-77.5790065158664));
#701=CARTESIAN_POINT('Ctrl Pts',(5.44228966856327,728.62405258092,-77.5944526335454));
#702=CARTESIAN_POINT('Ctrl Pts',(5.42852206578777,728.624409170232,-77.6071570383184));
#703=CARTESIAN_POINT('Ctrl Pts',(5.4158043227789,728.624973434517,-77.6170840716379));
#704=CARTESIAN_POINT('Ctrl Pts',(5.40322900445968,728.625531379665,-77.6268999331372));
#705=CARTESIAN_POINT('Ctrl Pts',(5.39168015525215,728.626292193583,-77.6340001209872));
#706=CARTESIAN_POINT('Ctrl Pts',(5.38116613202034,728.627263797919,-77.6383917586745));
#707=CARTESIAN_POINT('Ctrl Pts',(5.37075952026548,728.628225476326,-77.6427385313012));
#708=CARTESIAN_POINT('Ctrl Pts',(5.36136659143707,728.629393503555,-77.6444316799464));
#709=CARTESIAN_POINT('Ctrl Pts',(5.35296770408005,728.630774958159,-77.6435212808468));
#710=CARTESIAN_POINT('Ctrl Pts',(5.35178311712831,728.630969799813,-77.6433928773038));
#711=CARTESIAN_POINT('Ctrl Pts',(5.35061826050287,728.631168888273,-77.6432127552037));
#712=CARTESIAN_POINT('Ctrl Pts',(5.34947303651989,728.631372245086,-77.6429811272682));
#713=CARTESIAN_POINT('Ctrl Pts',(5.34481268045996,728.632199782029,-77.6420385442721));
#714=CARTESIAN_POINT('Ctrl Pts',(5.34047750685391,728.633097973543,-77.6402432025886));
#715=CARTESIAN_POINT('Ctrl Pts',(5.33641161444948,728.634060355789,-77.6378060007595));
#716=CARTESIAN_POINT('Ctrl Pts',(5.33192084214786,728.635123305593,-77.6351141148514));
#717=CARTESIAN_POINT('Ctrl Pts',(5.32776213038609,728.636274783161,-77.6314947748452));
#718=CARTESIAN_POINT('Ctrl Pts',(5.32389247083726,728.637505411565,-77.6272054774845));
#719=CARTESIAN_POINT('Ctrl Pts',(5.31782600057378,728.639434669302,-77.6204811404822));
#720=CARTESIAN_POINT('Ctrl Pts',(5.31247155338555,728.641558279634,-77.6121114984311));
#721=CARTESIAN_POINT('Ctrl Pts',(5.30781244556277,728.6438636259,-77.6022990921017));
#722=CARTESIAN_POINT('Ctrl Pts',(5.30319373122208,728.6461489853,-77.5925717572654));
#723=CARTESIAN_POINT('Ctrl Pts',(5.29925791944585,728.648612622487,-77.5814269583136));
#724=CARTESIAN_POINT('Ctrl Pts',(5.29594478905851,728.651243443715,-77.569100250069));
#725=CARTESIAN_POINT('Ctrl Pts',(5.29242199041389,728.654040753923,-77.5559934579964));
#726=CARTESIAN_POINT('Ctrl Pts',(5.28960308401613,728.657026708845,-77.5415505363606));
#727=CARTESIAN_POINT('Ctrl Pts',(5.28736914098095,728.660194813966,-77.5260948470528));
#728=CARTESIAN_POINT('Ctrl Pts',(5.28534599228994,728.663063977427,-77.5120975529859));
#729=CARTESIAN_POINT('Ctrl Pts',(5.28380166540937,728.666082533394,-77.4972704632873));
#730=CARTESIAN_POINT('Ctrl Pts',(5.28262041247256,728.669253318243,-77.4818770351601));
#731=CARTESIAN_POINT('Ctrl Pts',(5.28112835816441,728.673258373424,-77.4624334172537));
#732=CARTESIAN_POINT('Ctrl Pts',(5.28035973184594,728.677458761622,-77.4420056707048));
#733=CARTESIAN_POINT('Ctrl Pts',(5.28018143064425,728.681843575519,-77.420890436506));
#734=CARTESIAN_POINT('Ctrl Pts',(5.27997860229676,728.686831565216,-77.3968705868413));
#735=CARTESIAN_POINT('Ctrl Pts',(5.28053962457402,728.692058118802,-77.3719607482654));
#736=CARTESIAN_POINT('Ctrl Pts',(5.2816993462916,728.697515102339,-77.3465349453647));
#737=CARTESIAN_POINT('Ctrl Pts',(5.28304019273246,728.703824354674,-77.3171381540413));
#738=CARTESIAN_POINT('Ctrl Pts',(5.28518152766929,728.71044148068,-77.2870500865625));
#739=CARTESIAN_POINT('Ctrl Pts',(5.28790634245617,728.717366023942,-77.256784722931));
#740=CARTESIAN_POINT('Ctrl Pts',(5.29041337395578,728.723737116819,-77.2289383458722));
#741=CARTESIAN_POINT('Ctrl Pts',(5.2934155003586,728.730368664657,-77.2009390270355));
#742=CARTESIAN_POINT('Ctrl Pts',(5.29676137410594,728.737268595594,-77.1731736353626));
#743=CARTESIAN_POINT('Ctrl Pts',(5.30131485009574,728.746658869174,-77.1353870797789));
#744=CARTESIAN_POINT('Ctrl Pts',(5.30650406113304,728.75654543388,-77.0980321443762));
#745=CARTESIAN_POINT('Ctrl Pts',(5.31233620302833,728.766986687196,-77.060953423116));
#746=CARTESIAN_POINT('Ctrl Pts',(5.3130502462884,728.768265035132,-77.0564137854523));
#747=CARTESIAN_POINT('Ctrl Pts',(5.31377396082535,728.769551725011,-77.0518783353655));
#748=CARTESIAN_POINT('Ctrl Pts',(5.31450738738585,728.770846886525,-77.0473468287399));
#749=CARTESIAN_POINT('Ctrl Pts',(5.32331205925495,728.786395099199,-76.9929467959897));
#750=CARTESIAN_POINT('Ctrl Pts',(5.33341427616249,728.802987671453,-76.9397511035105));
#751=CARTESIAN_POINT('Ctrl Pts',(5.34463092631746,728.82050628772,-76.8881696957015));
#752=CARTESIAN_POINT('Ctrl Pts',(5.35565514318433,728.837724353922,-76.8374732205392));
#753=CARTESIAN_POINT('Ctrl Pts',(5.367755167531,728.855836590235,-76.7883368901197));
#754=CARTESIAN_POINT('Ctrl Pts',(5.3807302067532,728.874708928349,-76.7411145185216));
#755=CARTESIAN_POINT('Ctrl Pts',(5.38807830880571,728.885396824089,-76.7143712617405));
#756=CARTESIAN_POINT('Ctrl Pts',(5.39570661693543,728.896328137096,-76.6882411487753));
#757=CARTESIAN_POINT('Ctrl Pts',(5.40357603890358,728.907476028806,-76.6627818871302));
#758=CARTESIAN_POINT('Ctrl Pts',(5.40988187727725,728.916408934376,-76.6423811525278));
#759=CARTESIAN_POINT('Ctrl Pts',(5.41634252242211,728.925480844716,-76.6224110659116));
#760=CARTESIAN_POINT('Ctrl Pts',(5.42295167646726,728.934666398542,-76.6028902216072));
#761=CARTESIAN_POINT('Ctrl Pts',(5.43861433181663,728.956434716058,-76.5566288915822));
#762=CARTESIAN_POINT('Ctrl Pts',(5.45514588292881,728.978890674602,-76.5127772427684));
#763=CARTESIAN_POINT('Ctrl Pts',(5.47257283008892,729.001846119945,-76.4713461307033));
#764=CARTESIAN_POINT('Ctrl Pts',(5.48954032814964,729.024196361256,-76.431007320517));
#765=CARTESIAN_POINT('Ctrl Pts',(5.50735672989688,729.047020889441,-76.3929628475616));
#766=CARTESIAN_POINT('Ctrl Pts',(5.52606341042882,729.070156915394,-76.3572667541706));
#767=CARTESIAN_POINT('Ctrl Pts',(5.54039082226199,729.087876754649,-76.3299271826214));
#768=CARTESIAN_POINT('Ctrl Pts',(5.55524080811569,729.105779620473,-76.3039659865399));
#769=CARTESIAN_POINT('Ctrl Pts',(5.57063849392618,729.123792668446,-76.2794271797014));
#770=CARTESIAN_POINT('Ctrl Pts',(3.0294835212413,729.927364097018,-77.5752713801514));
#771=CARTESIAN_POINT('Ctrl Pts',(2.93717347693662,729.68168844778,-77.6435731989749));
#772=CARTESIAN_POINT('Ctrl Pts',(2.94714169535656,729.19694124496,-77.8623337244356));
#773=CARTESIAN_POINT('Ctrl Pts',(3.31913942001718,728.801665718142,-78.2095040979254));
#774=CARTESIAN_POINT('Ctrl Pts',(3.62382090808694,728.639294127153,-78.4009267592671));
#775=CARTESIAN_POINT('Ctrl Pts',(3.65439117257554,728.624022458414,-78.4194445463537));
#776=CARTESIAN_POINT('Origin',(11.5000000968575,730.123792668446,-80.0000011920929));
#777=CARTESIAN_POINT('',(11.5000000968575,730.123792668446,-73.0000011920929));
#778=CARTESIAN_POINT('Origin',(11.5000000968575,730.123792668446,-80.0000011920929));
#779=CARTESIAN_POINT('',(11.5000000968575,728.623792668446,-74.5000011920929));
#780=CARTESIAN_POINT('Origin',(11.5000000968575,730.123792668446,-74.5000011920929));
#781=CARTESIAN_POINT('Origin',(11.5000000968575,728.623792668446,-80.0000011920929));
#782=CARTESIAN_POINT('Origin',(11.5000000968575,730.123792668446,-80.0000011920929));
#783=CARTESIAN_POINT('Origin',(5.50000078105389,730.623792668446,-80.0802638441916));
#784=CARTESIAN_POINT('Origin',(5.50000078105389,730.623792668446,-80.0802638441916));
#785=CARTESIAN_POINT('Origin',(-53.4999992189461,730.623792668446,-80.0802638441916));
#786=CARTESIAN_POINT('',(-50.9999992189461,728.623792668446,-81.7415886167752));
#787=CARTESIAN_POINT('',(-53.4999992189461,728.623792668446,-81.7415886167752));
#788=CARTESIAN_POINT('',(-50.9999992189461,730.623792668446,-82.6802638441916));
#789=CARTESIAN_POINT('Origin',(-50.9999992189461,730.623792668446,-80.0802638441916));
#790=CARTESIAN_POINT('',(-50.9999992189461,728.623792668446,-78.418939071608));
#791=CARTESIAN_POINT('Origin',(-50.9999992189461,730.623792668446,-80.0802638441916));
#792=CARTESIAN_POINT('',(-53.4999992189461,728.623792668446,-78.418939071608));
#793=CARTESIAN_POINT('Ctrl Pts',(-50.9999992189461,730.623792668446,-82.6802638441916));
#794=CARTESIAN_POINT('Ctrl Pts',(-50.9999992189461,728.023792668446,-82.6802638441916));
#795=CARTESIAN_POINT('Ctrl Pts',(-50.9999992189461,728.023792668446,-80.0802638441916));
#796=CARTESIAN_POINT('Ctrl Pts',(-50.9999992189461,728.023792668446,-77.4802638441916));
#797=CARTESIAN_POINT('Ctrl Pts',(-50.9999992189461,730.623792668446,-77.4802638441916));
#798=CARTESIAN_POINT('Ctrl Pts',(-50.9999992189461,733.223792668446,-77.4802638441916));
#799=CARTESIAN_POINT('Ctrl Pts',(-50.9999992189461,733.223792668446,-80.0802638441916));
#800=CARTESIAN_POINT('Ctrl Pts',(-50.9999992189461,733.223792668446,-82.6802638441916));
#801=CARTESIAN_POINT('Ctrl Pts',(-50.9999992189461,730.623792668446,-82.6802638441916));
#802=CARTESIAN_POINT('Ctrl Pts',(-53.4999992189461,730.623792668446,-82.6802638441916));
#803=CARTESIAN_POINT('Ctrl Pts',(-53.4999992189461,728.023792668446,-82.6802638441916));
#804=CARTESIAN_POINT('Ctrl Pts',(-53.4999992189461,728.023792668446,-80.0802638441916));
#805=CARTESIAN_POINT('Ctrl Pts',(-53.4999992189461,728.023792668446,-77.4802638441916));
#806=CARTESIAN_POINT('Ctrl Pts',(-53.4999992189461,730.623792668446,-77.4802638441916));
#807=CARTESIAN_POINT('Ctrl Pts',(-53.4999992189461,733.223792668446,-77.4802638441916));
#808=CARTESIAN_POINT('Ctrl Pts',(-53.4999992189461,733.223792668446,-80.0802638441916));
#809=CARTESIAN_POINT('Ctrl Pts',(-53.4999992189461,733.223792668446,-82.6802638441916));
#810=CARTESIAN_POINT('Ctrl Pts',(-53.4999992189461,730.623792668446,-82.6802638441916));
#811=CARTESIAN_POINT('Ctrl Pts',(-53.4999992189461,730.623792668446,-80.1802638441916));
#812=CARTESIAN_POINT('Ctrl Pts',(-53.4999992189461,730.523792668446,-80.1802638441916));
#813=CARTESIAN_POINT('Ctrl Pts',(-53.4999992189461,730.523792668446,-80.0802638441916));
#814=CARTESIAN_POINT('Ctrl Pts',(-53.4999992189461,730.523792668446,-79.9802638441916));
#815=CARTESIAN_POINT('Ctrl Pts',(-53.4999992189461,730.623792668446,-79.9802638441916));
#816=CARTESIAN_POINT('Ctrl Pts',(-53.4999992189461,730.723792668446,-79.9802638441916));
#817=CARTESIAN_POINT('Ctrl Pts',(-53.4999992189461,730.723792668446,-80.0802638441916));
#818=CARTESIAN_POINT('Ctrl Pts',(-53.4999992189461,730.723792668446,-80.1802638441916));
#819=CARTESIAN_POINT('Ctrl Pts',(-53.4999992189461,730.623792668446,-80.1802638441916));
#820=CARTESIAN_POINT('',(-53.4999992189461,730.623792668446,-80.1802638441916));
#821=CARTESIAN_POINT('Origin',(-53.4999992189461,730.623792668446,-80.0802638441916));
#822=CARTESIAN_POINT('Origin',(-50.9999992189461,730.623792668446,-80.1802638441916));
#823=CARTESIAN_POINT('Ctrl Pts',(-50.9999992189461,728.623792668446,-81.7415886167752));
#824=CARTESIAN_POINT('Ctrl Pts',(-51.1387283763441,728.623792668446,-81.7415886167752));
#825=CARTESIAN_POINT('Ctrl Pts',(-51.303606841163,728.623792668446,-81.7185883176311));
#826=CARTESIAN_POINT('Ctrl Pts',(-51.5778240182585,728.623792668446,-81.6406602023331));
#827=CARTESIAN_POINT('Ctrl Pts',(-51.7379873170862,728.623792668446,-81.5686295101451));
#828=CARTESIAN_POINT('Ctrl Pts',(-52.004469403413,728.623792668446,-81.3988579708636));
#829=CARTESIAN_POINT('Ctrl Pts',(-52.1555399972168,728.623792668446,-81.2624458488397));
#830=CARTESIAN_POINT('Ctrl Pts',(-52.3291543345902,728.623792668446,-81.0441439663375));
#831=CARTESIAN_POINT('Ctrl Pts',(-52.3994792915974,728.623792668446,-80.9334290514499));
#832=CARTESIAN_POINT('Ctrl Pts',(-52.5578668176533,728.623792668446,-80.6148471913633));
#833=CARTESIAN_POINT('Ctrl Pts',(-52.6248068998733,728.623792668446,-80.3267446770262));
#834=CARTESIAN_POINT('Ctrl Pts',(-52.6248068998733,728.623792668446,-79.833783011357));
#835=CARTESIAN_POINT('Ctrl Pts',(-52.5578668176533,728.623792668446,-79.5456804970199));
#836=CARTESIAN_POINT('Ctrl Pts',(-52.3994792915974,728.623792668446,-79.2270986369332));
#837=CARTESIAN_POINT('Ctrl Pts',(-52.3291543345902,728.623792668446,-79.1163837220457));
#838=CARTESIAN_POINT('Ctrl Pts',(-52.1555399972168,728.623792668446,-78.8980818395435));
#839=CARTESIAN_POINT('Ctrl Pts',(-52.004469403413,728.623792668446,-78.7616697175196));
#840=CARTESIAN_POINT('Ctrl Pts',(-51.7379873170862,728.623792668446,-78.5918981782381));
#841=CARTESIAN_POINT('Ctrl Pts',(-51.5778240182585,728.623792668446,-78.5198674860501));
#842=CARTESIAN_POINT('Ctrl Pts',(-51.303606841163,728.623792668446,-78.4419393707521));
#843=CARTESIAN_POINT('Ctrl Pts',(-51.1387283763441,728.623792668446,-78.418939071608));
#844=CARTESIAN_POINT('Ctrl Pts',(-50.9999992189461,728.623792668446,-78.418939071608));
#845=CARTESIAN_POINT('Origin',(-53.4999992189461,716.248792668446,-80.0802638441916));
#846=CARTESIAN_POINT('Origin',(11.5000000968575,729.123792668446,-80.0000011920929));
#847=CARTESIAN_POINT('Origin',(11.5000000968575,728.623792668446,-80.0000011920929));
#848=CARTESIAN_POINT('Origin',(11.5000000968575,729.123792668446,-80.0000011920929));
#849=CARTESIAN_POINT('Origin',(11.5000000968575,728.623792668446,-80.0000011920929));
#850=CARTESIAN_POINT('Origin',(6.50000078105388,728.623792668446,-78.3417299791202));
#851=UNCERTAINTY_MEASURE_WITH_UNIT(LENGTH_MEASURE(0.01),#855,
'DISTANCE_ACCURACY_VALUE',
'Maximum model space distance between geometric entities at asserted c
onnectivities');
#852=UNCERTAINTY_MEASURE_WITH_UNIT(LENGTH_MEASURE(0.01),#855,
'DISTANCE_ACCURACY_VALUE',
'Maximum model space distance between geometric entities at asserted c
onnectivities');
#853=(
GEOMETRIC_REPRESENTATION_CONTEXT(3)
GLOBAL_UNCERTAINTY_ASSIGNED_CONTEXT((#851))
GLOBAL_UNIT_ASSIGNED_CONTEXT((#855,#857,#858))
REPRESENTATION_CONTEXT('','3D')
);
#854=(
GEOMETRIC_REPRESENTATION_CONTEXT(3)
GLOBAL_UNCERTAINTY_ASSIGNED_CONTEXT((#852))
GLOBAL_UNIT_ASSIGNED_CONTEXT((#855,#857,#858))
REPRESENTATION_CONTEXT('','3D')
);
#855=(
LENGTH_UNIT()
NAMED_UNIT(*)
SI_UNIT(.MILLI.,.METRE.)
);
#856=(
LENGTH_UNIT()
NAMED_UNIT(*)
SI_UNIT($,.METRE.)
);
#857=(
NAMED_UNIT(*)
PLANE_ANGLE_UNIT()
SI_UNIT($,.RADIAN.)
);
#858=(
NAMED_UNIT(*)
SI_UNIT($,.STERADIAN.)
SOLID_ANGLE_UNIT()
);
#859=SHAPE_DEFINITION_REPRESENTATION(#860,#861);
#860=PRODUCT_DEFINITION_SHAPE('',$,#863);
#861=SHAPE_REPRESENTATION('',(#258),#853);
#862=PRODUCT_DEFINITION_CONTEXT('part definition',#867,'design');
#863=PRODUCT_DEFINITION('1M2A','moveo v65',#864,#862);
#864=PRODUCT_DEFINITION_FORMATION('',$,#869);
#865=PRODUCT_RELATED_PRODUCT_CATEGORY('moveo v65','moveo v65',(#869));
#866=APPLICATION_PROTOCOL_DEFINITION('international standard',
'automotive_design',2009,#867);
#867=APPLICATION_CONTEXT(
'Core Data for Automotive Mechanical Design Process');
#868=PRODUCT_CONTEXT('part definition',#867,'mechanical');
#869=PRODUCT('1M2A','moveo v65','STEP AP214',(#868));
#870=PRESENTATION_STYLE_ASSIGNMENT((#872));
#871=PRESENTATION_STYLE_ASSIGNMENT((#873));
#872=SURFACE_STYLE_USAGE(.BOTH.,#874);
#873=SURFACE_STYLE_USAGE(.BOTH.,#875);
#874=SURFACE_SIDE_STYLE('',(#876));
#875=SURFACE_SIDE_STYLE('',(#877));
#876=SURFACE_STYLE_FILL_AREA(#878);
#877=SURFACE_STYLE_FILL_AREA(#879);
#878=FILL_AREA_STYLE('Steel - Satin',(#880));
#879=FILL_AREA_STYLE('Opaque(202,209,238)',(#881));
#880=FILL_AREA_STYLE_COLOUR('Steel - Satin',#882);
#881=FILL_AREA_STYLE_COLOUR('Opaque(202,209,238)',#883);
#882=COLOUR_RGB('Steel - Satin',0.627450980392157,0.627450980392157,0.627450980392157);
#883=COLOUR_RGB('Opaque(202,209,238)',0.792156862745098,0.819607843137255,
0.933333333333333);
ENDSEC;
END-ISO-10303-21;
