ISO-10303-21;
HEADER;
FILE_DESCRIPTION (( 'STEP AP214' ),
    '1' );
FILE_NAME ('Pivot Arm B.STEP',
    '2026-07-03T01:16:26',
    ( '' ),
    ( '' ),
    'SwSTEP 2.0',
    'SolidWorks 2026',
    '' );
FILE_SCHEMA (( 'AUTOMOTIVE_DESIGN' ));
ENDSEC;

DATA;
#1 = CARTESIAN_POINT ( 'NONE',  ( 40.00000000000000000, 1.000000000000000000, 3.999999999999998224 ) ) ;
#2 = CARTESIAN_POINT ( 'NONE',  ( 37.65400170876691277, 0.02363850000207588439, -2.250641295216408100 ) ) ;
#3 = ORIENTED_EDGE ( 'NONE', *, *, #703, .T. ) ;
#4 = EDGE_CURVE ( 'NONE', #714, #601, #26, .T. ) ;
#5 = DIRECTION ( 'NONE',  ( 0.000000000000000000, 0.000000000000000000, 1.000000000000000000 ) ) ;
#6 = CYLINDRICAL_SURFACE ( 'NONE', #821, 1.000000000000000000 ) ;
#7 = DIRECTION ( 'NONE',  ( -1.249494797405735352E-16, 0.000000000000000000, -1.000000000000000000 ) ) ;
#8 = FACE_OUTER_BOUND ( 'NONE', #634, .T. ) ;
#9 = LINE ( 'NONE', #580, #742 ) ;
#10 = EDGE_CURVE ( 'NONE', #286, #903, #249, .T. ) ;
#11 = LINE ( 'NONE', #670, #847 ) ;
#12 = CARTESIAN_POINT ( 'NONE',  ( 2.645751311064596045, 1.000000000000000000, 3.000000000000004441 ) ) ;
#13 = DIRECTION ( 'NONE',  ( 1.000000000000000000, 0.000000000000000000, -1.249494797405735106E-16 ) ) ;
#14 = AXIS2_PLACEMENT_3D ( 'NONE', #904, #388, #171 ) ;
#15 = CARTESIAN_POINT ( 'NONE',  ( 2.236067977499798243, 6.000000000000000000, -1.999999999999995781 ) ) ;
#16 = VECTOR ( 'NONE', #47, 1000.000000000000000 ) ;
#17 = CARTESIAN_POINT ( 'NONE',  ( 0.000000000000000000, 0.000000000000000000, 0.000000000000000000 ) ) ;
#18 = DIRECTION ( 'NONE',  ( -2.312964634635744239E-15, 0.000000000000000000, 1.000000000000000000 ) ) ;
#19 = DIRECTION ( 'NONE',  ( 1.000000000000000000, 0.000000000000000000, -1.249494797405734613E-16 ) ) ;
#20 = EDGE_CURVE ( 'NONE', #467, #53, #624, .T. ) ;
#21 =( NAMED_UNIT ( * ) PLANE_ANGLE_UNIT ( ) SI_UNIT ( $, .RADIAN. ) );
#22 = CARTESIAN_POINT ( 'NONE',  ( 40.00000000000000000, 5.000000000000000000, 0.000000000000000000 ) ) ;
#23 =( LENGTH_UNIT ( ) NAMED_UNIT ( * ) SI_UNIT ( .MILLI., .METRE. ) );
#24 = CARTESIAN_POINT ( 'NONE',  ( 2.489386015814165187, 5.812189889182073799, -2.597825692485378202 ) ) ;
#25 = ORIENTED_EDGE ( 'NONE', *, *, #486, .T. ) ;
#26 = CIRCLE ( 'NONE', #381, 2.999999999999998224 ) ;
#27 = DIRECTION ( 'NONE',  ( -0.000000000000000000, -1.000000000000000000, -0.000000000000000000 ) ) ;
#28 = CARTESIAN_POINT ( 'NONE',  ( 37.76393202250020664, 6.000000000000000000, -2.000000000000000000 ) ) ;
#29 = EDGE_LOOP ( 'NONE', ( #235, #929, #831, #350 ) ) ;
#30 = CARTESIAN_POINT ( 'NONE',  ( 40.00000000000000000, 6.000000000000000000, -3.999999999999998224 ) ) ;
#31 = DIRECTION ( 'NONE',  ( 0.000000000000000000, 1.000000000000000000, -0.000000000000000000 ) ) ;
#32 = ORIENTED_EDGE ( 'NONE', *, *, #872, .F. ) ;
#33 = AXIS2_PLACEMENT_3D ( 'NONE', #823, #188, #612 ) ;
#34 = DIRECTION ( 'NONE',  ( 0.000000000000000000, 0.000000000000000000, 1.000000000000000000 ) ) ;
#35 = EDGE_LOOP ( 'NONE', ( #710, #683, #257, #67 ) ) ;
#36 = CARTESIAN_POINT ( 'NONE',  ( 40.00000000000000000, 5.000000000000000000, 0.000000000000000000 ) ) ;
#37 = CIRCLE ( 'NONE', #274, 4.000000000000003553 ) ;
#38 = ORIENTED_EDGE ( 'NONE', *, *, #707, .F. ) ;
#39 = EDGE_CURVE ( 'NONE', #117, #321, #593, .T. ) ;
#40 = CARTESIAN_POINT ( 'NONE',  ( 0.000000000000000000, 0.000000000000000000, 0.000000000000000000 ) ) ;
#41 = VERTEX_POINT ( 'NONE', #359 ) ;
#42 = DIRECTION ( 'NONE',  ( 0.000000000000000000, 0.000000000000000000, 1.000000000000000000 ) ) ;
#43 = AXIS2_PLACEMENT_3D ( 'NONE', #863, #125, #783 ) ;
#44 = ORIENTED_EDGE ( 'NONE', *, *, #589, .T. ) ;
#45 = CIRCLE ( 'NONE', #284, 1.649999999999995470 ) ;
#46 = CIRCLE ( 'NONE', #529, 3.999999999999998224 ) ;
#47 = DIRECTION ( 'NONE',  ( -0.000000000000000000, -1.000000000000000000, -0.000000000000000000 ) ) ;
#48 = ORIENTED_EDGE ( 'NONE', *, *, #678, .T. ) ;
#49 = AXIS2_PLACEMENT_3D ( 'NONE', #583, #160, #671 ) ;
#50 = CYLINDRICAL_SURFACE ( 'NONE', #544, 1.649999999999995470 ) ;
#51 = ORIENTED_EDGE ( 'NONE', *, *, #317, .T. ) ;
#52 = DIRECTION ( 'NONE',  ( 0.000000000000000000, 0.000000000000000000, -1.000000000000000000 ) ) ;
#53 = VERTEX_POINT ( 'NONE', #883 ) ;
#54 = ADVANCED_FACE ( 'NONE', ( #587 ), #452, .F. ) ;
#55 = EDGE_CURVE ( 'NONE', #522, #499, #802, .T. ) ;
#56 = CARTESIAN_POINT ( 'NONE',  ( 2.236067977499798243, 0.000000000000000000, -1.999999999999995781 ) ) ;
#57 = CARTESIAN_POINT ( 'NONE',  ( 0.000000000000000000, 6.000000000000000000, -4.000000000000003553 ) ) ;
#58 = ORIENTED_EDGE ( 'NONE', *, *, #689, .F. ) ;
#59 = VERTEX_POINT ( 'NONE', #578 ) ;
#60 = LINE ( 'NONE', #197, #118 ) ;
#61 = CARTESIAN_POINT ( 'NONE',  ( 2.563987644759150974, 0.3685351818337911367, 2.786320645858636702 ) ) ;
#62 = ORIENTED_EDGE ( 'NONE', *, *, #923, .T. ) ;
#63 = ORIENTED_EDGE ( 'NONE', *, *, #591, .F. ) ;
#64 = DIRECTION ( 'NONE',  ( -1.000000000000000000, 0.000000000000000000, 0.000000000000000000 ) ) ;
#65 = CARTESIAN_POINT ( 'NONE',  ( 37.76393202250020664, 0.000000000000000000, -2.000000000000000000 ) ) ;
#66 = ORIENTED_EDGE ( 'NONE', *, *, #39, .T. ) ;
#67 = ORIENTED_EDGE ( 'NONE', *, *, #854, .F. ) ;
#68 = CARTESIAN_POINT ( 'NONE',  ( 2.236067977499798243, 0.000000000000000000, -1.999999999999995781 ) ) ;
#69 = EDGE_CURVE ( 'NONE', #491, #494, #469, .T. ) ;
#70 = CARTESIAN_POINT ( 'NONE',  ( 37.51060884491462843, 0.1878199120225219065, -2.597838530112850819 ) ) ;
#71 = ORIENTED_EDGE ( 'NONE', *, *, #243, .F. ) ;
#72 = AXIS2_PLACEMENT_3D ( 'NONE', #153, #377, #19 ) ;
#73 = AXIS2_PLACEMENT_3D ( 'NONE', #116, #686, #113 ) ;
#74 = EDGE_CURVE ( 'NONE', #326, #329, #287, .T. ) ;
#75 = FACE_BOUND ( 'NONE', #630, .T. ) ;
#76 = CARTESIAN_POINT ( 'NONE',  ( 37.40579055557155641, 0.4800910507875433830, -2.864753280988030504 ) ) ;
#77 = DIRECTION ( 'NONE',  ( 0.000000000000000000, 0.000000000000000000, 1.000000000000000000 ) ) ;
#78 = B_SPLINE_CURVE_WITH_KNOTS ( 'NONE', 3,
 ( #745, #234, #588, #739, #509, #24, #597, #443, #361, #15 ),
 .UNSPECIFIED., .F., .F.,
 ( 4, 2, 2, 2, 4 ),
 ( 0.000000000000000000, 0.0004068805386277700247, 0.0008137610772555400494, 0.001220641615883310020, 0.001627522154511080099 ),
 .UNSPECIFIED. ) ;
#79 = APPLICATION_CONTEXT ( 'automotive_design' ) ;
#80 = DIRECTION ( 'NONE',  ( -0.000000000000000000, -1.000000000000000000, -0.000000000000000000 ) ) ;
#81 = CARTESIAN_POINT ( 'NONE',  ( 40.00000000000000000, 6.000000000000000000, 0.000000000000000000 ) ) ;
#82 = B_SPLINE_CURVE_WITH_KNOTS ( 'NONE', 3,
 ( #534, #910, #320, #100, #619, #386, #679, #383, #109, #466 ),
 .UNSPECIFIED., .F., .F.,
 ( 4, 2, 2, 2, 4 ),
 ( -7.325717372367723186E-06, 0.0004011533914279254587, 0.0008096325002282185644, 0.001218111609028511670, 0.001626590717828804884 ),
 .UNSPECIFIED. ) ;
#83 = DIRECTION ( 'NONE',  ( 0.000000000000000000, 0.000000000000000000, 1.000000000000000000 ) ) ;
#84 = EDGE_CURVE ( 'NONE', #903, #607, #799, .T. ) ;
#85 = CYLINDRICAL_SURFACE ( 'NONE', #650, 3.999999999999998224 ) ;
#86 = AXIS2_PLACEMENT_3D ( 'NONE', #106, #460, #246 ) ;
#87 = CARTESIAN_POINT ( 'NONE',  ( 40.00000000000000000, 6.000000000000000000, 1.649999999999995470 ) ) ;
#88 = ADVANCED_FACE ( 'NONE', ( #749 ), #85, .T. ) ;
#89 = CIRCLE ( 'NONE', #662, 1.650000000000000133 ) ;
#90 = SURFACE_SIDE_STYLE ('',( #299 ) ) ;
#91 = DIRECTION ( 'NONE',  ( -1.000000000000000000, 0.000000000000000000, 1.249494797405735106E-16 ) ) ;
#92 = CARTESIAN_POINT ( 'NONE',  ( 37.35424868893540662, 5.137631912899505160, -3.000000000000000000 ) ) ;
#93 = ORIENTED_EDGE ( 'NONE', *, *, #557, .T. ) ;
#94 = APPLICATION_CONTEXT ( 'automotive_design' ) ;
#95 = AXIS2_PLACEMENT_3D ( 'NONE', #513, #292, #725 ) ;
#96 = CARTESIAN_POINT ( 'NONE',  ( 40.00000000000000000, 5.000000000000000000, 0.000000000000000000 ) ) ;
#97 = CARTESIAN_POINT ( 'NONE',  ( 40.00000000000000000, 1.000000000000000000, 0.000000000000000000 ) ) ;
#98 = VERTEX_POINT ( 'NONE', #12 ) ;
#99 = VECTOR ( 'NONE', #765, 1000.000000000000000 ) ;
#100 = CARTESIAN_POINT ( 'NONE',  ( 2.444494829940151881, 5.882812291438438201, 2.486564790784507650 ) ) ;
#101 = CARTESIAN_POINT ( 'NONE',  ( 40.00000000000000000, 6.000000000000000000, -1.649999999999995470 ) ) ;
#102 = ORIENTED_EDGE ( 'NONE', *, *, #856, .F. ) ;
#103 = ADVANCED_FACE ( 'NONE', ( #743 ), #6, .T. ) ;
#104 = DIRECTION ( 'NONE',  ( 0.000000000000000000, 0.000000000000000000, 1.000000000000000000 ) ) ;
#105 = EDGE_LOOP ( 'NONE', ( #212, #626, #93, #746 ) ) ;
#106 = CARTESIAN_POINT ( 'NONE',  ( 40.00000000000000000, 1.000000000000000000, -2.999999999999998224 ) ) ;
#107 = EDGE_CURVE ( 'NONE', #59, #886, #533, .T. ) ;
#108 = AXIS2_PLACEMENT_3D ( 'NONE', #174, #244, #324 ) ;
#109 = CARTESIAN_POINT ( 'NONE',  ( 2.645751311064596489, 5.137629477580805570, 3.000000000000004885 ) ) ;
#110 = ORIENTED_EDGE ( 'NONE', *, *, #557, .F. ) ;
#111 = CARTESIAN_POINT ( 'NONE',  ( 2.645751311064595601, 5.000000000000000000, -2.999999999999995559 ) ) ;
#112 = AXIS2_PLACEMENT_3D ( 'NONE', #295, #737, #5 ) ;
#113 = DIRECTION ( 'NONE',  ( 0.000000000000000000, 0.000000000000000000, -1.000000000000000000 ) ) ;
#114 = CARTESIAN_POINT ( 'NONE',  ( 0.000000000000000000, 6.000000000000000000, 0.000000000000000000 ) ) ;
#115 = DIRECTION ( 'NONE',  ( 0.000000000000000000, 0.000000000000000000, 1.000000000000000000 ) ) ;
#116 = CARTESIAN_POINT ( 'NONE',  ( 40.00000000000000000, 5.000000000000000000, -2.999999999999998224 ) ) ;
#117 = VERTEX_POINT ( 'NONE', #28 ) ;
#118 = VECTOR ( 'NONE', #480, 1000.000000000000000 ) ;
#119 = FACE_OUTER_BOUND ( 'NONE', #709, .T. ) ;
#120 = ORIENTED_EDGE ( 'NONE', *, *, #74, .T. ) ;
#121 = VECTOR ( 'NONE', #817, 1000.000000000000000 ) ;
#122 = AXIS2_PLACEMENT_3D ( 'NONE', #586, #811, #302 ) ;
#123 = CARTESIAN_POINT ( 'NONE',  ( 40.00000000000000000, 6.000000000000000000, 2.999999999999998224 ) ) ;
#124 = ORIENTED_EDGE ( 'NONE', *, *, #306, .T. ) ;
#125 = DIRECTION ( 'NONE',  ( 0.000000000000000000, 1.000000000000000000, -0.000000000000000000 ) ) ;
#126 = UNCERTAINTY_MEASURE_WITH_UNIT (LENGTH_MEASURE( 1.000000000000000082E-05 ), #23, 'distance_accuracy_value', 'NONE');
#127 = DIRECTION ( 'NONE',  ( 0.000000000000000000, 1.000000000000000000, -0.000000000000000000 ) ) ;
#128 = ORIENTED_EDGE ( 'NONE', *, *, #750, .T. ) ;
#129 = EDGE_CURVE ( 'NONE', #351, #894, #912, .T. ) ;
#130 = VERTEX_POINT ( 'NONE', #429 ) ;
#131 = VECTOR ( 'NONE', #464, 1000.000000000000000 ) ;
#132 = CIRCLE ( 'NONE', #936, 3.000000000000003553 ) ;
#133 = CARTESIAN_POINT ( 'NONE',  ( 0.000000000000000000, 1.000000000000000000, 0.000000000000000000 ) ) ;
#134 = CARTESIAN_POINT ( 'NONE',  ( 2.645751311064596045, 0.8623680871004957282, 3.000000000000004441 ) ) ;
#135 = VERTEX_POINT ( 'NONE', #657 ) ;
#136 = ORIENTED_EDGE ( 'NONE', *, *, #517, .F. ) ;
#137 = TOROIDAL_SURFACE ( 'NONE', #665, 3.000000000000003553, 1.000000000000000000 ) ;
#138 = CARTESIAN_POINT ( 'NONE',  ( 2.345998291233103217, 0.02363850000207537091, -2.250641295216401883 ) ) ;
#139 = CARTESIAN_POINT ( 'NONE',  ( 37.55551158713895177, 5.882821297843877417, -2.486549034064968744 ) ) ;
#140 = ORIENTED_EDGE ( 'NONE', *, *, #20, .F. ) ;
#141 = ORIENTED_EDGE ( 'NONE', *, *, #777, .F. ) ;
#142 = EDGE_CURVE ( 'NONE', #135, #527, #666, .T. ) ;
#143 = DIRECTION ( 'NONE',  ( 0.000000000000000000, 0.000000000000000000, 1.000000000000000000 ) ) ;
#144 = DIRECTION ( 'NONE',  ( 0.000000000000000000, 1.000000000000000000, -0.000000000000000000 ) ) ;
#145 = EDGE_LOOP ( 'NONE', ( #780, #917, #786, #335 ) ) ;
#146 = DIRECTION ( 'NONE',  ( 0.000000000000000000, 0.000000000000000000, 1.000000000000000000 ) ) ;
#147 = DIRECTION ( 'NONE',  ( -1.000000000000000000, 0.000000000000000000, 1.249494797405735106E-16 ) ) ;
#148 = DIRECTION ( 'NONE',  ( 0.000000000000000000, 1.000000000000000000, -0.000000000000000000 ) ) ;
#149 = DIRECTION ( 'NONE',  ( 0.000000000000000000, 0.000000000000000000, 1.000000000000000000 ) ) ;
#150 = CARTESIAN_POINT ( 'NONE',  ( 37.55550517005984545, 5.882812291438437313, 2.486564790784504098 ) ) ;
#151 = AXIS2_PLACEMENT_3D ( 'NONE', #179, #692, #400 ) ;
#152 = CARTESIAN_POINT ( 'NONE',  ( 40.00000000000000000, 6.000000000000000000, 0.000000000000000000 ) ) ;
#153 = CARTESIAN_POINT ( 'NONE',  ( 3.748484392217210248E-16, 6.000000000000000000, 3.000000000000004885 ) ) ;
#154 = STYLED_ITEM ( 'NONE', ( #223 ), #752 ) ;
#155 = ADVANCED_FACE ( 'NONE', ( #879 ), #262, .T. ) ;
#156 = EDGE_CURVE ( 'NONE', #264, #41, #237, .T. ) ;
#157 = DIRECTION ( 'NONE',  ( -0.000000000000000000, -1.000000000000000000, 0.000000000000000000 ) ) ;
#158 = FACE_OUTER_BOUND ( 'NONE', #687, .T. ) ;
#159 = CARTESIAN_POINT ( 'NONE',  ( 37.35424868893540662, 5.000000000000000000, -3.000000000000000000 ) ) ;
#160 = DIRECTION ( 'NONE',  ( 1.000000000000000000, 0.000000000000000000, -1.249494797405734613E-16 ) ) ;
#161 = CIRCLE ( 'NONE', #252, 3.999999999999998224 ) ;
#162 = DIRECTION ( 'NONE',  ( 0.000000000000000000, 0.000000000000000000, -1.000000000000000000 ) ) ;
#163 = EDGE_LOOP ( 'NONE', ( #427, #217, #635, #701 ) ) ;
#164 = AXIS2_PLACEMENT_3D ( 'NONE', #791, #585, #643 ) ;
#165 = FACE_OUTER_BOUND ( 'NONE', #199, .T. ) ;
#166 = VECTOR ( 'NONE', #851, 1000.000000000000000 ) ;
#167 = CARTESIAN_POINT ( 'NONE',  ( 4.898587196589417759E-16, 6.000000000000000000, 4.000000000000003553 ) ) ;
#168 = ORIENTED_EDGE ( 'NONE', *, *, #485, .F. ) ;
#169 = TOROIDAL_SURFACE ( 'NONE', #370, 3.000000000000003553, 1.000000000000000000 ) ;
#170 = CARTESIAN_POINT ( 'NONE',  ( 40.00000000000000000, 1.000000000000000000, -3.999999999999998224 ) ) ;
#171 = DIRECTION ( 'NONE',  ( 0.000000000000000000, 0.000000000000000000, -1.000000000000000000 ) ) ;
#172 = ADVANCED_FACE ( 'NONE', ( #375 ), #454, .T. ) ;
#173 = ORIENTED_EDGE ( 'NONE', *, *, #673, .T. ) ;
#174 = CARTESIAN_POINT ( 'NONE',  ( 40.00000000000000000, 5.000000000000000000, 0.000000000000000000 ) ) ;
#175 = ORIENTED_EDGE ( 'NONE', *, *, #253, .T. ) ;
#176 = ADVANCED_FACE ( 'NONE', ( #663 ), #441, .T. ) ;
#177 = DIRECTION ( 'NONE',  ( 0.000000000000000000, 0.000000000000000000, 1.000000000000000000 ) ) ;
#178 = B_SPLINE_CURVE_WITH_KNOTS ( 'NONE', 3,
 ( #425, #348, #336, #505, #353, #492, #627, #288, #918, #930 ),
 .UNSPECIFIED., .F., .F.,
 ( 4, 2, 2, 2, 4 ),
 ( 0.000000000000000000, 0.0004068805386277699163, 0.0008137610772555398326, 0.001220641615883309803, 0.001627522154511079665 ),
 .UNSPECIFIED. ) ;
#179 = CARTESIAN_POINT ( 'NONE',  ( 0.000000000000000000, 6.000000000000000000, 0.000000000000000000 ) ) ;
#180 = ORIENTED_EDGE ( 'NONE', *, *, #854, .T. ) ;
#181 = DIRECTION ( 'NONE',  ( -0.000000000000000000, -1.000000000000000000, -0.000000000000000000 ) ) ;
#182 = ORIENTED_EDGE ( 'NONE', *, *, #4, .T. ) ;
#183 = PRODUCT_DEFINITION_FORMATION_WITH_SPECIFIED_SOURCE ( 'ANY', '', #767, .NOT_KNOWN. ) ;
#184 = DIRECTION ( 'NONE',  ( -0.000000000000000000, -1.000000000000000000, 0.000000000000000000 ) ) ;
#185 = CARTESIAN_POINT ( 'NONE',  ( 37.35424868893540662, 6.000000000000000000, -3.000000000000000000 ) ) ;
#186 = EDGE_CURVE ( 'NONE', #271, #607, #753, .T. ) ;
#187 = ADVANCED_FACE ( 'NONE', ( #531 ), #308, .T. ) ;
#188 = DIRECTION ( 'NONE',  ( 1.249494797405735106E-16, -0.000000000000000000, 1.000000000000000000 ) ) ;
#189 = ORIENTED_EDGE ( 'NONE', *, *, #55, .F. ) ;
#190 = CARTESIAN_POINT ( 'NONE',  ( 37.65401097761753846, 5.976367391178300181, -2.250619480328211353 ) ) ;
#191 = ORIENTED_EDGE ( 'NONE', *, *, #243, .T. ) ;
#192 = TOROIDAL_SURFACE ( 'NONE', #844, 2.999999999999998224, 1.000000000000000000 ) ;
#193 = LINE ( 'NONE', #344, #616 ) ;
#194 = ORIENTED_EDGE ( 'NONE', *, *, #129, .F. ) ;
#195 = CIRCLE ( 'NONE', #516, 3.000000000000003553 ) ;
#196 = ADVANCED_FACE ( 'NONE', ( #456 ), #169, .T. ) ;
#197 = CARTESIAN_POINT ( 'NONE',  ( 37.35424868893541372, 6.000000000000000000, 3.000000000000000000 ) ) ;
#198 = CYLINDRICAL_SURFACE ( 'NONE', #784, 1.000000000000000000 ) ;
#199 = EDGE_LOOP ( 'NONE', ( #463, #393, #25, #640 ) ) ;
#200 = ORIENTED_EDGE ( 'NONE', *, *, #306, .F. ) ;
#201 = ADVANCED_FACE ( 'NONE', ( #606 ), #600, .F. ) ;
#202 = PLANE ( 'NONE',  #327 ) ;
#203 = DIRECTION ( 'NONE',  ( -1.000000000000000000, 0.000000000000000000, 0.000000000000000000 ) ) ;
#204 = ORIENTED_EDGE ( 'NONE', *, *, #678, .F. ) ;
#205 = VERTEX_POINT ( 'NONE', #101 ) ;
#206 = VECTOR ( 'NONE', #682, 1000.000000000000000 ) ;
#207 = VECTOR ( 'NONE', #493, 1000.000000000000000 ) ;
#208 = DIRECTION ( 'NONE',  ( 0.000000000000000000, 1.000000000000000000, -0.000000000000000000 ) ) ;
#209 = AXIS2_PLACEMENT_3D ( 'NONE', #81, #875, #885 ) ;
#210 = CARTESIAN_POINT ( 'NONE',  ( 37.70859316032563413, 5.999999999999999112, -2.123824162456298570 ) ) ;
#211 = ORIENTED_EDGE ( 'NONE', *, *, #267, .F. ) ;
#212 = ORIENTED_EDGE ( 'NONE', *, *, #241, .F. ) ;
#213 = CARTESIAN_POINT ( 'NONE',  ( 0.000000000000000000, 0.000000000000000000, 0.000000000000000000 ) ) ;
#214 = AXIS2_PLACEMENT_3D ( 'NONE', #297, #888, #18 ) ;
#215 = DIRECTION ( 'NONE',  ( -0.000000000000000000, -1.000000000000000000, -0.000000000000000000 ) ) ;
#216 = CARTESIAN_POINT ( 'NONE',  ( 2.645751311064596045, 5.000000000000000000, 3.000000000000004441 ) ) ;
#217 = ORIENTED_EDGE ( 'NONE', *, *, #84, .F. ) ;
#218 = DIRECTION ( 'NONE',  ( 0.000000000000000000, 1.000000000000000000, -0.000000000000000000 ) ) ;
#219 = AXIS2_PLACEMENT_3D ( 'NONE', #114, #693, #836 ) ;
#220 = DIRECTION ( 'NONE',  ( 1.249494797405735352E-16, 0.000000000000000000, 1.000000000000000000 ) ) ;
#221 = CARTESIAN_POINT ( 'NONE',  ( 2.563990425634091963, 0.3685445677431612443, -2.786327819975816134 ) ) ;
#222 = CARTESIAN_POINT ( 'NONE',  ( 37.70837574256771063, 5.999999999999999112, 2.124310648276945379 ) ) ;
#223 = PRESENTATION_STYLE_ASSIGNMENT (( #882 ) ) ;
#224 = CARTESIAN_POINT ( 'NONE',  ( 2.645751311064595601, 6.000000000000000000, -1.999999999999995781 ) ) ;
#225 = CARTESIAN_POINT ( 'NONE',  ( 37.43601235524086235, 5.631464818166207920, -2.786320645858630929 ) ) ;
#226 = EDGE_CURVE ( 'NONE', #886, #130, #782, .T. ) ;
#227 = EDGE_CURVE ( 'NONE', #527, #894, #540, .T. ) ;
#228 = CARTESIAN_POINT ( 'NONE',  ( 40.00000000000000000, 6.000000000000000000, 0.000000000000000000 ) ) ;
#229 = AXIS2_PLACEMENT_3D ( 'NONE', #40, #184, #254 ) ;
#230 = DIRECTION ( 'NONE',  ( -1.000000000000000000, 0.000000000000000000, 1.249494797405734613E-16 ) ) ;
#231 = CARTESIAN_POINT ( 'NONE',  ( 0.000000000000000000, 6.000000000000000000, 0.000000000000000000 ) ) ;
#232 = DIRECTION ( 'NONE',  ( -1.000000000000000000, 0.000000000000000000, 0.000000000000000000 ) ) ;
#233 = CARTESIAN_POINT ( 'NONE',  ( 0.000000000000000000, 6.000000000000000000, -1.650000000000000133 ) ) ;
#234 = CARTESIAN_POINT ( 'NONE',  ( 2.645751311064596045, 5.137631912899505160, -2.999999999999996003 ) ) ;
#235 = ORIENTED_EDGE ( 'NONE', *, *, #156, .F. ) ;
#236 = FILL_AREA_STYLE_COLOUR ( '', #651 ) ;
#237 = LINE ( 'NONE', #167, #621 ) ;
#238 = CARTESIAN_POINT ( 'NONE',  ( 40.00000000000000000, 6.000000000000000000, 0.000000000000000000 ) ) ;
#239 = ORIENTED_EDGE ( 'NONE', *, *, #690, .F. ) ;
#240 = CARTESIAN_POINT ( 'NONE',  ( 40.00000000000000000, 1.000000000000000000, 0.000000000000000000 ) ) ;
#241 = EDGE_CURVE ( 'NONE', #457, #329, #316, .T. ) ;
#242 = CARTESIAN_POINT ( 'NONE',  ( 0.000000000000000000, 1.000000000000000000, 0.000000000000000000 ) ) ;
#243 = EDGE_CURVE ( 'NONE', #613, #264, #660, .T. ) ;
#244 = DIRECTION ( 'NONE',  ( 0.000000000000000000, 1.000000000000000000, -0.000000000000000000 ) ) ;
#245 = MECHANICAL_DESIGN_GEOMETRIC_PRESENTATION_REPRESENTATION (  '', ( #154 ), #315 ) ;
#246 = DIRECTION ( 'NONE',  ( 0.000000000000000000, 0.000000000000000000, -1.000000000000000000 ) ) ;
#247 = EDGE_LOOP ( 'NONE', ( #920, #938, #194, #63 ) ) ;
#248 = DIRECTION ( 'NONE',  ( 0.000000000000000000, 1.000000000000000000, -0.000000000000000000 ) ) ;
#249 = LINE ( 'NONE', #185, #99 ) ;
#250 = CARTESIAN_POINT ( 'NONE',  ( 40.00000000000000000, 6.000000000000000000, 0.000000000000000000 ) ) ;
#251 = ORIENTED_EDGE ( 'NONE', *, *, #750, .F. ) ;
#252 = AXIS2_PLACEMENT_3D ( 'NONE', #778, #431, #789 ) ;
#253 = EDGE_CURVE ( 'NONE', #340, #135, #762, .T. ) ;
#254 = DIRECTION ( 'NONE',  ( 1.776356839400250465E-15, 0.000000000000000000, 1.000000000000000000 ) ) ;
#255 = CIRCLE ( 'NONE', #373, 1.000000000000000000 ) ;
#256 = EDGE_CURVE ( 'NONE', #412, #467, #815, .T. ) ;
#257 = ORIENTED_EDGE ( 'NONE', *, *, #129, .T. ) ;
#258 = CARTESIAN_POINT ( 'NONE',  ( 37.35424868893540662, 5.000000000000000000, -3.000000000000000000 ) ) ;
#259 = DIRECTION ( 'NONE',  ( 1.000000000000000000, 0.000000000000000000, 1.224646799147353207E-16 ) ) ;
#260 = AXIS2_PLACEMENT_3D ( 'NONE', #365, #80, #504 ) ;
#261 = ORIENTED_EDGE ( 'NONE', *, *, #673, .F. ) ;
#262 = TOROIDAL_SURFACE ( 'NONE', #95, 3.000000000000003553, 1.000000000000000000 ) ;
#263 = LINE ( 'NONE', #411, #16 ) ;
#264 = VERTEX_POINT ( 'NONE', #535 ) ;
#265 = CARTESIAN_POINT ( 'NONE',  ( 40.00000000000000000, 6.000000000000000000, 0.000000000000000000 ) ) ;
#266 = ORIENTED_EDGE ( 'NONE', *, *, #872, .T. ) ;
#267 = EDGE_CURVE ( 'NONE', #607, #552, #740, .T. ) ;
#268 = CARTESIAN_POINT ( 'NONE',  ( 2.489391155085385332, 0.1878199120225213237, -2.597838530112845934 ) ) ;
#269 = AXIS2_PLACEMENT_3D ( 'NONE', #675, #259, #835 ) ;
#270 = CARTESIAN_POINT ( 'NONE',  ( 2.489386015814155417, 0.1878101108179255907, 2.597825692485386639 ) ) ;
#271 = VERTEX_POINT ( 'NONE', #111 ) ;
#272 = EDGE_LOOP ( 'NONE', ( #797, #838, #769, #173 ) ) ;
#273 = ADVANCED_FACE ( 'NONE', ( #757 ), #524, .T. ) ;
#274 = AXIS2_PLACEMENT_3D ( 'NONE', #655, #369, #444 ) ;
#275 = DIRECTION ( 'NONE',  ( 0.000000000000000000, 1.000000000000000000, -0.000000000000000000 ) ) ;
#276 = CARTESIAN_POINT ( 'NONE',  ( 40.00000000000000000, 1.000000000000000000, 2.999999999999998224 ) ) ;
#277 = EDGE_LOOP ( 'NONE', ( #715, #794, #539, #356 ) ) ;
#278 = ORIENTED_EDGE ( 'NONE', *, *, #873, .T. ) ;
#279 = DIRECTION ( 'NONE',  ( 0.000000000000000000, 1.000000000000000000, -0.000000000000000000 ) ) ;
#280 = DIRECTION ( 'NONE',  ( -0.000000000000000000, -1.000000000000000000, -0.000000000000000000 ) ) ;
#281 = ORIENTED_EDGE ( 'NONE', *, *, #617, .T. ) ;
#282 = ORIENTED_EDGE ( 'NONE', *, *, #10, .T. ) ;
#283 = AXIS2_PLACEMENT_3D ( 'NONE', #487, #706, #143 ) ;
#284 = AXIS2_PLACEMENT_3D ( 'NONE', #228, #747, #83 ) ;
#285 = CYLINDRICAL_SURFACE ( 'NONE', #475, 3.999999999999998224 ) ;
#286 = VERTEX_POINT ( 'NONE', #258 ) ;
#287 = CIRCLE ( 'NONE', #496, 1.649999999999995470 ) ;
#288 = CARTESIAN_POINT ( 'NONE',  ( 37.65401097761753846, 0.02363260882170090810, 2.250619480328211797 ) ) ;
#289 = CARTESIAN_POINT ( 'NONE',  ( 37.36499449763041980, 0.7271470018272448987, -2.971418958966161927 ) ) ;
#290 = ORIENTED_EDGE ( 'NONE', *, *, #69, .T. ) ;
#291 = CARTESIAN_POINT ( 'NONE',  ( 2.020667218593133001E-16, 6.000000000000000000, 1.650000000000000133 ) ) ;
#292 = DIRECTION ( 'NONE',  ( 0.000000000000000000, 1.000000000000000000, -0.000000000000000000 ) ) ;
#293 = DIRECTION ( 'NONE',  ( 0.000000000000000000, 1.000000000000000000, -0.000000000000000000 ) ) ;
#294 = CARTESIAN_POINT ( 'NONE',  ( 37.43600957436591870, 0.3685445677431618550, -2.786327819975821019 ) ) ;
#295 = CARTESIAN_POINT ( 'NONE',  ( 0.000000000000000000, 0.000000000000000000, 0.000000000000000000 ) ) ;
#296 = EDGE_CURVE ( 'NONE', #865, #491, #857, .T. ) ;
#297 = CARTESIAN_POINT ( 'NONE',  ( 40.00000000000000000, 0.000000000000000000, 0.000000000000000000 ) ) ;
#298 = DIRECTION ( 'NONE',  ( 0.000000000000000000, 0.000000000000000000, 1.000000000000000000 ) ) ;
#299 = SURFACE_STYLE_FILL_AREA ( #518 ) ;
#300 = DIRECTION ( 'NONE',  ( 0.000000000000000000, 0.000000000000000000, -1.000000000000000000 ) ) ;
#301 = CARTESIAN_POINT ( 'NONE',  ( 37.35424868893540662, 5.000000000000000000, -3.000000000000000000 ) ) ;
#302 = DIRECTION ( 'NONE',  ( 0.000000000000000000, 0.000000000000000000, 1.000000000000000000 ) ) ;
#303 = CARTESIAN_POINT ( 'NONE',  ( 40.00000000000000000, 0.000000000000000000, 0.000000000000000000 ) ) ;
#304 = DIRECTION ( 'NONE',  ( 0.000000000000000000, 0.000000000000000000, 1.000000000000000000 ) ) ;
#305 = ORIENTED_EDGE ( 'NONE', *, *, #186, .T. ) ;
#306 = EDGE_CURVE ( 'NONE', #522, #719, #398, .T. ) ;
#307 = DIRECTION ( 'NONE',  ( -0.000000000000000000, -1.000000000000000000, 0.000000000000000000 ) ) ;
#308 = CYLINDRICAL_SURFACE ( 'NONE', #699, 4.000000000000003553 ) ;
#309 = EDGE_LOOP ( 'NONE', ( #120, #849 ) ) ;
#310 = DIRECTION ( 'NONE',  ( 0.000000000000000000, 0.000000000000000000, 1.000000000000000000 ) ) ;
#311 = DIRECTION ( 'NONE',  ( -0.000000000000000000, -1.000000000000000000, 0.000000000000000000 ) ) ;
#312 = ORIENTED_EDGE ( 'NONE', *, *, #186, .F. ) ;
#313 = CYLINDRICAL_SURFACE ( 'NONE', #151, 4.000000000000003553 ) ;
#314 = EDGE_LOOP ( 'NONE', ( #200, #641 ) ) ;
#315 =( GEOMETRIC_REPRESENTATION_CONTEXT ( 3 ) GLOBAL_UNCERTAINTY_ASSIGNED_CONTEXT ( ( #909 ) ) GLOBAL_UNIT_ASSIGNED_CONTEXT ( ( #724, #21, #582 ) ) REPRESENTATION_CONTEXT ( 'NONE', 'WORKASPACE' ) );
#316 = LINE ( 'NONE', #676, #131 ) ;
#317 = EDGE_CURVE ( 'NONE', #537, #601, #178, .T. ) ;
#318 = ORIENTED_EDGE ( 'NONE', *, *, #317, .F. ) ;
#319 = EDGE_CURVE ( 'NONE', #286, #59, #161, .T. ) ;
#320 = CARTESIAN_POINT ( 'NONE',  ( 2.345998291233094335, 5.976361499997926430, 2.250641295216412097 ) ) ;
#321 = VERTEX_POINT ( 'NONE', #721 ) ;
#322 = CARTESIAN_POINT ( 'NONE',  ( 40.00000000000000000, 5.000000000000000000, 0.000000000000000000 ) ) ;
#323 = AXIS2_PLACEMENT_3D ( 'NONE', #892, #824, #177 ) ;
#324 = DIRECTION ( 'NONE',  ( 0.000000000000000000, 0.000000000000000000, 1.000000000000000000 ) ) ;
#325 = AXIS2_PLACEMENT_3D ( 'NONE', #434, #144, #796 ) ;
#326 = VERTEX_POINT ( 'NONE', #579 ) ;
#327 = AXIS2_PLACEMENT_3D ( 'NONE', #417, #208, #712 ) ;
#328 = DIRECTION ( 'NONE',  ( 0.000000000000000000, 1.000000000000000000, -0.000000000000000000 ) ) ;
#329 = VERTEX_POINT ( 'NONE', #562 ) ;
#330 = CARTESIAN_POINT ( 'NONE',  ( 4.286263797015740539E-16, 0.000000000000000000, -3.000000000000003553 ) ) ;
#331 = ORIENTED_EDGE ( 'NONE', *, *, #142, .F. ) ;
#332 = FACE_BOUND ( 'NONE', #314, .T. ) ;
#333 = ADVANCED_FACE ( 'NONE', ( #869 ), #694, .T. ) ;
#334 = CARTESIAN_POINT ( 'NONE',  ( 40.00000000000000000, 0.000000000000000000, -2.999999999999998224 ) ) ;
#335 = ORIENTED_EDGE ( 'NONE', *, *, #656, .T. ) ;
#336 = CARTESIAN_POINT ( 'NONE',  ( 37.36499489262710227, 0.7271421341728683263, 2.971417904117276354 ) ) ;
#337 = AXIS2_PLACEMENT_3D ( 'NONE', #396, #307, #34 ) ;
#338 = FACE_OUTER_BOUND ( 'NONE', #928, .T. ) ;
#339 = ORIENTED_EDGE ( 'NONE', *, *, #341, .F. ) ;
#340 = VERTEX_POINT ( 'NONE', #68 ) ;
#341 = EDGE_CURVE ( 'NONE', #340, #607, #736, .T. ) ;
#342 = CARTESIAN_POINT ( 'NONE',  ( 0.000000000000000000, 5.000000000000000000, -4.000000000000003553 ) ) ;
#343 = EDGE_CURVE ( 'NONE', #98, #537, #845, .T. ) ;
#344 = CARTESIAN_POINT ( 'NONE',  ( 40.00000000000000000, 6.000000000000000000, -1.649999999999995470 ) ) ;
#345 = ORIENTED_EDGE ( 'NONE', *, *, #69, .F. ) ;
#346 = ORIENTED_EDGE ( 'NONE', *, *, #589, .F. ) ;
#347 = VECTOR ( 'NONE', #91, 1000.000000000000000 ) ;
#348 = CARTESIAN_POINT ( 'NONE',  ( 37.35424868893541372, 0.8623680871004965054, 3.000000000000000000 ) ) ;
#349 = CARTESIAN_POINT ( 'NONE',  ( 37.40579055557155641, 5.519908949212457117, 2.864753280988030504 ) ) ;
#350 = ORIENTED_EDGE ( 'NONE', *, *, #368, .T. ) ;
#351 = VERTEX_POINT ( 'NONE', #1 ) ;
#352 = APPLICATION_PROTOCOL_DEFINITION ( 'draft international standard', 'automotive_design', 1998, #79 ) ;
#353 = CARTESIAN_POINT ( 'NONE',  ( 37.43601235524086235, 0.3685351818337920249, 2.786320645858632261 ) ) ;
#354 = CIRCLE ( 'NONE', #696, 1.000000000000000000 ) ;
#355 = CARTESIAN_POINT ( 'NONE',  ( 37.51060884491462843, 5.812180087977478316, 2.597838530112850819 ) ) ;
#356 = ORIENTED_EDGE ( 'NONE', *, *, #674, .T. ) ;
#357 = CIRCLE ( 'NONE', #73, 1.000000000000000000 ) ;
#358 = DIRECTION ( 'NONE',  ( 0.000000000000000000, 1.000000000000000000, -0.000000000000000000 ) ) ;
#359 = CARTESIAN_POINT ( 'NONE',  ( 4.898587196589417759E-16, 1.000000000000000000, 4.000000000000003553 ) ) ;
#360 = SHAPE_DEFINITION_REPRESENTATION ( #902, #415 ) ;
#361 = CARTESIAN_POINT ( 'NONE',  ( 2.291406839674701601, 5.999999999999999112, -2.123824162456148468 ) ) ;
#362 = PRESENTATION_LAYER_ASSIGNMENT (  '', '', ( #154 ) ) ;
#363 = CARTESIAN_POINT ( 'NONE',  ( 37.55550517005984545, 0.1171877085615612019, -2.486564790784504098 ) ) ;
#364 = CARTESIAN_POINT ( 'NONE',  ( 0.000000000000000000, 1.000000000000000000, 3.000000000000003553 ) ) ;
#365 = CARTESIAN_POINT ( 'NONE',  ( 0.000000000000000000, 6.000000000000000000, 0.000000000000000000 ) ) ;
#366 = DIRECTION ( 'NONE',  ( 0.000000000000000000, 0.000000000000000000, 1.000000000000000000 ) ) ;
#367 = DIRECTION ( 'NONE',  ( 0.000000000000000000, 0.000000000000000000, 1.000000000000000000 ) ) ;
#368 = EDGE_CURVE ( 'NONE', #552, #41, #602, .T. ) ;
#369 = DIRECTION ( 'NONE',  ( -0.000000000000000000, -1.000000000000000000, 0.000000000000000000 ) ) ;
#370 = AXIS2_PLACEMENT_3D ( 'NONE', #242, #31, #42 ) ;
#371 = DIRECTION ( 'NONE',  ( 0.000000000000000000, 0.000000000000000000, 1.000000000000000000 ) ) ;
#372 = CARTESIAN_POINT ( 'NONE',  ( 40.00000000000000000, 5.000000000000000000, 2.999999999999998224 ) ) ;
#373 = AXIS2_PLACEMENT_3D ( 'NONE', #276, #203, #775 ) ;
#374 = VECTOR ( 'NONE', #230, 1000.000000000000000 ) ;
#375 = FACE_OUTER_BOUND ( 'NONE', #853, .T. ) ;
#376 = CARTESIAN_POINT ( 'NONE',  ( 0.000000000000000000, 5.000000000000000000, 0.000000000000000000 ) ) ;
#377 = DIRECTION ( 'NONE',  ( 1.249494797405734613E-16, -0.000000000000000000, 1.000000000000000000 ) ) ;
#378 = AXIS2_PLACEMENT_3D ( 'NONE', #22, #157, #371 ) ;
#379 = DIRECTION ( 'NONE',  ( 0.000000000000000000, 1.000000000000000000, -0.000000000000000000 ) ) ;
#380 = DIRECTION ( 'NONE',  ( 0.000000000000000000, 0.000000000000000000, 1.000000000000000000 ) ) ;
#381 = AXIS2_PLACEMENT_3D ( 'NONE', #547, #833, #610 ) ;
#382 = ORIENTED_EDGE ( 'NONE', *, *, #20, .T. ) ;
#383 = CARTESIAN_POINT ( 'NONE',  ( 2.635005502369585972, 5.272852998172757211, 2.971418958966166368 ) ) ;
#384 = CARTESIAN_POINT ( 'NONE',  ( 0.000000000000000000, 5.000000000000000000, 0.000000000000000000 ) ) ;
#385 = EDGE_LOOP ( 'NONE', ( #598, #102, #423, #575 ) ) ;
#386 = CARTESIAN_POINT ( 'NONE',  ( 2.563990425634082193, 5.631455432256838201, 2.786327819975826348 ) ) ;
#387 = ORIENTED_EDGE ( 'NONE', *, *, #731, .T. ) ;
#388 = DIRECTION ( 'NONE',  ( -0.000000000000000000, -1.000000000000000000, -0.000000000000000000 ) ) ;
#389 = ADVANCED_FACE ( 'NONE', ( #556, #332, #566 ), #202, .T. ) ;
#390 = CIRCLE ( 'NONE', #229, 3.000000000000003553 ) ;
#391 = ORIENTED_EDGE ( 'NONE', *, *, #840, .T. ) ;
#392 = FACE_OUTER_BOUND ( 'NONE', #814, .T. ) ;
#393 = ORIENTED_EDGE ( 'NONE', *, *, #319, .F. ) ;
#394 = AXIS2_PLACEMENT_3D ( 'NONE', #500, #358, #871 ) ;
#395 = DIRECTION ( 'NONE',  ( 0.000000000000000000, 0.000000000000000000, -1.000000000000000000 ) ) ;
#396 = CARTESIAN_POINT ( 'NONE',  ( 0.000000000000000000, 5.000000000000000000, 0.000000000000000000 ) ) ;
#397 = EDGE_LOOP ( 'NONE', ( #677, #550, #211, #339 ) ) ;
#398 = CIRCLE ( 'NONE', #43, 1.650000000000000133 ) ;
#399 = PRODUCT_DEFINITION_CONTEXT ( 'detailed design', #94, 'design' ) ;
#400 = DIRECTION ( 'NONE',  ( 0.000000000000000000, 0.000000000000000000, -1.000000000000000000 ) ) ;
#401 = TOROIDAL_SURFACE ( 'NONE', #695, 2.999999999999998224, 1.000000000000000000 ) ;
#402 = ORIENTED_EDGE ( 'NONE', *, *, #472, .F. ) ;
#403 = CIRCLE ( 'NONE', #451, 1.000000000000000000 ) ;
#404 = EDGE_CURVE ( 'NONE', #130, #537, #60, .T. ) ;
#405 = CARTESIAN_POINT ( 'NONE',  ( 0.000000000000000000, 6.000000000000000000, 0.000000000000000000 ) ) ;
#406 = EDGE_LOOP ( 'NONE', ( #413, #862, #345, #402 ) ) ;
#407 = AXIS2_PLACEMENT_3D ( 'NONE', #738, #652, #525 ) ;
#408 = EDGE_CURVE ( 'NONE', #264, #53, #354, .T. ) ;
#409 = DIRECTION ( 'NONE',  ( 0.000000000000000000, 0.000000000000000000, 1.000000000000000000 ) ) ;
#410 = ORIENTED_EDGE ( 'NONE', *, *, #437, .F. ) ;
#411 = CARTESIAN_POINT ( 'NONE',  ( 2.645751311064596045, 6.000000000000000000, 3.000000000000004441 ) ) ;
#412 = VERTEX_POINT ( 'NONE', #342 ) ;
#413 = ORIENTED_EDGE ( 'NONE', *, *, #107, .F. ) ;
#414 = ADVANCED_FACE ( 'NONE', ( #935 ), #285, .T. ) ;
#415 = ADVANCED_BREP_SHAPE_REPRESENTATION ( 'Pivot Arm B', ( #752, #711 ), #590 ) ;
#416 = ADVANCED_FACE ( 'NONE', ( #795 ), #653, .T. ) ;
#417 = CARTESIAN_POINT ( 'NONE',  ( 0.000000000000000000, 6.000000000000000000, 0.000000000000000000 ) ) ;
#418 = CARTESIAN_POINT ( 'NONE',  ( 0.000000000000000000, 6.000000000000000000, 0.000000000000000000 ) ) ;
#419 = ORIENTED_EDGE ( 'NONE', *, *, #923, .F. ) ;
#420 = ORIENTED_EDGE ( 'NONE', *, *, #605, .T. ) ;
#421 = CARTESIAN_POINT ( 'NONE',  ( 37.35424868893541372, 1.000000000000000000, 3.000000000000000000 ) ) ;
#422 = LINE ( 'NONE', #57, #528 ) ;
#423 = ORIENTED_EDGE ( 'NONE', *, *, #605, .F. ) ;
#424 = VERTEX_POINT ( 'NONE', #668 ) ;
#425 = CARTESIAN_POINT ( 'NONE',  ( 37.35424868893541372, 1.000000000000000000, 3.000000000000000000 ) ) ;
#426 = FACE_OUTER_BOUND ( 'NONE', #397, .T. ) ;
#427 = ORIENTED_EDGE ( 'NONE', *, *, #341, .T. ) ;
#428 = CARTESIAN_POINT ( 'NONE',  ( 2.020667218593133001E-16, 6.000000000000000000, 1.650000000000000133 ) ) ;
#429 = CARTESIAN_POINT ( 'NONE',  ( 37.35424868893541372, 5.000000000000000000, 3.000000000000000000 ) ) ;
#430 = LINE ( 'NONE', #808, #374 ) ;
#431 = DIRECTION ( 'NONE',  ( -0.000000000000000000, -1.000000000000000000, 0.000000000000000000 ) ) ;
#432 = ADVANCED_FACE ( 'NONE', ( #158 ), #658, .F. ) ;
#433 = EDGE_CURVE ( 'NONE', #271, #321, #78, .T. ) ;
#434 = CARTESIAN_POINT ( 'NONE',  ( 0.000000000000000000, 1.000000000000000000, 0.000000000000000000 ) ) ;
#435 = DIRECTION ( 'NONE',  ( -0.000000000000000000, -1.000000000000000000, -0.000000000000000000 ) ) ;
#436 = DIRECTION ( 'NONE',  ( -0.000000000000000000, -1.000000000000000000, -0.000000000000000000 ) ) ;
#437 = EDGE_CURVE ( 'NONE', #321, #467, #939, .T. ) ;
#438 = CYLINDRICAL_SURFACE ( 'NONE', #209, 3.999999999999998224 ) ;
#439 = VECTOR ( 'NONE', #523, 1000.000000000000000 ) ;
#440 = CARTESIAN_POINT ( 'NONE',  ( 40.00000000000000000, 1.000000000000000000, 0.000000000000000000 ) ) ;
#441 = CYLINDRICAL_SURFACE ( 'NONE', #49, 1.000000000000000000 ) ;
#442 = CARTESIAN_POINT ( 'NONE',  ( -2.498989594811464295E-16, 5.000000000000000000, -1.999999999999995337 ) ) ;
#443 = CARTESIAN_POINT ( 'NONE',  ( 2.345989022382476197, 5.976367391178300181, -2.250619480328206468 ) ) ;
#444 = DIRECTION ( 'NONE',  ( 0.000000000000000000, 0.000000000000000000, 1.000000000000000000 ) ) ;
#445 = AXIS2_PLACEMENT_3D ( 'NONE', #250, #275, #924 ) ;
#446 = ADVANCED_FACE ( 'NONE', ( #8, #75, #595 ), #881, .F. ) ;
#447 = DIRECTION ( 'NONE',  ( 0.000000000000000000, 0.000000000000000000, 1.000000000000000000 ) ) ;
#448 = CARTESIAN_POINT ( 'NONE',  ( 0.000000000000000000, 6.000000000000000000, 0.000000000000000000 ) ) ;
#449 = ORIENTED_EDGE ( 'NONE', *, *, #256, .F. ) ;
#450 = AXIS2_PLACEMENT_3D ( 'NONE', #440, #218, #77 ) ;
#451 = AXIS2_PLACEMENT_3D ( 'NONE', #372, #515, #298 ) ;
#452 = CYLINDRICAL_SURFACE ( 'NONE', #260, 1.650000000000000133 ) ;
#453 = ORIENTED_EDGE ( 'NONE', *, *, #690, .T. ) ;
#454 = TOROIDAL_SURFACE ( 'NONE', #793, 2.999999999999998224, 1.000000000000000000 ) ;
#455 = DIRECTION ( 'NONE',  ( -0.000000000000000000, -1.000000000000000000, -0.000000000000000000 ) ) ;
#456 = FACE_OUTER_BOUND ( 'NONE', #385, .T. ) ;
#457 = VERTEX_POINT ( 'NONE', #87 ) ;
#458 = PLANE ( 'NONE',  #33 ) ;
#459 = ORIENTED_EDGE ( 'NONE', *, *, #809, .F. ) ;
#460 = DIRECTION ( 'NONE',  ( 1.000000000000000000, 0.000000000000000000, 1.224646799147353207E-16 ) ) ;
#461 = ORIENTED_EDGE ( 'NONE', *, *, #828, .T. ) ;
#462 = CYLINDRICAL_SURFACE ( 'NONE', #465, 1.000000000000000000 ) ;
#463 = ORIENTED_EDGE ( 'NONE', *, *, #826, .F. ) ;
#464 = DIRECTION ( 'NONE',  ( -0.000000000000000000, -1.000000000000000000, -0.000000000000000000 ) ) ;
#465 = AXIS2_PLACEMENT_3D ( 'NONE', #442, #13, #7 ) ;
#466 = CARTESIAN_POINT ( 'NONE',  ( 2.645751311064596045, 5.000000000000000000, 3.000000000000004441 ) ) ;
#467 = VERTEX_POINT ( 'NONE', #810 ) ;
#468 = DIRECTION ( 'NONE',  ( -0.000000000000000000, -1.000000000000000000, -0.000000000000000000 ) ) ;
#469 = CIRCLE ( 'NONE', #407, 2.999999999999998224 ) ;
#470 = CARTESIAN_POINT ( 'NONE',  ( 2.236067977499790693, 6.000000000000000000, 2.000000000000004441 ) ) ;
#471 = ORIENTED_EDGE ( 'NONE', *, *, #507, .T. ) ;
#472 = EDGE_CURVE ( 'NONE', #886, #491, #403, .T. ) ;
#473 = CARTESIAN_POINT ( 'NONE',  ( 2.498989594811475142E-16, 6.000000000000000000, 2.000000000000004885 ) ) ;
#474 = EDGE_LOOP ( 'NONE', ( #136, #453, #305, #629 ) ) ;
#475 = AXIS2_PLACEMENT_3D ( 'NONE', #573, #215, #497 ) ;
#476 = CIRCLE ( 'NONE', #922, 1.650000000000000133 ) ;
#477 = DIRECTION ( 'NONE',  ( -1.000000000000000000, 0.000000000000000000, 1.249494797405734613E-16 ) ) ;
#478 = ORIENTED_EDGE ( 'NONE', *, *, #486, .F. ) ;
#479 = TOROIDAL_SURFACE ( 'NONE', #732, 2.999999999999998224, 1.000000000000000000 ) ;
#480 = DIRECTION ( 'NONE',  ( -0.000000000000000000, -1.000000000000000000, -0.000000000000000000 ) ) ;
#481 = CARTESIAN_POINT ( 'NONE',  ( 2.345989022382469091, 0.02363260882170052299, 2.250619480328215349 ) ) ;
#482 = ORIENTED_EDGE ( 'NONE', *, *, #74, .F. ) ;
#483 = ADVANCED_FACE ( 'NONE', ( #584 ), #438, .T. ) ;
#484 = EDGE_LOOP ( 'NONE', ( #239, #490, #410, #822 ) ) ;
#485 = EDGE_CURVE ( 'NONE', #457, #205, #572, .T. ) ;
#486 = EDGE_CURVE ( 'NONE', #286, #117, #545, .T. ) ;
#487 = CARTESIAN_POINT ( 'NONE',  ( 0.000000000000000000, 1.000000000000000000, 0.000000000000000000 ) ) ;
#488 = AXIS2_PLACEMENT_3D ( 'NONE', #830, #908, #897 ) ;
#489 = CARTESIAN_POINT ( 'NONE',  ( 0.000000000000000000, 6.000000000000000000, 0.000000000000000000 ) ) ;
#490 = ORIENTED_EDGE ( 'NONE', *, *, #256, .T. ) ;
#491 = VERTEX_POINT ( 'NONE', #123 ) ;
#492 = CARTESIAN_POINT ( 'NONE',  ( 37.51061398418584503, 0.1878101108179264789, 2.597825692485384419 ) ) ;
#493 = DIRECTION ( 'NONE',  ( 1.000000000000000000, -0.000000000000000000, -1.249494797405734613E-16 ) ) ;
#494 = VERTEX_POINT ( 'NONE', #558 ) ;
#495 = ORIENTED_EDGE ( 'NONE', *, *, #4, .F. ) ;
#496 = AXIS2_PLACEMENT_3D ( 'NONE', #303, #667, #447 ) ;
#497 = DIRECTION ( 'NONE',  ( 0.000000000000000000, 0.000000000000000000, -1.000000000000000000 ) ) ;
#498 = CARTESIAN_POINT ( 'NONE',  ( 37.35424868893539951, 0.8623705224191947627, -3.000000000000000444 ) ) ;
#499 = VERTEX_POINT ( 'NONE', #708 ) ;
#500 = CARTESIAN_POINT ( 'NONE',  ( 0.000000000000000000, 5.000000000000000000, 0.000000000000000000 ) ) ;
#501 = CLOSED_SHELL ( 'NONE', ( #273, #774, #691, #155, #636, #172, #659, #333, #519, #54, #483, #88, #187, #502, #843, #416, #414, #839, #432, #201, #389, #446, #196, #176, #103, #878, #925, #536, #914, #763 ) ) ;
#502 = ADVANCED_FACE ( 'NONE', ( #625 ), #916, .T. ) ;
#503 = EDGE_CURVE ( 'NONE', #894, #903, #46, .T. ) ;
#504 = DIRECTION ( 'NONE',  ( 0.000000000000000000, 0.000000000000000000, -1.000000000000000000 ) ) ;
#505 = CARTESIAN_POINT ( 'NONE',  ( 37.40579232621990968, 0.4800828036910737562, 2.864748673526363199 ) ) ;
#506 = CARTESIAN_POINT ( 'NONE',  ( 37.70837574256771063, 2.630037301224601567E-16, -2.124310648276945823 ) ) ;
#507 = EDGE_CURVE ( 'NONE', #53, #861, #132, .T. ) ;
#508 = CARTESIAN_POINT ( 'NONE',  ( -3.748484392217199401E-16, 1.000000000000000000, -2.999999999999995115 ) ) ;
#509 = CARTESIAN_POINT ( 'NONE',  ( 2.563987644759159856, 5.631464818166209696, -2.786320645858626932 ) ) ;
#510 = B_SPLINE_CURVE_WITH_KNOTS ( 'NONE', 3,
 ( #65, #506, #2, #363, #70, #294, #76, #289, #498, #648 ),
 .UNSPECIFIED., .F., .F.,
 ( 4, 2, 2, 2, 4 ),
 ( -7.325717372369969517E-06, 0.0004011533914279225314, 0.0008096325002282150950, 0.001218111609028507550, 0.001626590717828800114 ),
 .UNSPECIFIED. ) ;
#511 = CIRCLE ( 'NONE', #759, 2.999999999999998224 ) ;
#512 = FACE_OUTER_BOUND ( 'NONE', #272, .T. ) ;
#513 = CARTESIAN_POINT ( 'NONE',  ( 0.000000000000000000, 5.000000000000000000, 0.000000000000000000 ) ) ;
#514 = APPLICATION_PROTOCOL_DEFINITION ( 'draft international standard', 'automotive_design', 1998, #94 ) ;
#515 = DIRECTION ( 'NONE',  ( -1.000000000000000000, 0.000000000000000000, 0.000000000000000000 ) ) ;
#516 = AXIS2_PLACEMENT_3D ( 'NONE', #17, #741, #146 ) ;
#517 = EDGE_CURVE ( 'NONE', #412, #552, #422, .T. ) ;
#518 = FILL_AREA_STYLE ('',( #236 ) ) ;
#519 = ADVANCED_FACE ( 'NONE', ( #119 ), #50, .F. ) ;
#520 = DIRECTION ( 'NONE',  ( -0.000000000000000000, -1.000000000000000000, -0.000000000000000000 ) ) ;
#521 = CARTESIAN_POINT ( 'NONE',  ( 0.000000000000000000, 0.000000000000000000, 0.000000000000000000 ) ) ;
#522 = VERTEX_POINT ( 'NONE', #551 ) ;
#523 = DIRECTION ( 'NONE',  ( 1.000000000000000000, -0.000000000000000000, -1.249494797405735106E-16 ) ) ;
#524 = TOROIDAL_SURFACE ( 'NONE', #567, 2.999999999999998224, 1.000000000000000000 ) ;
#525 = DIRECTION ( 'NONE',  ( 0.000000000000000000, 0.000000000000000000, 1.000000000000000000 ) ) ;
#526 = CARTESIAN_POINT ( 'NONE',  ( 37.36499489262710938, 5.272857865827133672, -2.971417904117277242 ) ) ;
#527 = VERTEX_POINT ( 'NONE', #334 ) ;
#528 = VECTOR ( 'NONE', #846, 1000.000000000000000 ) ;
#529 = AXIS2_PLACEMENT_3D ( 'NONE', #852, #563, #771 ) ;
#530 = DIRECTION ( 'NONE',  ( 0.000000000000000000, 0.000000000000000000, 1.000000000000000000 ) ) ;
#531 = FACE_OUTER_BOUND ( 'NONE', #921, .T. ) ;
#532 = ORIENTED_EDGE ( 'NONE', *, *, #433, .T. ) ;
#533 = CIRCLE ( 'NONE', #378, 3.999999999999998224 ) ;
#534 = CARTESIAN_POINT ( 'NONE',  ( 2.236067977499790693, 6.000000000000000000, 2.000000000000004441 ) ) ;
#535 = CARTESIAN_POINT ( 'NONE',  ( 4.898587196589417759E-16, 5.000000000000000000, 4.000000000000003553 ) ) ;
#536 = ADVANCED_FACE ( 'NONE', ( #338 ), #198, .T. ) ;
#537 = VERTEX_POINT ( 'NONE', #628 ) ;
#538 = FACE_OUTER_BOUND ( 'NONE', #756, .T. ) ;
#539 = ORIENTED_EDGE ( 'NONE', *, *, #404, .T. ) ;
#540 = CIRCLE ( 'NONE', #86, 1.000000000000000000 ) ;
#541 = EDGE_CURVE ( 'NONE', #719, #522, #89, .T. ) ;
#542 = DIRECTION ( 'NONE',  ( -0.000000000000000000, -1.000000000000000000, 0.000000000000000000 ) ) ;
#543 = EDGE_LOOP ( 'NONE', ( #781, #331, #281, #723 ) ) ;
#544 = AXIS2_PLACEMENT_3D ( 'NONE', #265, #713, #702 ) ;
#545 = B_SPLINE_CURVE_WITH_KNOTS ( 'NONE', 3,
 ( #301, #92, #526, #819, #225, #803, #139, #190, #210, #633 ),
 .UNSPECIFIED., .F., .F.,
 ( 4, 2, 2, 2, 4 ),
 ( 0.000000000000000000, 0.0004068805386277705668, 0.0008137610772555411336, 0.001220641615883311755, 0.001627522154511082267 ),
 .UNSPECIFIED. ) ;
#546 = DIRECTION ( 'NONE',  ( 0.000000000000000000, 0.000000000000000000, 1.000000000000000000 ) ) ;
#547 = CARTESIAN_POINT ( 'NONE',  ( 40.00000000000000000, 0.000000000000000000, 0.000000000000000000 ) ) ;
#548 = CARTESIAN_POINT ( 'NONE',  ( 2.645751311064595601, 6.000000000000000000, -2.999999999999995559 ) ) ;
#549 = DIRECTION ( 'NONE',  ( 0.000000000000000000, 0.000000000000000000, 1.000000000000000000 ) ) ;
#550 = ORIENTED_EDGE ( 'NONE', *, *, #788, .T. ) ;
#551 = CARTESIAN_POINT ( 'NONE',  ( 0.000000000000000000, 6.000000000000000000, -1.650000000000000133 ) ) ;
#552 = VERTEX_POINT ( 'NONE', #841 ) ;
#553 = DIRECTION ( 'NONE',  ( 1.249494797405734366E-16, 0.000000000000000000, 1.000000000000000000 ) ) ;
#554 = ORIENTED_EDGE ( 'NONE', *, *, #84, .T. ) ;
#555 = AXIS2_PLACEMENT_3D ( 'NONE', #832, #755, #530 ) ;
#556 = FACE_OUTER_BOUND ( 'NONE', #669, .T. ) ;
#557 = EDGE_CURVE ( 'NONE', #205, #326, #193, .T. ) ;
#558 = CARTESIAN_POINT ( 'NONE',  ( 40.00000000000000000, 6.000000000000000000, -2.999999999999998224 ) ) ;
#559 = ORIENTED_EDGE ( 'NONE', *, *, #343, .F. ) ;
#560 = EDGE_LOOP ( 'NONE', ( #623, #180, #890, #570 ) ) ;
#561 = TOROIDAL_SURFACE ( 'NONE', #394, 3.000000000000003553, 1.000000000000000000 ) ;
#562 = CARTESIAN_POINT ( 'NONE',  ( 40.00000000000000000, 0.000000000000000000, 1.649999999999995470 ) ) ;
#563 = DIRECTION ( 'NONE',  ( 0.000000000000000000, 1.000000000000000000, -0.000000000000000000 ) ) ;
#564 = EDGE_LOOP ( 'NONE', ( #449, #459, #907, #140 ) ) ;
#565 = VERTEX_POINT ( 'NONE', #330 ) ;
#566 = FACE_BOUND ( 'NONE', #776, .T. ) ;
#567 = AXIS2_PLACEMENT_3D ( 'NONE', #36, #834, #611 ) ;
#568 = CARTESIAN_POINT ( 'NONE',  ( 2.236067977499790693, 0.000000000000000000, 2.000000000000004441 ) ) ;
#569 = ORIENTED_EDGE ( 'NONE', *, *, #55, .T. ) ;
#570 = ORIENTED_EDGE ( 'NONE', *, *, #10, .F. ) ;
#571 = TOROIDAL_SURFACE ( 'NONE', #325, 3.000000000000003553, 1.000000000000000000 ) ;
#572 = CIRCLE ( 'NONE', #744, 1.649999999999995470 ) ;
#573 = CARTESIAN_POINT ( 'NONE',  ( 40.00000000000000000, 6.000000000000000000, 0.000000000000000000 ) ) ;
#574 = DIRECTION ( 'NONE',  ( 0.000000000000000000, 0.000000000000000000, 1.000000000000000000 ) ) ;
#575 = ORIENTED_EDGE ( 'NONE', *, *, #828, .F. ) ;
#576 = EDGE_CURVE ( 'NONE', #613, #98, #263, .T. ) ;
#577 = CARTESIAN_POINT ( 'NONE',  ( 37.36499449763041270, 5.272852998172755434, 2.971418958966161927 ) ) ;
#578 = CARTESIAN_POINT ( 'NONE',  ( 40.00000000000000000, 5.000000000000000000, -3.999999999999998224 ) ) ;
#579 = CARTESIAN_POINT ( 'NONE',  ( 40.00000000000000000, 0.000000000000000000, -1.649999999999995470 ) ) ;
#580 = CARTESIAN_POINT ( 'NONE',  ( 3.748484392217210248E-16, 5.000000000000000000, 3.000000000000004885 ) ) ;
#581 = EDGE_LOOP ( 'NONE', ( #420, #419, #318, #559 ) ) ;
#582 =( NAMED_UNIT ( * ) SI_UNIT ( $, .STERADIAN. ) SOLID_ANGLE_UNIT ( ) );
#583 = CARTESIAN_POINT ( 'NONE',  ( 2.498989594811475142E-16, 1.000000000000000000, 2.000000000000004885 ) ) ;
#584 = FACE_OUTER_BOUND ( 'NONE', #35, .T. ) ;
#585 = DIRECTION ( 'NONE',  ( 0.000000000000000000, 1.000000000000000000, -0.000000000000000000 ) ) ;
#586 = CARTESIAN_POINT ( 'NONE',  ( 0.000000000000000000, 0.000000000000000000, 0.000000000000000000 ) ) ;
#587 = FACE_OUTER_BOUND ( 'NONE', #698, .T. ) ;
#588 = CARTESIAN_POINT ( 'NONE',  ( 2.635005107372913713, 5.272857865827133672, -2.971417904117272357 ) ) ;
#589 = EDGE_CURVE ( 'NONE', #861, #865, #926, .T. ) ;
#590 =( GEOMETRIC_REPRESENTATION_CONTEXT ( 3 ) GLOBAL_UNCERTAINTY_ASSIGNED_CONTEXT ( ( #126 ) ) GLOBAL_UNIT_ASSIGNED_CONTEXT ( ( #23, #884, #726 ) ) REPRESENTATION_CONTEXT ( 'NONE', 'WORKASPACE' ) );
#591 = EDGE_CURVE ( 'NONE', #714, #351, #255, .T. ) ;
#592 = CARTESIAN_POINT ( 'NONE',  ( 40.00000000000000000, 0.000000000000000000, 2.999999999999998224 ) ) ;
#593 = LINE ( 'NONE', #224, #347 ) ;
#594 = DIRECTION ( 'NONE',  ( 0.000000000000000000, 0.000000000000000000, 1.000000000000000000 ) ) ;
#595 = FACE_BOUND ( 'NONE', #309, .T. ) ;
#596 = DIRECTION ( 'NONE',  ( 0.000000000000000000, 1.000000000000000000, -0.000000000000000000 ) ) ;
#597 = CARTESIAN_POINT ( 'NONE',  ( 2.444488412861054893, 5.882821297843877417, -2.486549034064964747 ) ) ;
#598 = ORIENTED_EDGE ( 'NONE', *, *, #703, .F. ) ;
#599 = DIRECTION ( 'NONE',  ( 0.000000000000000000, 1.000000000000000000, -0.000000000000000000 ) ) ;
#600 = CYLINDRICAL_SURFACE ( 'NONE', #14, 1.649999999999995470 ) ;
#601 = VERTEX_POINT ( 'NONE', #639 ) ;
#602 = CIRCLE ( 'NONE', #893, 4.000000000000003553 ) ;
#603 = CARTESIAN_POINT ( 'NONE',  ( 37.35424868893540662, 1.000000000000000000, -3.000000000000000000 ) ) ;
#604 = VECTOR ( 'NONE', #455, 1000.000000000000000 ) ;
#605 = EDGE_CURVE ( 'NONE', #98, #649, #684, .T. ) ;
#606 = FACE_OUTER_BOUND ( 'NONE', #105, .T. ) ;
#607 = VERTEX_POINT ( 'NONE', #860 ) ;
#608 = EDGE_CURVE ( 'NONE', #329, #326, #816, .T. ) ;
#609 = CARTESIAN_POINT ( 'NONE',  ( 0.000000000000000000, 0.000000000000000000, 0.000000000000000000 ) ) ;
#610 = DIRECTION ( 'NONE',  ( 0.000000000000000000, 0.000000000000000000, 1.000000000000000000 ) ) ;
#611 = DIRECTION ( 'NONE',  ( 0.000000000000000000, 0.000000000000000000, 1.000000000000000000 ) ) ;
#612 = DIRECTION ( 'NONE',  ( 1.000000000000000000, 0.000000000000000000, -1.249494797405735106E-16 ) ) ;
#613 = VERTEX_POINT ( 'NONE', #216 ) ;
#614 = AXIS2_PLACEMENT_3D ( 'NONE', #384, #311, #615 ) ;
#615 = DIRECTION ( 'NONE',  ( -1.776356839400250465E-15, 0.000000000000000000, 1.000000000000000000 ) ) ;
#616 = VECTOR ( 'NONE', #280, 1000.000000000000000 ) ;
#617 = EDGE_CURVE ( 'NONE', #135, #903, #510, .T. ) ;
#618 = AXIS2_PLACEMENT_3D ( 'NONE', #448, #813, #304 ) ;
#619 = CARTESIAN_POINT ( 'NONE',  ( 2.489391155085375562, 5.812180087977480092, 2.597838530112854372 ) ) ;
#620 = ORIENTED_EDGE ( 'NONE', *, *, #761, .F. ) ;
#621 = VECTOR ( 'NONE', #807, 1000.000000000000000 ) ;
#622 = CARTESIAN_POINT ( 'NONE',  ( 2.498989594811475142E-16, 5.000000000000000000, 2.000000000000004885 ) ) ;
#623 = ORIENTED_EDGE ( 'NONE', *, *, #319, .T. ) ;
#624 = CIRCLE ( 'NONE', #219, 3.000000000000003553 ) ;
#625 = FACE_OUTER_BOUND ( 'NONE', #29, .T. ) ;
#626 = ORIENTED_EDGE ( 'NONE', *, *, #485, .T. ) ;
#627 = CARTESIAN_POINT ( 'NONE',  ( 37.55551158713895177, 0.1171787021561237763, 2.486549034064969632 ) ) ;
#628 = CARTESIAN_POINT ( 'NONE',  ( 37.35424868893541372, 1.000000000000000000, 3.000000000000000000 ) ) ;
#629 = ORIENTED_EDGE ( 'NONE', *, *, #267, .T. ) ;
#630 = EDGE_LOOP ( 'NONE', ( #266, #754 ) ) ;
#631 = CIRCLE ( 'NONE', #555, 2.999999999999998224 ) ;
#632 = CARTESIAN_POINT ( 'NONE',  ( 2.635005502369596631, 0.7271470018272437885, -2.971418958966157930 ) ) ;
#633 = CARTESIAN_POINT ( 'NONE',  ( 37.76393202250020664, 6.000000000000000000, -2.000000000000000000 ) ) ;
#634 = EDGE_LOOP ( 'NONE', ( #175, #842, #278, #182, #62, #672, #128, #387 ) ) ;
#635 = ORIENTED_EDGE ( 'NONE', *, *, #617, .F. ) ;
#636 = ADVANCED_FACE ( 'NONE', ( #937 ), #401, .T. ) ;
#637 = CIRCLE ( 'NONE', #122, 3.000000000000003553 ) ;
#638 = CARTESIAN_POINT ( 'NONE',  ( 2.645751311064595601, 1.000000000000000000, -2.999999999999995559 ) ) ;
#639 = CARTESIAN_POINT ( 'NONE',  ( 37.76393202250020664, 0.000000000000000000, 2.000000000000000000 ) ) ;
#640 = ORIENTED_EDGE ( 'NONE', *, *, #840, .F. ) ;
#641 = ORIENTED_EDGE ( 'NONE', *, *, #541, .F. ) ;
#642 = DIRECTION ( 'NONE',  ( 0.000000000000000000, 0.000000000000000000, 1.000000000000000000 ) ) ;
#643 = DIRECTION ( 'NONE',  ( 0.000000000000000000, 0.000000000000000000, 1.000000000000000000 ) ) ;
#644 = ORIENTED_EDGE ( 'NONE', *, *, #39, .F. ) ;
#645 = ORIENTED_EDGE ( 'NONE', *, *, #761, .T. ) ;
#646 = AXIS2_PLACEMENT_3D ( 'NONE', #521, #293, #735 ) ;
#647 = CARTESIAN_POINT ( 'NONE',  ( 2.645751311064596045, 0.8623705224191949847, -2.999999999999996003 ) ) ;
#648 = CARTESIAN_POINT ( 'NONE',  ( 37.35424868893540662, 1.000000000000000000, -3.000000000000000000 ) ) ;
#649 = VERTEX_POINT ( 'NONE', #864 ) ;
#650 = AXIS2_PLACEMENT_3D ( 'NONE', #152, #436, #300 ) ;
#651 = COLOUR_RGB ( '',0.7921568627450980005, 0.8196078431372548767, 0.9333333333333333481 ) ;
#652 = DIRECTION ( 'NONE',  ( 0.000000000000000000, 1.000000000000000000, -0.000000000000000000 ) ) ;
#653 = PLANE ( 'NONE',  #72 ) ;
#654 = CARTESIAN_POINT ( 'NONE',  ( 37.43600957436591870, 5.631455432256838201, 2.786327819975821463 ) ) ;
#655 = CARTESIAN_POINT ( 'NONE',  ( 0.000000000000000000, 5.000000000000000000, 0.000000000000000000 ) ) ;
#656 = EDGE_CURVE ( 'NONE', #130, #613, #9, .T. ) ;
#657 = CARTESIAN_POINT ( 'NONE',  ( 37.76393202250020664, 0.000000000000000000, -2.000000000000000000 ) ) ;
#658 = CYLINDRICAL_SURFACE ( 'NONE', #818, 1.650000000000000133 ) ;
#659 = ADVANCED_FACE ( 'NONE', ( #426 ), #571, .T. ) ;
#660 = CIRCLE ( 'NONE', #614, 4.000000000000003553 ) ;
#661 = CARTESIAN_POINT ( 'NONE',  ( 0.000000000000000000, 0.000000000000000000, 3.000000000000003553 ) ) ;
#662 = AXIS2_PLACEMENT_3D ( 'NONE', #405, #328, #837 ) ;
#663 = FACE_OUTER_BOUND ( 'NONE', #581, .T. ) ;
#664 = DIRECTION ( 'NONE',  ( 0.000000000000000000, 1.000000000000000000, -0.000000000000000000 ) ) ;
#665 = AXIS2_PLACEMENT_3D ( 'NONE', #376, #148, #594 ) ;
#666 = CIRCLE ( 'NONE', #214, 2.999999999999998224 ) ;
#667 = DIRECTION ( 'NONE',  ( 0.000000000000000000, 1.000000000000000000, -0.000000000000000000 ) ) ;
#668 = CARTESIAN_POINT ( 'NONE',  ( 2.020667218593133001E-16, 0.000000000000000000, 1.650000000000000133 ) ) ;
#669 = EDGE_LOOP ( 'NONE', ( #44, #915, #290, #391, #66, #772, #382, #471 ) ) ;
#670 = CARTESIAN_POINT ( 'NONE',  ( 40.00000000000000000, 6.000000000000000000, 3.999999999999998224 ) ) ;
#671 = DIRECTION ( 'NONE',  ( -1.249494797405734613E-16, 0.000000000000000000, -1.000000000000000000 ) ) ;
#672 = ORIENTED_EDGE ( 'NONE', *, *, #856, .T. ) ;
#673 = EDGE_CURVE ( 'NONE', #865, #130, #850, .T. ) ;
#674 = EDGE_CURVE ( 'NONE', #537, #351, #859, .T. ) ;
#675 = CARTESIAN_POINT ( 'NONE',  ( 3.673940397442063812E-16, 1.000000000000000000, -3.000000000000003553 ) ) ;
#676 = CARTESIAN_POINT ( 'NONE',  ( 40.00000000000000000, 6.000000000000000000, 1.649999999999995470 ) ) ;
#677 = ORIENTED_EDGE ( 'NONE', *, *, #731, .F. ) ;
#678 = EDGE_CURVE ( 'NONE', #205, #457, #45, .T. ) ;
#679 = CARTESIAN_POINT ( 'NONE',  ( 2.594209444428439593, 5.519908949212457117, 2.864753280988034501 ) ) ;
#680 = CIRCLE ( 'NONE', #269, 1.000000000000000000 ) ;
#681 = ORIENTED_EDGE ( 'NONE', *, *, #591, .T. ) ;
#682 = DIRECTION ( 'NONE',  ( 1.000000000000000000, -0.000000000000000000, -1.249494797405735106E-16 ) ) ;
#683 = ORIENTED_EDGE ( 'NONE', *, *, #704, .T. ) ;
#684 = B_SPLINE_CURVE_WITH_KNOTS ( 'NONE', 3,
 ( #785, #134, #700, #919, #61, #270, #931, #481, #779, #568 ),
 .UNSPECIFIED., .F., .F.,
 ( 4, 2, 2, 2, 4 ),
 ( 0.000000000000000000, 0.0004068805386277706752, 0.0008137610772555412420, 0.001220641615883311971, 0.001627522154511082701 ),
 .UNSPECIFIED. ) ;
#685 = CIRCLE ( 'NONE', #112, 1.650000000000000133 ) ;
#686 = DIRECTION ( 'NONE',  ( 1.000000000000000000, 0.000000000000000000, 1.224646799147353207E-16 ) ) ;
#687 = EDGE_LOOP ( 'NONE', ( #620, #899, #569, #38 ) ) ;
#688 = CARTESIAN_POINT ( 'NONE',  ( -2.498989594811464295E-16, 0.000000000000000000, -1.999999999999995337 ) ) ;
#689 = EDGE_CURVE ( 'NONE', #271, #286, #805, .T. ) ;
#690 = EDGE_CURVE ( 'NONE', #412, #271, #37, .T. ) ;
#691 = ADVANCED_FACE ( 'NONE', ( #887 ), #561, .T. ) ;
#692 = DIRECTION ( 'NONE',  ( -0.000000000000000000, -1.000000000000000000, -0.000000000000000000 ) ) ;
#693 = DIRECTION ( 'NONE',  ( 0.000000000000000000, 1.000000000000000000, -0.000000000000000000 ) ) ;
#694 = TOROIDAL_SURFACE ( 'NONE', #283, 3.000000000000003553, 1.000000000000000000 ) ;
#695 = AXIS2_PLACEMENT_3D ( 'NONE', #801, #876, #574 ) ;
#696 = AXIS2_PLACEMENT_3D ( 'NONE', #716, #64, #642 ) ;
#697 = FACE_OUTER_BOUND ( 'NONE', #543, .T. ) ;
#698 = EDGE_LOOP ( 'NONE', ( #124, #645, #32, #189 ) ) ;
#699 = AXIS2_PLACEMENT_3D ( 'NONE', #766, #181, #395 ) ;
#700 = CARTESIAN_POINT ( 'NONE',  ( 2.635005107372902611, 0.7271421341728681043, 2.971417904117281239 ) ) ;
#701 = ORIENTED_EDGE ( 'NONE', *, *, #253, .F. ) ;
#702 = DIRECTION ( 'NONE',  ( 0.000000000000000000, 0.000000000000000000, -1.000000000000000000 ) ) ;
#703 = EDGE_CURVE ( 'NONE', #718, #41, #806, .T. ) ;
#704 = EDGE_CURVE ( 'NONE', #886, #351, #11, .T. ) ;
#705 = ORIENTED_EDGE ( 'NONE', *, *, #241, .T. ) ;
#706 = DIRECTION ( 'NONE',  ( 0.000000000000000000, 1.000000000000000000, -0.000000000000000000 ) ) ;
#707 = EDGE_CURVE ( 'NONE', #424, #499, #685, .T. ) ;
#708 = CARTESIAN_POINT ( 'NONE',  ( 0.000000000000000000, 0.000000000000000000, -1.650000000000000133 ) ) ;
#709 = EDGE_LOOP ( 'NONE', ( #48, #705, #482, #110 ) ) ;
#710 = ORIENTED_EDGE ( 'NONE', *, *, #107, .T. ) ;
#711 = AXIS2_PLACEMENT_3D ( 'NONE', #213, #366, #734 ) ;
#712 = DIRECTION ( 'NONE',  ( 0.000000000000000000, 0.000000000000000000, 1.000000000000000000 ) ) ;
#713 = DIRECTION ( 'NONE',  ( -0.000000000000000000, -1.000000000000000000, -0.000000000000000000 ) ) ;
#714 = VERTEX_POINT ( 'NONE', #592 ) ;
#715 = ORIENTED_EDGE ( 'NONE', *, *, #704, .F. ) ;
#716 = CARTESIAN_POINT ( 'NONE',  ( 0.000000000000000000, 5.000000000000000000, 3.000000000000003553 ) ) ;
#717 = CARTESIAN_POINT ( 'NONE',  ( 37.65400170876691277, 5.976361499997925542, 2.250641295216408988 ) ) ;
#718 = VERTEX_POINT ( 'NONE', #661 ) ;
#719 = VERTEX_POINT ( 'NONE', #291 ) ;
#720 = FACE_OUTER_BOUND ( 'NONE', #848, .T. ) ;
#721 = CARTESIAN_POINT ( 'NONE',  ( 2.236067977499798243, 6.000000000000000000, -1.999999999999995781 ) ) ;
#722 = CARTESIAN_POINT ( 'NONE',  ( 37.76393202250020664, 6.000000000000000000, 2.000000000000000000 ) ) ;
#723 = ORIENTED_EDGE ( 'NONE', *, *, #503, .F. ) ;
#724 =( LENGTH_UNIT ( ) NAMED_UNIT ( * ) SI_UNIT ( .MILLI., .METRE. ) );
#725 = DIRECTION ( 'NONE',  ( 0.000000000000000000, 0.000000000000000000, 1.000000000000000000 ) ) ;
#726 =( NAMED_UNIT ( * ) SI_UNIT ( $, .STERADIAN. ) SOLID_ANGLE_UNIT ( ) );
#727 = CARTESIAN_POINT ( 'NONE',  ( 2.291624257432639311, 2.668153783851045144E-17, -2.124310648276793057 ) ) ;
#728 = CIRCLE ( 'NONE', #337, 4.000000000000003553 ) ;
#729 = DIRECTION ( 'NONE',  ( -1.000000000000000000, 0.000000000000000000, 1.249494797405734613E-16 ) ) ;
#730 = CARTESIAN_POINT ( 'NONE',  ( 37.35424868893541372, 5.000000000000000000, 3.000000000000000000 ) ) ;
#731 = EDGE_CURVE ( 'NONE', #565, #340, #195, .T. ) ;
#732 = AXIS2_PLACEMENT_3D ( 'NONE', #96, #379, #104 ) ;
#733 = DIRECTION ( 'NONE',  ( 0.000000000000000000, 1.000000000000000000, -0.000000000000000000 ) ) ;
#734 = DIRECTION ( 'NONE',  ( 1.000000000000000000, 0.000000000000000000, 0.000000000000000000 ) ) ;
#735 = DIRECTION ( 'NONE',  ( 0.000000000000000000, 0.000000000000000000, 1.000000000000000000 ) ) ;
#736 = B_SPLINE_CURVE_WITH_KNOTS ( 'NONE', 3,
 ( #56, #727, #138, #858, #268, #221, #800, #632, #647, #638 ),
 .UNSPECIFIED., .F., .F.,
 ( 4, 2, 2, 2, 4 ),
 ( -7.325717372367367432E-06, 0.0004011533914279256756, 0.0008096325002282187813, 0.001218111609028511887, 0.001626590717828804884 ),
 .UNSPECIFIED. ) ;
#737 = DIRECTION ( 'NONE',  ( 0.000000000000000000, 1.000000000000000000, -0.000000000000000000 ) ) ;
#738 = CARTESIAN_POINT ( 'NONE',  ( 40.00000000000000000, 6.000000000000000000, 0.000000000000000000 ) ) ;
#739 = CARTESIAN_POINT ( 'NONE',  ( 2.594207673780085877, 5.519917196308925966, -2.864748673526357869 ) ) ;
#740 = CIRCLE ( 'NONE', #323, 4.000000000000003553 ) ;
#741 = DIRECTION ( 'NONE',  ( -0.000000000000000000, -1.000000000000000000, 0.000000000000000000 ) ) ;
#742 = VECTOR ( 'NONE', #729, 1000.000000000000000 ) ;
#743 = FACE_OUTER_BOUND ( 'NONE', #163, .T. ) ;
#744 = AXIS2_PLACEMENT_3D ( 'NONE', #238, #664, #367 ) ;
#745 = CARTESIAN_POINT ( 'NONE',  ( 2.645751311064595601, 5.000000000000000000, -2.999999999999995559 ) ) ;
#746 = ORIENTED_EDGE ( 'NONE', *, *, #608, .F. ) ;
#747 = DIRECTION ( 'NONE',  ( 0.000000000000000000, 1.000000000000000000, -0.000000000000000000 ) ) ;
#748 = AXIS2_PLACEMENT_3D ( 'NONE', #874, #733, #812 ) ;
#749 = FACE_OUTER_BOUND ( 'NONE', #560, .T. ) ;
#750 = EDGE_CURVE ( 'NONE', #718, #565, #637, .T. ) ;
#751 = ORIENTED_EDGE ( 'NONE', *, *, #408, .F. ) ;
#752 = MANIFOLD_SOLID_BREP ( 'Redondeo1', #501 ) ;
#753 = LINE ( 'NONE', #548, #866 ) ;
#754 = ORIENTED_EDGE ( 'NONE', *, *, #707, .T. ) ;
#755 = DIRECTION ( 'NONE',  ( 0.000000000000000000, 1.000000000000000000, -0.000000000000000000 ) ) ;
#756 = EDGE_LOOP ( 'NONE', ( #532, #644, #478, #58 ) ) ;
#757 = FACE_OUTER_BOUND ( 'NONE', #406, .T. ) ;
#758 = CARTESIAN_POINT ( 'NONE',  ( 37.76393202250020664, 6.000000000000000000, 2.000000000000000000 ) ) ;
#759 = AXIS2_PLACEMENT_3D ( 'NONE', #901, #768, #546 ) ;
#760 = ORIENTED_EDGE ( 'NONE', *, *, #656, .F. ) ;
#761 = EDGE_CURVE ( 'NONE', #719, #424, #877, .T. ) ;
#762 = LINE ( 'NONE', #688, #206 ) ;
#763 = ADVANCED_FACE ( 'NONE', ( #165 ), #479, .T. ) ;
#764 = DIRECTION ( 'NONE',  ( 0.000000000000000000, 1.000000000000000000, -0.000000000000000000 ) ) ;
#765 = DIRECTION ( 'NONE',  ( -0.000000000000000000, -1.000000000000000000, -0.000000000000000000 ) ) ;
#766 = CARTESIAN_POINT ( 'NONE',  ( 0.000000000000000000, 6.000000000000000000, 0.000000000000000000 ) ) ;
#767 = PRODUCT ( 'Pivot Arm B', 'Pivot Arm B', '', ( #880 ) ) ;
#768 = DIRECTION ( 'NONE',  ( -0.000000000000000000, -1.000000000000000000, 0.000000000000000000 ) ) ;
#769 = ORIENTED_EDGE ( 'NONE', *, *, #296, .F. ) ;
#770 = AXIS2_PLACEMENT_3D ( 'NONE', #418, #913, #52 ) ;
#771 = DIRECTION ( 'NONE',  ( 0.000000000000000000, 0.000000000000000000, 1.000000000000000000 ) ) ;
#772 = ORIENTED_EDGE ( 'NONE', *, *, #437, .T. ) ;
#773 = TOROIDAL_SURFACE ( 'NONE', #108, 2.999999999999998224, 1.000000000000000000 ) ;
#774 = ADVANCED_FACE ( 'NONE', ( #512 ), #773, .T. ) ;
#775 = DIRECTION ( 'NONE',  ( 0.000000000000000000, 0.000000000000000000, 1.000000000000000000 ) ) ;
#776 = EDGE_LOOP ( 'NONE', ( #204, #168 ) ) ;
#777 = EDGE_CURVE ( 'NONE', #861, #613, #82, .T. ) ;
#778 = CARTESIAN_POINT ( 'NONE',  ( 40.00000000000000000, 5.000000000000000000, 0.000000000000000000 ) ) ;
#779 = CARTESIAN_POINT ( 'NONE',  ( 2.291406839675055540, 5.015442563508426416E-34, 2.123824162455996145 ) ) ;
#780 = ORIENTED_EDGE ( 'NONE', *, *, #576, .T. ) ;
#781 = ORIENTED_EDGE ( 'NONE', *, *, #227, .F. ) ;
#782 = CIRCLE ( 'NONE', #934, 3.999999999999998224 ) ;
#783 = DIRECTION ( 'NONE',  ( 0.000000000000000000, 0.000000000000000000, 1.000000000000000000 ) ) ;
#784 = AXIS2_PLACEMENT_3D ( 'NONE', #622, #477, #553 ) ;
#785 = CARTESIAN_POINT ( 'NONE',  ( 2.645751311064596045, 1.000000000000000000, 3.000000000000004441 ) ) ;
#786 = ORIENTED_EDGE ( 'NONE', *, *, #404, .F. ) ;
#787 = ORIENTED_EDGE ( 'NONE', *, *, #777, .T. ) ;
#788 = EDGE_CURVE ( 'NONE', #565, #552, #680, .T. ) ;
#789 = DIRECTION ( 'NONE',  ( -1.734723475976807883E-15, 0.000000000000000000, 1.000000000000000000 ) ) ;
#790 = VECTOR ( 'NONE', #520, 1000.000000000000000 ) ;
#791 = CARTESIAN_POINT ( 'NONE',  ( 40.00000000000000000, 0.000000000000000000, 0.000000000000000000 ) ) ;
#792 = ORIENTED_EDGE ( 'NONE', *, *, #689, .T. ) ;
#793 = AXIS2_PLACEMENT_3D ( 'NONE', #97, #596, #380 ) ;
#794 = ORIENTED_EDGE ( 'NONE', *, *, #226, .T. ) ;
#795 = FACE_OUTER_BOUND ( 'NONE', #145, .T. ) ;
#796 = DIRECTION ( 'NONE',  ( 0.000000000000000000, 0.000000000000000000, 1.000000000000000000 ) ) ;
#797 = ORIENTED_EDGE ( 'NONE', *, *, #226, .F. ) ;
#798 = DIRECTION ( 'NONE',  ( 0.000000000000000000, 0.000000000000000000, 1.000000000000000000 ) ) ;
#799 = LINE ( 'NONE', #508, #121 ) ;
#800 = CARTESIAN_POINT ( 'NONE',  ( 2.594209444428449363, 0.4800910507875424393, -2.864753280988025619 ) ) ;
#801 = CARTESIAN_POINT ( 'NONE',  ( 40.00000000000000000, 1.000000000000000000, 0.000000000000000000 ) ) ;
#802 = LINE ( 'NONE', #233, #790 ) ;
#803 = CARTESIAN_POINT ( 'NONE',  ( 37.51061398418584503, 5.812189889182073799, -2.597825692485384419 ) ) ;
#804 = CIRCLE ( 'NONE', #895, 4.000000000000003553 ) ;
#805 = LINE ( 'NONE', #159, #439 ) ;
#806 = CIRCLE ( 'NONE', #927, 1.000000000000000000 ) ;
#807 = DIRECTION ( 'NONE',  ( -0.000000000000000000, -1.000000000000000000, -0.000000000000000000 ) ) ;
#808 = CARTESIAN_POINT ( 'NONE',  ( 2.645751311064596045, 0.000000000000000000, 2.000000000000004441 ) ) ;
#809 = EDGE_CURVE ( 'NONE', #264, #412, #728, .T. ) ;
#810 = CARTESIAN_POINT ( 'NONE',  ( 4.286263797015740539E-16, 6.000000000000000000, -3.000000000000003553 ) ) ;
#811 = DIRECTION ( 'NONE',  ( -0.000000000000000000, -1.000000000000000000, 0.000000000000000000 ) ) ;
#812 = DIRECTION ( 'NONE',  ( 0.000000000000000000, 0.000000000000000000, 1.000000000000000000 ) ) ;
#813 = DIRECTION ( 'NONE',  ( 0.000000000000000000, 1.000000000000000000, -0.000000000000000000 ) ) ;
#814 = EDGE_LOOP ( 'NONE', ( #282, #554, #312, #792 ) ) ;
#815 = CIRCLE ( 'NONE', #488, 1.000000000000000000 ) ;
#816 = CIRCLE ( 'NONE', #164, 1.649999999999995470 ) ;
#817 = DIRECTION ( 'NONE',  ( -1.000000000000000000, 0.000000000000000000, 1.249494797405735106E-16 ) ) ;
#818 = AXIS2_PLACEMENT_3D ( 'NONE', #231, #889, #162 ) ;
#819 = CARTESIAN_POINT ( 'NONE',  ( 37.40579232621990968, 5.519917196308926854, -2.864748673526363199 ) ) ;
#820 = DIRECTION ( 'NONE',  ( 0.000000000000000000, 0.000000000000000000, 1.000000000000000000 ) ) ;
#821 = AXIS2_PLACEMENT_3D ( 'NONE', #868, #147, #220 ) ;
#822 = ORIENTED_EDGE ( 'NONE', *, *, #433, .F. ) ;
#823 = CARTESIAN_POINT ( 'NONE',  ( -3.748484392217199401E-16, 6.000000000000000000, -2.999999999999995115 ) ) ;
#824 = DIRECTION ( 'NONE',  ( 0.000000000000000000, 1.000000000000000000, -0.000000000000000000 ) ) ;
#825 = ORIENTED_EDGE ( 'NONE', *, *, #674, .F. ) ;
#826 = EDGE_CURVE ( 'NONE', #59, #494, #357, .T. ) ;
#827 = CARTESIAN_POINT ( 'NONE',  ( 0.000000000000000000, 1.000000000000000000, 0.000000000000000000 ) ) ;
#828 = EDGE_CURVE ( 'NONE', #41, #98, #804, .T. ) ;
#829 = ORIENTED_EDGE ( 'NONE', *, *, #156, .T. ) ;
#830 = CARTESIAN_POINT ( 'NONE',  ( 3.673940397442063812E-16, 5.000000000000000000, -3.000000000000003553 ) ) ;
#831 = ORIENTED_EDGE ( 'NONE', *, *, #517, .T. ) ;
#832 = CARTESIAN_POINT ( 'NONE',  ( 40.00000000000000000, 6.000000000000000000, 0.000000000000000000 ) ) ;
#833 = DIRECTION ( 'NONE',  ( -0.000000000000000000, -1.000000000000000000, 0.000000000000000000 ) ) ;
#834 = DIRECTION ( 'NONE',  ( 0.000000000000000000, 1.000000000000000000, -0.000000000000000000 ) ) ;
#835 = DIRECTION ( 'NONE',  ( 1.224646799147353454E-16, 0.000000000000000000, -1.000000000000000000 ) ) ;
#836 = DIRECTION ( 'NONE',  ( 0.000000000000000000, 0.000000000000000000, 1.000000000000000000 ) ) ;
#837 = DIRECTION ( 'NONE',  ( 0.000000000000000000, 0.000000000000000000, 1.000000000000000000 ) ) ;
#838 = ORIENTED_EDGE ( 'NONE', *, *, #472, .T. ) ;
#839 = ADVANCED_FACE ( 'NONE', ( #392 ), #458, .F. ) ;
#840 = EDGE_CURVE ( 'NONE', #494, #117, #631, .T. ) ;
#841 = CARTESIAN_POINT ( 'NONE',  ( 0.000000000000000000, 1.000000000000000000, -4.000000000000003553 ) ) ;
#842 = ORIENTED_EDGE ( 'NONE', *, *, #142, .T. ) ;
#843 = ADVANCED_FACE ( 'NONE', ( #896 ), #313, .T. ) ;
#844 = AXIS2_PLACEMENT_3D ( 'NONE', #240, #248, #820 ) ;
#845 = LINE ( 'NONE', #421, #166 ) ;
#846 = DIRECTION ( 'NONE',  ( -0.000000000000000000, -1.000000000000000000, -0.000000000000000000 ) ) ;
#847 = VECTOR ( 'NONE', #27, 1000.000000000000000 ) ;
#848 = EDGE_LOOP ( 'NONE', ( #751, #71, #141, #905 ) ) ;
#849 = ORIENTED_EDGE ( 'NONE', *, *, #608, .T. ) ;
#850 = B_SPLINE_CURVE_WITH_KNOTS ( 'NONE', 3,
 ( #722, #222, #717, #150, #355, #654, #349, #577, #867, #730 ),
 .UNSPECIFIED., .F., .F.,
 ( 4, 2, 2, 2, 4 ),
 ( -7.325717372369572259E-06, 0.0004011533914279229109, 0.0008096325002282154203, 0.001218111609028507984, 0.001626590717828800547 ),
 .UNSPECIFIED. ) ;
#851 = DIRECTION ( 'NONE',  ( 1.000000000000000000, -0.000000000000000000, -1.249494797405734613E-16 ) ) ;
#852 = CARTESIAN_POINT ( 'NONE',  ( 40.00000000000000000, 1.000000000000000000, 0.000000000000000000 ) ) ;
#853 = EDGE_LOOP ( 'NONE', ( #495, #681, #825, #51 ) ) ;
#854 = EDGE_CURVE ( 'NONE', #59, #894, #906, .T. ) ;
#855 = EDGE_LOOP ( 'NONE', ( #933, #251, #3, #911 ) ) ;
#856 = EDGE_CURVE ( 'NONE', #649, #718, #390, .T. ) ;
#857 = CIRCLE ( 'NONE', #445, 2.999999999999998224 ) ;
#858 = CARTESIAN_POINT ( 'NONE',  ( 2.444494829940162539, 0.1171877085615602582, -2.486564790784498324 ) ) ;
#859 = CIRCLE ( 'NONE', #450, 3.999999999999998224 ) ;
#860 = CARTESIAN_POINT ( 'NONE',  ( 2.645751311064595601, 1.000000000000000000, -2.999999999999995559 ) ) ;
#861 = VERTEX_POINT ( 'NONE', #470 ) ;
#862 = ORIENTED_EDGE ( 'NONE', *, *, #826, .T. ) ;
#863 = CARTESIAN_POINT ( 'NONE',  ( 0.000000000000000000, 6.000000000000000000, 0.000000000000000000 ) ) ;
#864 = CARTESIAN_POINT ( 'NONE',  ( 2.236067977499790693, 0.000000000000000000, 2.000000000000004441 ) ) ;
#865 = VERTEX_POINT ( 'NONE', #758 ) ;
#866 = VECTOR ( 'NONE', #468, 1000.000000000000000 ) ;
#867 = CARTESIAN_POINT ( 'NONE',  ( 37.35424868893541372, 5.137629477580805570, 3.000000000000000444 ) ) ;
#868 = CARTESIAN_POINT ( 'NONE',  ( -2.498989594811464295E-16, 1.000000000000000000, -1.999999999999995337 ) ) ;
#869 = FACE_OUTER_BOUND ( 'NONE', #855, .T. ) ;
#870 = PRODUCT_RELATED_PRODUCT_CATEGORY ( 'part', '', ( #767 ) ) ;
#871 = DIRECTION ( 'NONE',  ( 0.000000000000000000, 0.000000000000000000, 1.000000000000000000 ) ) ;
#872 = EDGE_CURVE ( 'NONE', #499, #424, #476, .T. ) ;
#873 = EDGE_CURVE ( 'NONE', #527, #714, #511, .T. ) ;
#874 = CARTESIAN_POINT ( 'NONE',  ( 40.00000000000000000, 1.000000000000000000, 0.000000000000000000 ) ) ;
#875 = DIRECTION ( 'NONE',  ( -0.000000000000000000, -1.000000000000000000, -0.000000000000000000 ) ) ;
#876 = DIRECTION ( 'NONE',  ( 0.000000000000000000, 1.000000000000000000, -0.000000000000000000 ) ) ;
#877 = LINE ( 'NONE', #428, #898 ) ;
#878 = ADVANCED_FACE ( 'NONE', ( #697 ), #192, .T. ) ;
#879 = FACE_OUTER_BOUND ( 'NONE', #564, .T. ) ;
#880 = PRODUCT_CONTEXT ( 'NONE', #79, 'mechanical' ) ;
#881 = PLANE ( 'NONE',  #646 ) ;
#882 = SURFACE_STYLE_USAGE ( .BOTH. , #90 ) ;
#883 = CARTESIAN_POINT ( 'NONE',  ( 0.000000000000000000, 6.000000000000000000, 3.000000000000003553 ) ) ;
#884 =( NAMED_UNIT ( * ) PLANE_ANGLE_UNIT ( ) SI_UNIT ( $, .RADIAN. ) );
#885 = DIRECTION ( 'NONE',  ( 0.000000000000000000, 0.000000000000000000, -1.000000000000000000 ) ) ;
#886 = VERTEX_POINT ( 'NONE', #891 ) ;
#887 = FACE_OUTER_BOUND ( 'NONE', #484, .T. ) ;
#888 = DIRECTION ( 'NONE',  ( -0.000000000000000000, -1.000000000000000000, 0.000000000000000000 ) ) ;
#889 = DIRECTION ( 'NONE',  ( -0.000000000000000000, -1.000000000000000000, -0.000000000000000000 ) ) ;
#890 = ORIENTED_EDGE ( 'NONE', *, *, #503, .T. ) ;
#891 = CARTESIAN_POINT ( 'NONE',  ( 40.00000000000000000, 5.000000000000000000, 3.999999999999998224 ) ) ;
#892 = CARTESIAN_POINT ( 'NONE',  ( 0.000000000000000000, 1.000000000000000000, 0.000000000000000000 ) ) ;
#893 = AXIS2_PLACEMENT_3D ( 'NONE', #133, #279, #149 ) ;
#894 = VERTEX_POINT ( 'NONE', #170 ) ;
#895 = AXIS2_PLACEMENT_3D ( 'NONE', #827, #599, #549 ) ;
#896 = FACE_OUTER_BOUND ( 'NONE', #474, .T. ) ;
#897 = DIRECTION ( 'NONE',  ( 1.224646799147353454E-16, 0.000000000000000000, -1.000000000000000000 ) ) ;
#898 = VECTOR ( 'NONE', #435, 1000.000000000000000 ) ;
#899 = ORIENTED_EDGE ( 'NONE', *, *, #541, .T. ) ;
#900 = PRODUCT_DEFINITION ( 'UNKNOWN', '', #183, #399 ) ;
#901 = CARTESIAN_POINT ( 'NONE',  ( 40.00000000000000000, 0.000000000000000000, 0.000000000000000000 ) ) ;
#902 = PRODUCT_DEFINITION_SHAPE ( 'NONE', 'NONE',  #900 ) ;
#903 = VERTEX_POINT ( 'NONE', #603 ) ;
#904 = CARTESIAN_POINT ( 'NONE',  ( 40.00000000000000000, 6.000000000000000000, 0.000000000000000000 ) ) ;
#905 = ORIENTED_EDGE ( 'NONE', *, *, #507, .F. ) ;
#906 = LINE ( 'NONE', #30, #604 ) ;
#907 = ORIENTED_EDGE ( 'NONE', *, *, #408, .T. ) ;
#908 = DIRECTION ( 'NONE',  ( 1.000000000000000000, 0.000000000000000000, 1.224646799147353207E-16 ) ) ;
#909 = UNCERTAINTY_MEASURE_WITH_UNIT (LENGTH_MEASURE( 1.000000000000000082E-05 ), #724, 'distance_accuracy_value', 'NONE');
#910 = CARTESIAN_POINT ( 'NONE',  ( 2.291624257433023448, 6.000000000000000000, 2.124310648276626523 ) ) ;
#911 = ORIENTED_EDGE ( 'NONE', *, *, #368, .F. ) ;
#912 = CIRCLE ( 'NONE', #748, 3.999999999999998224 ) ;
#913 = DIRECTION ( 'NONE',  ( -0.000000000000000000, -1.000000000000000000, -0.000000000000000000 ) ) ;
#914 = ADVANCED_FACE ( 'NONE', ( #538 ), #462, .T. ) ;
#915 = ORIENTED_EDGE ( 'NONE', *, *, #296, .T. ) ;
#916 = CYLINDRICAL_SURFACE ( 'NONE', #770, 4.000000000000003553 ) ;
#917 = ORIENTED_EDGE ( 'NONE', *, *, #343, .T. ) ;
#918 = CARTESIAN_POINT ( 'NONE',  ( 37.70859316032563413, -5.929230630780099292E-18, 2.123824162456298126 ) ) ;
#919 = CARTESIAN_POINT ( 'NONE',  ( 2.594207673780076995, 0.4800828036910736452, 2.864748673526367639 ) ) ;
#920 = ORIENTED_EDGE ( 'NONE', *, *, #873, .F. ) ;
#921 = EDGE_LOOP ( 'NONE', ( #191, #829, #461, #932 ) ) ;
#922 = AXIS2_PLACEMENT_3D ( 'NONE', #609, #764, #310 ) ;
#923 = EDGE_CURVE ( 'NONE', #601, #649, #430, .T. ) ;
#924 = DIRECTION ( 'NONE',  ( 0.000000000000000000, 0.000000000000000000, 1.000000000000000000 ) ) ;
#925 = ADVANCED_FACE ( 'NONE', ( #720 ), #137, .T. ) ;
#926 = LINE ( 'NONE', #473, #207 ) ;
#927 = AXIS2_PLACEMENT_3D ( 'NONE', #364, #232, #798 ) ;
#928 = EDGE_LOOP ( 'NONE', ( #787, #760, #261, #346 ) ) ;
#929 = ORIENTED_EDGE ( 'NONE', *, *, #809, .T. ) ;
#930 = CARTESIAN_POINT ( 'NONE',  ( 37.76393202250020664, 0.000000000000000000, 2.000000000000000000 ) ) ;
#931 = CARTESIAN_POINT ( 'NONE',  ( 2.444488412861045123, 0.1171787021561232212, 2.486549034064971853 ) ) ;
#932 = ORIENTED_EDGE ( 'NONE', *, *, #576, .F. ) ;
#933 = ORIENTED_EDGE ( 'NONE', *, *, #788, .F. ) ;
#934 = AXIS2_PLACEMENT_3D ( 'NONE', #322, #542, #115 ) ;
#935 = FACE_OUTER_BOUND ( 'NONE', #277, .T. ) ;
#936 = AXIS2_PLACEMENT_3D ( 'NONE', #489, #127, #409 ) ;
#937 = FACE_OUTER_BOUND ( 'NONE', #247, .T. ) ;
#938 = ORIENTED_EDGE ( 'NONE', *, *, #227, .T. ) ;
#939 = CIRCLE ( 'NONE', #618, 3.000000000000003553 ) ;
ENDSEC;
END-ISO-10303-21;
