ISO-10303-21;
HEADER;
/* Generated by software containing ST-Developer
 * from STEP Tools, Inc. (www.steptools.com) 
 */

FILE_DESCRIPTION(
/* description */ ('STEP AP214'),
/* implementation_level */ '2;1');

FILE_NAME(
/* name */ 'Tapa 4M1D.step',
/* time_stamp */ '2026-07-03T18:34:03-04:00',
/* author */ (''),
/* organization */ (''),
/* preprocessor_version */ 'ST-DEVELOPER v20.1',
/* originating_system */ 'Autodesk Translation Framework v15.8.0.0',
/* authorisation */ '');

FILE_SCHEMA (('AUTOMOTIVE_DESIGN { 1 0 10303 214 3 1 1 }'));
ENDSEC;

DATA;
#10=MECHANICAL_DESIGN_GEOMETRIC_PRESENTATION_REPRESENTATION('',(#13),#856);
#11=SHAPE_REPRESENTATION_RELATIONSHIP('SRR','None',#863,#12);
#12=ADVANCED_BREP_SHAPE_REPRESENTATION('',(#14),#855);
#13=STYLED_ITEM('',(#873),#14);
#14=MANIFOLD_SOLID_BREP('Tapa 4M1D',#441);
#15=TOROIDAL_SURFACE('',#500,15.8357864376269,1.);
#16=TOROIDAL_SURFACE('',#501,15.8357864376269,1.);
#17=TOROIDAL_SURFACE('',#502,15.8357864376269,1.);
#18=B_SPLINE_CURVE_WITH_KNOTS('',3,(#684,#685,#686,#687,#688,#689,#690,
#691,#692,#693),.UNSPECIFIED.,.F.,.F.,(4,2,2,2,4),(1.50862392868563,1.57440945943396,
1.64019499018228,1.77176605167893,1.91157809216927),.UNSPECIFIED.);
#19=B_SPLINE_CURVE_WITH_KNOTS('',3,(#697,#698,#699,#700,#701,#702,#703,
#704,#705,#706,#707,#708,#709,#710,#711,#712,#713,#714),.UNSPECIFIED.,.F.,
 .F.,(4,2,2,2,2,2,2,2,4),(1.10431961756511,1.24553764449097,1.37709970132855,
1.44288072974735,1.50866175816614,1.57444278658493,1.64022381500372,1.77178587184131,
1.83054739816753),.UNSPECIFIED.);
#20=B_SPLINE_CURVE_WITH_KNOTS('',3,(#716,#717,#718,#719),.UNSPECIFIED.,
 .F.,.F.,(4,4),(1.83054739816753,1.91300518276413),.UNSPECIFIED.);
#21=B_SPLINE_CURVE_WITH_KNOTS('',3,(#723,#724,#725,#726),.UNSPECIFIED.,
 .F.,.F.,(4,4),(1.10431833356815,1.18677611816475),.UNSPECIFIED.);
#22=B_SPLINE_CURVE_WITH_KNOTS('',3,(#728,#729,#730,#731,#732,#733,#734,
#735,#736,#737,#738,#739,#740,#741,#742,#743,#744,#745),.UNSPECIFIED.,.F.,
 .F.,(4,2,2,2,2,2,2,2,4),(1.18677611816475,1.24553764449097,1.37709970132856,
1.44288072974735,1.50866175816614,1.57444278658493,1.64022381500373,1.77178587184131,
1.91300389876717),.UNSPECIFIED.);
#23=B_SPLINE_CURVE_WITH_KNOTS('',3,(#748,#749,#750,#751,#752,#753,#754,
#755,#756,#757),.UNSPECIFIED.,.F.,.F.,(4,2,2,2,4),(1.10566976520199,1.24548180569232,
1.37705286718898,1.4428383979373,1.50862392868563),.UNSPECIFIED.);
#24=B_SPLINE_CURVE_WITH_KNOTS('',3,(#763,#764,#765,#766,#767,#768,#769,
#770),.UNSPECIFIED.,.F.,.F.,(4,2,2,4),(0.0809095287658018,0.11240339245843,
0.154045138014745,0.163211381779226),.UNSPECIFIED.);
#25=B_SPLINE_CURVE_WITH_KNOTS('',3,(#773,#774,#775,#776,#777,#778,#779,
#780),.UNSPECIFIED.,.F.,.F.,(4,2,2,4),(0.479041677768784,0.499076259710549,
0.539533396729759,0.561334888740236),.UNSPECIFIED.);
#26=B_SPLINE_CURVE_WITH_KNOTS('',3,(#788,#789,#790,#791,#792,#793,#794,
#795),.UNSPECIFIED.,.F.,.F.,(4,2,2,4),(0.479174352528481,0.499150782498372,
0.539678036761344,0.561543669527866),.UNSPECIFIED.);
#27=B_SPLINE_CURVE_WITH_KNOTS('',3,(#797,#798,#799,#800,#801,#802,#803,
#804),.UNSPECIFIED.,.F.,.F.,(4,2,2,4),(0.0809449136110552,0.112321435744536,
0.154054832563978,0.16332309691803),.UNSPECIFIED.);
#28=B_SPLINE_CURVE_WITH_KNOTS('',3,(#811,#812,#813,#814,#815,#816,#817,
#818),.UNSPECIFIED.,.F.,.F.,(4,2,2,4),(0.0809095287657947,0.112403392458421,
0.154045138014732,0.163211381779212),.UNSPECIFIED.);
#29=B_SPLINE_CURVE_WITH_KNOTS('',3,(#821,#822,#823,#824,#825,#826,#827,
#828),.UNSPECIFIED.,.F.,.F.,(4,2,2,4),(0.479041677768602,0.499076259710359,
0.539533396729553,0.561334888740021),.UNSPECIFIED.);
#30=CYLINDRICAL_SURFACE('',#467,3.);
#31=CYLINDRICAL_SURFACE('',#476,2.85);
#32=CYLINDRICAL_SURFACE('',#479,2.85);
#33=CYLINDRICAL_SURFACE('',#483,2.85);
#34=CYLINDRICAL_SURFACE('',#486,19.25);
#35=CYLINDRICAL_SURFACE('',#487,1.55);
#36=CYLINDRICAL_SURFACE('',#489,1.55);
#37=CYLINDRICAL_SURFACE('',#491,1.55);
#38=FACE_BOUND('',#83,.T.);
#39=FACE_BOUND('',#84,.T.);
#40=FACE_BOUND('',#85,.T.);
#41=FACE_BOUND('',#86,.T.);
#42=FACE_BOUND('',#88,.T.);
#43=FACE_BOUND('',#103,.T.);
#44=FACE_BOUND('',#104,.T.);
#45=FACE_BOUND('',#106,.T.);
#46=FACE_BOUND('',#108,.T.);
#47=FACE_BOUND('',#110,.T.);
#48=PLANE('',#458);
#49=PLANE('',#463);
#50=PLANE('',#464);
#51=PLANE('',#466);
#52=PLANE('',#469);
#53=PLANE('',#470);
#54=PLANE('',#493);
#55=PLANE('',#497);
#56=PLANE('',#498);
#57=PLANE('',#499);
#58=FACE_OUTER_BOUND('',#81,.T.);
#59=FACE_OUTER_BOUND('',#82,.T.);
#60=FACE_OUTER_BOUND('',#87,.T.);
#61=FACE_OUTER_BOUND('',#89,.T.);
#62=FACE_OUTER_BOUND('',#90,.T.);
#63=FACE_OUTER_BOUND('',#91,.T.);
#64=FACE_OUTER_BOUND('',#92,.T.);
#65=FACE_OUTER_BOUND('',#93,.T.);
#66=FACE_OUTER_BOUND('',#94,.T.);
#67=FACE_OUTER_BOUND('',#95,.T.);
#68=FACE_OUTER_BOUND('',#96,.T.);
#69=FACE_OUTER_BOUND('',#97,.T.);
#70=FACE_OUTER_BOUND('',#98,.T.);
#71=FACE_OUTER_BOUND('',#99,.T.);
#72=FACE_OUTER_BOUND('',#100,.T.);
#73=FACE_OUTER_BOUND('',#101,.T.);
#74=FACE_OUTER_BOUND('',#102,.T.);
#75=FACE_OUTER_BOUND('',#105,.T.);
#76=FACE_OUTER_BOUND('',#107,.T.);
#77=FACE_OUTER_BOUND('',#109,.T.);
#78=FACE_OUTER_BOUND('',#111,.T.);
#79=FACE_OUTER_BOUND('',#112,.T.);
#80=FACE_OUTER_BOUND('',#113,.T.);
#81=EDGE_LOOP('',(#292,#293,#294,#295));
#82=EDGE_LOOP('',(#296));
#83=EDGE_LOOP('',(#297));
#84=EDGE_LOOP('',(#298));
#85=EDGE_LOOP('',(#299));
#86=EDGE_LOOP('',(#300));
#87=EDGE_LOOP('',(#301));
#88=EDGE_LOOP('',(#302,#303,#304,#305));
#89=EDGE_LOOP('',(#306,#307,#308,#309,#310,#311));
#90=EDGE_LOOP('',(#312,#313,#314,#315));
#91=EDGE_LOOP('',(#316,#317,#318,#319));
#92=EDGE_LOOP('',(#320,#321,#322,#323,#324,#325));
#93=EDGE_LOOP('',(#326,#327,#328,#329));
#94=EDGE_LOOP('',(#330,#331,#332,#333,#334,#335,#336,#337,#338,#339,#340,
#341));
#95=EDGE_LOOP('',(#342,#343,#344,#345,#346,#347,#348,#349));
#96=EDGE_LOOP('',(#350,#351,#352,#353,#354,#355,#356,#357,#358));
#97=EDGE_LOOP('',(#359,#360,#361,#362,#363,#364,#365,#366));
#98=EDGE_LOOP('',(#367,#368,#369,#370));
#99=EDGE_LOOP('',(#371,#372,#373,#374));
#100=EDGE_LOOP('',(#375,#376,#377,#378));
#101=EDGE_LOOP('',(#379,#380,#381,#382));
#102=EDGE_LOOP('',(#383,#384,#385,#386,#387,#388,#389));
#103=EDGE_LOOP('',(#390,#391,#392,#393));
#104=EDGE_LOOP('',(#394,#395,#396,#397));
#105=EDGE_LOOP('',(#398));
#106=EDGE_LOOP('',(#399));
#107=EDGE_LOOP('',(#400));
#108=EDGE_LOOP('',(#401));
#109=EDGE_LOOP('',(#402));
#110=EDGE_LOOP('',(#403));
#111=EDGE_LOOP('',(#404,#405,#406,#407));
#112=EDGE_LOOP('',(#408,#409,#410,#411));
#113=EDGE_LOOP('',(#412,#413,#414,#415));
#114=LINE('',#631,#139);
#115=LINE('',#645,#140);
#116=LINE('',#647,#141);
#117=LINE('',#649,#142);
#118=LINE('',#650,#143);
#119=LINE('',#653,#144);
#120=LINE('',#655,#145);
#121=LINE('',#659,#146);
#122=LINE('',#660,#147);
#123=LINE('',#663,#148);
#124=LINE('',#664,#149);
#125=LINE('',#667,#150);
#126=LINE('',#670,#151);
#127=LINE('',#673,#152);
#128=LINE('',#674,#153);
#129=LINE('',#675,#154);
#130=LINE('',#677,#155);
#131=LINE('',#682,#156);
#132=LINE('',#761,#157);
#133=LINE('',#785,#158);
#134=LINE('',#809,#159);
#135=LINE('',#830,#160);
#136=LINE('',#834,#161);
#137=LINE('',#838,#162);
#138=LINE('',#842,#163);
#139=VECTOR('',#509,8.5);
#140=VECTOR('',#524,10.);
#141=VECTOR('',#525,10.);
#142=VECTOR('',#526,10.);
#143=VECTOR('',#527,10.);
#144=VECTOR('',#530,10.);
#145=VECTOR('',#531,10.);
#146=VECTOR('',#534,10.);
#147=VECTOR('',#535,10.);
#148=VECTOR('',#538,10.);
#149=VECTOR('',#539,10.);
#150=VECTOR('',#542,10.);
#151=VECTOR('',#545,10.);
#152=VECTOR('',#548,10.);
#153=VECTOR('',#549,10.);
#154=VECTOR('',#550,10.);
#155=VECTOR('',#553,10.);
#156=VECTOR('',#558,16.25);
#157=VECTOR('',#569,2.85);
#158=VECTOR('',#576,2.85);
#159=VECTOR('',#585,2.85);
#160=VECTOR('',#590,19.25);
#161=VECTOR('',#595,1.55);
#162=VECTOR('',#600,1.55);
#163=VECTOR('',#605,1.55);
#164=CIRCLE('',#456,9.);
#165=CIRCLE('',#457,8.);
#166=CIRCLE('',#459,19.25);
#167=CIRCLE('',#460,1.55);
#168=CIRCLE('',#461,1.55);
#169=CIRCLE('',#462,1.55);
#170=CIRCLE('',#465,3.);
#171=CIRCLE('',#468,3.);
#172=CIRCLE('',#472,19.25);
#173=CIRCLE('',#473,16.5428932188135);
#174=CIRCLE('',#474,16.5428932188135);
#175=CIRCLE('',#475,16.5428932188135);
#176=CIRCLE('',#477,2.85);
#177=CIRCLE('',#478,2.85);
#178=CIRCLE('',#480,2.85);
#179=CIRCLE('',#481,2.85);
#180=CIRCLE('',#482,2.85);
#181=CIRCLE('',#484,2.85);
#182=CIRCLE('',#485,2.85);
#183=CIRCLE('',#488,1.55);
#184=CIRCLE('',#490,1.55);
#185=CIRCLE('',#492,1.55);
#186=CIRCLE('',#494,15.8357864376269);
#187=CIRCLE('',#495,15.8357864376269);
#188=CIRCLE('',#496,15.8357864376269);
#189=VERTEX_POINT('',#628);
#190=VERTEX_POINT('',#630);
#191=VERTEX_POINT('',#634);
#192=VERTEX_POINT('',#636);
#193=VERTEX_POINT('',#638);
#194=VERTEX_POINT('',#640);
#195=VERTEX_POINT('',#643);
#196=VERTEX_POINT('',#644);
#197=VERTEX_POINT('',#646);
#198=VERTEX_POINT('',#648);
#199=VERTEX_POINT('',#652);
#200=VERTEX_POINT('',#654);
#201=VERTEX_POINT('',#656);
#202=VERTEX_POINT('',#658);
#203=VERTEX_POINT('',#662);
#204=VERTEX_POINT('',#666);
#205=VERTEX_POINT('',#668);
#206=VERTEX_POINT('',#672);
#207=VERTEX_POINT('',#679);
#208=VERTEX_POINT('',#681);
#209=VERTEX_POINT('',#683);
#210=VERTEX_POINT('',#694);
#211=VERTEX_POINT('',#696);
#212=VERTEX_POINT('',#715);
#213=VERTEX_POINT('',#720);
#214=VERTEX_POINT('',#722);
#215=VERTEX_POINT('',#727);
#216=VERTEX_POINT('',#746);
#217=VERTEX_POINT('',#759);
#218=VERTEX_POINT('',#762);
#219=VERTEX_POINT('',#771);
#220=VERTEX_POINT('',#782);
#221=VERTEX_POINT('',#784);
#222=VERTEX_POINT('',#786);
#223=VERTEX_POINT('',#796);
#224=VERTEX_POINT('',#807);
#225=VERTEX_POINT('',#810);
#226=VERTEX_POINT('',#819);
#227=VERTEX_POINT('',#832);
#228=VERTEX_POINT('',#836);
#229=VERTEX_POINT('',#840);
#230=EDGE_CURVE('',#189,#189,#164,.T.);
#231=EDGE_CURVE('',#189,#190,#114,.T.);
#232=EDGE_CURVE('',#190,#190,#165,.F.);
#233=EDGE_CURVE('',#191,#191,#166,.T.);
#234=EDGE_CURVE('',#192,#192,#167,.T.);
#235=EDGE_CURVE('',#193,#193,#168,.T.);
#236=EDGE_CURVE('',#194,#194,#169,.T.);
#237=EDGE_CURVE('',#195,#196,#115,.T.);
#238=EDGE_CURVE('',#197,#195,#116,.T.);
#239=EDGE_CURVE('',#198,#197,#117,.T.);
#240=EDGE_CURVE('',#196,#198,#118,.T.);
#241=EDGE_CURVE('',#195,#199,#119,.T.);
#242=EDGE_CURVE('',#200,#199,#120,.T.);
#243=EDGE_CURVE('',#201,#200,#170,.F.);
#244=EDGE_CURVE('',#202,#201,#121,.T.);
#245=EDGE_CURVE('',#197,#202,#122,.T.);
#246=EDGE_CURVE('',#196,#203,#123,.T.);
#247=EDGE_CURVE('',#199,#203,#124,.T.);
#248=EDGE_CURVE('',#200,#204,#125,.T.);
#249=EDGE_CURVE('',#204,#205,#171,.F.);
#250=EDGE_CURVE('',#205,#201,#126,.T.);
#251=EDGE_CURVE('',#198,#206,#127,.T.);
#252=EDGE_CURVE('',#205,#206,#128,.T.);
#253=EDGE_CURVE('',#203,#204,#129,.T.);
#254=EDGE_CURVE('',#206,#202,#130,.T.);
#255=EDGE_CURVE('',#207,#207,#172,.T.);
#256=EDGE_CURVE('',#207,#208,#131,.T.);
#257=EDGE_CURVE('',#209,#208,#18,.F.);
#258=EDGE_CURVE('',#209,#210,#173,.T.);
#259=EDGE_CURVE('',#211,#210,#19,.F.);
#260=EDGE_CURVE('',#212,#211,#20,.F.);
#261=EDGE_CURVE('',#212,#213,#174,.T.);
#262=EDGE_CURVE('',#214,#213,#21,.F.);
#263=EDGE_CURVE('',#215,#214,#22,.F.);
#264=EDGE_CURVE('',#215,#216,#175,.T.);
#265=EDGE_CURVE('',#208,#216,#23,.F.);
#266=EDGE_CURVE('',#217,#217,#176,.T.);
#267=EDGE_CURVE('',#217,#214,#132,.T.);
#268=EDGE_CURVE('',#213,#218,#24,.T.);
#269=EDGE_CURVE('',#218,#219,#177,.T.);
#270=EDGE_CURVE('',#219,#215,#25,.T.);
#271=EDGE_CURVE('',#220,#220,#178,.T.);
#272=EDGE_CURVE('',#220,#221,#133,.T.);
#273=EDGE_CURVE('',#221,#222,#179,.T.);
#274=EDGE_CURVE('',#222,#209,#26,.T.);
#275=EDGE_CURVE('',#216,#223,#27,.T.);
#276=EDGE_CURVE('',#223,#221,#180,.T.);
#277=EDGE_CURVE('',#224,#224,#181,.T.);
#278=EDGE_CURVE('',#224,#211,#134,.T.);
#279=EDGE_CURVE('',#210,#225,#28,.T.);
#280=EDGE_CURVE('',#225,#226,#182,.T.);
#281=EDGE_CURVE('',#226,#212,#29,.T.);
#282=EDGE_CURVE('',#191,#207,#135,.T.);
#283=EDGE_CURVE('',#227,#227,#183,.T.);
#284=EDGE_CURVE('',#227,#193,#136,.T.);
#285=EDGE_CURVE('',#228,#228,#184,.T.);
#286=EDGE_CURVE('',#228,#194,#137,.T.);
#287=EDGE_CURVE('',#229,#229,#185,.T.);
#288=EDGE_CURVE('',#229,#192,#138,.T.);
#289=EDGE_CURVE('',#223,#219,#186,.T.);
#290=EDGE_CURVE('',#218,#226,#187,.T.);
#291=EDGE_CURVE('',#225,#222,#188,.T.);
#292=ORIENTED_EDGE('',*,*,#230,.T.);
#293=ORIENTED_EDGE('',*,*,#231,.T.);
#294=ORIENTED_EDGE('',*,*,#232,.T.);
#295=ORIENTED_EDGE('',*,*,#231,.F.);
#296=ORIENTED_EDGE('',*,*,#233,.F.);
#297=ORIENTED_EDGE('',*,*,#234,.T.);
#298=ORIENTED_EDGE('',*,*,#235,.T.);
#299=ORIENTED_EDGE('',*,*,#236,.T.);
#300=ORIENTED_EDGE('',*,*,#230,.F.);
#301=ORIENTED_EDGE('',*,*,#232,.F.);
#302=ORIENTED_EDGE('',*,*,#237,.F.);
#303=ORIENTED_EDGE('',*,*,#238,.F.);
#304=ORIENTED_EDGE('',*,*,#239,.F.);
#305=ORIENTED_EDGE('',*,*,#240,.F.);
#306=ORIENTED_EDGE('',*,*,#238,.T.);
#307=ORIENTED_EDGE('',*,*,#241,.T.);
#308=ORIENTED_EDGE('',*,*,#242,.F.);
#309=ORIENTED_EDGE('',*,*,#243,.F.);
#310=ORIENTED_EDGE('',*,*,#244,.F.);
#311=ORIENTED_EDGE('',*,*,#245,.F.);
#312=ORIENTED_EDGE('',*,*,#237,.T.);
#313=ORIENTED_EDGE('',*,*,#246,.T.);
#314=ORIENTED_EDGE('',*,*,#247,.F.);
#315=ORIENTED_EDGE('',*,*,#241,.F.);
#316=ORIENTED_EDGE('',*,*,#243,.T.);
#317=ORIENTED_EDGE('',*,*,#248,.T.);
#318=ORIENTED_EDGE('',*,*,#249,.T.);
#319=ORIENTED_EDGE('',*,*,#250,.T.);
#320=ORIENTED_EDGE('',*,*,#240,.T.);
#321=ORIENTED_EDGE('',*,*,#251,.T.);
#322=ORIENTED_EDGE('',*,*,#252,.F.);
#323=ORIENTED_EDGE('',*,*,#249,.F.);
#324=ORIENTED_EDGE('',*,*,#253,.F.);
#325=ORIENTED_EDGE('',*,*,#246,.F.);
#326=ORIENTED_EDGE('',*,*,#239,.T.);
#327=ORIENTED_EDGE('',*,*,#245,.T.);
#328=ORIENTED_EDGE('',*,*,#254,.F.);
#329=ORIENTED_EDGE('',*,*,#251,.F.);
#330=ORIENTED_EDGE('',*,*,#255,.F.);
#331=ORIENTED_EDGE('',*,*,#256,.T.);
#332=ORIENTED_EDGE('',*,*,#257,.F.);
#333=ORIENTED_EDGE('',*,*,#258,.T.);
#334=ORIENTED_EDGE('',*,*,#259,.F.);
#335=ORIENTED_EDGE('',*,*,#260,.F.);
#336=ORIENTED_EDGE('',*,*,#261,.T.);
#337=ORIENTED_EDGE('',*,*,#262,.F.);
#338=ORIENTED_EDGE('',*,*,#263,.F.);
#339=ORIENTED_EDGE('',*,*,#264,.T.);
#340=ORIENTED_EDGE('',*,*,#265,.F.);
#341=ORIENTED_EDGE('',*,*,#256,.F.);
#342=ORIENTED_EDGE('',*,*,#266,.F.);
#343=ORIENTED_EDGE('',*,*,#267,.T.);
#344=ORIENTED_EDGE('',*,*,#262,.T.);
#345=ORIENTED_EDGE('',*,*,#268,.T.);
#346=ORIENTED_EDGE('',*,*,#269,.T.);
#347=ORIENTED_EDGE('',*,*,#270,.T.);
#348=ORIENTED_EDGE('',*,*,#263,.T.);
#349=ORIENTED_EDGE('',*,*,#267,.F.);
#350=ORIENTED_EDGE('',*,*,#271,.F.);
#351=ORIENTED_EDGE('',*,*,#272,.T.);
#352=ORIENTED_EDGE('',*,*,#273,.T.);
#353=ORIENTED_EDGE('',*,*,#274,.T.);
#354=ORIENTED_EDGE('',*,*,#257,.T.);
#355=ORIENTED_EDGE('',*,*,#265,.T.);
#356=ORIENTED_EDGE('',*,*,#275,.T.);
#357=ORIENTED_EDGE('',*,*,#276,.T.);
#358=ORIENTED_EDGE('',*,*,#272,.F.);
#359=ORIENTED_EDGE('',*,*,#277,.F.);
#360=ORIENTED_EDGE('',*,*,#278,.T.);
#361=ORIENTED_EDGE('',*,*,#259,.T.);
#362=ORIENTED_EDGE('',*,*,#279,.T.);
#363=ORIENTED_EDGE('',*,*,#280,.T.);
#364=ORIENTED_EDGE('',*,*,#281,.T.);
#365=ORIENTED_EDGE('',*,*,#260,.T.);
#366=ORIENTED_EDGE('',*,*,#278,.F.);
#367=ORIENTED_EDGE('',*,*,#233,.T.);
#368=ORIENTED_EDGE('',*,*,#282,.T.);
#369=ORIENTED_EDGE('',*,*,#255,.T.);
#370=ORIENTED_EDGE('',*,*,#282,.F.);
#371=ORIENTED_EDGE('',*,*,#283,.T.);
#372=ORIENTED_EDGE('',*,*,#284,.T.);
#373=ORIENTED_EDGE('',*,*,#235,.F.);
#374=ORIENTED_EDGE('',*,*,#284,.F.);
#375=ORIENTED_EDGE('',*,*,#285,.T.);
#376=ORIENTED_EDGE('',*,*,#286,.T.);
#377=ORIENTED_EDGE('',*,*,#236,.F.);
#378=ORIENTED_EDGE('',*,*,#286,.F.);
#379=ORIENTED_EDGE('',*,*,#287,.T.);
#380=ORIENTED_EDGE('',*,*,#288,.T.);
#381=ORIENTED_EDGE('',*,*,#234,.F.);
#382=ORIENTED_EDGE('',*,*,#288,.F.);
#383=ORIENTED_EDGE('',*,*,#276,.F.);
#384=ORIENTED_EDGE('',*,*,#289,.T.);
#385=ORIENTED_EDGE('',*,*,#269,.F.);
#386=ORIENTED_EDGE('',*,*,#290,.T.);
#387=ORIENTED_EDGE('',*,*,#280,.F.);
#388=ORIENTED_EDGE('',*,*,#291,.T.);
#389=ORIENTED_EDGE('',*,*,#273,.F.);
#390=ORIENTED_EDGE('',*,*,#242,.T.);
#391=ORIENTED_EDGE('',*,*,#247,.T.);
#392=ORIENTED_EDGE('',*,*,#253,.T.);
#393=ORIENTED_EDGE('',*,*,#248,.F.);
#394=ORIENTED_EDGE('',*,*,#250,.F.);
#395=ORIENTED_EDGE('',*,*,#252,.T.);
#396=ORIENTED_EDGE('',*,*,#254,.T.);
#397=ORIENTED_EDGE('',*,*,#244,.T.);
#398=ORIENTED_EDGE('',*,*,#277,.T.);
#399=ORIENTED_EDGE('',*,*,#283,.F.);
#400=ORIENTED_EDGE('',*,*,#271,.T.);
#401=ORIENTED_EDGE('',*,*,#285,.F.);
#402=ORIENTED_EDGE('',*,*,#266,.T.);
#403=ORIENTED_EDGE('',*,*,#287,.F.);
#404=ORIENTED_EDGE('',*,*,#275,.F.);
#405=ORIENTED_EDGE('',*,*,#264,.F.);
#406=ORIENTED_EDGE('',*,*,#270,.F.);
#407=ORIENTED_EDGE('',*,*,#289,.F.);
#408=ORIENTED_EDGE('',*,*,#279,.F.);
#409=ORIENTED_EDGE('',*,*,#258,.F.);
#410=ORIENTED_EDGE('',*,*,#274,.F.);
#411=ORIENTED_EDGE('',*,*,#291,.F.);
#412=ORIENTED_EDGE('',*,*,#268,.F.);
#413=ORIENTED_EDGE('',*,*,#261,.F.);
#414=ORIENTED_EDGE('',*,*,#281,.F.);
#415=ORIENTED_EDGE('',*,*,#290,.F.);
#416=CONICAL_SURFACE('',#455,8.5,0.785398163397448);
#417=CONICAL_SURFACE('',#471,16.25,0.785398163397447);
#418=ADVANCED_FACE('',(#58),#416,.F.);
#419=ADVANCED_FACE('',(#59,#38,#39,#40,#41),#48,.F.);
#420=ADVANCED_FACE('',(#60,#42),#49,.T.);
#421=ADVANCED_FACE('',(#61),#50,.F.);
#422=ADVANCED_FACE('',(#62),#51,.F.);
#423=ADVANCED_FACE('',(#63),#30,.T.);
#424=ADVANCED_FACE('',(#64),#52,.F.);
#425=ADVANCED_FACE('',(#65),#53,.F.);
#426=ADVANCED_FACE('',(#66),#417,.T.);
#427=ADVANCED_FACE('',(#67),#31,.F.);
#428=ADVANCED_FACE('',(#68),#32,.F.);
#429=ADVANCED_FACE('',(#69),#33,.F.);
#430=ADVANCED_FACE('',(#70),#34,.T.);
#431=ADVANCED_FACE('',(#71),#35,.F.);
#432=ADVANCED_FACE('',(#72),#36,.F.);
#433=ADVANCED_FACE('',(#73),#37,.F.);
#434=ADVANCED_FACE('',(#74,#43,#44),#54,.T.);
#435=ADVANCED_FACE('',(#75,#45),#55,.T.);
#436=ADVANCED_FACE('',(#76,#46),#56,.T.);
#437=ADVANCED_FACE('',(#77,#47),#57,.T.);
#438=ADVANCED_FACE('',(#78),#15,.T.);
#439=ADVANCED_FACE('',(#79),#16,.T.);
#440=ADVANCED_FACE('',(#80),#17,.T.);
#441=CLOSED_SHELL('',(#418,#419,#420,#421,#422,#423,#424,#425,#426,#427,
#428,#429,#430,#431,#432,#433,#434,#435,#436,#437,#438,#439,#440));
#442=DERIVED_UNIT_ELEMENT(#444,1.);
#443=DERIVED_UNIT_ELEMENT(#858,-3.);
#444=(
MASS_UNIT()
NAMED_UNIT(*)
SI_UNIT(.KILO.,.GRAM.)
);
#445=DERIVED_UNIT((#442,#443));
#446=MEASURE_REPRESENTATION_ITEM('density measure',
POSITIVE_RATIO_MEASURE(7850.),#445);
#447=PROPERTY_DEFINITION_REPRESENTATION(#452,#449);
#448=PROPERTY_DEFINITION_REPRESENTATION(#453,#450);
#449=REPRESENTATION('material name',(#451),#855);
#450=REPRESENTATION('density',(#446),#855);
#451=DESCRIPTIVE_REPRESENTATION_ITEM('Steel','Steel');
#452=PROPERTY_DEFINITION('material property','material name',#865);
#453=PROPERTY_DEFINITION('material property','density of part',#865);
#454=AXIS2_PLACEMENT_3D('',#626,#503,#504);
#455=AXIS2_PLACEMENT_3D('',#627,#505,#506);
#456=AXIS2_PLACEMENT_3D('',#629,#507,#508);
#457=AXIS2_PLACEMENT_3D('',#632,#510,#511);
#458=AXIS2_PLACEMENT_3D('',#633,#512,#513);
#459=AXIS2_PLACEMENT_3D('',#635,#514,#515);
#460=AXIS2_PLACEMENT_3D('',#637,#516,#517);
#461=AXIS2_PLACEMENT_3D('',#639,#518,#519);
#462=AXIS2_PLACEMENT_3D('',#641,#520,#521);
#463=AXIS2_PLACEMENT_3D('',#642,#522,#523);
#464=AXIS2_PLACEMENT_3D('',#651,#528,#529);
#465=AXIS2_PLACEMENT_3D('',#657,#532,#533);
#466=AXIS2_PLACEMENT_3D('',#661,#536,#537);
#467=AXIS2_PLACEMENT_3D('',#665,#540,#541);
#468=AXIS2_PLACEMENT_3D('',#669,#543,#544);
#469=AXIS2_PLACEMENT_3D('',#671,#546,#547);
#470=AXIS2_PLACEMENT_3D('',#676,#551,#552);
#471=AXIS2_PLACEMENT_3D('',#678,#554,#555);
#472=AXIS2_PLACEMENT_3D('',#680,#556,#557);
#473=AXIS2_PLACEMENT_3D('',#695,#559,#560);
#474=AXIS2_PLACEMENT_3D('',#721,#561,#562);
#475=AXIS2_PLACEMENT_3D('',#747,#563,#564);
#476=AXIS2_PLACEMENT_3D('',#758,#565,#566);
#477=AXIS2_PLACEMENT_3D('',#760,#567,#568);
#478=AXIS2_PLACEMENT_3D('',#772,#570,#571);
#479=AXIS2_PLACEMENT_3D('',#781,#572,#573);
#480=AXIS2_PLACEMENT_3D('',#783,#574,#575);
#481=AXIS2_PLACEMENT_3D('',#787,#577,#578);
#482=AXIS2_PLACEMENT_3D('',#805,#579,#580);
#483=AXIS2_PLACEMENT_3D('',#806,#581,#582);
#484=AXIS2_PLACEMENT_3D('',#808,#583,#584);
#485=AXIS2_PLACEMENT_3D('',#820,#586,#587);
#486=AXIS2_PLACEMENT_3D('',#829,#588,#589);
#487=AXIS2_PLACEMENT_3D('',#831,#591,#592);
#488=AXIS2_PLACEMENT_3D('',#833,#593,#594);
#489=AXIS2_PLACEMENT_3D('',#835,#596,#597);
#490=AXIS2_PLACEMENT_3D('',#837,#598,#599);
#491=AXIS2_PLACEMENT_3D('',#839,#601,#602);
#492=AXIS2_PLACEMENT_3D('',#841,#603,#604);
#493=AXIS2_PLACEMENT_3D('',#843,#606,#607);
#494=AXIS2_PLACEMENT_3D('',#844,#608,#609);
#495=AXIS2_PLACEMENT_3D('',#845,#610,#611);
#496=AXIS2_PLACEMENT_3D('',#846,#612,#613);
#497=AXIS2_PLACEMENT_3D('',#847,#614,#615);
#498=AXIS2_PLACEMENT_3D('',#848,#616,#617);
#499=AXIS2_PLACEMENT_3D('',#849,#618,#619);
#500=AXIS2_PLACEMENT_3D('',#850,#620,#621);
#501=AXIS2_PLACEMENT_3D('',#851,#622,#623);
#502=AXIS2_PLACEMENT_3D('',#852,#624,#625);
#503=DIRECTION('axis',(0.,0.,1.));
#504=DIRECTION('refdir',(1.,0.,0.));
#505=DIRECTION('center_axis',(0.,-1.,0.));
#506=DIRECTION('ref_axis',(1.,0.,0.));
#507=DIRECTION('center_axis',(0.,-1.,0.));
#508=DIRECTION('ref_axis',(1.,0.,0.));
#509=DIRECTION('',(0.707106781186547,0.707106781186548,8.65956056235493E-17));
#510=DIRECTION('center_axis',(0.,-1.,0.));
#511=DIRECTION('ref_axis',(1.,0.,0.));
#512=DIRECTION('center_axis',(0.,1.,0.));
#513=DIRECTION('ref_axis',(0.,0.,1.));
#514=DIRECTION('center_axis',(0.,1.,0.));
#515=DIRECTION('ref_axis',(0.,0.,1.));
#516=DIRECTION('center_axis',(0.,1.,0.));
#517=DIRECTION('ref_axis',(0.,0.,1.));
#518=DIRECTION('center_axis',(0.,1.,0.));
#519=DIRECTION('ref_axis',(0.,0.,-1.));
#520=DIRECTION('center_axis',(0.,1.,0.));
#521=DIRECTION('ref_axis',(0.,0.,1.));
#522=DIRECTION('center_axis',(0.,-1.,0.));
#523=DIRECTION('ref_axis',(1.,0.,0.));
#524=DIRECTION('',(0.,0.,-1.));
#525=DIRECTION('',(-1.,0.,0.));
#526=DIRECTION('',(0.,0.,1.));
#527=DIRECTION('',(1.,0.,0.));
#528=DIRECTION('center_axis',(0.,0.,1.));
#529=DIRECTION('ref_axis',(1.,0.,0.));
#530=DIRECTION('',(0.,1.,0.));
#531=DIRECTION('',(-1.,0.,0.));
#532=DIRECTION('center_axis',(0.,0.,1.));
#533=DIRECTION('ref_axis',(0.707106781186548,-0.707106781186548,0.));
#534=DIRECTION('',(-1.,0.,0.));
#535=DIRECTION('',(0.,1.,0.));
#536=DIRECTION('center_axis',(-1.,0.,0.));
#537=DIRECTION('ref_axis',(0.,0.,1.));
#538=DIRECTION('',(0.,1.,0.));
#539=DIRECTION('',(0.,0.,-1.));
#540=DIRECTION('center_axis',(0.,0.,-1.));
#541=DIRECTION('ref_axis',(-0.707106781186548,-0.707106781186548,0.));
#542=DIRECTION('',(0.,0.,-1.));
#543=DIRECTION('center_axis',(0.,0.,-1.));
#544=DIRECTION('ref_axis',(-0.707106781186548,-0.707106781186548,0.));
#545=DIRECTION('',(0.,0.,1.));
#546=DIRECTION('center_axis',(0.,0.,-1.));
#547=DIRECTION('ref_axis',(-1.,0.,0.));
#548=DIRECTION('',(0.,1.,0.));
#549=DIRECTION('',(1.,0.,0.));
#550=DIRECTION('',(1.,0.,0.));
#551=DIRECTION('center_axis',(1.,0.,0.));
#552=DIRECTION('ref_axis',(0.,0.,-1.));
#553=DIRECTION('',(0.,0.,1.));
#554=DIRECTION('center_axis',(0.,-1.,0.));
#555=DIRECTION('ref_axis',(0.,0.,-1.));
#556=DIRECTION('center_axis',(0.,-1.,0.));
#557=DIRECTION('ref_axis',(0.,0.,1.));
#558=DIRECTION('',(8.65956056235492E-17,0.707106781186549,-0.707106781186546));
#559=DIRECTION('center_axis',(0.,-1.,0.));
#560=DIRECTION('ref_axis',(0.,0.,1.));
#561=DIRECTION('center_axis',(0.,-1.,0.));
#562=DIRECTION('ref_axis',(0.,0.,1.));
#563=DIRECTION('center_axis',(0.,-1.,0.));
#564=DIRECTION('ref_axis',(0.,0.,1.));
#565=DIRECTION('center_axis',(0.,1.,0.));
#566=DIRECTION('ref_axis',(0.,0.,1.));
#567=DIRECTION('center_axis',(0.,1.,0.));
#568=DIRECTION('ref_axis',(0.,0.,1.));
#569=DIRECTION('',(0.,1.,0.));
#570=DIRECTION('center_axis',(0.,1.,0.));
#571=DIRECTION('ref_axis',(0.,0.,1.));
#572=DIRECTION('center_axis',(0.,1.,0.));
#573=DIRECTION('ref_axis',(0.,0.,1.));
#574=DIRECTION('center_axis',(0.,1.,0.));
#575=DIRECTION('ref_axis',(0.,0.,1.));
#576=DIRECTION('',(0.,1.,0.));
#577=DIRECTION('center_axis',(0.,1.,0.));
#578=DIRECTION('ref_axis',(0.,0.,1.));
#579=DIRECTION('center_axis',(0.,1.,0.));
#580=DIRECTION('ref_axis',(0.,0.,1.));
#581=DIRECTION('center_axis',(0.,1.,0.));
#582=DIRECTION('ref_axis',(0.,0.,1.));
#583=DIRECTION('center_axis',(0.,1.,0.));
#584=DIRECTION('ref_axis',(0.,0.,1.));
#585=DIRECTION('',(0.,1.,0.));
#586=DIRECTION('center_axis',(0.,1.,0.));
#587=DIRECTION('ref_axis',(0.,0.,1.));
#588=DIRECTION('center_axis',(0.,-1.,0.));
#589=DIRECTION('ref_axis',(0.,0.,-1.));
#590=DIRECTION('',(0.,1.,0.));
#591=DIRECTION('center_axis',(0.,-1.,0.));
#592=DIRECTION('ref_axis',(0.,0.,-1.));
#593=DIRECTION('center_axis',(0.,1.,0.));
#594=DIRECTION('ref_axis',(0.,0.,1.));
#595=DIRECTION('',(0.,-1.,0.));
#596=DIRECTION('center_axis',(0.,-1.,0.));
#597=DIRECTION('ref_axis',(0.,0.,-1.));
#598=DIRECTION('center_axis',(0.,1.,0.));
#599=DIRECTION('ref_axis',(0.,0.,1.));
#600=DIRECTION('',(0.,-1.,0.));
#601=DIRECTION('center_axis',(0.,-1.,0.));
#602=DIRECTION('ref_axis',(0.,0.,-1.));
#603=DIRECTION('center_axis',(0.,1.,0.));
#604=DIRECTION('ref_axis',(0.,0.,1.));
#605=DIRECTION('',(0.,-1.,0.));
#606=DIRECTION('center_axis',(0.,1.,0.));
#607=DIRECTION('ref_axis',(0.,0.,1.));
#608=DIRECTION('center_axis',(0.,1.,0.));
#609=DIRECTION('ref_axis',(0.,0.,1.));
#610=DIRECTION('center_axis',(0.,1.,0.));
#611=DIRECTION('ref_axis',(0.,0.,1.));
#612=DIRECTION('center_axis',(0.,1.,0.));
#613=DIRECTION('ref_axis',(0.,0.,1.));
#614=DIRECTION('center_axis',(0.,1.,0.));
#615=DIRECTION('ref_axis',(0.,0.,1.));
#616=DIRECTION('center_axis',(0.,1.,0.));
#617=DIRECTION('ref_axis',(0.,0.,1.));
#618=DIRECTION('center_axis',(0.,1.,0.));
#619=DIRECTION('ref_axis',(0.,0.,1.));
#620=DIRECTION('center_axis',(0.,1.,0.));
#621=DIRECTION('ref_axis',(0.,0.,1.));
#622=DIRECTION('center_axis',(0.,1.,0.));
#623=DIRECTION('ref_axis',(0.,0.,1.));
#624=DIRECTION('center_axis',(0.,1.,0.));
#625=DIRECTION('ref_axis',(1.22464679914735E-16,0.,-1.));
#626=CARTESIAN_POINT('',(0.,0.,0.));
#627=CARTESIAN_POINT('Origin',(0.,3.9,0.));
#628=CARTESIAN_POINT('',(-9.,3.4,-1.10218211923262E-15));
#629=CARTESIAN_POINT('Origin',(0.,3.4,0.));
#630=CARTESIAN_POINT('',(-8.,4.4,-9.79717439317883E-16));
#631=CARTESIAN_POINT('',(-8.5,3.9,-1.04094977927525E-15));
#632=CARTESIAN_POINT('Origin',(0.,4.4,0.));
#633=CARTESIAN_POINT('Origin',(0.,3.4,0.));
#634=CARTESIAN_POINT('',(-2.35744508835865E-15,3.4,19.25));
#635=CARTESIAN_POINT('Origin',(0.,3.4,0.));
#636=CARTESIAN_POINT('',(13.4233937586588,3.4,-6.20000000000007));
#637=CARTESIAN_POINT('Origin',(13.4233937586588,3.4,-7.75000000000007));
#638=CARTESIAN_POINT('',(-13.4233937586588,3.4,-6.20000000000007));
#639=CARTESIAN_POINT('Origin',(-13.4233937586588,3.4,-7.75000000000007));
#640=CARTESIAN_POINT('',(1.70715763801141E-15,3.4,17.04));
#641=CARTESIAN_POINT('Origin',(1.89697789187925E-15,3.4,15.49));
#642=CARTESIAN_POINT('Origin',(0.,4.4,0.));
#643=CARTESIAN_POINT('',(-5.,4.4,2.5));
#644=CARTESIAN_POINT('',(-5.,4.4,-2.5));
#645=CARTESIAN_POINT('',(-5.,4.4,-1.25));
#646=CARTESIAN_POINT('',(5.,4.4,2.5));
#647=CARTESIAN_POINT('',(-2.5,4.4,2.5));
#648=CARTESIAN_POINT('',(5.,4.4,-2.5));
#649=CARTESIAN_POINT('',(5.,4.4,1.25));
#650=CARTESIAN_POINT('',(2.5,4.4,-2.5));
#651=CARTESIAN_POINT('Origin',(-5.,3.,2.5));
#652=CARTESIAN_POINT('',(-5.,7.99999988079071,2.5));
#653=CARTESIAN_POINT('',(-5.,3.,2.5));
#654=CARTESIAN_POINT('',(-3.,7.99999988079071,2.5));
#655=CARTESIAN_POINT('',(-2.5,8.,2.5));
#656=CARTESIAN_POINT('',(3.,7.99999988079071,2.5));
#657=CARTESIAN_POINT('Origin',(-5.55111512312578E-16,7.99999988079071,2.5));
#658=CARTESIAN_POINT('',(5.,7.99999988079071,2.5));
#659=CARTESIAN_POINT('',(-2.5,8.,2.5));
#660=CARTESIAN_POINT('',(5.,3.,2.5));
#661=CARTESIAN_POINT('Origin',(-5.,3.,-2.5));
#662=CARTESIAN_POINT('',(-5.,7.99999988079071,-2.5));
#663=CARTESIAN_POINT('',(-5.,3.,-2.5));
#664=CARTESIAN_POINT('',(-5.,8.,-1.25));
#665=CARTESIAN_POINT('Origin',(5.55111512312578E-16,7.99999988079071,1.18541856246326));
#666=CARTESIAN_POINT('',(-3.,7.99999988079071,-2.5));
#667=CARTESIAN_POINT('',(-3.,7.99999988079071,2.5));
#668=CARTESIAN_POINT('',(3.,7.99999988079071,-2.5));
#669=CARTESIAN_POINT('Origin',(5.55111512312578E-16,7.99999988079071,-2.5));
#670=CARTESIAN_POINT('',(3.,7.99999988079071,-2.5));
#671=CARTESIAN_POINT('Origin',(5.,3.,-2.5));
#672=CARTESIAN_POINT('',(5.,7.99999988079071,-2.5));
#673=CARTESIAN_POINT('',(5.,3.,-2.5));
#674=CARTESIAN_POINT('',(2.5,8.,-2.5));
#675=CARTESIAN_POINT('',(2.5,8.,-2.5));
#676=CARTESIAN_POINT('Origin',(5.,3.,2.5));
#677=CARTESIAN_POINT('',(5.,8.,1.25));
#678=CARTESIAN_POINT('Origin',(0.,8.,0.));
#679=CARTESIAN_POINT('',(-2.35744508835865E-15,4.99999999999999,19.25));
#680=CARTESIAN_POINT('Origin',(0.,4.99999999999999,0.));
#681=CARTESIAN_POINT('',(1.60694257404714E-16,5.90999999999999,18.34));
#682=CARTESIAN_POINT('',(-1.99005104861445E-15,8.,16.25));
#683=CARTESIAN_POINT('',(-2.72752842331552,7.70710678118654,16.3164918027458));
#684=CARTESIAN_POINT('Ctrl Pts',(2.42861286636753E-15,5.90999999999999,
18.34));
#685=CARTESIAN_POINT('Ctrl Pts',(-0.219285102494419,5.90999999999999,18.34));
#686=CARTESIAN_POINT('Ctrl Pts',(-0.439875516166463,5.93163826427619,18.3143373827682));
#687=CARTESIAN_POINT('Ctrl Pts',(-0.865833661074769,6.0165985599874,18.2140969499484));
#688=CARTESIAN_POINT('Ctrl Pts',(-1.07120706192965,6.07991842033862,18.139541387829));
#689=CARTESIAN_POINT('Ctrl Pts',(-1.64220449636055,6.32127898493116,17.8576741592843));
#690=CARTESIAN_POINT('Ctrl Pts',(-1.96149806260217,6.55385334971198,17.5890902883108));
#691=CARTESIAN_POINT('Ctrl Pts',(-2.43863953174922,7.06407582627934,17.0143478155614));
#692=CARTESIAN_POINT('Ctrl Pts',(-2.62009895264974,7.37514038665698,16.6710227657501));
#693=CARTESIAN_POINT('Ctrl Pts',(-2.72752842331551,7.70710678118652,16.3164918027458));
#694=CARTESIAN_POINT('',(-15.4953859332607,7.70710678118655,-5.79312789677302));
#695=CARTESIAN_POINT('Origin',(0.,7.70710678118654,0.));
#696=CARTESIAN_POINT('',(-13.4233937587455,7.1459800045528,-10.6000000000001));
#697=CARTESIAN_POINT('Ctrl Pts',(-15.4953859332607,7.70710678118653,-5.79312789677303));
#698=CARTESIAN_POINT('Ctrl Pts',(-15.7521573461213,7.3713861893398,-6.065004815674));
#699=CARTESIAN_POINT('Ctrl Pts',(-15.9615773170461,7.05668452344892,-6.39677609311388));
#700=CARTESIAN_POINT('Ctrl Pts',(-16.2220380954434,6.54382857681951,-7.10098156014045));
#701=CARTESIAN_POINT('Ctrl Pts',(-16.2949674130005,6.31126421193667,-7.51176284440364));
#702=CARTESIAN_POINT('Ctrl Pts',(-16.2535562060583,6.06991266302385,-8.14715056659085));
#703=CARTESIAN_POINT('Ctrl Pts',(-16.2154340955819,6.0065949386707,-8.36227162098204));
#704=CARTESIAN_POINT('Ctrl Pts',(-16.0892676546828,5.92163751240103,-8.7812527097758));
#705=CARTESIAN_POINT('Ctrl Pts',(-16.0012012068091,5.89999999999999,-8.98510652767428));
#706=CARTESIAN_POINT('Ctrl Pts',(-15.7819311120798,5.89999999999999,-9.36489347232588));
#707=CARTESIAN_POINT('Ctrl Pts',(-15.6494217510581,5.92163751240103,-9.54308816235486));
#708=CARTESIAN_POINT('Ctrl Pts',(-15.349656704907,6.0065949386707,-9.86184204967537));
#709=CARTESIAN_POINT('Ctrl Pts',(-15.1824174621535,6.06991266302385,-10.0024172929894));
#710=CARTESIAN_POINT('Ctrl Pts',(-14.6528611569578,6.31126421193667,-10.3559743112964));
#711=CARTESIAN_POINT('Ctrl Pts',(-14.2606494706081,6.54382857681951,-10.4982063117428));
#712=CARTESIAN_POINT('Ctrl Pts',(-13.7442751837336,6.90165741851025,-10.586493516059));
#713=CARTESIAN_POINT('Ctrl Pts',(-13.5832374144023,7.0205332189997,-10.5999999999903));
#714=CARTESIAN_POINT('Ctrl Pts',(-13.4233937588322,7.14598000455279,-10.6000000000001));
#715=CARTESIAN_POINT('',(-12.764688892608,7.70710678118655,-10.5228339112614));
#716=CARTESIAN_POINT('Ctrl Pts',(-13.4233937588322,7.14598000455279,-10.6000000000001));
#717=CARTESIAN_POINT('Ctrl Pts',(-13.1990913190529,7.32201464266015,-10.6000000000137));
#718=CARTESIAN_POINT('Ctrl Pts',(-12.9771620267836,7.51105358862553,-10.5733082966252));
#719=CARTESIAN_POINT('Ctrl Pts',(-12.764688892607,7.70710678118748,-10.5228339112612));
#720=CARTESIAN_POINT('',(12.764688892608,7.70710678118655,-10.5228339112614));
#721=CARTESIAN_POINT('Origin',(0.,7.70710678118654,0.));
#722=CARTESIAN_POINT('',(13.4233937587455,7.1459800045528,-10.6000000000001));
#723=CARTESIAN_POINT('Ctrl Pts',(12.764688892607,7.70710678118748,-10.5228339112612));
#724=CARTESIAN_POINT('Ctrl Pts',(12.9771620267836,7.51105358862553,-10.5733082966252));
#725=CARTESIAN_POINT('Ctrl Pts',(13.1990913190529,7.32201464266015,-10.6000000000137));
#726=CARTESIAN_POINT('Ctrl Pts',(13.4233937588322,7.1459800045528,-10.6000000000001));
#727=CARTESIAN_POINT('',(15.4953859332607,7.70710678118655,-5.79312789677302));
#728=CARTESIAN_POINT('Ctrl Pts',(13.4233937588322,7.14598000455279,-10.6000000000001));
#729=CARTESIAN_POINT('Ctrl Pts',(13.5832374144023,7.0205332189997,-10.5999999999903));
#730=CARTESIAN_POINT('Ctrl Pts',(13.7442751837336,6.90165741851025,-10.586493516059));
#731=CARTESIAN_POINT('Ctrl Pts',(14.2606494706081,6.54382857681951,-10.4982063117428));
#732=CARTESIAN_POINT('Ctrl Pts',(14.6528611569578,6.31126421193667,-10.3559743112964));
#733=CARTESIAN_POINT('Ctrl Pts',(15.1824174621535,6.06991266302385,-10.0024172929895));
#734=CARTESIAN_POINT('Ctrl Pts',(15.349656704907,6.00659493867069,-9.86184204967538));
#735=CARTESIAN_POINT('Ctrl Pts',(15.6494217510581,5.92163751240102,-9.54308816235487));
#736=CARTESIAN_POINT('Ctrl Pts',(15.7819311120798,5.89999999999999,-9.36489347232588));
#737=CARTESIAN_POINT('Ctrl Pts',(16.0012012068091,5.89999999999999,-8.98510652767428));
#738=CARTESIAN_POINT('Ctrl Pts',(16.0892676546828,5.92163751240103,-8.78125270977581));
#739=CARTESIAN_POINT('Ctrl Pts',(16.2154340955819,6.0065949386707,-8.36227162098205));
#740=CARTESIAN_POINT('Ctrl Pts',(16.2535562060583,6.06991266302385,-8.14715056659086));
#741=CARTESIAN_POINT('Ctrl Pts',(16.2949674130005,6.31126421193667,-7.51176284440364));
#742=CARTESIAN_POINT('Ctrl Pts',(16.2220380954434,6.54382857681951,-7.10098156014045));
#743=CARTESIAN_POINT('Ctrl Pts',(15.9615773170461,7.05668452344891,-6.39677609311388));
#744=CARTESIAN_POINT('Ctrl Pts',(15.7521573461213,7.37138618933979,-6.06500481567401));
#745=CARTESIAN_POINT('Ctrl Pts',(15.4953859332607,7.70710678118653,-5.79312789677303));
#746=CARTESIAN_POINT('',(2.72752842331552,7.70710678118655,16.3164918027458));
#747=CARTESIAN_POINT('Origin',(0.,7.70710678118654,0.));
#748=CARTESIAN_POINT('Ctrl Pts',(2.72752842331552,7.70710678118653,16.3164918027458));
#749=CARTESIAN_POINT('Ctrl Pts',(2.62009895264974,7.37514038665698,16.6710227657501));
#750=CARTESIAN_POINT('Ctrl Pts',(2.43863953174923,7.06407582627935,17.0143478155614));
#751=CARTESIAN_POINT('Ctrl Pts',(1.96149806260218,6.55385334971199,17.5890902883108));
#752=CARTESIAN_POINT('Ctrl Pts',(1.64220449636056,6.32127898493117,17.8576741592843));
#753=CARTESIAN_POINT('Ctrl Pts',(1.07120706192965,6.07991842033862,18.139541387829));
#754=CARTESIAN_POINT('Ctrl Pts',(0.865833661074777,6.0165985599874,18.2140969499484));
#755=CARTESIAN_POINT('Ctrl Pts',(0.43987551616647,5.93163826427619,18.3143373827682));
#756=CARTESIAN_POINT('Ctrl Pts',(0.219285102494424,5.90999999999999,18.34));
#757=CARTESIAN_POINT('Ctrl Pts',(2.84494650060196E-15,5.90999999999999,
18.34));
#758=CARTESIAN_POINT('Origin',(13.4233937586588,5.5,-7.75000000000007));
#759=CARTESIAN_POINT('',(13.4233937586588,5.5,-10.6000000000001));
#760=CARTESIAN_POINT('Origin',(13.4233937586588,5.5,-7.75000000000007));
#761=CARTESIAN_POINT('',(13.4233937586588,5.5,-10.6000000000001));
#762=CARTESIAN_POINT('',(12.0659563127796,8.,-10.2559655984321));
#763=CARTESIAN_POINT('Ctrl Pts',(12.764688892608,7.70710678118655,-10.5228339112614));
#764=CARTESIAN_POINT('Ctrl Pts',(12.6886520496706,7.77726749052972,-10.5047708609509));
#765=CARTESIAN_POINT('Ctrl Pts',(12.6038621722364,7.83666436666334,-10.4812562970631));
#766=CARTESIAN_POINT('Ctrl Pts',(12.39630603872,7.94497390601448,-10.4114165508617));
#767=CARTESIAN_POINT('Ctrl Pts',(12.2710388747309,7.98394841201657,-10.3603248846243));
#768=CARTESIAN_POINT('Ctrl Pts',(12.1198044083094,7.99866824600343,-10.2845780662698));
#769=CARTESIAN_POINT('Ctrl Pts',(12.0927362741481,8.,-10.2704718320307));
#770=CARTESIAN_POINT('Ctrl Pts',(12.0659563127796,8.,-10.2559655984321));
#771=CARTESIAN_POINT('',(14.9149049049712,8.,-5.3214418886044));
#772=CARTESIAN_POINT('Origin',(13.4233937586588,8.,-7.75000000000007));
#773=CARTESIAN_POINT('Ctrl Pts',(14.9149049049712,8.,-5.3214418886044));
#774=CARTESIAN_POINT('Ctrl Pts',(14.9715703723769,8.,-5.35624326965845));
#775=CARTESIAN_POINT('Ctrl Pts',(15.0270120146652,7.99365574080673,-5.39304488180651));
#776=CARTESIAN_POINT('Ctrl Pts',(15.1886360130837,7.95604794567103,-5.50855571338379));
#777=CARTESIAN_POINT('Ctrl Pts',(15.2866957115156,7.90651550450126,-5.59037118566616));
#778=CARTESIAN_POINT('Ctrl Pts',(15.4166945102187,7.79913003658755,-5.71207442125911));
#779=CARTESIAN_POINT('Ctrl Pts',(15.4582237200098,7.75569521277229,-5.75377948206573));
#780=CARTESIAN_POINT('Ctrl Pts',(15.4953859332607,7.70710678118655,-5.79312789677302));
#781=CARTESIAN_POINT('Origin',(1.89697789187925E-15,5.5,15.49));
#782=CARTESIAN_POINT('',(1.54795355412225E-15,5.5,12.64));
#783=CARTESIAN_POINT('Origin',(1.89697789187925E-15,5.5,15.49));
#784=CARTESIAN_POINT('',(1.54795355412225E-15,8.,12.64));
#785=CARTESIAN_POINT('',(1.54795355412225E-15,5.5,12.64));
#786=CARTESIAN_POINT('',(-2.84865768883268,8.,15.5774606874799));
#787=CARTESIAN_POINT('Origin',(1.89697789187925E-15,8.,15.49));
#788=CARTESIAN_POINT('Ctrl Pts',(-2.84865768883268,8.,15.5774606874799));
#789=CARTESIAN_POINT('Ctrl Pts',(-2.84662273458544,8.,15.6437406154092));
#790=CARTESIAN_POINT('Ctrl Pts',(-2.8422571161927,7.99370091937065,15.7099553472808));
#791=CARTESIAN_POINT('Ctrl Pts',(-2.82236561668753,7.95625239700339,15.9077015682572));
#792=CARTESIAN_POINT('Ctrl Pts',(-2.80005471426282,7.90674199803829,16.033736698442));
#793=CARTESIAN_POINT('Ctrl Pts',(-2.75891013505187,7.79930374551174,16.2075177994722));
#794=CARTESIAN_POINT('Ctrl Pts',(-2.74328449673408,7.75579441645355,16.2644947497246));
#795=CARTESIAN_POINT('Ctrl Pts',(-2.72752842331552,7.70710678118654,16.3164918027458));
#796=CARTESIAN_POINT('',(2.84865768883268,8.,15.5774606874799));
#797=CARTESIAN_POINT('Ctrl Pts',(2.72752842331552,7.70710678118654,16.3164918027458));
#798=CARTESIAN_POINT('Ctrl Pts',(2.75012825780506,7.77694223253858,16.2419094648113));
#799=CARTESIAN_POINT('Ctrl Pts',(2.77241408924916,7.83610870939223,16.1571145568509));
#800=CARTESIAN_POINT('Ctrl Pts',(2.81657761660068,7.94454508506866,15.9427661882737));
#801=CARTESIAN_POINT('Ctrl Pts',(2.83555035239812,7.98372500251541,15.8085226688921));
#802=CARTESIAN_POINT('Ctrl Pts',(2.8462658422311,7.99864038651631,15.6390730291342));
#803=CARTESIAN_POINT('Ctrl Pts',(2.8477126080602,8.,15.6082426500584));
#804=CARTESIAN_POINT('Ctrl Pts',(2.84865768883268,8.,15.5774606874799));
#805=CARTESIAN_POINT('Origin',(1.89697789187925E-15,8.,15.49));
#806=CARTESIAN_POINT('Origin',(-13.4233937586588,5.5,-7.75000000000007));
#807=CARTESIAN_POINT('',(-13.4233937586588,5.5,-10.6000000000001));
#808=CARTESIAN_POINT('Origin',(-13.4233937586588,5.5,-7.75000000000007));
#809=CARTESIAN_POINT('',(-13.4233937586588,5.5,-10.6000000000001));
#810=CARTESIAN_POINT('',(-14.9149049049712,8.,-5.3214418886044));
#811=CARTESIAN_POINT('Ctrl Pts',(-15.4953859332607,7.70710678118655,-5.79312789677302));
#812=CARTESIAN_POINT('Ctrl Pts',(-15.4417244513533,7.77726749052972,-5.73630958432098));
#813=CARTESIAN_POINT('Ctrl Pts',(-15.3789653029504,7.83666436666334,-5.67463667842303));
#814=CARTESIAN_POINT('Ctrl Pts',(-15.214704241788,7.94497390601447,-5.52980766718728));
#815=CARTESIAN_POINT('Ctrl Pts',(-15.1078239789101,7.98394841201657,-5.44686895403134));
#816=CARTESIAN_POINT('Ctrl Pts',(-14.9666080767485,7.99866824600343,-5.35376947335979));
#817=CARTESIAN_POINT('Ctrl Pts',(-14.9408576524651,8.,-5.33738089866263));
#818=CARTESIAN_POINT('Ctrl Pts',(-14.9149049049712,8.,-5.3214418886044));
#819=CARTESIAN_POINT('',(-12.0659563127796,8.,-10.2559655984321));
#820=CARTESIAN_POINT('Origin',(-13.4233937586588,8.,-7.75000000000007));
#821=CARTESIAN_POINT('Ctrl Pts',(-12.0659563127796,8.,-10.2559655984321));
#822=CARTESIAN_POINT('Ctrl Pts',(-12.124427926562,8.,-10.2876386421957));
#823=CARTESIAN_POINT('Ctrl Pts',(-12.1840198787266,7.99365574080673,-10.3172517067709));
#824=CARTESIAN_POINT('Ctrl Pts',(-12.364867192494,7.95604794567104,-10.3994667794739));
#825=CARTESIAN_POINT('Ctrl Pts',(-12.4847513191291,7.90651550450127,-10.4434812332622));
#826=CARTESIAN_POINT('Ctrl Pts',(-12.6551488122269,7.79913003658755,-10.495211877604));
#827=CARTESIAN_POINT('Ctrl Pts',(-12.7120310592474,7.75569521277229,-10.5103246978789));
#828=CARTESIAN_POINT('Ctrl Pts',(-12.764688892608,7.70710678118655,-10.5228339112614));
#829=CARTESIAN_POINT('Origin',(0.,8.,0.));
#830=CARTESIAN_POINT('',(-2.35744508835865E-15,8.,19.25));
#831=CARTESIAN_POINT('Origin',(-13.4233937586588,8.,-7.75000000000007));
#832=CARTESIAN_POINT('',(-13.4233937586588,5.5,-6.20000000000007));
#833=CARTESIAN_POINT('Origin',(-13.4233937586588,5.5,-7.75000000000007));
#834=CARTESIAN_POINT('',(-13.4233937586588,8.,-6.20000000000007));
#835=CARTESIAN_POINT('Origin',(1.89697789187925E-15,8.,15.49));
#836=CARTESIAN_POINT('',(1.70715763801141E-15,5.5,17.04));
#837=CARTESIAN_POINT('Origin',(1.89697789187925E-15,5.5,15.49));
#838=CARTESIAN_POINT('',(1.70715763801141E-15,8.,17.04));
#839=CARTESIAN_POINT('Origin',(13.4233937586588,8.,-7.75000000000007));
#840=CARTESIAN_POINT('',(13.4233937586588,5.5,-6.20000000000007));
#841=CARTESIAN_POINT('Origin',(13.4233937586588,5.5,-7.75000000000007));
#842=CARTESIAN_POINT('',(13.4233937586588,8.,-6.20000000000007));
#843=CARTESIAN_POINT('Origin',(0.,8.,0.));
#844=CARTESIAN_POINT('Origin',(0.,8.,0.));
#845=CARTESIAN_POINT('Origin',(0.,8.,0.));
#846=CARTESIAN_POINT('Origin',(0.,8.,0.));
#847=CARTESIAN_POINT('Origin',(-13.4233937586588,5.5,-7.75000000000007));
#848=CARTESIAN_POINT('Origin',(1.89697789187925E-15,5.5,15.49));
#849=CARTESIAN_POINT('Origin',(13.4233937586588,5.5,-7.75000000000007));
#850=CARTESIAN_POINT('Origin',(0.,7.,0.));
#851=CARTESIAN_POINT('Origin',(0.,7.,0.));
#852=CARTESIAN_POINT('Origin',(0.,7.,0.));
#853=UNCERTAINTY_MEASURE_WITH_UNIT(LENGTH_MEASURE(0.01),#857,
'DISTANCE_ACCURACY_VALUE',
'Maximum model space distance between geometric entities at asserted c
onnectivities');
#854=UNCERTAINTY_MEASURE_WITH_UNIT(LENGTH_MEASURE(0.01),#857,
'DISTANCE_ACCURACY_VALUE',
'Maximum model space distance between geometric entities at asserted c
onnectivities');
#855=(
GEOMETRIC_REPRESENTATION_CONTEXT(3)
GLOBAL_UNCERTAINTY_ASSIGNED_CONTEXT((#853))
GLOBAL_UNIT_ASSIGNED_CONTEXT((#857,#859,#860))
REPRESENTATION_CONTEXT('','3D')
);
#856=(
GEOMETRIC_REPRESENTATION_CONTEXT(3)
GLOBAL_UNCERTAINTY_ASSIGNED_CONTEXT((#854))
GLOBAL_UNIT_ASSIGNED_CONTEXT((#857,#859,#860))
REPRESENTATION_CONTEXT('','3D')
);
#857=(
LENGTH_UNIT()
NAMED_UNIT(*)
SI_UNIT(.MILLI.,.METRE.)
);
#858=(
LENGTH_UNIT()
NAMED_UNIT(*)
SI_UNIT($,.METRE.)
);
#859=(
NAMED_UNIT(*)
PLANE_ANGLE_UNIT()
SI_UNIT($,.RADIAN.)
);
#860=(
NAMED_UNIT(*)
SI_UNIT($,.STERADIAN.)
SOLID_ANGLE_UNIT()
);
#861=SHAPE_DEFINITION_REPRESENTATION(#862,#863);
#862=PRODUCT_DEFINITION_SHAPE('',$,#865);
#863=SHAPE_REPRESENTATION('',(#454),#855);
#864=PRODUCT_DEFINITION_CONTEXT('part definition',#869,'design');
#865=PRODUCT_DEFINITION('1M2A','moveo v77',#866,#864);
#866=PRODUCT_DEFINITION_FORMATION('',$,#871);
#867=PRODUCT_RELATED_PRODUCT_CATEGORY('moveo v77','moveo v77',(#871));
#868=APPLICATION_PROTOCOL_DEFINITION('international standard',
'automotive_design',2009,#869);
#869=APPLICATION_CONTEXT(
'Core Data for Automotive Mechanical Design Process');
#870=PRODUCT_CONTEXT('part definition',#869,'mechanical');
#871=PRODUCT('1M2A','moveo v77','STEP AP214',(#870));
#872=PRESENTATION_STYLE_ASSIGNMENT((#874));
#873=PRESENTATION_STYLE_ASSIGNMENT((#875));
#874=SURFACE_STYLE_USAGE(.BOTH.,#876);
#875=SURFACE_STYLE_USAGE(.BOTH.,#877);
#876=SURFACE_SIDE_STYLE('',(#878));
#877=SURFACE_SIDE_STYLE('',(#879));
#878=SURFACE_STYLE_FILL_AREA(#880);
#879=SURFACE_STYLE_FILL_AREA(#881);
#880=FILL_AREA_STYLE('Steel - Satin',(#882));
#881=FILL_AREA_STYLE('Opaque(202,209,238)',(#883));
#882=FILL_AREA_STYLE_COLOUR('Steel - Satin',#884);
#883=FILL_AREA_STYLE_COLOUR('Opaque(202,209,238)',#885);
#884=COLOUR_RGB('Steel - Satin',0.627450980392157,0.627450980392157,0.627450980392157);
#885=COLOUR_RGB('Opaque(202,209,238)',0.792156862745098,0.819607843137255,
0.933333333333333);
ENDSEC;
END-ISO-10303-21;
