ISO-10303-21;
HEADER;
/* Generated by software containing ST-Developer
 * from STEP Tools, Inc. (www.steptools.com) 
 */

FILE_DESCRIPTION(
/* description */ ('STEP AP214'),
/* implementation_level */ '2;1');

FILE_NAME(
/* name */ 'Tapa 2M1C.step',
/* time_stamp */ '2026-07-03T18:34:26-04:00',
/* author */ (''),
/* organization */ (''),
/* preprocessor_version */ 'ST-DEVELOPER v20.1',
/* originating_system */ 'Autodesk Translation Framework v15.8.0.0',
/* authorisation */ '');

FILE_SCHEMA (('AUTOMOTIVE_DESIGN { 1 0 10303 214 3 1 1 }'));
ENDSEC;

DATA;
#10=MECHANICAL_DESIGN_GEOMETRIC_PRESENTATION_REPRESENTATION('',(#13),#539);
#11=SHAPE_REPRESENTATION_RELATIONSHIP('SRR','None',#546,#12);
#12=ADVANCED_BREP_SHAPE_REPRESENTATION('',(#14),#538);
#13=STYLED_ITEM('',(#556),#14);
#14=MANIFOLD_SOLID_BREP('Tapa 2M1C',#302);
#15=FACE_BOUND('',#69,.T.);
#16=FACE_BOUND('',#70,.T.);
#17=FACE_BOUND('',#71,.T.);
#18=FACE_BOUND('',#72,.T.);
#19=FACE_BOUND('',#73,.T.);
#20=FACE_BOUND('',#75,.T.);
#21=FACE_BOUND('',#76,.T.);
#22=FACE_BOUND('',#77,.T.);
#23=FACE_BOUND('',#79,.T.);
#24=FACE_BOUND('',#81,.T.);
#25=FACE_BOUND('',#83,.T.);
#26=CONICAL_SURFACE('',#329,28.5,0.785398163397445);
#27=TOROIDAL_SURFACE('',#324,28.0857864376269,1.);
#28=CYLINDRICAL_SURFACE('',#319,5.);
#29=CYLINDRICAL_SURFACE('',#321,3.);
#30=CYLINDRICAL_SURFACE('',#331,2.85);
#31=CYLINDRICAL_SURFACE('',#334,2.84999999999999);
#32=CYLINDRICAL_SURFACE('',#337,2.85);
#33=CYLINDRICAL_SURFACE('',#340,1.55);
#34=CYLINDRICAL_SURFACE('',#343,31.5);
#35=CYLINDRICAL_SURFACE('',#345,1.55);
#36=CYLINDRICAL_SURFACE('',#348,1.54999999999999);
#37=FACE_OUTER_BOUND('',#55,.T.);
#38=FACE_OUTER_BOUND('',#56,.T.);
#39=FACE_OUTER_BOUND('',#57,.T.);
#40=FACE_OUTER_BOUND('',#58,.T.);
#41=FACE_OUTER_BOUND('',#59,.T.);
#42=FACE_OUTER_BOUND('',#60,.T.);
#43=FACE_OUTER_BOUND('',#61,.T.);
#44=FACE_OUTER_BOUND('',#62,.T.);
#45=FACE_OUTER_BOUND('',#63,.T.);
#46=FACE_OUTER_BOUND('',#64,.T.);
#47=FACE_OUTER_BOUND('',#65,.T.);
#48=FACE_OUTER_BOUND('',#66,.T.);
#49=FACE_OUTER_BOUND('',#67,.T.);
#50=FACE_OUTER_BOUND('',#68,.T.);
#51=FACE_OUTER_BOUND('',#74,.T.);
#52=FACE_OUTER_BOUND('',#78,.T.);
#53=FACE_OUTER_BOUND('',#80,.T.);
#54=FACE_OUTER_BOUND('',#82,.T.);
#55=EDGE_LOOP('',(#201,#202,#203,#204));
#56=EDGE_LOOP('',(#205,#206,#207,#208));
#57=EDGE_LOOP('',(#209,#210,#211,#212));
#58=EDGE_LOOP('',(#213,#214,#215,#216));
#59=EDGE_LOOP('',(#217,#218,#219,#220,#221));
#60=EDGE_LOOP('',(#222,#223,#224,#225,#226));
#61=EDGE_LOOP('',(#227,#228,#229,#230));
#62=EDGE_LOOP('',(#231,#232,#233,#234));
#63=EDGE_LOOP('',(#235,#236,#237,#238));
#64=EDGE_LOOP('',(#239,#240,#241,#242));
#65=EDGE_LOOP('',(#243,#244,#245,#246));
#66=EDGE_LOOP('',(#247,#248,#249,#250));
#67=EDGE_LOOP('',(#251,#252,#253,#254));
#68=EDGE_LOOP('',(#255));
#69=EDGE_LOOP('',(#256,#257,#258,#259));
#70=EDGE_LOOP('',(#260,#261,#262,#263));
#71=EDGE_LOOP('',(#264));
#72=EDGE_LOOP('',(#265));
#73=EDGE_LOOP('',(#266));
#74=EDGE_LOOP('',(#267));
#75=EDGE_LOOP('',(#268));
#76=EDGE_LOOP('',(#269));
#77=EDGE_LOOP('',(#270));
#78=EDGE_LOOP('',(#271));
#79=EDGE_LOOP('',(#272));
#80=EDGE_LOOP('',(#273));
#81=EDGE_LOOP('',(#274));
#82=EDGE_LOOP('',(#275));
#83=EDGE_LOOP('',(#276));
#84=LINE('',#460,#100);
#85=LINE('',#463,#101);
#86=LINE('',#468,#102);
#87=LINE('',#469,#103);
#88=LINE('',#474,#104);
#89=LINE('',#475,#105);
#90=LINE('',#477,#106);
#91=LINE('',#478,#107);
#92=LINE('',#490,#108);
#93=LINE('',#495,#109);
#94=LINE('',#501,#110);
#95=LINE('',#507,#111);
#96=LINE('',#513,#112);
#97=LINE('',#518,#113);
#98=LINE('',#523,#114);
#99=LINE('',#529,#115);
#100=VECTOR('',#362,10.);
#101=VECTOR('',#365,10.);
#102=VECTOR('',#370,10.);
#103=VECTOR('',#371,10.);
#104=VECTOR('',#376,10.);
#105=VECTOR('',#377,10.);
#106=VECTOR('',#380,10.);
#107=VECTOR('',#381,10.);
#108=VECTOR('',#396,28.5);
#109=VECTOR('',#401,2.85);
#110=VECTOR('',#408,2.84999999999999);
#111=VECTOR('',#415,2.85);
#112=VECTOR('',#422,1.55);
#113=VECTOR('',#429,31.5);
#114=VECTOR('',#434,1.55);
#115=VECTOR('',#441,1.54999999999999);
#116=CIRCLE('',#317,5.);
#117=CIRCLE('',#318,3.);
#118=CIRCLE('',#320,5.);
#119=CIRCLE('',#322,3.);
#120=CIRCLE('',#325,28.0857864376269);
#121=CIRCLE('',#326,1.);
#122=CIRCLE('',#327,28.7928932188135);
#123=CIRCLE('',#328,28.7928932188135);
#124=CIRCLE('',#330,31.5);
#125=CIRCLE('',#332,2.85);
#126=CIRCLE('',#333,2.85);
#127=CIRCLE('',#335,2.84999999999999);
#128=CIRCLE('',#336,2.84999999999999);
#129=CIRCLE('',#338,2.85);
#130=CIRCLE('',#339,2.85);
#131=CIRCLE('',#341,1.55);
#132=CIRCLE('',#342,1.55);
#133=CIRCLE('',#344,31.5);
#134=CIRCLE('',#346,1.55);
#135=CIRCLE('',#347,1.55);
#136=CIRCLE('',#349,1.54999999999999);
#137=CIRCLE('',#350,1.54999999999999);
#138=VERTEX_POINT('',#456);
#139=VERTEX_POINT('',#457);
#140=VERTEX_POINT('',#459);
#141=VERTEX_POINT('',#461);
#142=VERTEX_POINT('',#465);
#143=VERTEX_POINT('',#466);
#144=VERTEX_POINT('',#471);
#145=VERTEX_POINT('',#472);
#146=VERTEX_POINT('',#480);
#147=VERTEX_POINT('',#482);
#148=VERTEX_POINT('',#484);
#149=VERTEX_POINT('',#488);
#150=VERTEX_POINT('',#492);
#151=VERTEX_POINT('',#494);
#152=VERTEX_POINT('',#498);
#153=VERTEX_POINT('',#500);
#154=VERTEX_POINT('',#504);
#155=VERTEX_POINT('',#506);
#156=VERTEX_POINT('',#510);
#157=VERTEX_POINT('',#512);
#158=VERTEX_POINT('',#516);
#159=VERTEX_POINT('',#520);
#160=VERTEX_POINT('',#522);
#161=VERTEX_POINT('',#526);
#162=VERTEX_POINT('',#528);
#163=EDGE_CURVE('',#138,#139,#116,.T.);
#164=EDGE_CURVE('',#140,#139,#84,.T.);
#165=EDGE_CURVE('',#141,#140,#117,.F.);
#166=EDGE_CURVE('',#138,#141,#85,.T.);
#167=EDGE_CURVE('',#142,#143,#118,.T.);
#168=EDGE_CURVE('',#139,#142,#86,.T.);
#169=EDGE_CURVE('',#143,#138,#87,.T.);
#170=EDGE_CURVE('',#144,#145,#119,.F.);
#171=EDGE_CURVE('',#145,#141,#88,.T.);
#172=EDGE_CURVE('',#140,#144,#89,.T.);
#173=EDGE_CURVE('',#145,#143,#90,.T.);
#174=EDGE_CURVE('',#142,#144,#91,.T.);
#175=EDGE_CURVE('',#146,#146,#120,.T.);
#176=EDGE_CURVE('',#146,#147,#121,.T.);
#177=EDGE_CURVE('',#148,#147,#122,.T.);
#178=EDGE_CURVE('',#147,#148,#123,.T.);
#179=EDGE_CURVE('',#149,#149,#124,.T.);
#180=EDGE_CURVE('',#149,#148,#92,.T.);
#181=EDGE_CURVE('',#150,#150,#125,.T.);
#182=EDGE_CURVE('',#150,#151,#93,.T.);
#183=EDGE_CURVE('',#151,#151,#126,.T.);
#184=EDGE_CURVE('',#152,#152,#127,.T.);
#185=EDGE_CURVE('',#152,#153,#94,.T.);
#186=EDGE_CURVE('',#153,#153,#128,.T.);
#187=EDGE_CURVE('',#154,#154,#129,.T.);
#188=EDGE_CURVE('',#154,#155,#95,.T.);
#189=EDGE_CURVE('',#155,#155,#130,.T.);
#190=EDGE_CURVE('',#156,#156,#131,.T.);
#191=EDGE_CURVE('',#156,#157,#96,.T.);
#192=EDGE_CURVE('',#157,#157,#132,.T.);
#193=EDGE_CURVE('',#158,#158,#133,.T.);
#194=EDGE_CURVE('',#158,#149,#97,.T.);
#195=EDGE_CURVE('',#159,#159,#134,.T.);
#196=EDGE_CURVE('',#159,#160,#98,.T.);
#197=EDGE_CURVE('',#160,#160,#135,.T.);
#198=EDGE_CURVE('',#161,#161,#136,.T.);
#199=EDGE_CURVE('',#161,#162,#99,.T.);
#200=EDGE_CURVE('',#162,#162,#137,.T.);
#201=ORIENTED_EDGE('',*,*,#163,.T.);
#202=ORIENTED_EDGE('',*,*,#164,.F.);
#203=ORIENTED_EDGE('',*,*,#165,.F.);
#204=ORIENTED_EDGE('',*,*,#166,.F.);
#205=ORIENTED_EDGE('',*,*,#167,.F.);
#206=ORIENTED_EDGE('',*,*,#168,.F.);
#207=ORIENTED_EDGE('',*,*,#163,.F.);
#208=ORIENTED_EDGE('',*,*,#169,.F.);
#209=ORIENTED_EDGE('',*,*,#170,.T.);
#210=ORIENTED_EDGE('',*,*,#171,.T.);
#211=ORIENTED_EDGE('',*,*,#165,.T.);
#212=ORIENTED_EDGE('',*,*,#172,.T.);
#213=ORIENTED_EDGE('',*,*,#167,.T.);
#214=ORIENTED_EDGE('',*,*,#173,.F.);
#215=ORIENTED_EDGE('',*,*,#170,.F.);
#216=ORIENTED_EDGE('',*,*,#174,.F.);
#217=ORIENTED_EDGE('',*,*,#175,.F.);
#218=ORIENTED_EDGE('',*,*,#176,.T.);
#219=ORIENTED_EDGE('',*,*,#177,.F.);
#220=ORIENTED_EDGE('',*,*,#178,.F.);
#221=ORIENTED_EDGE('',*,*,#176,.F.);
#222=ORIENTED_EDGE('',*,*,#179,.F.);
#223=ORIENTED_EDGE('',*,*,#180,.T.);
#224=ORIENTED_EDGE('',*,*,#177,.T.);
#225=ORIENTED_EDGE('',*,*,#178,.T.);
#226=ORIENTED_EDGE('',*,*,#180,.F.);
#227=ORIENTED_EDGE('',*,*,#181,.F.);
#228=ORIENTED_EDGE('',*,*,#182,.T.);
#229=ORIENTED_EDGE('',*,*,#183,.T.);
#230=ORIENTED_EDGE('',*,*,#182,.F.);
#231=ORIENTED_EDGE('',*,*,#184,.F.);
#232=ORIENTED_EDGE('',*,*,#185,.T.);
#233=ORIENTED_EDGE('',*,*,#186,.T.);
#234=ORIENTED_EDGE('',*,*,#185,.F.);
#235=ORIENTED_EDGE('',*,*,#187,.F.);
#236=ORIENTED_EDGE('',*,*,#188,.T.);
#237=ORIENTED_EDGE('',*,*,#189,.T.);
#238=ORIENTED_EDGE('',*,*,#188,.F.);
#239=ORIENTED_EDGE('',*,*,#190,.F.);
#240=ORIENTED_EDGE('',*,*,#191,.T.);
#241=ORIENTED_EDGE('',*,*,#192,.F.);
#242=ORIENTED_EDGE('',*,*,#191,.F.);
#243=ORIENTED_EDGE('',*,*,#193,.T.);
#244=ORIENTED_EDGE('',*,*,#194,.T.);
#245=ORIENTED_EDGE('',*,*,#179,.T.);
#246=ORIENTED_EDGE('',*,*,#194,.F.);
#247=ORIENTED_EDGE('',*,*,#195,.T.);
#248=ORIENTED_EDGE('',*,*,#196,.T.);
#249=ORIENTED_EDGE('',*,*,#197,.F.);
#250=ORIENTED_EDGE('',*,*,#196,.F.);
#251=ORIENTED_EDGE('',*,*,#198,.T.);
#252=ORIENTED_EDGE('',*,*,#199,.T.);
#253=ORIENTED_EDGE('',*,*,#200,.F.);
#254=ORIENTED_EDGE('',*,*,#199,.F.);
#255=ORIENTED_EDGE('',*,*,#175,.T.);
#256=ORIENTED_EDGE('',*,*,#173,.T.);
#257=ORIENTED_EDGE('',*,*,#169,.T.);
#258=ORIENTED_EDGE('',*,*,#166,.T.);
#259=ORIENTED_EDGE('',*,*,#171,.F.);
#260=ORIENTED_EDGE('',*,*,#172,.F.);
#261=ORIENTED_EDGE('',*,*,#164,.T.);
#262=ORIENTED_EDGE('',*,*,#168,.T.);
#263=ORIENTED_EDGE('',*,*,#174,.T.);
#264=ORIENTED_EDGE('',*,*,#183,.F.);
#265=ORIENTED_EDGE('',*,*,#186,.F.);
#266=ORIENTED_EDGE('',*,*,#189,.F.);
#267=ORIENTED_EDGE('',*,*,#193,.F.);
#268=ORIENTED_EDGE('',*,*,#197,.T.);
#269=ORIENTED_EDGE('',*,*,#192,.T.);
#270=ORIENTED_EDGE('',*,*,#200,.T.);
#271=ORIENTED_EDGE('',*,*,#187,.T.);
#272=ORIENTED_EDGE('',*,*,#195,.F.);
#273=ORIENTED_EDGE('',*,*,#184,.T.);
#274=ORIENTED_EDGE('',*,*,#198,.F.);
#275=ORIENTED_EDGE('',*,*,#181,.T.);
#276=ORIENTED_EDGE('',*,*,#190,.T.);
#277=PLANE('',#316);
#278=PLANE('',#323);
#279=PLANE('',#351);
#280=PLANE('',#352);
#281=PLANE('',#353);
#282=PLANE('',#354);
#283=PLANE('',#355);
#284=ADVANCED_FACE('',(#37),#277,.F.);
#285=ADVANCED_FACE('',(#38),#28,.F.);
#286=ADVANCED_FACE('',(#39),#29,.T.);
#287=ADVANCED_FACE('',(#40),#278,.F.);
#288=ADVANCED_FACE('',(#41),#27,.T.);
#289=ADVANCED_FACE('',(#42),#26,.T.);
#290=ADVANCED_FACE('',(#43),#30,.F.);
#291=ADVANCED_FACE('',(#44),#31,.F.);
#292=ADVANCED_FACE('',(#45),#32,.F.);
#293=ADVANCED_FACE('',(#46),#33,.F.);
#294=ADVANCED_FACE('',(#47),#34,.T.);
#295=ADVANCED_FACE('',(#48),#35,.F.);
#296=ADVANCED_FACE('',(#49),#36,.F.);
#297=ADVANCED_FACE('',(#50,#15,#16,#17,#18,#19),#279,.T.);
#298=ADVANCED_FACE('',(#51,#20,#21,#22),#280,.F.);
#299=ADVANCED_FACE('',(#52,#23),#281,.T.);
#300=ADVANCED_FACE('',(#53,#24),#282,.T.);
#301=ADVANCED_FACE('',(#54,#25),#283,.F.);
#302=CLOSED_SHELL('',(#284,#285,#286,#287,#288,#289,#290,#291,#292,#293,
#294,#295,#296,#297,#298,#299,#300,#301));
#303=DERIVED_UNIT_ELEMENT(#305,1.);
#304=DERIVED_UNIT_ELEMENT(#541,-3.);
#305=(
MASS_UNIT()
NAMED_UNIT(*)
SI_UNIT(.KILO.,.GRAM.)
);
#306=DERIVED_UNIT((#303,#304));
#307=MEASURE_REPRESENTATION_ITEM('density measure',
POSITIVE_RATIO_MEASURE(7850.),#306);
#308=PROPERTY_DEFINITION_REPRESENTATION(#313,#310);
#309=PROPERTY_DEFINITION_REPRESENTATION(#314,#311);
#310=REPRESENTATION('material name',(#312),#538);
#311=REPRESENTATION('density',(#307),#538);
#312=DESCRIPTIVE_REPRESENTATION_ITEM('Steel','Steel');
#313=PROPERTY_DEFINITION('material property','material name',#548);
#314=PROPERTY_DEFINITION('material property','density of part',#548);
#315=AXIS2_PLACEMENT_3D('',#454,#356,#357);
#316=AXIS2_PLACEMENT_3D('',#455,#358,#359);
#317=AXIS2_PLACEMENT_3D('',#458,#360,#361);
#318=AXIS2_PLACEMENT_3D('',#462,#363,#364);
#319=AXIS2_PLACEMENT_3D('',#464,#366,#367);
#320=AXIS2_PLACEMENT_3D('',#467,#368,#369);
#321=AXIS2_PLACEMENT_3D('',#470,#372,#373);
#322=AXIS2_PLACEMENT_3D('',#473,#374,#375);
#323=AXIS2_PLACEMENT_3D('',#476,#378,#379);
#324=AXIS2_PLACEMENT_3D('',#479,#382,#383);
#325=AXIS2_PLACEMENT_3D('',#481,#384,#385);
#326=AXIS2_PLACEMENT_3D('',#483,#386,#387);
#327=AXIS2_PLACEMENT_3D('',#485,#388,#389);
#328=AXIS2_PLACEMENT_3D('',#486,#390,#391);
#329=AXIS2_PLACEMENT_3D('',#487,#392,#393);
#330=AXIS2_PLACEMENT_3D('',#489,#394,#395);
#331=AXIS2_PLACEMENT_3D('',#491,#397,#398);
#332=AXIS2_PLACEMENT_3D('',#493,#399,#400);
#333=AXIS2_PLACEMENT_3D('',#496,#402,#403);
#334=AXIS2_PLACEMENT_3D('',#497,#404,#405);
#335=AXIS2_PLACEMENT_3D('',#499,#406,#407);
#336=AXIS2_PLACEMENT_3D('',#502,#409,#410);
#337=AXIS2_PLACEMENT_3D('',#503,#411,#412);
#338=AXIS2_PLACEMENT_3D('',#505,#413,#414);
#339=AXIS2_PLACEMENT_3D('',#508,#416,#417);
#340=AXIS2_PLACEMENT_3D('',#509,#418,#419);
#341=AXIS2_PLACEMENT_3D('',#511,#420,#421);
#342=AXIS2_PLACEMENT_3D('',#514,#423,#424);
#343=AXIS2_PLACEMENT_3D('',#515,#425,#426);
#344=AXIS2_PLACEMENT_3D('',#517,#427,#428);
#345=AXIS2_PLACEMENT_3D('',#519,#430,#431);
#346=AXIS2_PLACEMENT_3D('',#521,#432,#433);
#347=AXIS2_PLACEMENT_3D('',#524,#435,#436);
#348=AXIS2_PLACEMENT_3D('',#525,#437,#438);
#349=AXIS2_PLACEMENT_3D('',#527,#439,#440);
#350=AXIS2_PLACEMENT_3D('',#530,#442,#443);
#351=AXIS2_PLACEMENT_3D('',#531,#444,#445);
#352=AXIS2_PLACEMENT_3D('',#532,#446,#447);
#353=AXIS2_PLACEMENT_3D('',#533,#448,#449);
#354=AXIS2_PLACEMENT_3D('',#534,#450,#451);
#355=AXIS2_PLACEMENT_3D('',#535,#452,#453);
#356=DIRECTION('axis',(0.,0.,1.));
#357=DIRECTION('refdir',(1.,0.,0.));
#358=DIRECTION('center_axis',(0.,0.,-1.));
#359=DIRECTION('ref_axis',(1.,0.,0.));
#360=DIRECTION('center_axis',(0.,0.,1.));
#361=DIRECTION('ref_axis',(-0.707106781186547,-0.707106781186547,0.));
#362=DIRECTION('',(1.,0.,0.));
#363=DIRECTION('center_axis',(0.,0.,-1.));
#364=DIRECTION('ref_axis',(-0.707106781186548,-0.707106781186548,0.));
#365=DIRECTION('',(1.,0.,0.));
#366=DIRECTION('center_axis',(0.,0.,1.));
#367=DIRECTION('ref_axis',(0.707106781186547,-0.707106781186547,0.));
#368=DIRECTION('center_axis',(0.,0.,-1.));
#369=DIRECTION('ref_axis',(-0.707106781186547,-0.707106781186547,0.));
#370=DIRECTION('',(0.,0.,1.));
#371=DIRECTION('',(0.,0.,-1.));
#372=DIRECTION('center_axis',(0.,0.,-1.));
#373=DIRECTION('ref_axis',(-0.707106781186548,-0.707106781186548,0.));
#374=DIRECTION('center_axis',(0.,0.,1.));
#375=DIRECTION('ref_axis',(0.707106781186548,-0.707106781186548,0.));
#376=DIRECTION('',(0.,0.,-1.));
#377=DIRECTION('',(0.,0.,1.));
#378=DIRECTION('center_axis',(0.,0.,1.));
#379=DIRECTION('ref_axis',(-1.,0.,0.));
#380=DIRECTION('',(-1.,0.,0.));
#381=DIRECTION('',(-1.,0.,0.));
#382=DIRECTION('center_axis',(0.,1.,0.));
#383=DIRECTION('ref_axis',(0.,0.,1.));
#384=DIRECTION('center_axis',(0.,1.,0.));
#385=DIRECTION('ref_axis',(0.,0.,1.));
#386=DIRECTION('center_axis',(-1.,0.,1.22464679914735E-16));
#387=DIRECTION('ref_axis',(-1.22464679914735E-16,0.,-1.));
#388=DIRECTION('center_axis',(0.,-1.,0.));
#389=DIRECTION('ref_axis',(0.,0.,1.));
#390=DIRECTION('center_axis',(0.,-1.,0.));
#391=DIRECTION('ref_axis',(0.,0.,1.));
#392=DIRECTION('center_axis',(0.,-1.,0.));
#393=DIRECTION('ref_axis',(0.,0.,-1.));
#394=DIRECTION('center_axis',(0.,-1.,0.));
#395=DIRECTION('ref_axis',(0.,0.,1.));
#396=DIRECTION('',(8.6595605623549E-17,0.70710678118655,-0.707106781186545));
#397=DIRECTION('center_axis',(0.,1.,0.));
#398=DIRECTION('ref_axis',(0.,0.,1.));
#399=DIRECTION('center_axis',(0.,1.,0.));
#400=DIRECTION('ref_axis',(0.,0.,-1.));
#401=DIRECTION('',(0.,1.,0.));
#402=DIRECTION('center_axis',(0.,1.,0.));
#403=DIRECTION('ref_axis',(0.,0.,-1.));
#404=DIRECTION('center_axis',(0.,1.,0.));
#405=DIRECTION('ref_axis',(0.,0.,1.));
#406=DIRECTION('center_axis',(0.,1.,0.));
#407=DIRECTION('ref_axis',(0.,0.,1.));
#408=DIRECTION('',(0.,1.,0.));
#409=DIRECTION('center_axis',(0.,1.,0.));
#410=DIRECTION('ref_axis',(0.,0.,1.));
#411=DIRECTION('center_axis',(0.,1.,0.));
#412=DIRECTION('ref_axis',(0.,0.,1.));
#413=DIRECTION('center_axis',(0.,1.,0.));
#414=DIRECTION('ref_axis',(0.,0.,1.));
#415=DIRECTION('',(0.,1.,0.));
#416=DIRECTION('center_axis',(0.,1.,0.));
#417=DIRECTION('ref_axis',(0.,0.,1.));
#418=DIRECTION('center_axis',(0.,-1.,0.));
#419=DIRECTION('ref_axis',(0.,0.,-1.));
#420=DIRECTION('center_axis',(0.,-1.,0.));
#421=DIRECTION('ref_axis',(0.,0.,-1.));
#422=DIRECTION('',(0.,-1.,0.));
#423=DIRECTION('center_axis',(0.,1.,0.));
#424=DIRECTION('ref_axis',(0.,0.,-1.));
#425=DIRECTION('center_axis',(0.,-1.,0.));
#426=DIRECTION('ref_axis',(0.,0.,-1.));
#427=DIRECTION('center_axis',(0.,1.,0.));
#428=DIRECTION('ref_axis',(0.,0.,1.));
#429=DIRECTION('',(0.,1.,0.));
#430=DIRECTION('center_axis',(0.,-1.,0.));
#431=DIRECTION('ref_axis',(0.,0.,-1.));
#432=DIRECTION('center_axis',(0.,1.,0.));
#433=DIRECTION('ref_axis',(0.,0.,1.));
#434=DIRECTION('',(0.,-1.,0.));
#435=DIRECTION('center_axis',(0.,1.,0.));
#436=DIRECTION('ref_axis',(0.,0.,1.));
#437=DIRECTION('center_axis',(0.,-1.,0.));
#438=DIRECTION('ref_axis',(0.,0.,-1.));
#439=DIRECTION('center_axis',(0.,1.,0.));
#440=DIRECTION('ref_axis',(0.,0.,1.));
#441=DIRECTION('',(0.,-1.,0.));
#442=DIRECTION('center_axis',(0.,1.,0.));
#443=DIRECTION('ref_axis',(0.,0.,1.));
#444=DIRECTION('center_axis',(0.,1.,0.));
#445=DIRECTION('ref_axis',(0.,0.,1.));
#446=DIRECTION('center_axis',(0.,1.,0.));
#447=DIRECTION('ref_axis',(0.,0.,1.));
#448=DIRECTION('center_axis',(0.,1.,0.));
#449=DIRECTION('ref_axis',(0.,0.,1.));
#450=DIRECTION('center_axis',(0.,1.,0.));
#451=DIRECTION('ref_axis',(0.,0.,1.));
#452=DIRECTION('center_axis',(0.,-1.,0.));
#453=DIRECTION('ref_axis',(0.,0.,-1.));
#454=CARTESIAN_POINT('',(0.,0.,0.));
#455=CARTESIAN_POINT('Origin',(-5.,8.,-2.5));
#456=CARTESIAN_POINT('',(-5.,8.,-2.5));
#457=CARTESIAN_POINT('',(5.,8.,-2.5));
#458=CARTESIAN_POINT('Origin',(0.,8.,-2.5));
#459=CARTESIAN_POINT('',(3.,8.,-2.5));
#460=CARTESIAN_POINT('',(-2.5,8.,-2.5));
#461=CARTESIAN_POINT('',(-3.,8.,-2.5));
#462=CARTESIAN_POINT('Origin',(5.55111512312578E-16,8.,-2.5));
#463=CARTESIAN_POINT('',(-2.5,8.,-2.5));
#464=CARTESIAN_POINT('Origin',(0.,8.,-1.25));
#465=CARTESIAN_POINT('',(5.,8.,2.5));
#466=CARTESIAN_POINT('',(-5.,8.,2.5));
#467=CARTESIAN_POINT('Origin',(0.,8.,2.5));
#468=CARTESIAN_POINT('',(5.,8.,-1.25));
#469=CARTESIAN_POINT('',(-5.,8.,1.25));
#470=CARTESIAN_POINT('Origin',(5.55111512312578E-16,8.,1.25));
#471=CARTESIAN_POINT('',(3.,8.,2.5));
#472=CARTESIAN_POINT('',(-3.,8.,2.5));
#473=CARTESIAN_POINT('Origin',(-5.55111512312578E-16,8.,2.5));
#474=CARTESIAN_POINT('',(-3.,8.,2.5));
#475=CARTESIAN_POINT('',(3.,8.,-2.5));
#476=CARTESIAN_POINT('Origin',(5.,8.,2.5));
#477=CARTESIAN_POINT('',(2.5,8.,2.5));
#478=CARTESIAN_POINT('',(2.5,8.,2.5));
#479=CARTESIAN_POINT('Origin',(0.,7.,0.));
#480=CARTESIAN_POINT('',(-3.43951684623759E-15,8.,-28.0857864376269));
#481=CARTESIAN_POINT('Origin',(0.,8.,0.));
#482=CARTESIAN_POINT('',(-3.52611245186114E-15,7.70710678118655,-28.7928932188135));
#483=CARTESIAN_POINT('Origin',(-3.43951684623759E-15,7.,-28.0857864376269));
#484=CARTESIAN_POINT('',(3.69187493458765E-15,7.70710678118655,28.7928932188135));
#485=CARTESIAN_POINT('Origin',(0.,7.70710678118655,0.));
#486=CARTESIAN_POINT('Origin',(0.,7.70710678118655,0.));
#487=CARTESIAN_POINT('Origin',(0.,8.,0.));
#488=CARTESIAN_POINT('',(-3.85763741731416E-15,4.99999999999999,31.5));
#489=CARTESIAN_POINT('Origin',(0.,4.99999999999999,0.));
#490=CARTESIAN_POINT('',(-3.49024337756996E-15,8.,28.5));
#491=CARTESIAN_POINT('Origin',(-19.4855715851498,3.,-11.2500000000001));
#492=CARTESIAN_POINT('',(-19.4855715851498,3.,-14.1000000000001));
#493=CARTESIAN_POINT('Origin',(-19.4855715851498,3.,-11.2500000000001));
#494=CARTESIAN_POINT('',(-19.4855715851498,8.,-14.1000000000001));
#495=CARTESIAN_POINT('',(-19.4855715851498,3.,-14.1000000000001));
#496=CARTESIAN_POINT('Origin',(-19.4855715851498,8.,-11.2500000000001));
#497=CARTESIAN_POINT('Origin',(19.4855715851498,3.,-11.2500000000001));
#498=CARTESIAN_POINT('',(19.4855715851498,3.,-14.1000000000001));
#499=CARTESIAN_POINT('Origin',(19.4855715851498,3.,-11.2500000000001));
#500=CARTESIAN_POINT('',(19.4855715851498,8.,-14.1000000000001));
#501=CARTESIAN_POINT('',(19.4855715851498,3.,-14.1000000000001));
#502=CARTESIAN_POINT('Origin',(19.4855715851498,8.,-11.2500000000001));
#503=CARTESIAN_POINT('Origin',(6.73555739531044E-15,3.,22.5));
#504=CARTESIAN_POINT('',(6.38653305755345E-15,3.,19.65));
#505=CARTESIAN_POINT('Origin',(6.73555739531044E-15,3.,22.5));
#506=CARTESIAN_POINT('',(6.38653305755345E-15,8.,19.65));
#507=CARTESIAN_POINT('',(6.38653305755345E-15,3.,19.65));
#508=CARTESIAN_POINT('Origin',(6.73555739531044E-15,8.,22.5));
#509=CARTESIAN_POINT('Origin',(-19.4855715851498,8.,-11.2500000000001));
#510=CARTESIAN_POINT('',(-19.4855715851498,3.,-9.7000000000001));
#511=CARTESIAN_POINT('Origin',(-19.4855715851498,3.,-11.2500000000001));
#512=CARTESIAN_POINT('',(-19.4855715851498,0.,-9.7000000000001));
#513=CARTESIAN_POINT('',(-19.4855715851498,8.,-9.7000000000001));
#514=CARTESIAN_POINT('Origin',(-19.4855715851498,0.,-11.2500000000001));
#515=CARTESIAN_POINT('Origin',(0.,8.,0.));
#516=CARTESIAN_POINT('',(-3.85763741731416E-15,0.,31.5));
#517=CARTESIAN_POINT('Origin',(0.,0.,0.));
#518=CARTESIAN_POINT('',(-3.85763741731416E-15,8.,31.5));
#519=CARTESIAN_POINT('Origin',(6.61309271539571E-15,8.,22.5));
#520=CARTESIAN_POINT('',(6.42327246152787E-15,3.,24.05));
#521=CARTESIAN_POINT('Origin',(6.61309271539571E-15,3.,22.5));
#522=CARTESIAN_POINT('',(6.42327246152787E-15,0.,24.05));
#523=CARTESIAN_POINT('',(6.42327246152787E-15,8.,24.05));
#524=CARTESIAN_POINT('Origin',(6.61309271539571E-15,0.,22.5));
#525=CARTESIAN_POINT('Origin',(19.4855715851498,8.,-11.2500000000001));
#526=CARTESIAN_POINT('',(19.4855715851498,3.,-9.70000000000011));
#527=CARTESIAN_POINT('Origin',(19.4855715851498,3.,-11.2500000000001));
#528=CARTESIAN_POINT('',(19.4855715851498,0.,-9.70000000000011));
#529=CARTESIAN_POINT('',(19.4855715851498,8.,-9.70000000000011));
#530=CARTESIAN_POINT('Origin',(19.4855715851498,0.,-11.2500000000001));
#531=CARTESIAN_POINT('Origin',(0.,8.,0.));
#532=CARTESIAN_POINT('Origin',(0.,0.,0.));
#533=CARTESIAN_POINT('Origin',(6.73555739531044E-15,3.,22.5));
#534=CARTESIAN_POINT('Origin',(19.4855715851498,3.,-11.2500000000001));
#535=CARTESIAN_POINT('Origin',(-19.4855715851498,3.,-11.2500000000001));
#536=UNCERTAINTY_MEASURE_WITH_UNIT(LENGTH_MEASURE(0.01),#540,
'DISTANCE_ACCURACY_VALUE',
'Maximum model space distance between geometric entities at asserted c
onnectivities');
#537=UNCERTAINTY_MEASURE_WITH_UNIT(LENGTH_MEASURE(0.01),#540,
'DISTANCE_ACCURACY_VALUE',
'Maximum model space distance between geometric entities at asserted c
onnectivities');
#538=(
GEOMETRIC_REPRESENTATION_CONTEXT(3)
GLOBAL_UNCERTAINTY_ASSIGNED_CONTEXT((#536))
GLOBAL_UNIT_ASSIGNED_CONTEXT((#540,#542,#543))
REPRESENTATION_CONTEXT('','3D')
);
#539=(
GEOMETRIC_REPRESENTATION_CONTEXT(3)
GLOBAL_UNCERTAINTY_ASSIGNED_CONTEXT((#537))
GLOBAL_UNIT_ASSIGNED_CONTEXT((#540,#542,#543))
REPRESENTATION_CONTEXT('','3D')
);
#540=(
LENGTH_UNIT()
NAMED_UNIT(*)
SI_UNIT(.MILLI.,.METRE.)
);
#541=(
LENGTH_UNIT()
NAMED_UNIT(*)
SI_UNIT($,.METRE.)
);
#542=(
NAMED_UNIT(*)
PLANE_ANGLE_UNIT()
SI_UNIT($,.RADIAN.)
);
#543=(
NAMED_UNIT(*)
SI_UNIT($,.STERADIAN.)
SOLID_ANGLE_UNIT()
);
#544=SHAPE_DEFINITION_REPRESENTATION(#545,#546);
#545=PRODUCT_DEFINITION_SHAPE('',$,#548);
#546=SHAPE_REPRESENTATION('',(#315),#538);
#547=PRODUCT_DEFINITION_CONTEXT('part definition',#552,'design');
#548=PRODUCT_DEFINITION('1M2A','moveo v77',#549,#547);
#549=PRODUCT_DEFINITION_FORMATION('',$,#554);
#550=PRODUCT_RELATED_PRODUCT_CATEGORY('moveo v77','moveo v77',(#554));
#551=APPLICATION_PROTOCOL_DEFINITION('international standard',
'automotive_design',2009,#552);
#552=APPLICATION_CONTEXT(
'Core Data for Automotive Mechanical Design Process');
#553=PRODUCT_CONTEXT('part definition',#552,'mechanical');
#554=PRODUCT('1M2A','moveo v77','STEP AP214',(#553));
#555=PRESENTATION_STYLE_ASSIGNMENT((#557));
#556=PRESENTATION_STYLE_ASSIGNMENT((#558));
#557=SURFACE_STYLE_USAGE(.BOTH.,#559);
#558=SURFACE_STYLE_USAGE(.BOTH.,#560);
#559=SURFACE_SIDE_STYLE('',(#561));
#560=SURFACE_SIDE_STYLE('',(#562));
#561=SURFACE_STYLE_FILL_AREA(#563);
#562=SURFACE_STYLE_FILL_AREA(#564);
#563=FILL_AREA_STYLE('Steel - Satin',(#565));
#564=FILL_AREA_STYLE('Opaque(202,209,238)',(#566));
#565=FILL_AREA_STYLE_COLOUR('Steel - Satin',#567);
#566=FILL_AREA_STYLE_COLOUR('Opaque(202,209,238)',#568);
#567=COLOUR_RGB('Steel - Satin',0.627450980392157,0.627450980392157,0.627450980392157);
#568=COLOUR_RGB('Opaque(202,209,238)',0.792156862745098,0.819607843137255,
0.933333333333333);
ENDSEC;
END-ISO-10303-21;
