ISO-10303-21;
HEADER;
/* Generated by software containing ST-Developer
 * from STEP Tools, Inc. (www.steptools.com) 
 */

FILE_DESCRIPTION(
/* description */ ('STEP AP214'),
/* implementation_level */ '2;1');

FILE_NAME(
/* name */ 'Tapa 3M1C.step',
/* time_stamp */ '2026-07-03T18:34:15-04:00',
/* author */ (''),
/* organization */ (''),
/* preprocessor_version */ 'ST-DEVELOPER v20.1',
/* originating_system */ 'Autodesk Translation Framework v15.8.0.0',
/* authorisation */ '');

FILE_SCHEMA (('AUTOMOTIVE_DESIGN { 1 0 10303 214 3 1 1 }'));
ENDSEC;

DATA;
#10=MECHANICAL_DESIGN_GEOMETRIC_PRESENTATION_REPRESENTATION('',(#13),#753);
#11=SHAPE_REPRESENTATION_RELATIONSHIP('SRR','None',#760,#12);
#12=ADVANCED_BREP_SHAPE_REPRESENTATION('',(#14),#752);
#13=STYLED_ITEM('',(#770),#14);
#14=MANIFOLD_SOLID_BREP('Tapa 3M1C',#374);
#15=TOROIDAL_SURFACE('',#430,18.0857864376269,1.);
#16=TOROIDAL_SURFACE('',#431,18.0857864376269,1.);
#17=TOROIDAL_SURFACE('',#432,18.0857864376269,1.);
#18=FACE_BOUND('',#81,.T.);
#19=FACE_BOUND('',#82,.T.);
#20=FACE_BOUND('',#84,.T.);
#21=FACE_BOUND('',#85,.T.);
#22=FACE_BOUND('',#86,.T.);
#23=FACE_BOUND('',#88,.T.);
#24=FACE_BOUND('',#90,.T.);
#25=FACE_BOUND('',#92,.T.);
#26=B_SPLINE_CURVE_WITH_KNOTS('',3,(#572,#573,#574,#575,#576,#577,#578,
#579,#580,#581),.UNSPECIFIED.,.F.,.F.,(4,2,2,2,4),(1.51383271752644,1.57900006107706,
1.64416740462768,1.77450209172893,1.8037157578413),.UNSPECIFIED.);
#27=B_SPLINE_CURVE_WITH_KNOTS('',3,(#585,#586,#587,#588,#589,#590,#591,
#592,#593,#594,#595,#596,#597,#598,#599,#600,#601,#602),.UNSPECIFIED.,.F.,
 .F.,(4,2,2,2,2,2,2,2,4),(-1.8037157578413,-1.77450209172893,-1.64416740462768,
-1.57900006107706,-1.51383271752644,-1.44866537397581,-1.38349803042519,
-1.25316334332394,-1.22394967721157),.UNSPECIFIED.);
#28=B_SPLINE_CURVE_WITH_KNOTS('',3,(#606,#607,#608,#609,#610,#611,#612,
#613,#614,#615,#616,#617,#618,#619,#620,#621,#622,#623),.UNSPECIFIED.,.F.,
 .F.,(4,2,2,2,2,2,2,2,4),(-1.8037157578413,-1.77450209172893,-1.64416740462768,
-1.57900006107706,-1.51383271752644,-1.44866537397581,-1.38349803042519,
-1.25316334332394,-1.22394967721157),.UNSPECIFIED.);
#29=B_SPLINE_CURVE_WITH_KNOTS('',3,(#626,#627,#628,#629,#630,#631,#632,
#633,#634,#635),.UNSPECIFIED.,.F.,.F.,(4,2,2,2,4),(1.22394967721135,1.25316334332394,
1.38349803042519,1.44866537397581,1.51383271752644),.UNSPECIFIED.);
#30=B_SPLINE_CURVE_WITH_KNOTS('',3,(#643,#644,#645,#646,#647,#648,#649,
#650),.UNSPECIFIED.,.F.,.F.,(4,2,2,4),(0.462300250960208,0.471660174681118,
0.514948755809577,0.546403967803968),.UNSPECIFIED.);
#31=B_SPLINE_CURVE_WITH_KNOTS('',3,(#652,#653,#654,#655,#656,#657,#658,
#659),.UNSPECIFIED.,.F.,.F.,(4,2,2,4),(0.0845753445507647,0.0989020027493331,
0.147802784981573,0.168404011525194),.UNSPECIFIED.);
#32=B_SPLINE_CURVE_WITH_KNOTS('',3,(#667,#668,#669,#670,#671,#672),
 .UNSPECIFIED.,.F.,.F.,(4,2,4),(0.112724806794856,0.147802784981738,0.168404011525361),
 .UNSPECIFIED.);
#33=B_SPLINE_CURVE_WITH_KNOTS('',3,(#675,#676,#677,#678,#679,#680,#681,
#682),.UNSPECIFIED.,.F.,.F.,(4,2,2,4),(0.462300250960954,0.471660174681887,
0.514948755810456,0.546403967804927),.UNSPECIFIED.);
#34=B_SPLINE_CURVE_WITH_KNOTS('',3,(#683,#684,#685,#686,#687,#688),
 .UNSPECIFIED.,.F.,.F.,(4,2,4),(0.0845753445508284,0.0989020027494183,0.112724806794856),
 .UNSPECIFIED.);
#35=B_SPLINE_CURVE_WITH_KNOTS('',3,(#694,#695,#696,#697),.UNSPECIFIED.,
 .F.,.F.,(4,4),(0.517819643013287,0.54640390570153),.UNSPECIFIED.);
#36=B_SPLINE_CURVE_WITH_KNOTS('',3,(#699,#700,#701,#702,#703,#704,#705,
#706),.UNSPECIFIED.,.F.,.F.,(4,2,2,4),(0.0845753445508245,0.098902002749412,
0.147802784981718,0.168404011525364),.UNSPECIFIED.);
#37=B_SPLINE_CURVE_WITH_KNOTS('',3,(#709,#710,#711,#712,#713,#714,#715,
#716),.UNSPECIFIED.,.F.,.F.,(4,2,2,4),(0.462300250960121,0.471660174681105,
0.514948755809573,0.517819643013287),.UNSPECIFIED.);
#38=CONICAL_SURFACE('',#396,18.5,0.785398163397447);
#39=CYLINDRICAL_SURFACE('',#391,5.);
#40=CYLINDRICAL_SURFACE('',#395,3.);
#41=CYLINDRICAL_SURFACE('',#401,2.85);
#42=CYLINDRICAL_SURFACE('',#405,2.85);
#43=CYLINDRICAL_SURFACE('',#408,2.85);
#44=CYLINDRICAL_SURFACE('',#411,21.5);
#45=CYLINDRICAL_SURFACE('',#413,1.55);
#46=CYLINDRICAL_SURFACE('',#416,1.55);
#47=CYLINDRICAL_SURFACE('',#419,1.55);
#48=FACE_OUTER_BOUND('',#68,.T.);
#49=FACE_OUTER_BOUND('',#69,.T.);
#50=FACE_OUTER_BOUND('',#70,.T.);
#51=FACE_OUTER_BOUND('',#71,.T.);
#52=FACE_OUTER_BOUND('',#72,.T.);
#53=FACE_OUTER_BOUND('',#73,.T.);
#54=FACE_OUTER_BOUND('',#74,.T.);
#55=FACE_OUTER_BOUND('',#75,.T.);
#56=FACE_OUTER_BOUND('',#76,.T.);
#57=FACE_OUTER_BOUND('',#77,.T.);
#58=FACE_OUTER_BOUND('',#78,.T.);
#59=FACE_OUTER_BOUND('',#79,.T.);
#60=FACE_OUTER_BOUND('',#80,.T.);
#61=FACE_OUTER_BOUND('',#83,.T.);
#62=FACE_OUTER_BOUND('',#87,.T.);
#63=FACE_OUTER_BOUND('',#89,.T.);
#64=FACE_OUTER_BOUND('',#91,.T.);
#65=FACE_OUTER_BOUND('',#93,.T.);
#66=FACE_OUTER_BOUND('',#94,.T.);
#67=FACE_OUTER_BOUND('',#95,.T.);
#68=EDGE_LOOP('',(#241,#242,#243,#244));
#69=EDGE_LOOP('',(#245,#246,#247,#248));
#70=EDGE_LOOP('',(#249,#250,#251,#252));
#71=EDGE_LOOP('',(#253,#254,#255,#256));
#72=EDGE_LOOP('',(#257,#258,#259,#260,#261,#262,#263,#264,#265,#266));
#73=EDGE_LOOP('',(#267,#268,#269,#270,#271,#272,#273,#274,#275));
#74=EDGE_LOOP('',(#276,#277,#278,#279,#280,#281,#282,#283));
#75=EDGE_LOOP('',(#284,#285,#286,#287,#288,#289,#290,#291));
#76=EDGE_LOOP('',(#292,#293,#294,#295));
#77=EDGE_LOOP('',(#296,#297,#298,#299));
#78=EDGE_LOOP('',(#300,#301,#302,#303));
#79=EDGE_LOOP('',(#304,#305,#306,#307));
#80=EDGE_LOOP('',(#308,#309,#310,#311,#312,#313,#314));
#81=EDGE_LOOP('',(#315,#316,#317,#318));
#82=EDGE_LOOP('',(#319,#320,#321,#322));
#83=EDGE_LOOP('',(#323));
#84=EDGE_LOOP('',(#324));
#85=EDGE_LOOP('',(#325));
#86=EDGE_LOOP('',(#326));
#87=EDGE_LOOP('',(#327));
#88=EDGE_LOOP('',(#328));
#89=EDGE_LOOP('',(#329));
#90=EDGE_LOOP('',(#330));
#91=EDGE_LOOP('',(#331));
#92=EDGE_LOOP('',(#332));
#93=EDGE_LOOP('',(#333,#334,#335,#336));
#94=EDGE_LOOP('',(#337,#338,#339,#340,#341,#342));
#95=EDGE_LOOP('',(#343,#344,#345,#346));
#96=LINE('',#547,#112);
#97=LINE('',#550,#113);
#98=LINE('',#555,#114);
#99=LINE('',#556,#115);
#100=LINE('',#559,#116);
#101=LINE('',#562,#117);
#102=LINE('',#564,#118);
#103=LINE('',#565,#119);
#104=LINE('',#570,#120);
#105=LINE('',#640,#121);
#106=LINE('',#665,#122);
#107=LINE('',#693,#123);
#108=LINE('',#720,#124);
#109=LINE('',#725,#125);
#110=LINE('',#731,#126);
#111=LINE('',#737,#127);
#112=VECTOR('',#439,10.);
#113=VECTOR('',#442,10.);
#114=VECTOR('',#447,10.);
#115=VECTOR('',#448,10.);
#116=VECTOR('',#451,10.);
#117=VECTOR('',#454,10.);
#118=VECTOR('',#457,10.);
#119=VECTOR('',#458,10.);
#120=VECTOR('',#463,18.5);
#121=VECTOR('',#474,2.85);
#122=VECTOR('',#483,2.85);
#123=VECTOR('',#490,2.85);
#124=VECTOR('',#497,21.5);
#125=VECTOR('',#502,1.55);
#126=VECTOR('',#509,1.55);
#127=VECTOR('',#516,1.55);
#128=CIRCLE('',#389,5.);
#129=CIRCLE('',#390,3.);
#130=CIRCLE('',#392,5.);
#131=CIRCLE('',#394,3.);
#132=CIRCLE('',#397,21.5);
#133=CIRCLE('',#398,18.7928932188135);
#134=CIRCLE('',#399,18.7928932188135);
#135=CIRCLE('',#400,18.7928932188135);
#136=CIRCLE('',#402,2.85);
#137=CIRCLE('',#403,2.85);
#138=CIRCLE('',#404,2.85);
#139=CIRCLE('',#406,2.85);
#140=CIRCLE('',#407,2.85);
#141=CIRCLE('',#409,2.85);
#142=CIRCLE('',#410,2.85);
#143=CIRCLE('',#412,21.5);
#144=CIRCLE('',#414,1.55);
#145=CIRCLE('',#415,1.55);
#146=CIRCLE('',#417,1.55);
#147=CIRCLE('',#418,1.55);
#148=CIRCLE('',#420,1.55);
#149=CIRCLE('',#421,1.55);
#150=CIRCLE('',#423,18.0857864376269);
#151=CIRCLE('',#424,18.0857864376269);
#152=CIRCLE('',#425,18.0857864376269);
#153=VERTEX_POINT('',#543);
#154=VERTEX_POINT('',#544);
#155=VERTEX_POINT('',#546);
#156=VERTEX_POINT('',#548);
#157=VERTEX_POINT('',#552);
#158=VERTEX_POINT('',#553);
#159=VERTEX_POINT('',#558);
#160=VERTEX_POINT('',#560);
#161=VERTEX_POINT('',#567);
#162=VERTEX_POINT('',#569);
#163=VERTEX_POINT('',#571);
#164=VERTEX_POINT('',#582);
#165=VERTEX_POINT('',#584);
#166=VERTEX_POINT('',#603);
#167=VERTEX_POINT('',#605);
#168=VERTEX_POINT('',#624);
#169=VERTEX_POINT('',#637);
#170=VERTEX_POINT('',#639);
#171=VERTEX_POINT('',#641);
#172=VERTEX_POINT('',#651);
#173=VERTEX_POINT('',#662);
#174=VERTEX_POINT('',#664);
#175=VERTEX_POINT('',#666);
#176=VERTEX_POINT('',#673);
#177=VERTEX_POINT('',#690);
#178=VERTEX_POINT('',#692);
#179=VERTEX_POINT('',#698);
#180=VERTEX_POINT('',#707);
#181=VERTEX_POINT('',#718);
#182=VERTEX_POINT('',#722);
#183=VERTEX_POINT('',#724);
#184=VERTEX_POINT('',#728);
#185=VERTEX_POINT('',#730);
#186=VERTEX_POINT('',#734);
#187=VERTEX_POINT('',#736);
#188=EDGE_CURVE('',#153,#154,#128,.T.);
#189=EDGE_CURVE('',#155,#154,#96,.T.);
#190=EDGE_CURVE('',#156,#155,#129,.F.);
#191=EDGE_CURVE('',#153,#156,#97,.T.);
#192=EDGE_CURVE('',#157,#158,#130,.T.);
#193=EDGE_CURVE('',#154,#157,#98,.T.);
#194=EDGE_CURVE('',#158,#153,#99,.T.);
#195=EDGE_CURVE('',#159,#158,#100,.T.);
#196=EDGE_CURVE('',#160,#159,#131,.F.);
#197=EDGE_CURVE('',#157,#160,#101,.T.);
#198=EDGE_CURVE('',#155,#160,#102,.T.);
#199=EDGE_CURVE('',#159,#156,#103,.T.);
#200=EDGE_CURVE('',#161,#161,#132,.T.);
#201=EDGE_CURVE('',#161,#162,#104,.T.);
#202=EDGE_CURVE('',#163,#162,#26,.F.);
#203=EDGE_CURVE('',#163,#164,#133,.T.);
#204=EDGE_CURVE('',#165,#164,#27,.T.);
#205=EDGE_CURVE('',#165,#166,#134,.T.);
#206=EDGE_CURVE('',#167,#166,#28,.T.);
#207=EDGE_CURVE('',#167,#168,#135,.T.);
#208=EDGE_CURVE('',#162,#168,#29,.F.);
#209=EDGE_CURVE('',#169,#169,#136,.T.);
#210=EDGE_CURVE('',#169,#170,#105,.T.);
#211=EDGE_CURVE('',#170,#171,#137,.T.);
#212=EDGE_CURVE('',#171,#163,#30,.T.);
#213=EDGE_CURVE('',#168,#172,#31,.T.);
#214=EDGE_CURVE('',#172,#170,#138,.T.);
#215=EDGE_CURVE('',#173,#173,#139,.T.);
#216=EDGE_CURVE('',#173,#174,#106,.T.);
#217=EDGE_CURVE('',#174,#175,#32,.T.);
#218=EDGE_CURVE('',#175,#176,#140,.T.);
#219=EDGE_CURVE('',#176,#167,#33,.T.);
#220=EDGE_CURVE('',#166,#174,#34,.T.);
#221=EDGE_CURVE('',#177,#177,#141,.T.);
#222=EDGE_CURVE('',#177,#178,#107,.T.);
#223=EDGE_CURVE('',#178,#165,#35,.T.);
#224=EDGE_CURVE('',#164,#179,#36,.T.);
#225=EDGE_CURVE('',#179,#180,#142,.T.);
#226=EDGE_CURVE('',#180,#178,#37,.T.);
#227=EDGE_CURVE('',#181,#181,#143,.T.);
#228=EDGE_CURVE('',#181,#161,#108,.T.);
#229=EDGE_CURVE('',#182,#182,#144,.T.);
#230=EDGE_CURVE('',#182,#183,#109,.T.);
#231=EDGE_CURVE('',#183,#183,#145,.T.);
#232=EDGE_CURVE('',#184,#184,#146,.T.);
#233=EDGE_CURVE('',#184,#185,#110,.T.);
#234=EDGE_CURVE('',#185,#185,#147,.T.);
#235=EDGE_CURVE('',#186,#186,#148,.T.);
#236=EDGE_CURVE('',#186,#187,#111,.T.);
#237=EDGE_CURVE('',#187,#187,#149,.T.);
#238=EDGE_CURVE('',#172,#176,#150,.T.);
#239=EDGE_CURVE('',#175,#180,#151,.T.);
#240=EDGE_CURVE('',#179,#171,#152,.T.);
#241=ORIENTED_EDGE('',*,*,#188,.T.);
#242=ORIENTED_EDGE('',*,*,#189,.F.);
#243=ORIENTED_EDGE('',*,*,#190,.F.);
#244=ORIENTED_EDGE('',*,*,#191,.F.);
#245=ORIENTED_EDGE('',*,*,#192,.F.);
#246=ORIENTED_EDGE('',*,*,#193,.F.);
#247=ORIENTED_EDGE('',*,*,#188,.F.);
#248=ORIENTED_EDGE('',*,*,#194,.F.);
#249=ORIENTED_EDGE('',*,*,#192,.T.);
#250=ORIENTED_EDGE('',*,*,#195,.F.);
#251=ORIENTED_EDGE('',*,*,#196,.F.);
#252=ORIENTED_EDGE('',*,*,#197,.F.);
#253=ORIENTED_EDGE('',*,*,#190,.T.);
#254=ORIENTED_EDGE('',*,*,#198,.T.);
#255=ORIENTED_EDGE('',*,*,#196,.T.);
#256=ORIENTED_EDGE('',*,*,#199,.T.);
#257=ORIENTED_EDGE('',*,*,#200,.F.);
#258=ORIENTED_EDGE('',*,*,#201,.T.);
#259=ORIENTED_EDGE('',*,*,#202,.F.);
#260=ORIENTED_EDGE('',*,*,#203,.T.);
#261=ORIENTED_EDGE('',*,*,#204,.F.);
#262=ORIENTED_EDGE('',*,*,#205,.T.);
#263=ORIENTED_EDGE('',*,*,#206,.F.);
#264=ORIENTED_EDGE('',*,*,#207,.T.);
#265=ORIENTED_EDGE('',*,*,#208,.F.);
#266=ORIENTED_EDGE('',*,*,#201,.F.);
#267=ORIENTED_EDGE('',*,*,#209,.F.);
#268=ORIENTED_EDGE('',*,*,#210,.T.);
#269=ORIENTED_EDGE('',*,*,#211,.T.);
#270=ORIENTED_EDGE('',*,*,#212,.T.);
#271=ORIENTED_EDGE('',*,*,#202,.T.);
#272=ORIENTED_EDGE('',*,*,#208,.T.);
#273=ORIENTED_EDGE('',*,*,#213,.T.);
#274=ORIENTED_EDGE('',*,*,#214,.T.);
#275=ORIENTED_EDGE('',*,*,#210,.F.);
#276=ORIENTED_EDGE('',*,*,#215,.F.);
#277=ORIENTED_EDGE('',*,*,#216,.T.);
#278=ORIENTED_EDGE('',*,*,#217,.T.);
#279=ORIENTED_EDGE('',*,*,#218,.T.);
#280=ORIENTED_EDGE('',*,*,#219,.T.);
#281=ORIENTED_EDGE('',*,*,#206,.T.);
#282=ORIENTED_EDGE('',*,*,#220,.T.);
#283=ORIENTED_EDGE('',*,*,#216,.F.);
#284=ORIENTED_EDGE('',*,*,#221,.F.);
#285=ORIENTED_EDGE('',*,*,#222,.T.);
#286=ORIENTED_EDGE('',*,*,#223,.T.);
#287=ORIENTED_EDGE('',*,*,#204,.T.);
#288=ORIENTED_EDGE('',*,*,#224,.T.);
#289=ORIENTED_EDGE('',*,*,#225,.T.);
#290=ORIENTED_EDGE('',*,*,#226,.T.);
#291=ORIENTED_EDGE('',*,*,#222,.F.);
#292=ORIENTED_EDGE('',*,*,#227,.T.);
#293=ORIENTED_EDGE('',*,*,#228,.T.);
#294=ORIENTED_EDGE('',*,*,#200,.T.);
#295=ORIENTED_EDGE('',*,*,#228,.F.);
#296=ORIENTED_EDGE('',*,*,#229,.T.);
#297=ORIENTED_EDGE('',*,*,#230,.T.);
#298=ORIENTED_EDGE('',*,*,#231,.F.);
#299=ORIENTED_EDGE('',*,*,#230,.F.);
#300=ORIENTED_EDGE('',*,*,#232,.T.);
#301=ORIENTED_EDGE('',*,*,#233,.T.);
#302=ORIENTED_EDGE('',*,*,#234,.F.);
#303=ORIENTED_EDGE('',*,*,#233,.F.);
#304=ORIENTED_EDGE('',*,*,#235,.T.);
#305=ORIENTED_EDGE('',*,*,#236,.T.);
#306=ORIENTED_EDGE('',*,*,#237,.F.);
#307=ORIENTED_EDGE('',*,*,#236,.F.);
#308=ORIENTED_EDGE('',*,*,#214,.F.);
#309=ORIENTED_EDGE('',*,*,#238,.T.);
#310=ORIENTED_EDGE('',*,*,#218,.F.);
#311=ORIENTED_EDGE('',*,*,#239,.T.);
#312=ORIENTED_EDGE('',*,*,#225,.F.);
#313=ORIENTED_EDGE('',*,*,#240,.T.);
#314=ORIENTED_EDGE('',*,*,#211,.F.);
#315=ORIENTED_EDGE('',*,*,#189,.T.);
#316=ORIENTED_EDGE('',*,*,#193,.T.);
#317=ORIENTED_EDGE('',*,*,#197,.T.);
#318=ORIENTED_EDGE('',*,*,#198,.F.);
#319=ORIENTED_EDGE('',*,*,#199,.F.);
#320=ORIENTED_EDGE('',*,*,#195,.T.);
#321=ORIENTED_EDGE('',*,*,#194,.T.);
#322=ORIENTED_EDGE('',*,*,#191,.T.);
#323=ORIENTED_EDGE('',*,*,#227,.F.);
#324=ORIENTED_EDGE('',*,*,#234,.T.);
#325=ORIENTED_EDGE('',*,*,#231,.T.);
#326=ORIENTED_EDGE('',*,*,#237,.T.);
#327=ORIENTED_EDGE('',*,*,#221,.T.);
#328=ORIENTED_EDGE('',*,*,#229,.F.);
#329=ORIENTED_EDGE('',*,*,#215,.T.);
#330=ORIENTED_EDGE('',*,*,#232,.F.);
#331=ORIENTED_EDGE('',*,*,#209,.T.);
#332=ORIENTED_EDGE('',*,*,#235,.F.);
#333=ORIENTED_EDGE('',*,*,#213,.F.);
#334=ORIENTED_EDGE('',*,*,#207,.F.);
#335=ORIENTED_EDGE('',*,*,#219,.F.);
#336=ORIENTED_EDGE('',*,*,#238,.F.);
#337=ORIENTED_EDGE('',*,*,#220,.F.);
#338=ORIENTED_EDGE('',*,*,#205,.F.);
#339=ORIENTED_EDGE('',*,*,#223,.F.);
#340=ORIENTED_EDGE('',*,*,#226,.F.);
#341=ORIENTED_EDGE('',*,*,#239,.F.);
#342=ORIENTED_EDGE('',*,*,#217,.F.);
#343=ORIENTED_EDGE('',*,*,#224,.F.);
#344=ORIENTED_EDGE('',*,*,#203,.F.);
#345=ORIENTED_EDGE('',*,*,#212,.F.);
#346=ORIENTED_EDGE('',*,*,#240,.F.);
#347=PLANE('',#388);
#348=PLANE('',#393);
#349=PLANE('',#422);
#350=PLANE('',#426);
#351=PLANE('',#427);
#352=PLANE('',#428);
#353=PLANE('',#429);
#354=ADVANCED_FACE('',(#48),#347,.F.);
#355=ADVANCED_FACE('',(#49),#39,.F.);
#356=ADVANCED_FACE('',(#50),#348,.F.);
#357=ADVANCED_FACE('',(#51),#40,.T.);
#358=ADVANCED_FACE('',(#52),#38,.T.);
#359=ADVANCED_FACE('',(#53),#41,.F.);
#360=ADVANCED_FACE('',(#54),#42,.F.);
#361=ADVANCED_FACE('',(#55),#43,.F.);
#362=ADVANCED_FACE('',(#56),#44,.T.);
#363=ADVANCED_FACE('',(#57),#45,.F.);
#364=ADVANCED_FACE('',(#58),#46,.F.);
#365=ADVANCED_FACE('',(#59),#47,.F.);
#366=ADVANCED_FACE('',(#60,#18,#19),#349,.T.);
#367=ADVANCED_FACE('',(#61,#20,#21,#22),#350,.F.);
#368=ADVANCED_FACE('',(#62,#23),#351,.T.);
#369=ADVANCED_FACE('',(#63,#24),#352,.T.);
#370=ADVANCED_FACE('',(#64,#25),#353,.T.);
#371=ADVANCED_FACE('',(#65),#15,.T.);
#372=ADVANCED_FACE('',(#66),#16,.T.);
#373=ADVANCED_FACE('',(#67),#17,.T.);
#374=CLOSED_SHELL('',(#354,#355,#356,#357,#358,#359,#360,#361,#362,#363,
#364,#365,#366,#367,#368,#369,#370,#371,#372,#373));
#375=DERIVED_UNIT_ELEMENT(#377,1.);
#376=DERIVED_UNIT_ELEMENT(#755,-3.);
#377=(
MASS_UNIT()
NAMED_UNIT(*)
SI_UNIT(.KILO.,.GRAM.)
);
#378=DERIVED_UNIT((#375,#376));
#379=MEASURE_REPRESENTATION_ITEM('density measure',
POSITIVE_RATIO_MEASURE(7850.),#378);
#380=PROPERTY_DEFINITION_REPRESENTATION(#385,#382);
#381=PROPERTY_DEFINITION_REPRESENTATION(#386,#383);
#382=REPRESENTATION('material name',(#384),#752);
#383=REPRESENTATION('density',(#379),#752);
#384=DESCRIPTIVE_REPRESENTATION_ITEM('Steel','Steel');
#385=PROPERTY_DEFINITION('material property','material name',#762);
#386=PROPERTY_DEFINITION('material property','density of part',#762);
#387=AXIS2_PLACEMENT_3D('',#541,#433,#434);
#388=AXIS2_PLACEMENT_3D('',#542,#435,#436);
#389=AXIS2_PLACEMENT_3D('',#545,#437,#438);
#390=AXIS2_PLACEMENT_3D('',#549,#440,#441);
#391=AXIS2_PLACEMENT_3D('',#551,#443,#444);
#392=AXIS2_PLACEMENT_3D('',#554,#445,#446);
#393=AXIS2_PLACEMENT_3D('',#557,#449,#450);
#394=AXIS2_PLACEMENT_3D('',#561,#452,#453);
#395=AXIS2_PLACEMENT_3D('',#563,#455,#456);
#396=AXIS2_PLACEMENT_3D('',#566,#459,#460);
#397=AXIS2_PLACEMENT_3D('',#568,#461,#462);
#398=AXIS2_PLACEMENT_3D('',#583,#464,#465);
#399=AXIS2_PLACEMENT_3D('',#604,#466,#467);
#400=AXIS2_PLACEMENT_3D('',#625,#468,#469);
#401=AXIS2_PLACEMENT_3D('',#636,#470,#471);
#402=AXIS2_PLACEMENT_3D('',#638,#472,#473);
#403=AXIS2_PLACEMENT_3D('',#642,#475,#476);
#404=AXIS2_PLACEMENT_3D('',#660,#477,#478);
#405=AXIS2_PLACEMENT_3D('',#661,#479,#480);
#406=AXIS2_PLACEMENT_3D('',#663,#481,#482);
#407=AXIS2_PLACEMENT_3D('',#674,#484,#485);
#408=AXIS2_PLACEMENT_3D('',#689,#486,#487);
#409=AXIS2_PLACEMENT_3D('',#691,#488,#489);
#410=AXIS2_PLACEMENT_3D('',#708,#491,#492);
#411=AXIS2_PLACEMENT_3D('',#717,#493,#494);
#412=AXIS2_PLACEMENT_3D('',#719,#495,#496);
#413=AXIS2_PLACEMENT_3D('',#721,#498,#499);
#414=AXIS2_PLACEMENT_3D('',#723,#500,#501);
#415=AXIS2_PLACEMENT_3D('',#726,#503,#504);
#416=AXIS2_PLACEMENT_3D('',#727,#505,#506);
#417=AXIS2_PLACEMENT_3D('',#729,#507,#508);
#418=AXIS2_PLACEMENT_3D('',#732,#510,#511);
#419=AXIS2_PLACEMENT_3D('',#733,#512,#513);
#420=AXIS2_PLACEMENT_3D('',#735,#514,#515);
#421=AXIS2_PLACEMENT_3D('',#738,#517,#518);
#422=AXIS2_PLACEMENT_3D('',#739,#519,#520);
#423=AXIS2_PLACEMENT_3D('',#740,#521,#522);
#424=AXIS2_PLACEMENT_3D('',#741,#523,#524);
#425=AXIS2_PLACEMENT_3D('',#742,#525,#526);
#426=AXIS2_PLACEMENT_3D('',#743,#527,#528);
#427=AXIS2_PLACEMENT_3D('',#744,#529,#530);
#428=AXIS2_PLACEMENT_3D('',#745,#531,#532);
#429=AXIS2_PLACEMENT_3D('',#746,#533,#534);
#430=AXIS2_PLACEMENT_3D('',#747,#535,#536);
#431=AXIS2_PLACEMENT_3D('',#748,#537,#538);
#432=AXIS2_PLACEMENT_3D('',#749,#539,#540);
#433=DIRECTION('axis',(0.,0.,1.));
#434=DIRECTION('refdir',(1.,0.,0.));
#435=DIRECTION('center_axis',(0.,0.,1.));
#436=DIRECTION('ref_axis',(1.,0.,0.));
#437=DIRECTION('center_axis',(0.,0.,-1.));
#438=DIRECTION('ref_axis',(-0.707106781186547,-0.707106781186547,0.));
#439=DIRECTION('',(-1.,0.,0.));
#440=DIRECTION('center_axis',(0.,0.,1.));
#441=DIRECTION('ref_axis',(0.707106781186548,-0.707106781186548,0.));
#442=DIRECTION('',(-1.,0.,0.));
#443=DIRECTION('center_axis',(0.,0.,-1.));
#444=DIRECTION('ref_axis',(-0.707106781186547,-0.707106781186547,0.));
#445=DIRECTION('center_axis',(0.,0.,1.));
#446=DIRECTION('ref_axis',(0.707106781186547,-0.707106781186547,0.));
#447=DIRECTION('',(0.,0.,-1.));
#448=DIRECTION('',(0.,0.,1.));
#449=DIRECTION('center_axis',(0.,0.,-1.));
#450=DIRECTION('ref_axis',(-1.,0.,0.));
#451=DIRECTION('',(1.,0.,0.));
#452=DIRECTION('center_axis',(0.,0.,-1.));
#453=DIRECTION('ref_axis',(-0.707106781186548,-0.707106781186548,0.));
#454=DIRECTION('',(1.,0.,0.));
#455=DIRECTION('center_axis',(0.,0.,-1.));
#456=DIRECTION('ref_axis',(-0.707106781186548,-0.707106781186548,0.));
#457=DIRECTION('',(0.,0.,-1.));
#458=DIRECTION('',(0.,0.,1.));
#459=DIRECTION('center_axis',(0.,-1.,0.));
#460=DIRECTION('ref_axis',(0.,0.,-1.));
#461=DIRECTION('center_axis',(0.,-1.,0.));
#462=DIRECTION('ref_axis',(0.,0.,1.));
#463=DIRECTION('',(8.65956056235492E-17,0.707106781186549,-0.707106781186546));
#464=DIRECTION('center_axis',(0.,-1.,0.));
#465=DIRECTION('ref_axis',(0.,0.,1.));
#466=DIRECTION('center_axis',(0.,-1.,0.));
#467=DIRECTION('ref_axis',(1.77635683940025E-15,0.,1.));
#468=DIRECTION('center_axis',(0.,-1.,0.));
#469=DIRECTION('ref_axis',(0.,0.,1.));
#470=DIRECTION('center_axis',(0.,1.,0.));
#471=DIRECTION('ref_axis',(0.,0.,1.));
#472=DIRECTION('center_axis',(0.,1.,0.));
#473=DIRECTION('ref_axis',(0.,0.,1.));
#474=DIRECTION('',(0.,1.,0.));
#475=DIRECTION('center_axis',(0.,1.,0.));
#476=DIRECTION('ref_axis',(0.,0.,1.));
#477=DIRECTION('center_axis',(0.,1.,0.));
#478=DIRECTION('ref_axis',(0.,0.,1.));
#479=DIRECTION('center_axis',(0.,1.,0.));
#480=DIRECTION('ref_axis',(0.,0.,1.));
#481=DIRECTION('center_axis',(0.,1.,0.));
#482=DIRECTION('ref_axis',(0.,0.,1.));
#483=DIRECTION('',(0.,1.,0.));
#484=DIRECTION('center_axis',(0.,1.,0.));
#485=DIRECTION('ref_axis',(0.,0.,1.));
#486=DIRECTION('center_axis',(0.,1.,0.));
#487=DIRECTION('ref_axis',(0.,0.,1.));
#488=DIRECTION('center_axis',(0.,1.,0.));
#489=DIRECTION('ref_axis',(0.,0.,1.));
#490=DIRECTION('',(0.,1.,0.));
#491=DIRECTION('center_axis',(0.,1.,0.));
#492=DIRECTION('ref_axis',(0.,0.,1.));
#493=DIRECTION('center_axis',(0.,-1.,0.));
#494=DIRECTION('ref_axis',(0.,0.,-1.));
#495=DIRECTION('center_axis',(0.,1.,0.));
#496=DIRECTION('ref_axis',(0.,0.,1.));
#497=DIRECTION('',(0.,1.,0.));
#498=DIRECTION('center_axis',(0.,-1.,0.));
#499=DIRECTION('ref_axis',(0.,0.,-1.));
#500=DIRECTION('center_axis',(0.,1.,0.));
#501=DIRECTION('ref_axis',(0.,0.,1.));
#502=DIRECTION('',(0.,-1.,0.));
#503=DIRECTION('center_axis',(0.,1.,0.));
#504=DIRECTION('ref_axis',(0.,0.,-1.));
#505=DIRECTION('center_axis',(0.,-1.,0.));
#506=DIRECTION('ref_axis',(0.,0.,-1.));
#507=DIRECTION('center_axis',(0.,1.,0.));
#508=DIRECTION('ref_axis',(0.,0.,1.));
#509=DIRECTION('',(0.,-1.,0.));
#510=DIRECTION('center_axis',(0.,1.,0.));
#511=DIRECTION('ref_axis',(0.,0.,1.));
#512=DIRECTION('center_axis',(0.,-1.,0.));
#513=DIRECTION('ref_axis',(0.,0.,-1.));
#514=DIRECTION('center_axis',(0.,1.,0.));
#515=DIRECTION('ref_axis',(0.,0.,1.));
#516=DIRECTION('',(0.,-1.,0.));
#517=DIRECTION('center_axis',(0.,1.,0.));
#518=DIRECTION('ref_axis',(0.,0.,1.));
#519=DIRECTION('center_axis',(0.,1.,0.));
#520=DIRECTION('ref_axis',(0.,0.,1.));
#521=DIRECTION('center_axis',(0.,1.,0.));
#522=DIRECTION('ref_axis',(0.,0.,1.));
#523=DIRECTION('center_axis',(0.,1.,0.));
#524=DIRECTION('ref_axis',(0.,0.,1.));
#525=DIRECTION('center_axis',(0.,1.,0.));
#526=DIRECTION('ref_axis',(0.,0.,1.));
#527=DIRECTION('center_axis',(0.,1.,0.));
#528=DIRECTION('ref_axis',(0.,0.,1.));
#529=DIRECTION('center_axis',(0.,1.,0.));
#530=DIRECTION('ref_axis',(0.,0.,1.));
#531=DIRECTION('center_axis',(0.,1.,0.));
#532=DIRECTION('ref_axis',(0.,0.,1.));
#533=DIRECTION('center_axis',(0.,1.,0.));
#534=DIRECTION('ref_axis',(0.,0.,1.));
#535=DIRECTION('center_axis',(0.,1.,0.));
#536=DIRECTION('ref_axis',(0.,0.,1.));
#537=DIRECTION('center_axis',(0.,1.,0.));
#538=DIRECTION('ref_axis',(1.22464679914735E-16,0.,-1.));
#539=DIRECTION('center_axis',(0.,1.,0.));
#540=DIRECTION('ref_axis',(0.,0.,1.));
#541=CARTESIAN_POINT('',(0.,0.,0.));
#542=CARTESIAN_POINT('Origin',(-5.,3.,2.5));
#543=CARTESIAN_POINT('',(5.,7.99999988079071,2.5));
#544=CARTESIAN_POINT('',(-5.,7.99999988079071,2.5));
#545=CARTESIAN_POINT('Origin',(0.,8.,2.5));
#546=CARTESIAN_POINT('',(-3.,7.99999988079071,2.5000000372529));
#547=CARTESIAN_POINT('',(-2.5,8.,2.5));
#548=CARTESIAN_POINT('',(3.,7.99999988079071,2.5));
#549=CARTESIAN_POINT('Origin',(-5.55111512312578E-16,7.99999988079071,2.5));
#550=CARTESIAN_POINT('',(-2.5,8.,2.5));
#551=CARTESIAN_POINT('Origin',(0.,8.,-1.25));
#552=CARTESIAN_POINT('',(-5.,7.99999988079071,-2.5));
#553=CARTESIAN_POINT('',(5.,7.99999988079071,-2.5));
#554=CARTESIAN_POINT('Origin',(0.,8.,-2.5));
#555=CARTESIAN_POINT('',(-5.,8.,-1.25));
#556=CARTESIAN_POINT('',(5.,8.,1.25));
#557=CARTESIAN_POINT('Origin',(5.,3.,-2.5));
#558=CARTESIAN_POINT('',(3.,7.99999988079071,-2.5));
#559=CARTESIAN_POINT('',(2.5,8.,-2.5));
#560=CARTESIAN_POINT('',(-3.,7.99999988079071,-2.5));
#561=CARTESIAN_POINT('Origin',(5.55111512312578E-16,7.99999988079071,-2.5));
#562=CARTESIAN_POINT('',(2.5,8.,-2.5));
#563=CARTESIAN_POINT('Origin',(5.55111512312578E-16,7.99999988079071,1.19894437295097));
#564=CARTESIAN_POINT('',(-3.,7.99999988079071,2.5000000372529));
#565=CARTESIAN_POINT('',(3.,7.99999988079071,-2.5));
#566=CARTESIAN_POINT('Origin',(0.,8.,0.));
#567=CARTESIAN_POINT('',(-2.63299061816681E-15,4.99999999999999,21.5));
#568=CARTESIAN_POINT('Origin',(0.,4.99999999999999,0.));
#569=CARTESIAN_POINT('',(2.4170577166677E-16,6.65,19.85));
#570=CARTESIAN_POINT('',(-2.2655965784226E-15,8.,18.5));
#571=CARTESIAN_POINT('',(-2.32482649695975,7.70710678118654,18.6485392804037));
#572=CARTESIAN_POINT('Ctrl Pts',(2.91433543964104E-15,6.65,19.85));
#573=CARTESIAN_POINT('Ctrl Pts',(-0.217224478502075,6.65,19.85));
#574=CARTESIAN_POINT('Ctrl Pts',(-0.435807486429247,6.67153622178811,19.8248143473515));
#575=CARTESIAN_POINT('Ctrl Pts',(-0.858097253314707,6.75610558281843,19.7263846694797));
#576=CARTESIAN_POINT('Ctrl Pts',(-1.06181042512866,6.819134008801,19.6531641091249));
#577=CARTESIAN_POINT('Ctrl Pts',(-1.62867574789279,7.05926147506916,19.3762996029784));
#578=CARTESIAN_POINT('Ctrl Pts',(-1.94640826228316,7.29046456520487,19.1124552342534));
#579=CARTESIAN_POINT('Ctrl Pts',(-2.2294664503276,7.59100027327618,18.7771983088111));
#580=CARTESIAN_POINT('Ctrl Pts',(-2.27858619976643,7.64811831021338,18.7137489295884));
#581=CARTESIAN_POINT('Ctrl Pts',(-2.32482649695975,7.70710678118655,18.6485392804037));
#582=CARTESIAN_POINT('',(-17.3125220087814,7.70710678118655,-7.31091083444358));
#583=CARTESIAN_POINT('Origin',(0.,7.70710678118655,0.));
#584=CARTESIAN_POINT('',(-14.9876955118216,7.70710678118655,-11.3376284459602));
#585=CARTESIAN_POINT('Ctrl Pts',(-14.9876955118216,7.70710678118655,-11.3376284459602));
#586=CARTESIAN_POINT('Ctrl Pts',(-15.0672888731841,7.64811831021337,-11.3301879985046));
#587=CARTESIAN_POINT('Ctrl Pts',(-15.1467975221648,7.59100027327618,-11.3193737372744));
#588=CARTESIAN_POINT('Ctrl Pts',(-15.5786676304147,7.29046456520487,-11.2418666183999));
#589=CARTESIAN_POINT('Ctrl Pts',(-15.9660298135712,7.05926147506916,-11.0986243736921));
#590=CARTESIAN_POINT('Ctrl Pts',(-16.4892341706824,6.819134008801,-10.7461368567271));
#591=CARTESIAN_POINT('Ctrl Pts',(-16.6545016219359,6.75610558281842,-10.6063263550281));
#592=CARTESIAN_POINT('Ctrl Pts',(-16.950889106902,6.67153622178811,-10.289827528083));
#593=CARTESIAN_POINT('Ctrl Pts',(-17.08199202587,6.65,-10.1131219167067));
#594=CARTESIAN_POINT('Ctrl Pts',(-17.2992165043721,6.65,-9.73687808329346));
#595=CARTESIAN_POINT('Ctrl Pts',(-17.3866965933312,6.67153622178811,-9.53498681926867));
#596=CARTESIAN_POINT('Ctrl Pts',(-17.5125988752507,6.75610558281842,-9.12005831445175));
#597=CARTESIAN_POINT('Ctrl Pts',(-17.5510445958111,6.819134008801,-8.90702725239798));
#598=CARTESIAN_POINT('Ctrl Pts',(-17.594705561464,7.05926147506916,-8.27767522928651));
#599=CARTESIAN_POINT('Ctrl Pts',(-17.5250758926979,7.29046456520487,-7.87058861585365));
#600=CARTESIAN_POINT('Ctrl Pts',(-17.3762639724924,7.59100027327618,-7.45782457153681));
#601=CARTESIAN_POINT('Ctrl Pts',(-17.3458750729506,7.64811831021337,-7.38356093108389));
#602=CARTESIAN_POINT('Ctrl Pts',(-17.3125220087814,7.70710678118655,-7.31091083444358));
#603=CARTESIAN_POINT('',(14.9876955118216,7.70710678118655,-11.3376284459602));
#604=CARTESIAN_POINT('Origin',(0.,7.70710678118655,0.));
#605=CARTESIAN_POINT('',(17.3125220087814,7.70710678118655,-7.31091083444359));
#606=CARTESIAN_POINT('Ctrl Pts',(17.3125220087814,7.70710678118655,-7.31091083444359));
#607=CARTESIAN_POINT('Ctrl Pts',(17.3458750729506,7.64811831021338,-7.3835609310839));
#608=CARTESIAN_POINT('Ctrl Pts',(17.3762639724924,7.59100027327618,-7.45782457153682));
#609=CARTESIAN_POINT('Ctrl Pts',(17.5250758926979,7.29046456520487,-7.87058861585366));
#610=CARTESIAN_POINT('Ctrl Pts',(17.594705561464,7.05926147506916,-8.27767522928652));
#611=CARTESIAN_POINT('Ctrl Pts',(17.5510445958111,6.819134008801,-8.90702725239799));
#612=CARTESIAN_POINT('Ctrl Pts',(17.5125988752506,6.75610558281842,-9.12005831445176));
#613=CARTESIAN_POINT('Ctrl Pts',(17.3866965933312,6.67153622178811,-9.53498681926868));
#614=CARTESIAN_POINT('Ctrl Pts',(17.2992165043721,6.65,-9.73687808329346));
#615=CARTESIAN_POINT('Ctrl Pts',(17.08199202587,6.65,-10.1131219167067));
#616=CARTESIAN_POINT('Ctrl Pts',(16.950889106902,6.67153622178811,-10.289827528083));
#617=CARTESIAN_POINT('Ctrl Pts',(16.6545016219359,6.75610558281842,-10.6063263550281));
#618=CARTESIAN_POINT('Ctrl Pts',(16.4892341706824,6.819134008801,-10.7461368567271));
#619=CARTESIAN_POINT('Ctrl Pts',(15.9660298135712,7.05926147506915,-11.0986243736921));
#620=CARTESIAN_POINT('Ctrl Pts',(15.5786676304147,7.29046456520487,-11.2418666183999));
#621=CARTESIAN_POINT('Ctrl Pts',(15.1467975221648,7.59100027327618,-11.3193737372744));
#622=CARTESIAN_POINT('Ctrl Pts',(15.0672888731841,7.64811831021337,-11.3301879985046));
#623=CARTESIAN_POINT('Ctrl Pts',(14.9876955118216,7.70710678118655,-11.3376284459602));
#624=CARTESIAN_POINT('',(2.32482649695975,7.70710678118655,18.6485392804037));
#625=CARTESIAN_POINT('Origin',(0.,7.70710678118655,0.));
#626=CARTESIAN_POINT('Ctrl Pts',(2.3248264969608,7.70710678118788,18.6485392804022));
#627=CARTESIAN_POINT('Ctrl Pts',(2.27858619976718,7.64811831021424,18.7137489295874));
#628=CARTESIAN_POINT('Ctrl Pts',(2.22946645032799,7.5910002732766,18.7771983088106));
#629=CARTESIAN_POINT('Ctrl Pts',(1.94640826228317,7.29046456520488,19.1124552342534));
#630=CARTESIAN_POINT('Ctrl Pts',(1.62867574789279,7.05926147506916,19.3762996029784));
#631=CARTESIAN_POINT('Ctrl Pts',(1.06181042512867,6.819134008801,19.6531641091249));
#632=CARTESIAN_POINT('Ctrl Pts',(0.858097253314716,6.75610558281842,19.7263846694797));
#633=CARTESIAN_POINT('Ctrl Pts',(0.435807486429254,6.67153622178811,19.8248143473515));
#634=CARTESIAN_POINT('Ctrl Pts',(0.217224478502082,6.65,19.85));
#635=CARTESIAN_POINT('Ctrl Pts',(2.91433543964104E-15,6.65,19.85));
#636=CARTESIAN_POINT('Origin',(2.0818995585505E-15,5.5,17.));
#637=CARTESIAN_POINT('',(1.7328752207935E-15,5.5,14.15));
#638=CARTESIAN_POINT('Origin',(2.0818995585505E-15,5.5,17.));
#639=CARTESIAN_POINT('',(1.7328752207935E-15,8.,14.15));
#640=CARTESIAN_POINT('',(1.7328752207935E-15,5.5,14.15));
#641=CARTESIAN_POINT('',(-2.71022972636819,8.,17.881563854925));
#642=CARTESIAN_POINT('Origin',(2.0818995585505E-15,8.,17.));
#643=CARTESIAN_POINT('Ctrl Pts',(-2.71022972636819,8.,17.881563854925));
#644=CARTESIAN_POINT('Ctrl Pts',(-2.69957111306997,8.,17.9143320888326));
#645=CARTESIAN_POINT('Ctrl Pts',(-2.68829611285596,7.99857726422439,17.946971706421));
#646=CARTESIAN_POINT('Ctrl Pts',(-2.62157668808188,7.98287167009885,18.1293003461641));
#647=CARTESIAN_POINT('Ctrl Pts',(-2.55464564578667,7.94104987483596,18.2719399478012));
#648=CARTESIAN_POINT('Ctrl Pts',(-2.430164929509,7.83022831982232,18.4927071434962));
#649=CARTESIAN_POINT('Ctrl Pts',(-2.37618302584744,7.77262199837707,18.5761145462349));
#650=CARTESIAN_POINT('Ctrl Pts',(-2.32482649695975,7.70710678118655,18.6485392804037));
#651=CARTESIAN_POINT('',(2.7102297263682,8.,17.881563854925));
#652=CARTESIAN_POINT('Ctrl Pts',(2.32482649695975,7.70710678118655,18.6485392804037));
#653=CARTESIAN_POINT('Ctrl Pts',(2.34870126340602,7.73756367815715,18.614870267901));
#654=CARTESIAN_POINT('Ctrl Pts',(2.37313356903105,7.76627800971273,18.5788603455197));
#655=CARTESIAN_POINT('Ctrl Pts',(2.48149171395092,7.88409627025703,18.4102243983559));
#656=CARTESIAN_POINT('Ctrl Pts',(2.56369577744679,7.94934199658741,18.2576002709491));
#657=CARTESIAN_POINT('Ctrl Pts',(2.66062241471654,7.99317844226574,18.0243026022156));
#658=CARTESIAN_POINT('Ctrl Pts',(2.68687822486892,8.,17.9533543816862));
#659=CARTESIAN_POINT('Ctrl Pts',(2.71022972636819,8.,17.881563854925));
#660=CARTESIAN_POINT('Origin',(2.0818995585505E-15,8.,17.));
#661=CARTESIAN_POINT('Origin',(14.7224318643354,5.5,-8.50000000000007));
#662=CARTESIAN_POINT('',(14.7224318643354,5.5,-11.3500000000001));
#663=CARTESIAN_POINT('Origin',(14.7224318643354,5.5,-8.50000000000007));
#664=CARTESIAN_POINT('',(14.7224318643212,7.86382384115112,-11.3500000000001));
#665=CARTESIAN_POINT('',(14.7224318643354,5.5,-11.3500000000001));
#666=CARTESIAN_POINT('',(14.1307736945745,8.,-11.2879097205892));
#667=CARTESIAN_POINT('Ctrl Pts',(14.7224318643071,7.86382384115112,-11.3500000000001));
#668=CARTESIAN_POINT('Ctrl Pts',(14.6047518886099,7.91817894385997,-11.3499999999989));
#669=CARTESIAN_POINT('Ctrl Pts',(14.4798764370173,7.95806034314071,-11.3425207432521));
#670=CARTESIAN_POINT('Ctrl Pts',(14.2791927316585,7.99317844226572,-11.3163179021307));
#671=CARTESIAN_POINT('Ctrl Pts',(14.2046218652506,7.99999999999998,-11.3035819904549));
#672=CARTESIAN_POINT('Ctrl Pts',(14.1307736945748,8.,-11.2879097205892));
#673=CARTESIAN_POINT('',(16.8410034209427,8.,-6.59365413433597));
#674=CARTESIAN_POINT('Origin',(14.7224318643354,8.,-8.50000000000007));
#675=CARTESIAN_POINT('Ctrl Pts',(16.8410034209427,8.,-6.59365413433597));
#676=CARTESIAN_POINT('Ctrl Pts',(16.8640522372948,8.,-6.61926888117517));
#677=CARTESIAN_POINT('Ctrl Pts',(16.8866814751891,7.99857726422439,-6.64535312658234));
#678=CARTESIAN_POINT('Ctrl Pts',(17.0112229966571,7.98287167009885,-6.79429816323416));
#679=CARTESIAN_POINT('Ctrl Pts',(17.1012869941129,7.94104987483596,-6.92358194698213));
#680=CARTESIAN_POINT('Ctrl Pts',(17.2302366357681,7.83022831982232,-7.14176900740735));
#681=CARTESIAN_POINT('Ctrl Pts',(17.2754786135728,7.77262199837708,-7.23022240869227));
#682=CARTESIAN_POINT('Ctrl Pts',(17.3125220087814,7.70710678118655,-7.31091083444359));
#683=CARTESIAN_POINT('Ctrl Pts',(14.9876955118216,7.70710678118655,-11.3376284459602));
#684=CARTESIAN_POINT('Ctrl Pts',(14.9465999084508,7.73756367815716,-11.3414700939608));
#685=CARTESIAN_POINT('Ctrl Pts',(14.9031982480678,7.76627800971273,-11.3446241301145));
#686=CARTESIAN_POINT('Ctrl Pts',(14.8140574568001,7.81873182809042,-11.3488638309559));
#687=CARTESIAN_POINT('Ctrl Pts',(14.7688047548844,7.84240470662715,-11.3500000000005));
#688=CARTESIAN_POINT('Ctrl Pts',(14.7224318643071,7.86382384115113,-11.3500000000001));
#689=CARTESIAN_POINT('Origin',(-14.7224318643354,5.5,-8.50000000000007));
#690=CARTESIAN_POINT('',(-14.7224318643354,5.5,-11.3500000000001));
#691=CARTESIAN_POINT('Origin',(-14.7224318643354,5.5,-8.50000000000007));
#692=CARTESIAN_POINT('',(-14.7224318643354,7.86382384113805,-11.3500000000001));
#693=CARTESIAN_POINT('',(-14.7224318643354,5.5,-11.3500000000001));
#694=CARTESIAN_POINT('Ctrl Pts',(-14.7224318643354,7.86382384113805,-11.3500000000001));
#695=CARTESIAN_POINT('Ctrl Pts',(-14.8180907495375,7.81964004096608,-11.3500000000001));
#696=CARTESIAN_POINT('Ctrl Pts',(-14.9073642608939,7.76664211909001,-11.345137871889));
#697=CARTESIAN_POINT('Ctrl Pts',(-14.9876955118216,7.70710678118657,-11.3376284459602));
#698=CARTESIAN_POINT('',(-16.8410034209427,8.,-6.59365413433597));
#699=CARTESIAN_POINT('Ctrl Pts',(-17.3125220087814,7.70710678118655,-7.31091083444359));
#700=CARTESIAN_POINT('Ctrl Pts',(-17.2953011718569,7.73756367815716,-7.27340017394037));
#701=CARTESIAN_POINT('Ctrl Pts',(-17.2763318170989,7.76627800971273,-7.2342362154054));
#702=CARTESIAN_POINT('Ctrl Pts',(-17.1844678753238,7.88409627025703,-7.05607733561596));
#703=CARTESIAN_POINT('Ctrl Pts',(-17.0933935355069,7.94934199658741,-6.90857446463082));
#704=CARTESIAN_POINT('Ctrl Pts',(-16.939815146375,7.99317844226574,-6.70798470008508));
#705=CARTESIAN_POINT('Ctrl Pts',(-16.8915000901193,8.,-6.64977239123144));
#706=CARTESIAN_POINT('Ctrl Pts',(-16.8410034209427,8.,-6.59365413433596));
#707=CARTESIAN_POINT('',(-14.1307736945745,8.,-11.2879097205892));
#708=CARTESIAN_POINT('Origin',(-14.7224318643354,8.,-8.50000000000007));
#709=CARTESIAN_POINT('Ctrl Pts',(-14.1307736945737,8.,-11.287909720589));
#710=CARTESIAN_POINT('Ctrl Pts',(-14.1644811242242,8.00000000000002,-11.2950632076575));
#711=CARTESIAN_POINT('Ctrl Pts',(-14.1983853623328,7.99857726422441,-11.3016185798387));
#712=CARTESIAN_POINT('Ctrl Pts',(-14.3896463085752,7.98287167009885,-11.3350021829301));
#713=CARTESIAN_POINT('Ctrl Pts',(-14.5466413483262,7.94104987483596,-11.3483580008192));
#714=CARTESIAN_POINT('Ctrl Pts',(-14.7031521446433,7.87260989011688,-11.3499514130251));
#715=CARTESIAN_POINT('Ctrl Pts',(-14.7128242745772,7.86826148250417,-11.3500000000001));
#716=CARTESIAN_POINT('Ctrl Pts',(-14.7224318643354,7.86382384113805,-11.3500000000001));
#717=CARTESIAN_POINT('Origin',(0.,8.,0.));
#718=CARTESIAN_POINT('',(-2.63299061816681E-15,1.7,21.5));
#719=CARTESIAN_POINT('Origin',(0.,1.7,0.));
#720=CARTESIAN_POINT('',(-2.63299061816681E-15,8.,21.5));
#721=CARTESIAN_POINT('Origin',(-14.7224318643354,8.,-8.50000000000007));
#722=CARTESIAN_POINT('',(-14.7224318643354,5.5,-6.95000000000007));
#723=CARTESIAN_POINT('Origin',(-14.7224318643354,5.5,-8.50000000000007));
#724=CARTESIAN_POINT('',(-14.7224318643354,1.7,-6.95000000000007));
#725=CARTESIAN_POINT('',(-14.7224318643354,8.,-6.95000000000007));
#726=CARTESIAN_POINT('Origin',(-14.7224318643354,1.7,-8.50000000000007));
#727=CARTESIAN_POINT('Origin',(14.7224318643354,8.,-8.50000000000007));
#728=CARTESIAN_POINT('',(14.7224318643354,5.5,-6.95000000000007));
#729=CARTESIAN_POINT('Origin',(14.7224318643354,5.5,-8.50000000000007));
#730=CARTESIAN_POINT('',(14.7224318643354,1.7,-6.95000000000007));
#731=CARTESIAN_POINT('',(14.7224318643354,8.,-6.95000000000007));
#732=CARTESIAN_POINT('Origin',(14.7224318643354,1.7,-8.50000000000007));
#733=CARTESIAN_POINT('Origin',(2.0818995585505E-15,8.,17.));
#734=CARTESIAN_POINT('',(1.89207930468266E-15,5.5,18.55));
#735=CARTESIAN_POINT('Origin',(2.0818995585505E-15,5.5,17.));
#736=CARTESIAN_POINT('',(1.89207930468266E-15,1.7,18.55));
#737=CARTESIAN_POINT('',(1.89207930468266E-15,8.,18.55));
#738=CARTESIAN_POINT('Origin',(2.0818995585505E-15,1.7,17.));
#739=CARTESIAN_POINT('Origin',(0.,8.,0.));
#740=CARTESIAN_POINT('Origin',(0.,8.,0.));
#741=CARTESIAN_POINT('Origin',(0.,8.,0.));
#742=CARTESIAN_POINT('Origin',(0.,8.,0.));
#743=CARTESIAN_POINT('Origin',(0.,1.7,0.));
#744=CARTESIAN_POINT('Origin',(-14.7224318643354,5.5,-8.50000000000007));
#745=CARTESIAN_POINT('Origin',(14.7224318643354,5.5,-8.50000000000007));
#746=CARTESIAN_POINT('Origin',(2.0818995585505E-15,5.5,17.));
#747=CARTESIAN_POINT('Origin',(0.,7.,0.));
#748=CARTESIAN_POINT('Origin',(0.,7.,0.));
#749=CARTESIAN_POINT('Origin',(0.,7.,0.));
#750=UNCERTAINTY_MEASURE_WITH_UNIT(LENGTH_MEASURE(0.01),#754,
'DISTANCE_ACCURACY_VALUE',
'Maximum model space distance between geometric entities at asserted c
onnectivities');
#751=UNCERTAINTY_MEASURE_WITH_UNIT(LENGTH_MEASURE(0.01),#754,
'DISTANCE_ACCURACY_VALUE',
'Maximum model space distance between geometric entities at asserted c
onnectivities');
#752=(
GEOMETRIC_REPRESENTATION_CONTEXT(3)
GLOBAL_UNCERTAINTY_ASSIGNED_CONTEXT((#750))
GLOBAL_UNIT_ASSIGNED_CONTEXT((#754,#756,#757))
REPRESENTATION_CONTEXT('','3D')
);
#753=(
GEOMETRIC_REPRESENTATION_CONTEXT(3)
GLOBAL_UNCERTAINTY_ASSIGNED_CONTEXT((#751))
GLOBAL_UNIT_ASSIGNED_CONTEXT((#754,#756,#757))
REPRESENTATION_CONTEXT('','3D')
);
#754=(
LENGTH_UNIT()
NAMED_UNIT(*)
SI_UNIT(.MILLI.,.METRE.)
);
#755=(
LENGTH_UNIT()
NAMED_UNIT(*)
SI_UNIT($,.METRE.)
);
#756=(
NAMED_UNIT(*)
PLANE_ANGLE_UNIT()
SI_UNIT($,.RADIAN.)
);
#757=(
NAMED_UNIT(*)
SI_UNIT($,.STERADIAN.)
SOLID_ANGLE_UNIT()
);
#758=SHAPE_DEFINITION_REPRESENTATION(#759,#760);
#759=PRODUCT_DEFINITION_SHAPE('',$,#762);
#760=SHAPE_REPRESENTATION('',(#387),#752);
#761=PRODUCT_DEFINITION_CONTEXT('part definition',#766,'design');
#762=PRODUCT_DEFINITION('1M2A','moveo v77',#763,#761);
#763=PRODUCT_DEFINITION_FORMATION('',$,#768);
#764=PRODUCT_RELATED_PRODUCT_CATEGORY('moveo v77','moveo v77',(#768));
#765=APPLICATION_PROTOCOL_DEFINITION('international standard',
'automotive_design',2009,#766);
#766=APPLICATION_CONTEXT(
'Core Data for Automotive Mechanical Design Process');
#767=PRODUCT_CONTEXT('part definition',#766,'mechanical');
#768=PRODUCT('1M2A','moveo v77','STEP AP214',(#767));
#769=PRESENTATION_STYLE_ASSIGNMENT((#771));
#770=PRESENTATION_STYLE_ASSIGNMENT((#772));
#771=SURFACE_STYLE_USAGE(.BOTH.,#773);
#772=SURFACE_STYLE_USAGE(.BOTH.,#774);
#773=SURFACE_SIDE_STYLE('',(#775));
#774=SURFACE_SIDE_STYLE('',(#776));
#775=SURFACE_STYLE_FILL_AREA(#777);
#776=SURFACE_STYLE_FILL_AREA(#778);
#777=FILL_AREA_STYLE('Steel - Satin',(#779));
#778=FILL_AREA_STYLE('Opaque(202,209,238)',(#780));
#779=FILL_AREA_STYLE_COLOUR('Steel - Satin',#781);
#780=FILL_AREA_STYLE_COLOUR('Opaque(202,209,238)',#782);
#781=COLOUR_RGB('Steel - Satin',0.627450980392157,0.627450980392157,0.627450980392157);
#782=COLOUR_RGB('Opaque(202,209,238)',0.792156862745098,0.819607843137255,
0.933333333333333);
ENDSEC;
END-ISO-10303-21;
